<?xml version="1.0" encoding="utf-8"?>
<!-- Generator: Adobe Illustrator 25.2.1, SVG Export Plug-In . SVG Version: 6.00 Build 0)  -->
<svg version="1.1" id="Calque_1" xmlns="http://www.w3.org/2000/svg" xmlns:xlink="http://www.w3.org/1999/xlink" x="0px" y="0px"
	 viewBox="0 0 372 453.1" style="enable-background:new 0 0 372 453.1;" xml:space="preserve">
<style type="text/css">
	.st0{fill:#EC6726;}
	.st1{fill:#82B657;}
	.st2{fill:#ABCC57;}
	.st3{fill:#9FC75C;}
	.st4{fill:#EC646E;}
	.st5{fill:#3FA5A5;}
	.st6{fill:#490F19;}
	.st7{fill:#BE2220;}
	.st8{fill:#A92120;}
	.st9{fill:#008492;}
	.st10{fill:#EAD016;}
	.st11{fill:#DA1315;}
</style>
<g>
	<path class="st0" d="M15.1,96.9c-2.4-4.7-4.4-14.3-5.6-21.6c-0.1-0.6,0.2-0.8,0.8-0.6c1.2,0.5,2.5,1.7,3.5,5.4
		c1.2,4.6,2.5,12.6,4.8,17c1.1,2.1,2.3,3.4,3.6,3c2.6-0.7,2.6-6,0.8-12.6c-1.4-5.2-3.8-15.1-4.6-19.6c-0.1-0.7,0.2-0.8,0.8-0.6
		c1,0.4,2.3,2,3.2,4.7c1.2,3.6,4,15,4.6,20.1c0.6,5.3-1.4,8.5-4.4,9.4C20.4,102.1,17.5,101.5,15.1,96.9z"/>
	<path class="st0" d="M32.8,69.9c1.2-0.6,3.6,0.5,4.2,3c0.5,2.1,0.9,6.1,1.5,8.6c0.7,2.8,2.2,4.4,3.3,3.4c1.3-1.1,1.1-4.7,0.5-8.2
		c-0.1-0.5,0.2-0.6,0.5-0.4c0.5,0.2,1.1,1.1,1.4,2.6c0.6,2.7-0.1,6.1-2,7.6c-2.8,2.1-5.2,0.2-6.6-3.7c-1.6-4.4-1.5-10.5-2.4-10.4
		c-0.4,0.1-1.6,2.5-1.8,6.7c-0.2,3.8,0.9,8.4,2.1,13c0.1,0.4,0,0.7-0.5,0.6c-1.2-0.3-2.3-1.3-3.1-3.6c-1.1-2.8-2.3-9.8-2.7-14.8
		c-0.1-0.6,0.2-0.7,0.7-0.5c1.2,0.6,2.1,1.9,2.7,3.5C30.8,74.2,31.6,70.5,32.8,69.9z"/>
	<path class="st0" d="M53.6,69.9c0.2,2.6,0.4,5.1,0.8,7.3c0.1,0.4-0.2,0.6-0.6,0.5c-0.8-0.4-1.7-1.5-2.2-4.1
		c-0.1-0.7-0.3-1.7-0.4-2.8c-1.1,0-1.7-0.4-2-0.6c-0.5-0.4-0.5-0.6,0.1-0.8c0.5-0.2,1.1-0.5,1.7-0.8c-0.5-7-0.3-17.7,1.3-23.4
		c0.3-0.9,0.6-1.1,1.3-0.7c0.7,0.3,0.8,0.4,1.8,1.1c0.9,0.7,1.4,1.6,1.7,2.9c1,3.7,2.4,8.3,4.3,13c1.3-0.2,2.1,0.3,2.8,1.1
		c0.3,0.3,0.2,0.5-0.2,0.6c-0.5,0.1-1,0.4-1.7,0.7c1,2.2,2.1,4.5,3.3,6.6c0.2,0.4,0.1,0.6-0.3,0.7c-0.9,0.1-2.1-0.6-3.5-2.8
		c-0.5-0.8-1.1-1.8-1.7-3.1C57.8,66.8,55.2,69,53.6,69.9z M59,62.5c-1.9-4.4-4-10-4.7-13.7c-0.6,5-1,11.6-0.8,17.9
		C55.5,65.3,57.4,63.5,59,62.5z"/>
	<path class="st0" d="M61.3,50.8c-0.7-0.4-0.6-0.8,0-1c1-0.5,2-1.1,2.9-1.8c-0.1-2.8-0.1-5.3,0-6.5c0-0.7,0.4-0.9,0.9-0.5
		c1,0.9,1.7,2.3,2,4.8c1.4-0.8,2.3-0.4,2.9,0c0.5,0.4,0.5,0.7,0,1c-0.9,0.3-1.9,1-2.7,1.7c0.1,3.5,0.1,8.5,0.6,12.6
		c0.4,3.6,2.2,5.9,3.7,5.2c1.7-0.8,2.2-4.8,1.9-8.5c0-0.6,0.3-0.9,0.8-0.4c0.5,0.6,0.7,1.4,0.9,2.5c0.2,1.4-0.3,6.3-3.2,7.7
		c-2.4,1.2-5.9-0.8-6.7-6.4c-0.3-2.4-0.7-6.7-0.8-10.7C62.9,51.3,61.8,51.1,61.3,50.8z"/>
	<path class="st0" d="M79.7,62.1c3.1-1.3,4.2-6,4.4-9.5c0-0.4,0.3-0.6,0.6-0.3c0.3,0.3,0.8,1.5,0.6,2.9c-0.3,3.3-2.2,6.6-5,8
		c-4.6,2.4-8.8-2-9-8.5c-0.2-6.5,2.4-10.5,4.9-10.2c1.2,0.2,2.2,0.5,3.2,1.1c1.2,0.7,2.1,3.3,1.6,6.2c-0.6,3.4-2.5,5.7-6.2,4.6
		C75.5,60.8,77.6,62.9,79.7,62.1z M78,51.1c0.3-2.3,0.1-4.9-0.7-5.1c-1.1-0.3-2.9,3.7-2.7,8.4c0,0.3,0,0.6,0.1,0.8
		C77.1,55.7,77.7,53.2,78,51.1z"/>
	<path class="st0" d="M89.5,57.3c1.9-0.6,3.1-4.8,3.2-8.7c0-0.7,0.4-0.9,0.8-0.4c0.5,0.6,0.7,1.6,0.8,2.8c0,1.5-1.1,6.2-4.2,7.4
		c-2.6,1.1-4.9-0.3-6.1-5.3c-1.9-7.9-1-17.4,0.8-23.6c0.3-0.9,0.7-1.2,1.5-0.9c1.6,0.6,2.5,2.1,2.9,4.2c1.1,5.7-0.8,12.6-3,16.5
		C86.6,54.2,87.7,57.9,89.5,57.3z M87.6,32.6c-0.6-0.1-1.3,5.8-1.5,12.3c0,0.8,0,1.6,0,2.4C89.2,40.4,88.3,32.7,87.6,32.6z"/>
	<path class="st0" d="M92.5,50.2c-0.3-3.5,0.1-9.5,0.6-12.3c0.1-0.7,0.3-0.9,0.8-0.6c0.8,0.4,1.9,2.2,1.9,4.7c0,2.2-0.4,5.7-0.4,8.2
		c0.1,2.8,0.9,4.5,2,3.9c1.7-0.8,2.6-4.4,2.5-7.8c0-0.5,0.3-0.5,0.6-0.2c0.6,0.6,0.8,1.5,0.8,2.7c-0.1,3.1-1.7,5.9-3.8,6.7
		C94.7,56.5,92.9,54.1,92.5,50.2z M96.4,35.6c-0.2,0.8-1.4,1.1-2.4,0.2c-1.1-0.9-1.4-2.3-1.1-3.2c0.3-1,1.6-0.9,2.6,0
		C96.5,33.5,96.7,34.8,96.4,35.6z"/>
	<path class="st0" d="M122.5,46.3c-3,0.8-5.2-1.8-5.4-5.6c-0.2-3.2,1.1-7.2,2-9.9c-1.3,1.8-2.9,2.8-4.1,3.2
		c-0.7,8.7-3,15.6-7.6,17.2c-4.9,1.7-8.4-3.1-7.7-9.5c0.6-6.2,3.8-10,6.1-9.4c1.2,0.3,2.1,0.7,3,1.5c1,0.8,1.5,3.5,0.7,6.3
		c-0.9,3.3-3.2,5.2-6.7,3.7c0.1,4.4,2,6.9,4,6.3c4.3-1.2,6.3-9.5,6.6-15.8c-3.5-0.4-1.6-7.5,0-8.1c1.2-0.4,1.7,2.3,1.7,5.5
		c1.3-0.7,2.4-1.8,3.5-3.5c0.3-0.5,0.6-0.8,1-0.5c1.1,0.7,2.8,2.5,2.1,4.3c-1.1,2.9-2,6.5-1.9,9.1c0.1,2.6,1.2,4.2,2.4,3.9
		c1.7-0.5,2.7-4,2.8-7.6c0-0.4,0.3-0.6,0.6-0.2c0.4,0.4,0.8,1.5,0.8,2.9C126.3,43,124.6,45.7,122.5,46.3z M106.7,39
		c0.6-2.2,0.7-4.7,0-5.1c-1.1-0.5-3.4,3.3-3.8,7.9c0,0.3,0,0.6-0.1,0.8C105.2,43.4,106.1,41.1,106.7,39z"/>
	<path class="st0" d="M149.3,32.1c0.1-0.7,0.6-0.6,0.8-0.2c0.2,0.4,0.5,1.5,0.1,3.1c-0.8,3.4-3.2,5.5-6.1,6.4
		c-2.5,0.7-4.3,0.7-6-0.4c-1-0.7-1.6-1.6-2-2.7c-1,4.3-2.1,9.3-2.9,14.7c-0.1,0.4-0.3,0.6-0.7,0.2c-0.8-0.8-1.3-2-1.1-4.9
		c0.3-4.6,3.9-20.3,5.6-24.7c0.3-0.7,0.7-0.7,1-0.2c0.3,0.5,0.6,1.2,0.7,2c1.4-2.1,3.5-3.9,5.6-2.2c2.4,1.9,2.4,6.1,1.7,10.1
		c-0.6,3.2-1.6,5.7-2.9,7.1C147,39.2,148.7,35.4,149.3,32.1z M138.7,39.8c1.5,0.9,3.4-3,4.4-7.7c0.8-3.9,0.4-7.8-0.7-8.1
		c-1.1-0.3-3.1,2.5-4.2,6.3c-0.3,0.9-0.5,1.8-0.8,2.9C136.9,36.3,137.3,39,138.7,39.8z"/>
	<path class="st0" d="M175.8,35.8c-2.6,0.4-3.9-1.3-4-4c-1.1,2.3-2.8,5-5.2,5.1c-2.9,0.1-3.5-3.2-3-6.3c0.2-1.2,0.5-2.6,1-4.1
		c-1.1,0.8-2.3,1.3-3.5,1.3c-0.4,4-2.2,8.8-4.9,10.3c-1.4,0.8-3.5,0.9-5.4-1.3c-2.2-2.4-2.1-6.4-0.9-10.3c1.1-3.4,3.2-6.3,5.6-6.8
		c1.2-0.3,2,0,3,1.2c1.2,1.2,2.3,1.3,2.6,4.7c0,0.3,0,0.6,0,0.9c2.3-0.4,4.2-2.8,5.2-5.5c0.3-0.8,0.8-1.9,1.2-2.7
		c0.3-0.5,0.6-0.6,1-0.2c1.1,1.4,1.2,3.3,0.1,6.2c-1.1,2.9-1.7,4.9-2.2,7.1c-0.5,2.3-0.1,3.9,0.8,3.9c1.6-0.1,3.4-3.5,5-7.8
		c1.9-5,2.6-8.3,3.6-10.4c0.3-0.6,0.6-0.8,1-0.4c0.7,0.7,1.3,2.6,0.7,5.1c-0.6,2.2-2.1,5.8-2.7,8.3c-0.7,2.8-0.2,4.6,1.2,4.3
		c1.6-0.3,3.3-3.6,4.4-7c0.1-0.4,0.5-0.5,0.7-0.1c0.3,0.4,0.4,1.6,0,2.9C180.4,32.8,178.2,35.5,175.8,35.8z M155.1,23.2
		c-0.9,1.2-1.9,2.9-2.5,4.8c-1.2,3.7-1.2,7.9,0,8.8c1.2,0.9,3.5-1.1,4.9-5.5c0.5-1.4,0.7-2.7,0.9-3.9
		C156.9,26.7,155.4,25.1,155.1,23.2z M157.1,23.1c0.1,1.2,0.5,2.3,1.4,3c0.1-1.4,0-2.5-0.2-3.3C157.9,21.3,157.1,21.8,157.1,23.1z"
		/>
	<path class="st0" d="M189.9,17.1c0.5-0.4,0.8-0.5,1.1-0.2c0.9,0.9,2,2.8,0.9,4.4c-1.6,2.5-3.4,5.5-3.9,8c-0.5,2.4,0.2,4.2,1.4,4.1
		c1.6,0,3.3-3,4.4-6.5c0.1-0.4,0.4-0.4,0.6-0.1c0.2,0.5,0.4,1.6,0,2.9c-0.7,2.7-2.9,4.9-5.1,4.9c-2.9,0.1-4.4-2.8-3.6-6.3
		c0.6-3.1,2.7-6.6,4.2-8.8c-1.7,1.5-3.4,2-4.6,2.1c-1.3,3.3-4.7,10.2-5.1,14.4c0,0.4-0.3,0.7-0.7,0.3c-1.3-1.3-1.5-3.4-0.6-5.8
		c0.8-2.1,3.1-6.6,4.5-9.2c-2.5-1.5,0.6-7.2,2.1-7.4c1.3-0.2,1.2,2.5,0.4,5.5C187.1,19.3,188.5,18.5,189.9,17.1z"/>
	<path class="st0" d="M223.8,33.3c-3.2-0.1-4.5-3.2-3.5-6.9c0.8-3.1,3.3-6.6,5-8.8c-1.8,1.3-3.6,1.8-4.9,1.8
		c-2.9,7.6-7.4,14.1-12.5,14.1c-5.2,0.1-7-5.5-4.4-11.4c2.5-5.7,6.6-8.4,8.7-7.1c1.1,0.7,1.8,1.5,2.3,2.5c0.9,1.9-0.7,4.4-1.5,6.8
		c-0.2,0.6-0.3,0.8-0.9,0.5c-1-0.5-1.6-2-1-4c0.5-1.7,1.7-3.7,1.1-4.2c-0.7-0.6-3.7,2.3-5.5,6.6c-2.2,5.2-1.2,8.9,1.2,9
		c4.5,0.2,9-7.1,11.1-13.1c-3.2-1.3,0.7-7.6,2.4-7.7c1.3-0.1,0.9,2.7-0.1,5.8c1.4-0.3,2.9-1,4.4-2.3c0.4-0.4,0.9-0.6,1.2-0.1
		c0.8,1,1.8,3.1,0.6,4.7c-1.9,2.5-3.8,5.6-4.5,8.1c-0.7,2.5-0.2,4.3,1.1,4.4c1.6,0.1,3.7-3,4.9-6.4c0.2-0.4,0.4-0.5,0.6-0.1
		c0.2,0.5,0.3,1.7-0.2,3C228.4,31.3,226,33.4,223.8,33.3z"/>
	<path class="st0" d="M233.9,32.2c3.4,0.3,6.5-3.3,8.3-6.3c0.2-0.4,0.5-0.4,0.7,0.1c0.2,0.4,0,1.7-0.8,2.8c-1.8,2.8-5,4.8-8.1,4.8
		c-5.2,0-6.9-5.8-4-11.7c2.8-5.9,7-8.2,9.1-6.8c1,0.7,1.7,1.4,2.4,2.5c0.7,1.1,0.3,3.9-1.5,6.2c-2.1,2.7-4.8,3.8-7.6,1.1
		C230.8,29.1,231.7,32,233.9,32.2z M237.5,21.7c1.4-1.9,2.3-4.3,1.8-4.8c-0.8-0.8-4.3,1.9-6.3,6.2c-0.1,0.3-0.3,0.5-0.3,0.8
		C234.6,25.3,236.3,23.4,237.5,21.7z M242.8,10.5c-1.5,0.7-3.7,2-4.8,2.4c-0.9,0.3-1.7,0.2-2.1,0c-0.3-0.2-0.4-0.4,0.1-0.7
		c1.1-0.8,2.9-2.1,4-2.6c1.1-0.5,2.3-0.2,2.9,0.2C243.2,10,243.3,10.3,242.8,10.5z"/>
	<path class="st0" d="M262.5,34.9c-3.1-0.4-4.1-3.6-2.9-7.2c1.1-3,3.7-6.3,5.6-8.3c-1.9,1.2-3.7,1.5-5,1.4
		c-3.9,7.8-8.7,13.3-13.6,13c-5.2-0.2-6.6-6-3.5-11.8c2.9-5.5,7.3-7.8,9.2-6.4c1,0.8,1.7,1.4,2.3,2.5c0.6,1.1,0,3.8-1.7,6.1
		c-2.1,2.7-4.9,3.6-7.6,0.9c-1.6,4.1-0.7,7.1,1.3,7.4c4.5,0.5,9.4-6.4,12.1-12.1c-3.1-1.7,1.3-7.5,3.1-7.5c1.3,0,0.7,2.8-0.5,5.7
		c1.4-0.1,2.9-0.8,4.6-1.9c0.5-0.3,0.9-0.5,1.2-0.1c0.8,1.1,1.6,3.3,0.3,4.8c-2.1,2.3-4.4,5.2-5.2,7.7c-0.9,2.5-0.5,4.3,0.7,4.5
		c1.7,0.2,4-2.7,5.5-6c0.2-0.4,0.5-0.4,0.6,0c0.2,0.5,0.2,1.7-0.4,3C267.3,33.2,264.7,35.2,262.5,34.9z M250.7,22.2
		c1.4-1.8,2.4-4.1,1.9-4.7c-0.8-0.9-4.4,1.7-6.5,5.8c-0.1,0.2-0.2,0.5-0.4,0.8C247.6,25.6,249.3,23.8,250.7,22.2z"/>
	<path class="st0" d="M270,33.5c0.4-1.3,1.5-2.1,2.3-1.9c1,0.1,1.4,1.6,0.8,3.2c-0.7,1.7-2.6,2.9-3.9,2.1c-0.3-0.2-0.2-0.5,0.1-0.5
		c0.3-0.1,0.8-0.3,1.2-0.6C270,35.3,269.7,34.5,270,33.5z"/>
</g>
<g>
	<g>
		<path class="st0" d="M35.8,106.7c0-0.7,0.3-0.8,0.7-0.3c0.7,0.7,1.1,1.9,1.2,4.2c0.2,3.5,0.1,9.3,1.4,17.2
			c0.1,0.4,0.1,0.8-0.4,0.9c-1.8,0.3-2.8,0-4.2-2c-1.9-2.6-5.1-8.4-7-13c-0.2-0.5,0-0.8,0.4-0.8c1.9,0.2,3.1,1.4,4.4,3.9
			c1.6,3.2,2.6,5.7,5.3,10C36.5,120.6,35.7,110.9,35.8,106.7z"/>
		<path class="st0" d="M42.1,102.2c0,0.8-1.1,1.4-2.3,0.8c-1.3-0.6-1.9-1.9-1.8-2.9c0.1-1,1.4-1.3,2.5-0.6
			C41.7,100.2,42.2,101.4,42.1,102.2z M41.8,117.3c-1.2-3.3-2.2-9.3-2.4-12.1c0-0.7,0.1-0.9,0.6-0.8c0.9,0.2,2.4,1.6,2.9,4.1
			c0.5,2.1,1,5.7,1.6,8c0.8,2.7,1.9,4.1,2.9,3.3c1.4-1.2,1.5-4.9,0.6-8.2c-0.1-0.5,0.2-0.6,0.5-0.4c0.7,0.4,1.2,1.3,1.5,2.5
			c0.7,3-0.3,6.1-2.1,7.5C45.5,122.9,43.1,121,41.8,117.3z"/>
		<path class="st0" d="M53,94.9c0.1-0.7,0.3-0.7,0.7-0.3c0.6,0.7,0.9,2,0.8,4.3c-0.1,3.5-0.7,9.3-0.1,17.3c0,0.4,0,0.8-0.4,0.8
			c-1.8,0.2-2.8-0.3-4.1-2.4c-1.7-2.8-4.4-8.9-5.9-13.6c-0.1-0.5,0-0.8,0.5-0.8c1.8,0.3,3,1.6,4,4.3c1.4,3.4,2.1,6,4.4,10.4
			C52.4,108.9,52.5,99.2,53,94.9z"/>
		<path class="st0" d="M62.4,91c0.2-0.6,0.5-0.8,0.9-0.6c1.2,0.4,3,1.7,2.8,3.6c-0.4,3-0.6,6.5,0,8.9c0.7,2.4,2,3.7,3,3.1
			c1.4-0.7,1.7-4.2,1.1-7.7c0-0.4,0.1-0.6,0.5-0.3c0.4,0.3,1,1.3,1.3,2.6c0.6,2.8-0.5,5.6-2.4,6.7c-2.6,1.4-5.2-0.6-6.1-4.1
			c-0.8-3.1-0.4-7.1-0.1-9.7c-0.9,2.1-2.2,3.3-3.2,3.9c0.3,3.6,0.3,11.2,1.7,15.2c0.1,0.4,0,0.7-0.5,0.6c-1.7-0.6-2.8-2.4-3.1-5
			c-0.2-2.2-0.1-7.3,0-10.2c-2.9-0.3-2.6-6.8-1.3-7.6c1.1-0.7,2.1,1.8,2.7,4.8C60.9,94.2,61.7,92.9,62.4,91z"/>
		<path class="st0" d="M77.7,101c3.1-1.4,4.1-6,4.2-9.6c0-0.4,0.3-0.6,0.6-0.3c0.3,0.3,0.8,1.5,0.7,2.9c-0.2,3.3-2,6.6-4.8,8.1
			c-4.6,2.5-8.8-1.8-9.2-8.3c-0.4-6.5,2.2-10.5,4.7-10.3c1.2,0.1,2.2,0.4,3.2,1c1.2,0.6,2.2,3.3,1.7,6.2c-0.5,3.4-2.4,5.7-6.1,4.7
			C73.5,99.8,75.7,101.9,77.7,101z M75.8,90.1c0.3-2.3,0-4.9-0.8-5c-1.1-0.3-2.9,3.7-2.6,8.5c0,0.3,0,0.6,0.1,0.8
			C75,94.7,75.5,92.2,75.8,90.1z"/>
		<path class="st0" d="M97.6,91.7c3.2-1.1,4.6-5.6,5.1-9.1c0.1-0.4,0.4-0.5,0.7-0.2c0.3,0.3,0.7,1.5,0.4,2.9
			c-0.5,3.2-2.7,6.4-5.6,7.6c-4.8,2-8.6-2.6-8.4-9.1C90,77.3,93,73.5,95.4,74c1.2,0.3,2.1,0.6,3.1,1.3c1.1,0.7,1.8,3.5,1.1,6.3
			c-0.8,3.3-2.9,5.4-6.6,4.1C93.5,90.1,95.5,92.4,97.6,91.7z M96.7,80.7c0.5-2.3,0.4-4.8-0.3-5.1c-1.1-0.4-3.2,3.4-3.3,8.2
			c0,0.3,0,0.6,0,0.8C95.5,85.2,96.3,82.7,96.7,80.7z"/>
		<path class="st0" d="M100.7,70.7c-0.6-0.5-0.5-0.9,0.1-1c1.1-0.3,2.1-0.8,3.1-1.3c0.4-2.8,0.7-5.2,1.1-6.4
			c0.2-0.7,0.6-0.8,0.9-0.3c0.9,1.1,1.4,2.5,1.2,5.1c1.5-0.6,2.3,0,2.9,0.5c0.5,0.4,0.4,0.8-0.2,1c-0.9,0.2-2,0.7-3,1.2
			c-0.5,3.4-1.2,8.4-1.4,12.6c-0.2,3.6,1.2,6.2,2.9,5.7c1.8-0.5,2.9-4.4,3.2-8.1c0-0.6,0.4-0.8,0.8-0.3c0.4,0.6,0.5,1.5,0.5,2.6
			c-0.1,1.4-1.3,6.1-4.4,7.1c-2.6,0.8-5.8-1.7-5.6-7.3c0.1-2.5,0.4-6.7,0.9-10.7C102.2,71.4,101.1,71.1,100.7,70.7z"/>
		<path class="st0" d="M135.5,73.4c0.1-0.7,0.6-0.6,0.8-0.2c0.2,0.4,0.5,1.5,0.2,3.1c-0.8,3.5-3.1,5.6-5.9,6.5
			c-2.5,0.8-4.3,0.8-6-0.3c-1-0.6-1.7-1.6-2.1-2.7c-0.9,4.3-1.8,9.4-2.5,14.8c-0.1,0.4-0.3,0.6-0.7,0.3c-0.8-0.8-1.3-2-1.2-4.9
			c0.1-4.6,3.4-20.4,4.9-24.8c0.3-0.7,0.6-0.7,1-0.2c0.3,0.5,0.6,1.2,0.7,2c1.3-2.1,3.4-3.9,5.6-2.4c2.5,1.8,2.6,6,2,10
			c-0.5,3.2-1.4,5.7-2.7,7.1C133.4,80.6,135,76.8,135.5,73.4z M125.1,81.4c1.6,0.9,3.3-3,4.2-7.8c0.7-4,0.2-7.8-0.9-8.1
			c-1.1-0.3-3,2.5-4,6.4c-0.2,0.9-0.5,1.8-0.7,2.9C123.3,77.9,123.7,80.7,125.1,81.4z"/>
		<path class="st0" d="M139.8,80.1c-3.7,0.6-5.5-5-3.1-11c2.3-5.8,5.2-8.4,7.2-8.8c1.6-0.3,2.6,1,2.9,2.6c0.4-1.2,0.8-2.2,1-2.7
			c0.2-0.6,0.5-0.8,0.9-0.4c0.8,0.7,1.4,2.6,0.9,5c-0.5,2.2-2,6.1-2.5,8.6c-0.5,2.8-0.1,4.4,1.2,4c2.5-0.7,5.2-6.9,5.9-13.9
			c-3.5-0.8-0.7-7.6,0.9-8c1.2-0.3,1.3,2.4,1,5.7c1.4-0.4,2.8-1.5,4.1-2.9c0.5-0.6,0.8-0.7,1.2-0.3c0.9,0.8,2.3,2.7,1.4,4.5
			c-1.5,2.8-3,6.3-3.2,8.7c-0.3,2.6,0.5,4.3,1.8,4.2c1.7-0.2,3.2-3.5,3.9-7.1c0.1-0.4,0.4-0.5,0.6-0.1c0.3,0.5,0.6,1.6,0.3,3
			c-0.6,2.9-2.6,5.3-4.8,5.6c-3.1,0.4-4.8-2.5-4.5-6.3c0.3-3.1,2.2-6.9,3.5-9.4c-1.6,1.5-3.2,2.3-4.5,2.5
			c-0.9,6.7-3.3,14.2-7.6,15.3c-2.2,0.6-3.7-0.8-4-3.1C143.3,77.7,141.8,79.7,139.8,80.1z M139.7,70.4c-1.5,4.3-1.3,8.3,0.3,8.1
			c1.6-0.2,3.2-3.4,4.6-7.8c1.6-5.4,1.5-8.3,0.3-8.2C143.6,62.7,141.2,66.1,139.7,70.4z"/>
		<path class="st0" d="M165.6,56.1c-0.5-0.6-0.3-0.9,0.3-1c1.1-0.1,2.3-0.3,3.3-0.6c0.9-2.7,1.8-5,2.3-6.1c0.3-0.6,0.7-0.6,1-0.1
			c0.6,1.2,0.8,2.7,0.1,5.2c1.6-0.3,2.3,0.5,2.7,1c0.4,0.5,0.2,0.9-0.4,0.9c-0.9,0-2.2,0.3-3.1,0.6c-1.2,3.3-2.9,8-4,12
			c-0.9,3.5-0.1,6.3,1.6,6.1c1.8-0.1,3.7-3.7,4.8-7.3c0.2-0.6,0.6-0.7,0.9-0.1c0.3,0.7,0.2,1.6-0.1,2.7c-0.4,1.4-2.5,5.8-5.8,6
			c-2.7,0.3-5.3-2.8-4-8.3c0.6-2.4,1.8-6.4,3-10.3C167.1,57.1,166,56.5,165.6,56.1z"/>
		<path class="st0" d="M187.1,54.9c0.3-0.6,0.6-0.8,0.9-0.4c0.7,0.8,1.2,2.7,0.5,5.1c-0.7,2.2-2.3,5.8-3.1,8.3
			c-0.7,2.7-0.6,4.6,0.8,4.4c1.7-0.3,3.6-3.6,4.7-6.9c0.2-0.4,0.4-0.5,0.6-0.1s0.3,1.5-0.1,2.9c-0.8,2.6-3.1,5.4-5.3,5.5
			c-2.2,0.1-3.5-1.2-3.7-3.4c-1.1,2-2.8,3.9-4.7,4.1c-3.8,0.4-5.2-5.3-2.4-11.2c2.7-5.7,5.7-8.1,7.8-8.4c1.8-0.2,2.7,1.2,2.8,3
			C186.4,56.7,186.7,55.7,187.1,54.9z M184.1,57.2c-1.3,0-4,3.3-5.8,7.6c-1.7,4.2-1.8,8.2-0.2,8.1c1.7-0.1,3.5-3.3,5.1-7.5
			C185.2,60,185.3,57.2,184.1,57.2z"/>
		<path class="st0" d="M200,73.6c-1.8,6.3-4.1,13.8-7.3,15.6c-0.8,0.4-1.6,0.4-2.4-0.8c-1-1.3-1.8-2.9-1.3-5.6
			c0.9-4.2,4.2-7.3,8.1-9.4c0.3-1,0.6-2.2,0.9-3.3c-1.1,1.4-2.4,2.5-3.9,2.6c-3.8,0.3-4.9-5.4-2.1-11.1c2.8-5.6,5.9-7.9,8-8.1
			c1.6-0.1,2.6,1.2,2.6,2.8c0.4-1,0.8-1.8,1.2-2.6c0.3-0.7,0.7-0.7,1-0.4c0.7,0.8,1.2,2.7,0.3,5.1c-1,2.8-3.1,8.6-4.5,13.2
			c3.3-2.2,5.3-4.9,6.8-7.5c0.2-0.4,0.6-0.4,0.7,0c0.1,0.4,0,1.4-0.6,2.7C206.1,69.9,203.3,71.9,200,73.6z M191,86.7
			c0.6,0.8,3.5-4.2,5.6-11.4C191.5,79.2,190.2,85.7,191,86.7z M200.8,55.8c-1.3,0-4,3.2-6,7.3c-1.9,4.1-2,8.2-0.4,8.1
			c1.6-0.1,3.5-3.1,5.2-7.3C201.8,58.7,202,55.8,200.8,55.8z"/>
		<path class="st0" d="M228.7,70.8c-3.1,0-4.5-3.1-3.6-6.9c0.7-3.1,3-6.6,4.7-8.9c-1.7,1.4-3.6,1.9-4.8,2c-3,8.2-7.2,14.1-12,14.5
			c-5.2,0.3-7.2-5.3-4.8-11.3c2.3-5.8,6.4-8.6,8.5-7.3c1.1,0.6,1.8,1.3,2.5,2.2c0.7,1.1,0.5,3.8-1.1,6.2c-1.8,2.9-4.5,4.2-7.5,1.7
			c-1.1,4.2,0,7.2,2.1,7.2c4.5,0,8.7-7.4,10.7-13.4c-3.2-1.3,0.5-7.6,2.2-7.8c1.3-0.1,1,2.7,0.1,5.8c1.4-0.3,2.8-1.1,4.4-2.4
			c0.5-0.4,0.8-0.6,1.1-0.2c0.9,1,2,3.1,0.8,4.7c-1.8,2.5-3.8,5.7-4.3,8.2c-0.6,2.6,0,4.4,1.2,4.4c1.7,0,3.7-3.1,4.8-6.6
			c0.1-0.4,0.4-0.5,0.6-0.1c0.2,0.5,0.4,1.7-0.1,3C233.4,68.6,231,70.8,228.7,70.8z M215.6,59.4c1.2-1.9,2-4.4,1.4-4.9
			c-0.9-0.8-4.2,2.2-5.8,6.5c-0.1,0.2-0.2,0.6-0.3,0.8C212.9,63.2,214.5,61.2,215.6,59.4z"/>
	</g>
</g>
<g>
	<path class="st1" d="M114.7,301.5c-1.7,1.2-4.1,1-5.5,2.9c2.4,0.6,4.9,0.2,7.2,1.2c1.9,0.8,3.5,1.7,5.7,1.3
		c-2.8,0.9-6.1,0.9-8.8,3.3c0.8,1.1,2,1.1,3.2,1.1c-0.2,0.2-0.4,0.6-0.6,0.9c0.5,0.1,1,0.8,1.5,0.9c-0.1,0.2-0.1,0.4-0.2,0.7
		l0.1-0.2l0.2,0.7c2.3,1.4,5,1.5,7.7,1.3c5.6-0.6,7.8,8,13.5,6.8c3.5-0.9,6.4,0.7,9.4,2.3c3,1.6,6,3.3,9.5,2.9
		c12.9-1.7,25.2-5.7,37.1-1.7c11.3,3.8,15.4,8.9,25.4,6.6c10.1-2.3-4.6-10.7,7-11.1c30.2-1.2,53.4-10.5,61.3-17.4
		c5.8-4.9,19.1-13.1,20.6-21.2c-5.2,7.1-13.3,11.7-21,15.2c13.7-12.3,28-25.4,36.7-41c-8.9,14-21.4,26-35.6,34.1
		c-14.2,8.1-33.6,18.3-56,12.6c24.6-0.6,44.3-7.6,60.6-19.1c16.2-11.3,29.9-26.8,34-44.2c0.6-2.6,0.9-5.8,0.7-8.4
		c-1.4,18.4-13.9,34.3-29.6,45.8c-15.7,11.6-32.3,15.3-63.1,13.3c-17.9-1.1-44.6-15.3-44.6-15.3c-19.8-1.2-57.1,20.2-77.4,25.2
		C114,301,114.4,301.2,114.7,301.5z"/>
	<path class="st2" d="M169.6,293.4c-38.3-22.1,25.9,6.1,59-15.6c-7.9,5.2-14.3-10.1-18.6-14.3c-20.8-7.4-19.2,14.6-39.6,9.2
		c-4.6-1.2-8.1-3-13.8-4.7c-8.4-2.5-18.8-4.7-24.7-4.5c-12.4,0.4-16.1,4.3-22.7,18.5c6.3,4.4,13.9,4.1,19.8,9.3
		c-2.7,1.9-5.8,4.1-8.9,4.7c2.7,1.2,5.6,3.9,8.3,3.1L169.6,293.4z"/>
	<g>
		<path class="st3" d="M264.9,304.1c1.9-0.9,3.9-2.3,5.3-3.6c-11.4,7.9-28.6,10.1-45.4,9c-16.9-1-35.7-7.1-51.5-14.4
			c-14.8-6.6-27.7-13.6-42-18.2c-3.5-1.9-7-3.6-10.5-5.3c-7.2-3.6-14.2-7-21.8-10c-1.7-0.7-3.7-1.5-5.8-2.3c-2.2-0.8-4.6-1.6-7.2-2
			c-0.2,0-0.4-0.1-0.6-0.1c-1.7-0.7-3.7-1.5-5.8-2.3c-1.7-0.6-3.4-1.2-5.3-1.7c-0.4-0.5-0.9-0.7-1.2-1.3l0-0.3l-0.6,0.4
			c-0.3-0.4-0.2,0.2-0.5,0.1l-1-0.6c-0.1,0.2,0.1,0.3,0.2,0.4c-0.2,0.5-0.5,0.1-0.8-0.1c0.1,0.1,0,0.3,0,0.4
			c-6.3-1-13.5-0.7-22.3,3.6c1.8,2.1,6.1,2.6,7.4,4.9c-2.2,0.5-4.8,1-6.7,0.9c1,0.6,1.6,1.8,3.4,1.8c-1.6,0.1-3.2,0.2-5,1.2
			c0.8,1.2,4.7,0.6,6.5,0.6c1.1,0,7-1.1,7.2-0.2c-3.5,0.8-7.3,1.2-11.1,2.1c0,0-0.1,0-0.1-0.1c0,0,0,0.1,0,0.1
			c-0.2,0-0.3,0.1-0.5,0.1c-0.1,0-0.2,0-0.1,0l0,0c-0.9,0.2-1.8,0.5-2.7,0.7c0.6,0.5,1.5,0.8,1.8,1.5c-2.1,0.5-4.3-0.2-6.4,0.9
			c1.9,1,4.4,1.2,6.2,2.5c1.4,1,2.5,2.1,4.7,2.3c-3,0.1-6.1-0.7-9.7,0.5c0.2,1,1.4,1.3,2.5,1.6c-0.3,0.1-0.7,0.3-0.9,0.5
			c0.4,0.2,0.5,0.8,1,1c-0.2,0.1-0.3,0.3-0.5,0.5l0.2-0.2l21.7,4.7c0,0.1-0.1,0.2,0,0.3l0.6,0c0-0.1,0-0.1,0-0.2l6.3,1.4
			c0.8,1.6,1.6,3.1,4.1,3.2c3,0.1,4.6,1.6,6.3,3.2c1.7,1.5,3.4,3.1,6.2,3.5c10.4,1.4,21.4,1.2,29,5.8c7.2,4.4,12,0.9,19.8,3.9
			c7.9,3.1,9.9,6.7,18,11c9.4,5.1,33.7,3.5,42.8,3.6c6.6,0.1,19.9,1.7,25.5-1.4c-7.5,1.1-15.4,0-22.4-1.6c16-0.1,32.7-0.3,47.3-3.9
			c-13.7,2.8-28.7,3.3-42.6,1.2c-13.9-2-32.4-5.2-43.7-16.9c15.6,7,36.4,12.2,53.5,13.5C234.6,312,252.4,310.4,264.9,304.1z"/>
		<path class="st3" d="M45,279.3l-0.7,0.5C44.6,279.7,44.8,279.5,45,279.3z"/>
		<path class="st3" d="M38.2,265.9c-0.1-0.3-0.4-0.5-0.1-0.8c-0.4-0.1-0.8-0.3-1-0.8c0-0.5-0.5-1.1-0.9-0.9
			c-0.2-0.1-0.1-0.3-0.1-0.4c-0.3,0-0.5-0.1-0.6-0.3c-0.9-0.4-2-0.5-3-1.2l-0.2,0.4l-0.9-0.9c0.1,0.5,0.8,0.9,0.5,1.4
			c-0.4,0.3-0.8-0.1-1.1-0.1l0.4,0.3c-0.4,0.4-1-0.3-1.5,0.1c0.6,0.7,0.1,1.2-0.5,1.5l-1.3,0c0.6,0,1.3,0.4,1.4,1
			c0.3,0.8-0.7,0.3-1,0.6c0.3,0.3,0.8-0.3,1,0.3c-0.2,0.3-0.7,0.5-1.2,0.3l-0.1,0c0.6,0.5,2,0,2.3,1c-0.3,0-0.5,0.4-0.3,0.6
			c0.9,0.1,1.2,0.9,2.1,1l-0.4,0.3c0.7,0.2,1.6,0.1,2.4,0.1c-0.6,0.9,1.3,0.1,1.2,0.9c0.4-0.6,1-0.9,1.4-0.5c0.9-0.5,2-1.4,2-2.6
			c0.4-0.6-0.2-0.7-0.3-1.6L38.2,265.9z"/>
		<path class="st3" d="M32.1,261.3c0.1,0.1,0.2,0.2,0.3,0.3l0-0.1L32.1,261.3z"/>
		<path class="st3" d="M70.1,300.1l0.1,0.1c0,0,0.1,0,0.1,0C70.3,300.2,70.2,300.2,70.1,300.1z"/>
		<path class="st3" d="M75.7,294c-0.5,0.3-1.1-0.1-1.6-0.4l-0.2-0.2c0.4,1-1,0.6-1.6,0.7l-0.4,0c0.2,0.2,0.6,0.2,0.6,0.6l-0.9-0.1
			c0.2,0.1,0.4,0.1,0.5,0.3l-0.3,0.3c0.2,0,0.2,0.2,0.3,0.3c0,0.2-0.2,0.2-0.3,0.3l0.4,0.3c-0.3,0.3-0.7,0.3-0.5,0.9l-1.2,0.1
			l0.3,0.3c-0.2,0.2-0.4,0.3-0.6,0.2l-0.1-0.1l0.2,0.4l-0.9,0c0.1,0.4,1.2,0.7,0.6,1.2l-0.2,0c0.3,0.1,0.5,0.5,0.8,0.8
			c-0.1,0.1-0.2,0.2-0.4,0.2c0.2,0.1,0.6,0.1,0.4,0.6l-0.2,0.1c1.1-0.1,1.3,1,2.3,0.9c0.8,1.1,1.8,0,2.5,0.1c0-0.4,0.4-0.6,0.6-0.9
			l0.1-2.2c-0.4-0.2-0.6-0.7-0.9-1.2c0.6-0.3,1.3-0.8,1.5-1.4C77.2,295.1,76,294.9,75.7,294z"/>
		<path class="st3" d="M27.5,251.5c-1.3-1.2-3.1-0.7-4.5-0.1l-1.9,1.1c0.4,0.2,0.2,0.6-0.1,0.8l-0.7,0.7c1.6,0.4-0.5,1.2-0.2,2.2
			l0.2-0.2c1.1,1.1-0.6,1.6-0.1,2.8l-0.3,0.7c0.5,0.5,1.2,0.1,1.8,0.2l0.1,0.3c-0.2,0.2,1.2-0.5,1.4,0.3c3-0.7-0.3-4.4,3.6-4.3
			C26.8,254.2,28.9,253.3,27.5,251.5z"/>
		<path class="st3" d="M36,288.7l-0.4-0.4c-0.2,0.8-0.7-0.9-1.1,0c-0.4-0.1-0.7-0.4-1.1-0.3c0.2,0.1,0.2,0.3,0.2,0.4
			c-0.2,0.3-0.6,0.1-0.9,0.1l0.1,0.4l-0.6,0.3c0.1,0.1,0.2,0.2,0.2,0.4l-0.4,0.1c-0.2,0.6,0.9,0.6,0.2,1.2c-0.3,0.2,0.6,0.2,0.1,0.5
			c0.6,0,0.5,0.6,0.9,0.8l-0.1,0.1c0.9-0.4,0.7,1.3,2,0.6c0.6,0.7,1.1-0.6,1.6-0.4c0.8-0.9,0.8-1.4,0.4-2.5
			C36.5,289,36.7,289.6,36,288.7z"/>
		<polygon class="st3" points="27.9,286.2 28.2,286.2 27.3,286.1 		"/>
		<path class="st3" d="M52.4,240c0.7,0,1.4-0.6,0.9-1.4c-0.4-0.4-1-0.5-1.5-0.3C51.3,238.5,51.3,240.1,52.4,240z"/>
		<path class="st3" d="M82.2,250.3c0.7,0.1,0.3,1.1,0.9,1.4c0.3,0.3,0.3,0.5,0.1,0.8l-0.2,0.1c0.1,0,0.4,0.1,0.5-0.1
			c0.3,0.2,0.1,0.9,0.7,0.7c0.4,0.4-0.2,0.6-0.3,0.9c0.6,0.1,0.6-0.6,1.2-0.3c0.6,1.3,1.7-0.2,2.3,0.4c0.1,0,0.7,0.1,0.7-0.4
			c0.2,0,0.3,0.2,0.4,0.3c0.6-0.2,0.8-1.4,1.3-1.3c0.4-0.2,0.3-0.6,0.7-0.7c0-0.1-0.1-0.4,0.3-0.6c-0.8-0.5,0.9-0.7,0-1.1
			c-0.1-0.4,0.4-0.5,0.5-0.6c-0.2-0.1-0.6,0.2-0.9-0.1c1-0.8-0.7-0.9-0.3-1.9c-0.2,0.3-0.6,0-0.6-0.3l0-0.3
			c-0.6,0.5-0.9-0.6-1.3-0.6c-0.3-0.2-1.3,0.8-1.9-0.3c-0.5-0.3-0.6,1.4-1.4,0.5l-0.3-0.4c-0.3,0.5,0.6,0.6,0.1,1
			c-0.5,0.2-0.4-0.4-0.8-0.5c0,0.2,0.9,1.2-0.2,1.4l-0.9-0.3c0.1,0.3,0.4,0.7,0.5,1c-0.2,0.7-0.9-0.3-0.8,0.2
			c0.2,0.2,0.7,0.3,0.5,0.7L82.2,250.3z"/>
		<path class="st3" d="M83.1,252.5L83.1,252.5C83,252.5,83,252.5,83.1,252.5z"/>
		<path class="st3" d="M85.2,293.8c0.4,0.4,0,0.7,0.7,0.7c0.1-0.3,0.4-0.4,0.3-0.7C86,293.3,85.4,293.6,85.2,293.8z"/>
		<path class="st3" d="M100.4,256.3c0,0.3,0.1,0.6,0.2,1c0.5,0.6,1.2,0.6,2,0.7c0.9-0.7,1.4-0.8,1.3-1.8c0.5-0.3-0.5-0.7,0.2-0.9
			c-0.3-0.2-0.9-0.3-0.7-0.7c-0.2,0-0.7-0.2-0.8-0.3l0-0.2c-0.2,0-0.3,0.3-0.5,0.2c-0.2-0.7-0.6,0.2-1-0.1c0.1,0.1,0.1,0.3,0.1,0.4
			c-0.1,0.2-0.4,0-0.6,0.1l0.1,0.1l-0.5,0.6l0.2,0.3l-0.4,0.1L100.4,256.3z"/>
		<path class="st3" d="M103.5,254.5c-0.1,0.1-0.1,0.1-0.1,0.2C103.5,254.7,103.5,254.6,103.5,254.5z"/>
		<path class="st3" d="M100.6,254.7C100.6,254.7,100.6,254.7,100.6,254.7l-0.1-0.1L100.6,254.7z"/>
		<path class="st3" d="M110.5,263.5c0.1,0.2,1,0.1,0.8,0.7c0.2-0.1,0.3,0.1,0.4,0.3l0,0.3c0.1-0.3,0.4-0.1,0.5-0.1
			c0.2,0.1,0,0.3,0.1,0.5c0.2-0.2,0.4-0.1,0.5-0.3l0.4,0.3c0-0.2,0.2-0.2,0.3-0.3c0.7,0.6,1-0.5,1.6-0.6c0.6-0.2,0.1-1.2,0.9-1.2
			c-0.9-1,0.5-1.6-0.4-2.9c-0.1,0-0.2-0.1-0.4,0.1c-0.4-0.1-0.2-0.7,0-0.9c-0.3,0-0.4,0.2-0.5,0.3c-0.2-1-1.3-0.4-1.7-0.8
			c0,0.5-0.6,0-0.7,0.3l-0.2-0.3l0.1,0.5c-0.2-0.1-0.5,0.2-0.7-0.3c-0.3,0.6,0,1.4-0.8,1.2c0.3,0.2,0.2,0.5,0.2,0.8
			C109.6,261.6,111.3,262.9,110.5,263.5z"/>
		<path class="st3" d="M47.9,299.6l-0.3-0.3l-0.7,0.6c0.4,0.5-0.5,0.8,0,1.3c0.2,0.1,0.7,0.1,0.6,0.6c0.6-0.1,1.3,0.3,1.6-0.6
			C49.1,300.5,48.9,299.1,47.9,299.6z"/>
		<polygon class="st3" points="51.8,300.9 51.5,300.8 51.5,301 52.7,301.2 51.8,300.8 		"/>
		<path class="st3" d="M59.3,303.3c0.5-0.3,0.6-1.2,0.9-1.7c-0.7-0.5-0.5-1-0.7-1.7c-0.2-0.3-0.8-0.3-0.6-0.8l-0.4,0.4
			c-0.4-0.3-0.1-0.8-0.2-1.2l-0.6,0.5c-0.3-0.6-1.2-0.5-1.6-0.7c-0.6,0.7-1.3-0.3-1.7-0.7c-0.3,0.5,0.8,1.3,0.1,1.9
			c-0.1-0.1-0.1-0.3-0.3-0.3c-0.6,0.6,0.7,1,0,1.4l-1.2-1.1c0.7,1.2,1.7,1.8,1.1,3.2c-0.1-0.1-0.1,0-0.3,0.1
			c0.2,0.1,0.3,0.1,0.5,0.3l-0.6,0.2c0.5,0.1,0.7,0.5,0.9,0.9l-0.1,0.1c0.7,0.8,2,0.8,2.8,0.7c0.6-0.4,1.2-1.2,2.1-0.9
			C59.6,303.5,58.8,303.5,59.3,303.3z"/>
		<polygon class="st3" points="58.3,296.4 58.3,296.8 58.4,296.4 		"/>
		<path class="st3" d="M53.1,243l-0.7,0.3C52.6,243.2,52.9,243.1,53.1,243z"/>
	</g>
	<g>
		<path class="st4" d="M121.6,290.4c0.8,0.6-0.5,0.8-0.6,1.2c0.4,0.1,0.6-0.8,1.1-0.4c0,0.4-0.4,1-1,1l-0.1,0.1
			c0.9,0.1,1.9-1.3,2.9-0.5c-0.3,0.2-0.2,0.7,0.2,0.8c0.9-0.5,1.7,0.1,2.6-0.3l-0.2,0.5c0.8-0.2,1.6-0.9,2.4-1.4
			c0,1.2,1.4-0.7,1.7,0.2c0-0.8,0.5-1.5,1-1.3c0.5-1,1.1-2.7,0.3-3.8c0-0.8-0.6-0.6-1.2-1.3l0,0.3c-0.2-0.2-0.8-0.3-0.6-0.7
			c-0.5,0.2-1,0.2-1.5-0.1c-0.3-0.5-1.1-0.7-1.5-0.3c-0.2,0-0.3-0.2-0.3-0.3c-0.3,0.2-0.5,0.2-0.8,0.1c-1.3,0.3-2.5,1-4.2,0.7l0.5,0
			l0.1,0.5L121,285c0.4,0.4,1.4,0.4,1.4,1c-0.2,0.5-0.8,0.4-1.2,0.6l0.5,0c-0.1,0.6-1.2,0.3-1.4,1.1c1.1,0.3,0.9,1,0.5,1.8l-1.2,0.8
			C120.2,289.9,121.1,289.8,121.6,290.4z"/>
		<path class="st0" d="M182.2,290.2l-0.3,0.1c0.4-0.1,0.8,0.2,1.3,0.3c-0.1,0.2-0.1,0.4-0.3,0.5l-0.2,0c0.2,0.2,0.9-0.5,1,0.3
			l-0.1,0.2c1-0.8,1.9,0.2,2.8-0.6c1.4,0.5,1.7-1.2,2.5-1.5c-0.3-0.4,0.1-0.8,0.1-1.2l-1.3-2.1c-0.5,0-1-0.3-1.6-0.6
			c0.4-0.7,0.7-1.6,0.6-2.3c-0.3-1.5-1.6-0.9-2.4-1.5c-0.3,0.6-1.1,0.6-1.7,0.6l-0.4-0.1c1,0.7-0.6,1.2-1.1,1.7l-0.4,0.2
			c0.3,0.1,0.7-0.2,0.9,0.2l-0.9,0.5c0.2,0,0.4-0.1,0.7,0l0,0.5c0.2-0.2,0.3,0,0.5,0.1c0.1,0.1,0,0.3,0,0.5l0.6,0
			c-0.1,0.5-0.4,0.7,0,1.2l-1.1,0.9l0.5,0.1c0,0.3-0.2,0.5-0.5,0.6l-0.2,0l0.5,0.2l-0.8,0.6C181.3,289.8,182.5,289.3,182.2,290.2z"
			/>
		<path class="st0" d="M110.6,283l0.3,0.2c-0.1,0.3,0.9-1.2,1.6-0.6c2.5-2.6-3.1-4,0.8-6.4c-1.3-1.6,0.1-3.8-2.4-4.6
			c-2-0.3-3.5,1.3-4.4,2.7l-1.1,2.3c0.5-0.1,0.6,0.5,0.4,0.8l-0.2,1.1c1.8-0.6,0.3,1.5,1.2,2.2l0.1-0.3c1.7,0.4,0.4,2,1.7,2.7
			l0.2,0.9C109.5,284.1,110,283.2,110.6,283z"/>
		<path class="st0" d="M140.3,306.4c-0.2,0.4,0.7-0.2,0.4,0.4c0.5-0.3,0.9,0.3,1.3,0.2l0,0.2c0.6-0.9,1.5,0.8,2.3-0.8
			c1.1,0.3,0.6-1.3,1.3-1.4c0.1-1.4-0.1-1.9-1.2-2.7c-1-0.5-0.5,0-1.8-0.4l-0.6-0.1c0.3,1-1.2-0.5-1,0.7c-0.4,0.2-0.9,0.1-1.3,0.4
			c0.2,0,0.3,0.2,0.4,0.3c-0.1,0.4-0.5,0.5-0.7,0.7l0.3,0.3l-0.4,0.6c0.2,0,0.3,0.1,0.4,0.3l-0.3,0.3
			C139.6,306.1,140.6,305.4,140.3,306.4z"/>
		<polygon class="st4" points="133.7,304.4 132.7,304.8 133.3,304.6 		"/>
		<path class="st5" d="M142.1,274.6l0.3,0.5c0.4-0.5,0.7,0.2,1.1,0.3c0.9-0.6,2.4-1.2,2.1-2.3l-1.3-1.3c-0.3,0.5-1.2,0.1-1.8,0.2
			c0.4,0.5-0.8,0.7-0.6,0.8l0.3,0.1c-0.5,0.5-0.5,0.8-0.8,1.6C141.6,274,142.1,274.1,142.1,274.6z"/>
		<polygon class="st4" points="141.8,273.8 141.9,273.9 142.4,273.6 142.3,273.5 		"/>
		<path class="st4" d="M162.1,307c0.5-0.4,1.4-0.5,1.2-1.5c-0.5-0.6-1.5-1.9-2.1-0.8l-0.4-0.1l-0.3,1c0.7,0.2,0,1.1,0.8,1.2
			C161.4,306.7,161.9,306.5,162.1,307z"/>
		<path class="st4" d="M164.1,303.7l0.9-0.2L164.1,303.7z"/>
		<polygon class="st4" points="166.7,303.2 165.5,303.4 165.6,303.5 165.3,303.5 165.5,303.8 		"/>
		<path class="st4" d="M168.7,303.6c-0.1,0-0.1,0.1-0.2,0.2c0.3,0,0.4-0.1,0.7,0l-0.4,0.6c0.6-0.2,1,0.1,1.5,0.3l0,0.2
			c1.2,0.3,2.4-0.4,3.2-1.1c0.3-0.8,0.4-1.9,1.4-2.1c0-0.6-0.7,0-0.5-0.6c0.3-0.6-0.2-1.5-0.2-2.2c-1,0-1.1-0.6-1.7-1.2
			c-0.4-0.1-1,0.3-1.1-0.4l-0.1,0.6c-0.6,0-0.6-0.7-1-1l-0.3,0.9c-0.7-0.4-1.5,0.3-2,0.3c-0.1,1-1.4,0.6-2.1,0.4
			c0,0.6,1.6,0.8,1.3,1.8c-0.2,0-0.3-0.2-0.5-0.1c-0.2,0.9,1.3,0.5,0.8,1.3l-1.8-0.3C167,301.9,168.3,301.9,168.7,303.6z"/>
		<path class="st4" d="M167.3,303.1l0.7,0L167.3,303.1z"/>
		<polygon class="st4" points="169.1,295 169,295.1 169.3,295.5 		"/>
	</g>
	<g>
		<path class="st6" d="M325.6,177.9c0.5,0.2,1,0.4,1.5,0.7c2,0.8,4.3,2.1,6.6,2.1c4.7,0.1,9.9-4.6,11.6-9.2c0.6-1.4,0.9-2.7,0.7-3.9
			c-0.1-1-0.6-1.6-1.3-1.8c-1.4-0.4-2.5,0.9-2.8,2.5c-0.3,1.6,0.2,3.3-0.2,4.9c-0.5,2.4-2.6,4.3-4.8,4.9c-2.1,0.5-4.3,0-6.2-0.7
			c-1.9-0.7-3.8-1.6-5.7-2.7c-0.4-2-1-3.9-1.8-5.7c0.9-2.5,0-6.2-2.5-9.2l0,0c0,0,0,0,0,0c0,0,0,0,0,0l0,0c-2.9-2.7-6.5-3.7-9.1-2.9
			c-1.8-0.9-3.7-1.6-5.6-2.1c-1-1.9-1.8-3.8-2.4-5.8c-0.6-2-1-4.1-0.4-6.2c0.6-2.1,2.6-4.2,5.1-4.5c1.7-0.2,3.2,0.3,4.9,0.1
			c1.7-0.2,3-1.3,2.6-2.7c-0.1-0.6-0.7-1.1-1.7-1.3c-1.1-0.2-2.4,0.1-3.9,0.6c-4.6,1.5-9.6,6.4-9.7,11.1c-0.1,2.2,1.1,4.6,1.8,6.6
			c0.2,0.5,0.4,1,0.6,1.5c-4-0.6-8.1-0.5-12,0.5c6.9,4.2,15.6,11.4,20.8,20.2c3.9,8.6,5,13.9,8.9,20.9
			C324.2,189.8,326,181.9,325.6,177.9z"/>
	</g>
	<path class="st6" d="M252.6,238.8c-41.8,20.9-67.9,21.7-67.9,21.7c9.2,14.6,36,35.7,86.8,9.5c19.8-10.2,50.9-41.3,37.4-77
		C308.9,193,287.9,221.1,252.6,238.8z"/>
	<path class="st7" d="M261.4,230.6c-40.3,27.8-74.6,36.9-74.6,36.9c12,13.8,49.8,33.6,98.8-1c19-13.5,46.6-50.3,26.9-85.2
		C312.4,181.4,295.5,207.1,261.4,230.6z"/>
	<g>
		<path class="st8" d="M261.4,230.6c-37.1,32-65.4,43.5-65.4,43.5c13.4,12.4,57.6,32.2,102.5-7.5c17.5-15.4,37.1-61.1,11.6-94.1
			C310.1,172.5,292.7,203.5,261.4,230.6z"/>
		<g>
			<path class="st9" d="M250,288.7c-1.3-0.3-0.9-1.6-1.3-2.5c0.3-0.1,0.8-0.5,1.2-0.4c0.2-1-0.8-0.5-1.5-0.9
				c-1.2-0.9,1.1-1.5,0.7-1.9c-1.2-0.2-2.3-0.9-3.4-1.7c0.1-0.7,0.1-1.5,0.3-2.4c-0.4-0.6-1.1-0.1-1.6-0.3c0-0.7,0.8-1.7-0.1-2.3
				c-1.3,0.7-1.9-0.5-3-0.6c-1.1-0.1,0.5-2.2-0.3-2c-1,0.2-0.2,1.3-1,1.6c-0.7,0.3-1.5-0.1-2.1-0.2l0-1.4c-1.3,0.8-3.2,1.8-5,2.1
				c-0.1-0.5,0-1.2-0.7-1.3c-0.4,0.5-0.1,1-0.4,1.6c-2.3,0-2.1,3.1-3.9,2.6c-0.9,0.2,0.3,0.8,0.1,1.4c-0.3,1.2-1.1-0.1-1.8,0.3
				c0,0.5,0.6,0.6,0.8,1c0.2,1.7-1.7,0.8-2.4,1.3c0.2,0.7,1.4,0,1.4,0.8c-1.1,0.9-0.5,2.6-2,3.1c1.3-0.1,1.2,1.1,1.7,1.8
				c-0.3,0.1-0.6,0.6-1,0.6c0,0.7,0.6,0.5,1.1,0.4c-0.1,0.2-0.1,0.3-0.2,0.5c9.7,1.5,14.9,0.6,22.8,0
				C248.8,289.3,249.2,288.8,250,288.7z"/>
		</g>
		<path class="st10" d="M281.1,237.9c-2.1-1,0.8-2,0.6-3.1c-1,0-0.8,2.1-2.4,1.4c-0.1-0.9,0.3-2.4,1.6-2.7l0.2-0.2
			c-2,0.3-3.5,3.8-6.2,2.5c0.5-0.5,0.1-1.8-0.7-1.6c-1.8,1.6-3.9,0.8-5.7,2.1l0.2-1.2c-1.7,0.9-3,2.9-4.6,4.3
			c-0.7-2.7-2.7,2.2-3.9,0.5c0.3,1.8-0.2,3.6-1.5,3.5c-0.7,2.6-1,6.5,1.3,8.6c0.5,1.9,1.7,1.1,3.5,2.3l0-0.6
			c0.6,0.4,1.8,0.2,1.7,1.3c1-0.6,2.2-1,3.3-0.5c1,1,2.9,1,3.4-0.1c0.5-0.1,0.7,0.3,0.9,0.5c0.5-0.5,1-0.8,1.7-0.7
			c2.7-1.3,5.1-3.5,8.9-3.8l-1.1,0.3l-0.4-1.2l3.4-0.1c-1.1-0.7-3.2-0.1-3.6-1.6c0.1-1.3,1.5-1.3,2.3-1.9l-1.2,0.2
			c-0.1-1.5,2.5-1.4,2.6-3.1c-2.6-0.1-2.5-1.9-2.1-3.7l2.3-2.4C284.6,238.2,282.6,238.8,281.1,237.9z"/>
		<path class="st0" d="M312.8,199.5c0.1-0.1,0.2-0.4,0.3-0.5c-0.2-0.4-0.5,0-0.8,0c-0.7,0,0-0.9-0.2-0.9c-0.5,0.2-1.1,0.2-1.7,0.2
			c-0.2-0.3-0.3-0.6-0.5-1c-0.3-0.1-0.4,0.3-0.7,0.3c-0.2-0.3-0.1-0.8-0.6-0.8c-0.3,0.6-0.8,0.3-1.3,0.6c-0.4,0.3-0.4-0.9-0.6-0.7
			c-0.3,0.3,0.2,0.5,0.1,0.9c-0.2,0.3-0.6,0.4-0.8,0.5l-0.4-0.5c-0.3,0.7-0.7,1.5-1.3,2.1c-0.2-0.1-0.3-0.5-0.6-0.3
			c0,0.3,0.2,0.4,0.3,0.7c-0.9,0.6,0,1.7-0.8,2c-0.3,0.3,0.3,0.2,0.4,0.5c0.2,0.5-0.4,0.3-0.6,0.6c0.1,0.2,0.4,0.1,0.5,0.2
			c0.5,0.6-0.4,0.7-0.5,1.1c0.2,0.2,0.5-0.3,0.7-0.1c-0.2,0.6,0.5,1.1,0.1,1.7c0.4-0.4,0.7,0.1,1.1,0.2c-0.1,0.1-0.1,0.4-0.2,0.5
			c0.2,0.3,0.3,0,0.5-0.1c0.1,0.3,0.1,0.6,0.2,0.9c0.3,0.2,0.5-0.1,0.8-0.1c0.1,0.4-0.1,0.9,0.5,1.1c0.4-0.6,0.9-0.1,1.5-0.2
			c0.5-0.2,0.2,1.2,0.5,0.9c0.4-0.2-0.1-0.7,0.1-1c0.3-0.2,0.7-0.2,1-0.2l0.3,0.7c0.4-0.6,1.1-1.4,1.9-1.9c0.1,0.2,0.2,0.6,0.6,0.5
			c0.1-0.3-0.2-0.5-0.1-0.9c1-0.4,0.4-1.9,1.3-1.9c0.4-0.3-0.3-0.4-0.3-0.6c-0.1-0.6,0.5-0.1,0.8-0.5c-0.1-0.2-0.4-0.2-0.5-0.4
			c-0.4-0.8,0.6-0.7,0.8-1.1c-0.2-0.3-0.6,0.2-0.8-0.2c0.3-0.6-0.3-1.3,0.3-1.9C313.4,200.3,313.2,199.7,312.8,199.5z"/>
	</g>
	<g>
		<path class="st4" d="M317.1,236.2c-0.1-0.5-0.4,0.1-0.7-0.1c-0.6-0.3,0.1-0.6,0-1c-0.2-0.1-0.4,0.3-0.6,0.3c-0.9,0-0.2-1-0.5-1.4
			c-0.4,0-0.1,0.7-0.5,0.7c-0.4-0.7-1.3-0.5-1.4-1.4c-0.1,0.7-0.7,0.5-1.1,0.7c0-0.2-0.3-0.4-0.2-0.6c-0.5-0.1-0.2,0.5-0.3,0.8
			c-0.3,0.6-0.7-0.5-0.9-0.3c-0.1,0.6-0.3,1.1-0.6,1.6c-0.3-0.2-0.7-0.4-1.2-0.7c-0.4,0.1-0.3,0.6-0.5,0.8c-0.4-0.2-0.7-0.8-1.3-0.5
			c0.1,0.9-0.7,0.9-1,1.4c-0.3,0.6-1.1-0.8-1.2-0.3c-0.1,0.6,0.7,0.4,0.7,0.9c0,0.4-0.4,0.8-0.6,1.1l-0.8-0.3c0.2,0.9,0.3,2.2,0,3.2
			c-0.3-0.1-0.7-0.3-0.9,0c0.2,0.4,0.6,0.3,0.8,0.6c-0.5,1.2,1.2,1.9,0.5,2.7c-0.1,0.5,0.5,0.1,0.8,0.3c0.6,0.5-0.3,0.6-0.2,1
			c0.2,0.1,0.5-0.2,0.7-0.2c1,0.3,0,1.1,0.2,1.6c0.4,0.1,0.3-0.7,0.8-0.6c0.3,0.8,1.3,0.9,1.3,1.8c0.3-0.7,0.9-0.4,1.4-0.5
			c0,0.2,0.2,0.5,0.1,0.7c0.4,0.2,0.4-0.3,0.5-0.6c0.2,0.1,0.5,0.1,0.7,0.2c0.1,0.2,0.2,0.4,0.3,0.3c0-0.1,0.1-0.1,0.1-0.2
			c0.2,0,0.4,0,0.6,0c1.9-3.6,3.6-7.4,5.2-11.4C317.1,236.8,316.9,236.6,317.1,236.2z"/>
	</g>
	<path class="st6" d="M264.8,228.1c-5.8,4.4-11.7,8.7-17.9,12.7c-1.5,1-3.1,2-4.6,3l-4.7,2.8c-1.6,1-3.2,1.8-4.8,2.7
		c-1.6,0.9-3.2,1.8-4.8,2.7c-6.4,3.5-13,6.7-19.7,9.6c-6.7,2.9-13.5,5.6-20.6,7.7l0.4-1.8c3.7,3.2,7.7,6.1,11.9,8.7
		c4.2,2.6,8.5,5,13,7c9,4,18.7,6.6,28.5,7.4c9.8,0.8,19.8-0.3,29.2-3.4c4.7-1.5,9.3-3.4,13.7-5.7c4.4-2.3,8.6-5,12.7-7.8
		c-7.8,6.2-16.6,11.3-26.1,14.7c-9.5,3.3-19.7,4.8-29.7,4.1c-10.1-0.7-20-3.3-29.2-7.3c-9.2-4-17.9-9.4-25.5-16.1l-1.4-1.2l1.8-0.5
		c6.9-2,13.7-4.7,20.4-7.5c6.7-2.9,13.3-5.9,19.8-9.2c6.5-3.3,12.9-6.9,19.1-10.6c3.2-1.8,6.2-3.8,9.3-5.8
		C258.8,232.3,261.8,230.2,264.8,228.1z"/>
	<g>
		<path class="st8" d="M94.2,206c1.1-2.6,1.1-4.2,0.6-5.6c-0.2-0.6-0.7-0.6-1.1,0c-0.8,1.1-2,3.4-3.4,6.1c-1.2,0.1-2.5,0.2-3.8,0.2
			c-0.7-0.1-1,0.3-0.5,1c0.4,0.5,1.4,1.3,2.9,1.3c-1.9,3.9-3.9,8-4.8,10.5c-0.2,0.6-0.4,1.2-0.5,1.8c-2,3.1-5.1,6.5-8.6,6.3
			c-2.4-0.2-3.5-3.3-2-7.8c3.2,2.8,6.2,1.5,8.4-1.4c1.9-2.5,2.3-5.5,1.5-6.7c-0.7-1.1-1.5-1.8-2.7-2.6c-2.3-1.4-6.9,1.1-9.8,7.5
			c-2.9,6.4-1,12.5,4.8,12.4c3.1,0,6.2-1.9,8.2-4.4c0.3,2.7,2,4.3,4,4.3c3.6,0.2,6.6-4.2,7.2-5.6c0.5-1.1,0.7-2,0.5-2.8
			c-0.2-0.7-0.7-0.6-1,0c-1.7,3.7-4.3,7.2-6.3,7.1c-1.9-0.1-2.4-3.2-0.9-6.8c1.7-4.1,4.3-8.9,6.1-12.2c1.1-0.2,2.5-0.3,3.5-0.2
			c0.7,0,0.9-0.3,0.5-0.9C96.6,206.8,95.9,205.9,94.2,206z M73.8,217.8c2.1-4.7,5.9-7.6,6.8-6.8c0.6,0.5-0.4,3.1-1.8,5.2
			c-1.3,1.9-3.2,4-5.4,2.5C73.5,218.4,73.6,218.1,73.8,217.8z"/>
		<path class="st8" d="M240.1,209c0.6-0.7,0.9-2,0.3-3.3c-0.6-1.3-1.9-1.9-2.6-1.1c-0.7,0.8-1,2.3-0.2,3.7
			C238.3,209.5,239.5,209.7,240.1,209z"/>
		<path class="st8" d="M255,220.8c-0.2-0.4-0.5-0.4-0.8-0.1c-1.9,3.3-5.3,7.2-9,7c-2.4-0.2-3.5-3.3-2-7.8c3.2,2.8,6.2,1.5,8.4-1.4
			c1.9-2.5,2.3-5.5,1.5-6.7c-0.7-1.1-1.5-1.8-2.7-2.6c-2.3-1.4-6.9,1.1-9.8,7.5c-0.7,1.5-1.1,3-1.3,4.4c-1.4,3.3-3.8,6.4-5.8,6.5
			c-1.4,0.1-1.5-1.8-0.4-4.7c1-2.5,2.9-5.8,3.8-8c1.1-2.5,0.7-4.6,0.1-5.4c-0.4-0.4-0.7-0.3-1.1,0.3c-1.6,2.5-4.5,8.1-5.7,11.7
			c-1.7,3.2-3.7,6-5.4,6.1c-1.6,0.1-1.9-2.2-0.7-5.1c1-2.6,3.3-6.2,4.2-8.4c1.1-2.6-0.3-5-1.8-5.2c-1.5-0.2-4.6,2.5-6.6,4.8
			c0.5-1.8,0.5-3.5-0.1-4.7c-0.3-0.5-0.6-0.5-1,0c-2.7,4.3-5.9,10.6-7.1,14c-1.6,1.9-3.7,3.7-6.4,5.2c1.9-4.8,4.8-10.8,6.1-13.7
			c1.1-2.4,0.8-4.5,0.1-5.4c-0.3-0.4-0.8-0.4-1.1,0.3c-0.5,0.8-1,1.7-1.5,2.7c0-1.7-0.9-3.3-2.7-3.3c-2.3,0-6,2.2-9.5,7.9
			c-1.2,1.9-1.9,3.9-2.2,5.7c-1.5,2.8-3.5,5.1-5.1,5.2c-1.5,0.1-1.5-2-0.4-4.8c1.1-2.6,3.4-6.3,4.4-8.5c1.1-2.5,0.7-4.6,0.1-5.5
			c-0.3-0.4-0.7-0.3-1.1,0.3c-0.5,0.8-1,1.8-1.6,3c0.1-1.9-0.8-3.6-2.8-3.6c-2.3,0-5.8,2.2-9.5,8c-1.1,1.7-1.8,3.5-2.1,5.1
			c-1.5,3-4.1,6-8.2,6.2c1.7-1.1,3.4-3.5,4.8-6.8c1.7-4,2.7-8.4,0.5-11c-1.9-2.2-4.6-0.8-6.6,1c0-0.8,0-1.6-0.3-2.2
			c-0.2-0.6-0.6-0.7-1.1-0.1c-1.7,2.4-5,8.8-7.7,14.7c-1.3,2.2-2.7,3.8-4,3.8c-1.7,0.1-2.3-2.2-1-5c1.1-2.4,3.3-5.7,4.1-7.9
			c0.9-2.4,0.5-5.3-1.1-5.3c-1.4-0.1-4.5,2.3-6.6,4.5c0.5-2.2-0.2-4.8-1.8-4.8c-1.6-0.1-4.9,2.9-7,5.3c0.7-1.9,0.8-3.9,0.1-5.1
			c-0.3-0.5-0.7-0.5-1,0c-2.3,4-5.3,7.6-8.1,7.7c0.1-0.2,0.1-0.5,0.1-0.8c0.3-3.7-1.1-3.9-2.2-5.4c-0.9-1.3-1.6-1.8-3-1.7
			c-2.7,0.2-5.5,3.1-7.2,6.4c-1,2-1.7,4.1-1.9,6.1c-1.9,2.9-4.9,6.1-8.3,6.1c-2.7-0.1-3.6-4.2-1.1-9.7c2-4.5,5.4-7.6,6.2-7
			c0.6,0.5-0.7,2.7-1.2,4.4c-0.6,2.2,0,3.7,1.1,4.3c0.6,0.3,0.8,0.2,0.9-0.4c0.9-2.7,2.7-5.3,1.8-7.4c-0.5-1.1-1.3-1.9-2.5-2.7
			c-2.3-1.5-6.8,1.2-9.7,7.4c-2.9,6.4-1,12.5,4.7,12.4c3.2,0,6.5-2.1,8.3-4.8c0.2,0.8,0.5,1.6,1,2.3c1.8,2.7,4.1,2.7,5.7,2.1
			c3.3-1.2,6.2-6.3,7.1-10.6c1.6,0.1,2.9-0.3,4.2-1.2c-1.3,2.8-2.4,5.3-2.9,6.9c-0.7,2.5-0.5,4.1,0.4,5c0.5,0.4,0.7,0.2,0.9-0.1
			c1.8-4.6,4-9.2,6.6-12.3c2.9-3.5,5.2-4.8,5.6-4.6c0.9,0.4-4,7.2-5.4,11.2c-1.2,3.5-0.7,5.4,0,6.2c0.4,0.4,0.8,0.3,1-0.3
			c1.9-4.6,4.1-9.3,7.8-13.3c2.9-3.2,4.5-3.8,4.8-3.6c0.7,0.3-3.4,5.7-5,9.9c-1.6,4-0.2,7.4,3.7,7.4c0.9,0,1.7-0.3,2.6-0.7
			c-1,2.2-1.7,4.1-2,5.3c-0.9,3-0.6,4.4,0,5.4c0.3,0.4,0.6,0.3,0.8-0.1c2.2-5.5,4.5-10.5,6.6-14.7c0.1,1.2,0.6,2.4,1.5,3.3
			c1.6,1.6,3.5,2,6.4,1.8c2.8-0.2,5.4-1.4,7.2-3.9c0.4,2.1,1.6,3.5,3.6,3.5c2.2,0,4.2-1.8,5.7-3.8c0,2.3,1.3,3.9,3.7,4.1
			c1.9,0.1,4-1.4,5.4-3.4c0.4,1.9,1.6,3.1,3.5,3.1c1.7,0,3.3-1,4.6-2.5c-0.5,1.1-0.9,2.3-1.3,3.4c-4.5,1.9-8.4,4.9-9.7,9.3
			c-0.9,2.9,0,4.6,0.9,6.1c0.8,1.3,1.7,1.4,2.6,1c3.7-1.6,6.9-9.4,9.4-16c2.6-1,4.9-2.3,6.7-3.9c0,1,0.3,1.8,0.8,2.3
			c0.4,0.4,0.7,0.2,0.9-0.2c1.9-4.6,3.9-9.4,6.6-12.5c2.9-3.5,5.5-4.8,6-4.6c0.8,0.4-3.2,5.6-4.7,10.5c-1.3,4.3-0.4,7.4,3.4,7.4
			c1.9,0,4-1.4,5.4-3.2c0.3,1.8,1.4,3,3.5,3c2.4,0,5-1.8,6.4-4.5c0.7,2.8,2.7,4.6,5.9,4.6c3.5,0,7-2.3,8.9-5.3
			C255,222.5,255.2,221.2,255,220.8z M243.9,218c2.1-4.7,5.9-7.6,6.8-6.8c0.6,0.5-0.4,3.1-1.8,5.2c-1.3,1.9-3.2,4-5.4,2.5
			C243.7,218.6,243.8,218.3,243.9,218z M126.6,221.6c-2.2,4.4-5,6.3-6.2,5.1c-1.2-1.1-0.6-5.6,1.4-9.3c1-1.9,2.3-3.6,3.5-4.7
			c0.1,1.9,1.4,3.8,2.9,4.7C127.9,218.6,127.4,220,126.6,221.6z M128.6,216.1c-0.9-0.8-1.2-2.3-1.1-3.3c0.2-1.5,1.1-1.7,1.4-0.1
			C129,213.5,128.9,214.7,128.6,216.1z M163.5,226.5c-1.3-1.1-1-4.1,0.1-7.2c0.5-1,1-1.9,1.5-2.8c2.1-3.8,4.9-6.3,6-5.7
			c1.1,0.6,0.6,4.7-1.1,8.6C167.9,224.2,164.9,227.8,163.5,226.5z M180.2,227.3c-1.8-0.1-1.2-4.4,1.2-8.6c2.5-4.4,5.8-7.6,7.2-7.4
			c1.3,0.1,0.9,3.2-2,8.6C184.4,224.2,182.1,227.4,180.2,227.3z M193.3,243.6c-0.8-1.2,1.2-7.9,7.1-11.7
			C197.5,239.4,193.9,244.5,193.3,243.6z M198.5,227.4c-1.8-0.1-1.3-4.4,1.1-8.6c2.5-4.3,5.8-7.4,7.2-7.3c1.3,0.1,0.9,3.2-2,8.6
			C202.6,224.4,200.3,227.5,198.5,227.4z"/>
	</g>
	<path class="st6" d="M280.1,186.5c-0.6-2.5-2.2-3.7-2.2-6.3c0-2,5-4.5,5-5.5c0-1.1-1.8-3.1-3.1-3.1c-2,0-5.7,3.3-5.7,6
		c0,1.3,0.6,2.3,1,3.3c-1.8,2-3,3.2-3,3.2c0,0,0,0,0,0s-2,2-4.5,3.9c-0.1,0-0.2,0.1-0.3,0.1c-0.6,0.2-1.1,0.5-1.2,1
		c-1.9,1.3-3.9,2.3-5.4,2.3c-1.7,0-2.7-1.7-2.7-4c0-0.5,0.1-2.2,0.2-2.7c4.2-2.6,8.3-6.5,8.3-8.3c0-0.8-1.1-3.6-3.5-3.6
		c-3.5,0-10.1,6.5-10.6,13.1c-2.9,2.4-7.9,6.4-10.3,6.4c-0.5,0-1.4-0.3-1.4-2.1c0-3.1,1.7-7.6,1.7-7.6c7.3-6.9,19-20.3,19-24.9
		c0-2.1-1.6-4.4-4.1-4.4c-5.3,0-17.4,18.4-20.4,31.6c-2.7,2.4-8.1,8.1-10.3,8.1c-0.5,0-1.4-0.3-1.4-2.1c0-3.1,1.9-8,1.9-8
		c7.6-6.9,18.3-18.7,18.3-23.2c0-2.1-1.6-4.4-4.1-4.4c-5.7,0-16.7,15.4-19.7,28.7c0,0,0,0,0,0s-7.4,7.3-11.4,7.3
		c-1.7,0-2.7-1.7-2.7-4c0-0.5,0.1-2.2,0.2-2.7c4.2-2.6,8.3-6.5,8.3-8.3c0-0.8-1.1-3.6-3.5-3.6c-3.5,0-10.2,6.6-10.6,13.2
		c-2.6,2.3-7.2,5.8-10.6,5.8c-0.5,0-0.8-0.3-0.8-0.8c0-4,6.1-9.3,6.1-10.1c0-1-1.3-3.6-2.7-3.6c-2.7,0-9.8,4.6-12.8,6.8
		c1.7-2.8,3-4.8,3-5.9c0-2-2.3-4.1-3.8-4.1c-0.5,0-0.8,0.3-0.8,0.9c0,2.3-2.9,6.7-5.3,10.4c-2.7,2.3-8.1,6.6-11.5,6.6
		c-0.3,0-0.8-0.1-0.8-1c0-2.9,8.7-12.9,8.7-14.3c0-1.4-1.8-3.6-3.6-3.6c-0.8,0-1.2,0.7-1.4,1.1c-1,2.4-4.2,6.9-6.3,10.7
		c-2.7,2.4-9.8,8.2-14.6,8.2c-1.4,0-2.4-1.1-2.4-3c0-6.4,7.3-13.5,10.9-13.5c0.5,0,0.6,0.4,0.6,0.5c0,0.9-1.1,2.5-2.1,3.5
		c-0.2,0.2-0.2,0.4-0.2,0.5c0,0.1,0.1,0.2,0.2,0.2c0.3,0,1.3-0.2,1.4-0.2c1.4-1.4,2.1-2.9,2.1-4c0-2-2-3.4-3.9-3.4
		c-4.2,0-10.8,5.8-12.9,12.1c-3.2,2.7-9.3,7.4-13.6,7.4c-1.4,0-2.4-1.1-2.4-3c0-6.4,7.3-13.5,10.9-13.5c0.5,0,0.6,0.4,0.6,0.5
		c0,0.9-1.1,2.5-2.1,3.5c-0.2,0.2-0.2,0.4-0.2,0.5c0,0.1,0.1,0.2,0.2,0.2c0.3,0,1.3-0.2,1.4-0.2c1.4-1.4,2.1-2.9,2.1-4
		c0-2-2-3.4-3.9-3.4c-3.2,0-7.8,3.4-10.7,7.8c-0.5,0.1-3.1,0.8-5,0.4c0.2-0.4,0.7-1.6,0.8-4.3c0.1-3.2-2.7-5.4-6.1-5.4
		c-3.9,0-12.4,3.9-13.3,14c-7.3,6.6-16.6,12.3-27.8,12.3c-6.5,0-10.3-2.4-10.3-8.6c0-18.4,30.5-42.1,45.2-42.1
		c2.8,0,4.3,0.9,4.3,2.5c0,5.8-10.2,12.6-15.5,13.4c-0.5,0.1-0.6,0.4-0.6,0.7c0,0.5,2.5,2.1,4.3,2.1c2.1,0,13.3-9.3,13.3-15.1
		c0-3-2.5-7.9-7.9-7.9c-17.4,0-48.4,24-48.4,43.4c0,7.6,8.4,13.8,16,13.8c9.7,0,21.1-7.7,27.4-13.4c0,0.2,0,0.4,0,0.6
		c0,3.5,4.9,5.3,6.7,5.3c1.1,0,5.2-0.7,11.5-10.1c0,0,0.3,0,0.7,0c0,0,0,0,0,0c1.5,0.2,2.8,0.1,3.9-0.1c-1.1,2.1-1.9,4.4-1.9,6.6
		c0,3.6,3,5.4,6.1,5.4c4.4,0,10.9-5,14.3-8c-0.2,0.9-0.3,1.8-0.3,2.6c0,3.6,3,5.4,6.1,5.4c4.6,0,11.5-5.5,14.8-8.4
		c-0.5,1.2-0.9,2.2-0.9,2.9c0,2.4,2.9,4.2,4.1,4.2c3.1,0,8-3.6,11.1-6.2c-1.1,1.7-2,3.1-2,3.5c0,1.6,1.7,3.7,2.5,3.7
		s1.5-3.9,6.2-8.1c4.2-3.8,9.3-6.4,10-6.3c0.1,0,0.2,0.1,0.2,0.2c0,0.5-3.2,4.8-3.2,8.1c0,2.4,2.7,5.1,4.8,5.1
		c2.7,0,7.7-4.1,10.6-6.7c0.1,3.8,2.6,6.1,6.4,6.1c5.3,0,11.8-6.6,13.1-7.9c-0.3,1.8-0.5,3.5-0.5,5.1c0,3.1,2.2,4.6,4.2,4.6
		c2.9,0,8.6-5.7,11.5-8.4c-0.2,1.1-0.3,2.1-0.3,3c0,3.1,2.3,4.8,4.3,4.8c2.9,0,8.7-4.6,11.8-7.3c0.1,3.8,2.5,6.2,6.4,6.2
		c2.4,0,5-1.4,7.3-3c0.6,2,3.4,4.8,6.9,4.8c3.6,0,7.4-3,7.4-6.4c0-0.5-0.1-0.8-0.2-1.1c1.4,0.5,2.1,1.3,2.3,1.3
		c0.4,0,0.9-0.5,0.9-0.8C283.5,187.7,282.5,186.9,280.1,186.5z M264.1,176c0.3,0,0.4,0.3,0.4,0.5c0,1.4-3.1,4.8-6.3,7
		C260.5,178.3,263,176,264.1,176z M258.9,157.1c0.5,0,0.7,0.5,0.7,0.6c0,4.3-10.8,17.1-16.7,22.9C245.3,173.2,255,157.1,258.9,157.1
		z M242.7,159.1c0.5,0,0.7,0.5,0.7,0.6c0,4.3-9.9,15.2-15.7,21C230.1,173.3,238.8,159.1,242.7,159.1z M213.5,176
		c0.3,0,0.4,0.3,0.4,0.5c0,1.4-3.1,4.8-6.3,7C209.9,178.3,212.4,176,213.5,176z M102.5,192.1c-1.1-0.1-2.2-1.5-2.5-3.1
		c-0.3-1.6,0.4-7.4,3.3-10.6c0,0,0,0,0,0c0.7,1.1,3,3.2,9.4,4.4C110.8,187.9,106,192.3,102.5,192.1z M113.3,181.4
		c-1.2-0.4-4.2-1.7-5.9-3c-0.7-0.6-1.2-1.3-1.3-1.9c-0.2-1.3,0.7-3.1,3.2-3.1c2.6,0,3.7,1.4,4.1,3.9
		C113.7,179.6,113.3,181.4,113.3,181.4z M271.4,191c-2.4,0-3.9-0.7-3.9-1.2c0-0.2,0.1-0.4,0.6-0.6c1.2-0.5,3.6-1.6,7.5-2
		C275.1,189.2,273.9,191,271.4,191z M275.8,186.4c-2.1,0.2-4.4,0.7-6.2,1.2c1.5-1.3,2.5-2.4,2.5-2.4c0,0,0,0,0,0
		c0,0,1.4-1.4,3.3-3.5c0.4,1.1,0.5,2,0.5,3.9C275.8,185.8,275.8,186,275.8,186.4z"/>
	<path class="st11" d="M181.8,150.3c0.4-0.1,0.3-0.5,0.4-0.9c-0.8,0.2-1.2,0.6-1.9,0.5l0.9-2.1c-1.5,1-3,0.5-4.6,0.1l0-0.5
		c-3.7,0-6.9,3-8.5,5.6c-0.5,2.5,0,6-2.8,7.4c0.4,1.7,2.2-0.5,1.8,1.4c-0.4,1.9,1.6,4.3,2.3,6.5c3.1-0.6,3.8,1,6,2.3
		c1.2,0.2,2.7-1.5,3.5,0.5l-0.1-1.9c1.8-0.4,2.4,1.6,3.6,2.3l0.2-2.7c2.2,0.7,4.3-2,5.8-2.4c-0.4-3.2,3.8-2.7,5.9-2.6
		c-0.6-1.8-5.2-1.2-5-4.5c0.5,0,1.2,0.4,1.5-0.2c0.1-2.9-4.3-0.5-3.4-3.4l5.6-0.4C188.1,154,184.1,155,181.8,150.3z"/>
</g>
<g>
	<path class="st9" d="M74.9,364.3c2.4-4.8,9-12,14.1-17.3c0.5-0.5,0.8-0.3,0.9,0.3c0.4,1.3,0.1,3.1-2.3,6c-3,3.8-8.7,9.4-10.9,13.9
		c-1,2.2-1.4,3.9-0.3,4.7c2.2,1.7,6.3-1.5,10.6-6.8c3.4-4.2,9.9-12,13.1-15.3c0.5-0.5,0.8-0.3,0.9,0.3c0.2,1.1-0.2,3.1-1.9,5.4
		c-2.2,3.1-9.7,12.1-13.4,15.6c-3.9,3.7-7.7,3.9-10.2,2C73.9,371.6,72.6,369,74.9,364.3z"/>
	<path class="st9" d="M107,361.1c1.3,0.5,2.1,3,0.6,5.1c-1.2,1.8-3.9,4.8-5.3,6.9c-1.6,2.4-1.8,4.6-0.3,4.8c1.7,0.2,4.2-2.3,6.4-5.2
		c0.3-0.4,0.6-0.3,0.7,0.1c0.2,0.6-0.1,1.6-0.9,2.8c-1.6,2.3-4.6,4.1-6.9,3.6c-3.4-0.7-3.6-3.6-1.7-7.3c2.2-4.2,6.7-8.2,6.1-8.7
		c-0.4-0.3-2.9,0.5-6.2,3.2c-2.9,2.4-5.6,6.4-8.2,10.3c-0.2,0.4-0.5,0.5-0.8,0c-0.6-1.1-0.6-2.6,0.5-4.7c1.4-2.7,5.7-8.3,9.1-12
		c0.4-0.4,0.7-0.3,0.8,0.2c0.4,1.2,0,2.8-0.7,4.3C102.5,362.5,105.8,360.6,107,361.1z"/>
	<path class="st9" d="M112.9,379.8c3.3,0.7,6.9-2.4,9.1-5.1c0.3-0.3,0.6-0.3,0.7,0.2c0.1,0.4-0.2,1.6-1.2,2.7
		c-2.2,2.5-5.6,4.1-8.7,3.6c-5.1-0.8-6-6.7-2.4-12.1c3.6-5.4,8.1-7.1,9.9-5.4c0.9,0.8,1.5,1.6,2,2.8c0.5,1.2-0.2,3.9-2.3,6
		c-2.4,2.4-5.3,3.1-7.7,0.1C110.3,376.3,110.8,379.3,112.9,379.8z M118,369.9c1.6-1.7,2.9-3.9,2.4-4.5c-0.7-0.9-4.5,1.3-7.1,5.2
		c-0.2,0.3-0.3,0.5-0.5,0.7C114.6,373.1,116.5,371.5,118,369.9z"/>
	<path class="st9" d="M136,384.2c-2.2-0.2-3.4-1.6-3.9-3.7c-0.5,0.9-1,2-1.5,2.9c-0.2,0.4-0.5,0.5-0.7,0.1c-0.5-1-0.8-2.4,0.4-5.1
		c1.5-3.7,11.4-19.7,14.7-23.8c0.4-0.6,0.8-0.5,1,0.2c0.5,1.3,0.2,3.4-1.8,6.6c-0.8,1.2-2.9,4.2-4.4,6.5c1.3-1.1,2.7-1.6,3.7-1.5
		c3.5,0.4,3,5.8,0.2,11.1C141.2,382.1,138.4,384.5,136,384.2z M139.5,369.7c-2.1,1.9-4.4,5.5-6.3,8.9c-0.1,1.3,0.3,2.9,1.4,3.3
		c1.4,0.5,3.4-0.6,6.4-5.7c2.9-4.9,2.7-7.8,1.8-7.9C141.8,368,140.9,368.4,139.5,369.7z"/>
	<path class="st9" d="M171.7,387.2c-2.7-0.1-3.6-2-3.1-4.7c-1.5,2-3.8,4.4-6.1,4c-2.9-0.4-2.8-3.8-1.7-6.8c0.4-1.1,1-2.5,1.8-3.9
		c-1.2,0.5-2.5,0.8-3.7,0.6c-1.2,3.8-3.9,8.2-6.9,9.2c-1.5,0.5-3.6,0.2-5.1-2.3c-1.6-2.8-0.8-6.7,1.2-10.3c1.7-3.1,4.4-5.5,6.9-5.6
		c1.2,0,1.9,0.4,2.7,1.7c0.9,1.4,2,1.8,1.6,5.2c0,0.3-0.1,0.5-0.1,0.9c2.3,0.1,4.7-2,6.2-4.4c0.4-0.7,1.2-1.7,1.7-2.4
		c0.4-0.5,0.7-0.4,1,0c0.8,1.6,0.5,3.5-1.1,6.1s-2.7,4.4-3.6,6.5c-0.9,2.2-0.9,3.8,0,4c1.6,0.2,4-2.8,6.4-6.6
		c2.8-4.5,4.1-7.6,5.5-9.5c0.4-0.6,0.7-0.7,1-0.2c0.6,0.9,0.8,2.9-0.3,5.1c-1,2-3.2,5.3-4.3,7.6c-1.2,2.6-1.1,4.5,0.3,4.5
		c1.7,0,4-2.9,5.7-6c0.2-0.4,0.6-0.4,0.7,0c0.2,0.4,0.1,1.6-0.5,2.8C176.8,385.2,174.1,387.3,171.7,387.2z M153.9,370.8
		c-1.1,1-2.4,2.4-3.4,4.2c-1.9,3.3-2.7,7.5-1.7,8.6c1,1.1,3.6-0.4,5.9-4.5c0.7-1.3,1.2-2.5,1.6-3.6
		C155,374.6,153.8,372.7,153.9,370.8z M155.9,371c-0.2,1.2,0.1,2.4,0.8,3.2c0.4-1.3,0.5-2.5,0.5-3.2
		C157,369.5,156.1,369.7,155.9,371z"/>
	<path class="st9" d="M180.4,367.3c-0.4-0.6-0.2-1,0.5-0.9c1.1,0,2.3,0,3.4-0.2c1.3-2.5,2.4-4.7,3.1-5.7c0.4-0.6,0.8-0.6,1,0
		c0.4,1.3,0.4,2.8-0.5,5.2c1.6,0,2.2,0.8,2.5,1.4c0.3,0.6,0.1,0.9-0.5,0.9c-0.9-0.1-2.2,0-3.2,0.2c-1.6,3.1-3.9,7.5-5.5,11.4
		c-1.4,3.4-0.9,6.2,0.8,6.3c1.8,0.1,4.2-3.2,5.7-6.6c0.2-0.6,0.7-0.6,0.9,0c0.2,0.7,0,1.6-0.4,2.6c-0.5,1.3-3.2,5.4-6.5,5.2
		c-2.7-0.1-4.9-3.5-2.9-8.8c0.9-2.3,2.6-6.2,4.4-9.8C181.7,368.5,180.7,367.8,180.4,367.3z"/>
	<path class="st9" d="M187.1,380.4c0.9-3.4,3.5-8.9,5-11.3c0.4-0.6,0.6-0.7,1-0.3c0.6,0.7,1,2.7,0.1,5c-0.8,2-2.5,5.2-3.3,7.5
		c-0.9,2.7-0.8,4.5,0.5,4.4c1.8-0.1,4-3.2,5.2-6.4c0.2-0.4,0.5-0.4,0.7,0c0.3,0.7,0.2,1.7-0.2,2.9c-1.2,2.9-3.7,4.9-6,4.9
		C186.9,387.1,186,384.2,187.1,380.4z M195.9,368.2c-0.5,0.7-1.7,0.5-2.3-0.6c-0.7-1.2-0.5-2.6,0.1-3.4c0.6-0.8,1.8-0.3,2.4,1
		C196.7,366.3,196.4,367.5,195.9,368.2z"/>
	<path class="st9" d="M199.2,386.8c-3.8,0.2-4.9-5.5-1.8-11.3c2.9-5.5,6.1-7.8,8.2-7.9c1.8-0.1,2.7,1.5,2.7,3.2
		c0.6-1.4,1.2-2.6,1.6-3c0.4-0.5,0.7-0.4,1,0.1c0.6,1.1,0.6,3.1-0.6,5.9c-2.2,5.1-6.5,14.9-9.3,23.7c-0.2,0.5-0.4,0.6-0.7,0.2
		c-0.6-0.7-1.2-1.5-0.6-4.2c0.4-2,1.3-5,2.4-8C201.2,386.2,200.3,386.7,199.2,386.8z M206.4,369.9c-1.3,0-4.1,3.1-6.1,7.3
		c-2,4.1-2.2,8.3-0.6,8.2c1.7-0.1,3.6-3.1,5.5-7.3C207.4,372.8,207.6,369.9,206.4,369.9z"/>
	<path class="st9" d="M214.3,385.7c-2.9,0.1-3.4-3.3-2.8-6.4c0.6-3.1,2.2-7.8,4.4-12.3c0.3-0.5,0.7-0.5,1.1-0.2
		c1.1,1.4,1.1,3.5-0.1,6.3c-1.2,2.9-1.8,4.8-2.4,7.1c-0.6,2.3-0.3,4,0.6,4c1.6,0,3.5-3.5,5.3-7.7c2.1-4.9,2.9-8.2,4-10.3
		c0.3-0.7,0.6-0.8,1-0.4c0.7,0.8,1.2,2.7,0.5,5.1c-0.7,2.2-2.3,5.8-3,8.2c-0.8,2.7-0.4,4.6,1,4.4c1.7-0.3,3.5-3.5,4.7-6.9
		c0.2-0.4,0.5-0.5,0.7-0.1c0.2,0.3,0.4,1.6-0.1,2.9c-0.9,2.7-3.2,5.3-5.6,5.6c-2.6,0.3-3.9-1.5-3.9-4.2
		C218.5,383.1,216.6,385.7,214.3,385.7z"/>
	<path class="st9" d="M235,381.9c3.4-0.4,5.8-4.5,7-7.7c0.1-0.4,0.5-0.4,0.7-0.1c0.2,0.3,0.3,1.6-0.2,2.9c-1.3,3-4,5.6-7.1,6.2
		c-5.1,0.9-7.8-4.5-6.1-10.8c1.7-6.3,5.4-9.3,7.7-8.3c1.1,0.5,2,1.1,2.8,2c0.9,1,1,3.8-0.3,6.4c-1.5,3-4.1,4.7-7.3,2.5
		C231.4,379.4,232.8,382.1,235,381.9z M236.7,370.9c1-2.1,1.5-4.6,0.9-5c-1-0.6-3.9,2.6-5.1,7.2c-0.1,0.3-0.2,0.6-0.2,0.8
		C234.4,375.1,235.8,372.9,236.7,370.9z"/>
	<path class="st9" d="M264.7,375.3c1.6-0.6,2.8-4.1,3.3-7.6c0.1-0.5,0.4-0.5,0.6-0.2c0.3,0.4,0.6,1.5,0.5,2.8
		c-0.4,2.7-2.1,5.8-4.3,6.3c-2.2,0.5-3.6-0.5-4.2-2.6c-0.7,2.1-2,4.3-3.9,4.8c-3.7,1.1-6-4.3-4.3-10.6c1.6-6,4.2-8.9,6.1-9.5
		c1.6-0.5,2.8,0.7,3.2,2.3c0.8-5.2,2-12,2.8-14.7c0.2-0.7,0.6-0.8,0.9-0.3c1,1.3,1.4,3.2,0.7,7c-0.8,4.3-2.4,12.7-3,18
		C262.9,374,263.4,375.8,264.7,375.3z M255.5,369.3c-1,4.4-0.3,8.4,1.2,8c1.6-0.4,2.9-3.6,3.6-8.2c0.8-5.6,0.6-8.5-0.5-8.2
		C258.6,361.2,256.6,364.8,255.5,369.3z"/>
	<path class="st9" d="M269.5,353.4c-0.2,0-0.4-0.2-0.4-0.7c0.1-2.4,0.6-7.8,1.3-9.9c0.3-0.8,0.6-0.7,1-0.3c0.6,0.7,0.6,1.8,0.5,2.8
		c-0.3,1.9-1,5.4-1.5,7.2C270.1,353.2,269.8,353.4,269.5,353.4z"/>
	<path class="st9" d="M283.3,359c0.7,3.9,0.1,9.2-2.3,11.4c-1.2,1.1-3.1,1.7-5.5,0.1c-2.7-1.8-3.6-5.7-3.3-9.8
		c0.3-3.5,1.6-6.9,3.8-8c1.1-0.6,1.9-0.4,3.2,0.4c1.4,1,2.7,0.8,3.7,4c0.1,0.4,0.2,0.7,0.3,1c0.2-0.1,0.4-0.3,0.7-0.4
		c0.3-0.1,0.4,0.1,0.3,0.4C284,358.5,283.7,358.8,283.3,359z M279.7,359.3c-1.1-0.4-2.6-1.5-3.3-3c-0.6,1.4-1.1,3.3-1.3,5.2
		c-0.3,3.9,0.8,8,2.1,8.6c1.5,0.5,3.2-1.9,3.4-6.6c0.1-1.4,0-2.8-0.1-3.9C280.3,359.5,280,359.4,279.7,359.3z M279.4,354.9
		c-0.7-1.3-1.4-0.7-1.1,0.6c0.3,1.2,1.2,2.3,2.1,2.7C280.2,356.8,279.8,355.7,279.4,354.9z"/>
	<path class="st9" d="M294.3,364.6c-1.9,1-3.7,0.5-5.3-1c0.1,1,0.2,2.2,0.3,3.2c0.1,0.5-0.1,0.6-0.5,0.4c-1-0.6-1.9-1.6-2.4-4.5
		c-0.7-3.9-1-22.7-0.4-27.9c0.1-0.7,0.4-0.8,0.9-0.4c1.1,0.9,2,2.7,2.1,6.6c0,1.4-0.2,5.1-0.2,7.9c0.5-1.6,1.4-2.8,2.3-3.3
		c3.1-1.5,5.7,3.3,6.1,9.3C297.6,360.1,296.4,363.6,294.3,364.6z M289.4,350.6c-0.7,2.8-0.8,7-0.6,10.9c0.7,1.2,1.8,2.2,2.9,2
		c1.4-0.3,2.5-2.4,2.3-8.2c-0.2-5.7-1.9-8-2.8-7.7C290.5,347.9,289.9,348.7,289.4,350.6z"/>
	<path class="st9" d="M306.2,349.8c0-0.4,0.3-0.6,0.6-0.3s0.7,1.3,0.8,2.7c0.1,3.5-1.6,7-4,10.3c0.9,6.5,1.9,14.5-0.2,17.2
		c-0.5,0.6-1.2,1.1-2.5,0.4c-1.4-0.8-3-1.8-3.6-4.5c-0.9-4.3,0.8-8.5,3.5-12c-1.2-7.9-2.2-17.2-2.1-21.5c0-0.7,0.2-0.9,0.7-0.7
		c0.9,0.4,2.1,2,2.4,4.5c0.4,2.7,0.8,9.7,1.5,14.5C305.5,356.7,306.1,353.1,306.2,349.8z M301.7,339.5c-0.1,0.9-1.2,1.3-2.3,0.5
		c-1.1-0.8-1.6-2-1.4-3c0.2-1,1.5-1.1,2.5-0.2C301.5,337.6,301.8,338.7,301.7,339.5z M300.8,378.3c0.9,0.4,1.4-5.5,0.3-12.6
		C298.1,371.2,299.6,377.7,300.8,378.3z"/>
	<path class="st9" d="M314.1,352.5c3-1.6,3.6-6.3,3.5-9.8c0-0.4,0.3-0.6,0.6-0.3c0.3,0.2,0.9,1.4,0.9,2.8c0,3.3-1.6,6.7-4.2,8.4
		c-4.4,2.8-8.9-1.1-9.8-7.6s1.5-10.7,3.9-10.6c1.2,0,2.2,0.2,3.3,0.8c1.2,0.6,2.4,3.1,2.2,6c-0.3,3.4-2,5.9-5.8,5.1
		C309.9,351.6,312.2,353.5,314.1,352.5z M311.5,341.7c0.1-2.3-0.4-4.8-1.1-5c-1.1-0.2-2.6,3.9-1.9,8.6c0,0.3,0.1,0.6,0.1,0.8
		C311,346.4,311.4,343.8,311.5,341.7z"/>
	<path class="st9" d="M312.8,331.4c-0.7-0.3-0.7-0.7-0.1-1c1-0.6,1.9-1.3,2.7-2.1c-0.4-2.8-0.6-5.2-0.6-6.5c0-0.7,0.3-0.9,0.8-0.6
		c1.1,0.8,2,2.1,2.5,4.6c1.3-0.9,2.3-0.6,2.9-0.3c0.5,0.3,0.6,0.7,0.1,1c-0.8,0.4-1.8,1.2-2.5,2c0.4,3.4,1,8.4,1.9,12.5
		c0.8,3.5,2.8,5.6,4.2,4.7c1.6-1,1.7-5,1-8.7c-0.1-0.6,0.2-0.9,0.7-0.5c0.6,0.5,0.9,1.3,1.1,2.4c0.3,1.4,0.4,6.3-2.4,8
		c-2.3,1.4-6-0.1-7.4-5.6c-0.6-2.4-1.3-6.5-1.9-10.5C314.5,331.7,313.4,331.6,312.8,331.4z"/>
	<path class="st9" d="M325.3,327c-0.9-1.6-1.1-2.5-0.9-3.7c0.2-1.3,0.8-2,1.4-1.9c0.6,0.1,0.7,0.7,1,1.8c0,0.3,0.1,0.6,0.2,1
		c2.3,3.6,5.1,6,6.9,8.6c1,1.5,1.9,3.2,1.4,5c1.5-2.6,1.2-5.8,0.6-8.4c-0.1-0.5,0.3-0.7,0.6-0.5c0.4,0.2,1.1,1.2,1.4,2.8
		c0.7,3.5-0.5,6.5-2.8,8.4c-1.8,1.5-4.1,2.3-6.9,0.9c-2-1.1-3.7-3.6-3.4-5.4c0.1-0.7,0.5-0.7,1-0.1c0.3,0.3,0.5,0.6,0.7,0.8
		C326.1,333.1,325.8,329.6,325.3,327z M328.1,337.9c2.1,1.8,4.2,2.6,5,1.4c1.1-1.6-3.7-7.1-6-9.9C327.5,332.1,327.8,335,328.1,337.9
		z"/>
</g>
<g>
	<g>
		<path class="st9" d="M102.9,419.2c3.3,0.7,6.8-2.5,9-5.3c0.3-0.3,0.6-0.3,0.7,0.1c0.1,0.4-0.2,1.6-1.1,2.7
			c-2.1,2.5-5.5,4.2-8.7,3.7c-5.2-0.7-6.1-6.6-2.6-12.1c3.5-5.5,8-7.2,9.8-5.6c0.9,0.8,1.5,1.6,2,2.7c0.6,1.2-0.2,3.9-2.2,6
			c-2.4,2.4-5.3,3.2-7.7,0.2C100.2,415.8,100.8,418.8,102.9,419.2z M107.8,409.3c1.6-1.7,2.8-4,2.3-4.5c-0.7-0.9-4.5,1.3-7,5.4
			c-0.2,0.3-0.3,0.5-0.4,0.7C104.4,412.5,106.4,410.8,107.8,409.3z M114.4,398.8c-1.6,0.6-3.9,1.6-5,1.8c-0.9,0.2-1.7,0-2.1-0.3
			c-0.3-0.2-0.3-0.5,0.1-0.7c1.2-0.7,3.2-1.7,4.2-2.1c1.2-0.4,2.3,0.1,2.9,0.6C114.8,398.4,114.9,398.7,114.4,398.8z"/>
		<path class="st9" d="M115.1,402.3c-0.3-0.7,0-1,0.6-0.9c1.1,0.2,2.3,0.3,3.4,0.3c1.6-2.3,3-4.3,3.8-5.2c0.4-0.5,0.8-0.4,1,0.1
			c0.3,1.3,0.1,2.8-1.2,5.1c1.6,0.2,2.1,1.1,2.3,1.7c0.2,0.6,0,0.9-0.6,0.8c-0.9-0.3-2.2-0.3-3.2-0.2c-2,2.8-4.9,6.9-7,10.6
			c-1.8,3.1-1.7,6,0,6.4c1.8,0.3,4.6-2.6,6.5-5.8c0.3-0.5,0.8-0.5,0.9,0.1c0.1,0.8-0.2,1.5-0.8,2.5c-0.7,1.2-3.9,4.9-7.2,4.3
			c-2.7-0.5-4.4-4.1-1.7-9.1c1.2-2.2,3.4-5.8,5.6-9.1C116.2,403.7,115.4,402.8,115.1,402.3z"/>
		<path class="st9" d="M128.8,424c-3.4-0.4-3.9-3.3-2.2-7.1c1.9-4.3,6-8.6,5.4-9.1c-0.5-0.4-5.3,2.1-8.2,6.2c-1.8,2.5-3.7,5.5-5,8.2
			c-0.2,0.4-0.5,0.4-0.7,0.1c-0.6-0.9-0.8-2.2,0.4-4.9c2-4.4,12.4-19.4,16.2-23.7c0.4-0.5,0.8-0.4,1,0.2c0.4,1.4,0,3.7-1.9,6.3
			c-1.2,1.7-3.8,5.1-5.9,8c1.9-1.6,4.2-2.9,5.3-2.6c1.4,0.4,2.3,2.8,1,5c-1.1,1.9-3.5,5-4.7,7.3c-1.3,2.5-1.4,4.7,0.1,4.8
			c1.7,0.1,4.3-2.9,5.9-5.7c0.2-0.4,0.6-0.3,0.7,0c0.1,0.5,0,1.5-0.8,2.8C133.9,422.4,131.2,424.3,128.8,424z"/>
		<path class="st9" d="M134.6,417.9c1.4-3.2,4.6-8.3,6.4-10.6c0.4-0.5,0.7-0.6,1-0.2c0.5,0.8,0.6,2.8-0.6,5c-1.1,1.9-3.1,4.8-4.2,7
			c-1.3,2.5-1.4,4.3-0.1,4.4c1.8,0.1,4.4-2.7,6-5.7c0.2-0.4,0.5-0.3,0.7,0.1c0.2,0.8,0,1.7-0.6,2.8c-1.5,2.7-4.3,4.4-6.6,4.1
			C133.5,424.6,133.1,421.5,134.6,417.9z M145,407c-0.6,0.6-1.7,0.3-2.2-0.9c-0.5-1.3-0.2-2.7,0.6-3.4c0.7-0.7,1.9,0,2.3,1.3
			C146,405.2,145.6,406.4,145,407z"/>
		<path class="st9" d="M145.4,425.8c-3.8-0.3-4-6.2-0.1-11.5c3.7-5,7.2-6.8,9.2-6.6c1.8,0.2,2.5,1.8,2.2,3.5c0.8-1.3,1.6-2.4,2-2.8
			c0.5-0.5,0.7-0.3,1,0.2c0.4,1.2,0.2,3.2-1.4,5.8c-2.9,4.8-8.7,13.8-12.7,22.1c-0.2,0.5-0.5,0.5-0.8,0.1c-0.5-0.8-0.9-1.7,0-4.2
			c0.7-1.9,2-4.7,3.6-7.6C147.5,425.5,146.4,425.9,145.4,425.8z M155,410.1c-1.3-0.2-4.5,2.4-7.2,6.3c-2.6,3.7-3.4,7.9-1.8,8
			c1.7,0.2,4.1-2.5,6.5-6.4C155.5,413.2,156.1,410.3,155,410.1z"/>
		<path class="st9" d="M159.9,427c-2.9-0.4-2.7-3.8-1.6-6.8c1.1-3,3.5-7.3,6.4-11.3c0.4-0.5,0.8-0.4,1.1,0c0.8,1.6,0.5,3.6-1.2,6.1
			c-1.7,2.6-2.6,4.4-3.6,6.5c-1,2.2-1,3.9-0.1,4c1.6,0.2,4-2.8,6.5-6.7c2.9-4.5,4.3-7.6,5.7-9.5c0.5-0.6,0.7-0.7,1-0.2
			c0.6,0.9,0.7,2.9-0.4,5.1c-1,2-3.3,5.3-4.4,7.6c-1.2,2.5-1.2,4.5,0.3,4.5c1.7,0,4-2.9,5.8-6c0.2-0.4,0.6-0.4,0.7,0
			c0.1,0.4,0.1,1.6-0.6,2.9c-1.4,2.5-4,4.7-6.5,4.5c-2.7-0.2-3.6-2.1-3.1-4.8C164.5,425.1,162.2,427.3,159.9,427z"/>
		<path class="st9" d="M180.5,427c3.4,0.3,6.5-3.2,8.4-6.2c0.2-0.4,0.5-0.3,0.7,0.1c0.1,0.4,0,1.7-0.8,2.8c-1.8,2.7-5.1,4.7-8.2,4.6
			c-5.2-0.1-6.8-5.9-3.9-11.8c2.9-5.8,7.2-8,9.2-6.6c1,0.7,1.7,1.4,2.3,2.5c0.7,1.1,0.3,3.9-1.6,6.2c-2.1,2.7-4.9,3.8-7.7,1
			C177.4,423.8,178.3,426.8,180.5,427z M184.3,416.6c1.4-1.9,2.4-4.2,1.8-4.8c-0.8-0.8-4.3,1.8-6.4,6.1c-0.1,0.3-0.3,0.5-0.4,0.8
			C181.3,420.2,183,418.3,184.3,416.6z"/>
		<path class="st9" d="M194.8,412.5c0.2-1.8,0.6-2.7,1.5-3.5c0.9-0.9,1.9-1.1,2.2-0.7c0.4,0.5,0.2,1-0.4,2c-0.2,0.3-0.3,0.5-0.5,0.9
			c-0.3,4.2,0.4,7.8,0.2,11c-0.1,1.8-0.4,3.7-1.9,4.8c2.8-1.1,4.5-3.9,5.6-6.3c0.2-0.5,0.6-0.4,0.8,0c0.2,0.4,0.1,1.6-0.6,3
			c-1.6,3.2-4.4,4.9-7.3,5c-2.4,0.1-4.7-0.7-6-3.5c-1-2.1-0.8-5.1,0.6-6.4c0.5-0.5,0.8-0.3,0.9,0.5c0,0.4,0,0.7,0.1,1.1
			C191.7,417.8,193.5,414.9,194.8,412.5z M190.3,422.9c0.6,2.7,1.7,4.6,3.1,4.1c1.9-0.6,1.4-7.8,1.3-11.5
			C193.4,417.9,191.9,420.4,190.3,422.9z"/>
		<path class="st9" d="M216.4,427.1c3.4,0,6.2-3.8,7.8-6.9c0.2-0.4,0.5-0.4,0.7,0c0.2,0.4,0.1,1.7-0.6,2.9c-1.6,2.9-4.6,5.2-7.8,5.4
			c-5.2,0.3-7.3-5.3-4.9-11.4s6.4-8.7,8.5-7.4c1.1,0.6,1.8,1.3,2.5,2.3c0.8,1.1,0.6,3.9-1,6.3c-1.9,2.9-4.5,4.2-7.5,1.7
			C213.1,424.2,214.2,427,216.4,427.1z M219.3,416.3c1.2-2,2-4.4,1.4-4.9c-0.9-0.7-4.2,2.2-5.9,6.6c-0.1,0.3-0.2,0.6-0.3,0.8
			C216.6,420.2,218.2,418.1,219.3,416.3z"/>
		<path class="st9" d="M225.4,408c-0.5-0.6-0.3-0.9,0.4-1c1.1-0.1,2.3-0.3,3.4-0.5c1-2.6,2-4.9,2.6-6c0.3-0.6,0.7-0.6,1-0.1
			c0.6,1.2,0.7,2.8-0.1,5.2c1.6-0.2,2.3,0.6,2.7,1.1c0.3,0.5,0.2,0.9-0.4,0.9c-0.9-0.1-2.2,0.2-3.2,0.5c-1.3,3.2-3.2,7.9-4.4,11.9
			c-1,3.5-0.3,6.3,1.4,6.2c1.8-0.1,3.9-3.5,5.1-7.1c0.2-0.6,0.6-0.7,0.9-0.1c0.3,0.7,0.1,1.6-0.2,2.6c-0.4,1.4-2.7,5.7-6,5.8
			c-2.7,0.2-5.2-3-3.7-8.5c0.6-2.4,2-6.4,3.4-10.2C226.8,409,225.8,408.4,225.4,408z"/>
		<path class="st9" d="M255.9,422c1.6-0.4,3.1-3.9,3.9-7.3c0.1-0.4,0.4-0.5,0.6-0.2c0.2,0.4,0.5,1.5,0.3,2.9c-0.6,2.7-2.5,5.6-4.8,6
			c-2.2,0.3-3.6-0.8-4-2.9c-0.9,2.1-2.3,4.1-4.2,4.5c-3.7,0.8-5.7-4.8-3.5-10.9c2.1-5.9,4.8-8.6,6.8-9c1.6-0.3,2.7,0.9,3.1,2.5
			c1.2-5.1,2.9-11.9,3.9-14.5c0.3-0.7,0.6-0.7,1-0.2c0.9,1.4,1.2,3.3,0.2,7.1c-1.1,4.3-3.4,12.5-4.4,17.7
			C254.2,420.5,254.6,422.4,255.9,422z M247.2,415.3c-1.3,4.3-0.9,8.3,0.6,8.1c1.6-0.3,3.2-3.4,4.2-7.9c1.3-5.5,1.3-8.5,0.1-8.2
			C250.9,407.4,248.6,410.9,247.2,415.3z"/>
		<path class="st9" d="M285.7,415.3c-3.1,0.8-5.1-1.9-5.2-5.7c0-3.2,1.5-7.2,2.5-9.8c-1.4,1.7-2.9,2.7-4.2,3
			c-0.4,6.4-1.7,14.5-5.8,16.1c-2.3,0.9-4-0.6-4.5-3.2c-0.8,2.5-2.1,5.2-4.3,5.6c-2.9,0.6-3.9-2.7-3.8-5.8c0-3.2,0.7-8,2.2-12.7
			c0.2-0.5,0.5-0.7,0.9-0.3c1.4,1.2,1.7,3.1,1,6.1c-0.6,3-1.1,5.1-1.3,7.3c-0.2,2.4,0.4,3.9,1.3,3.7c1.6-0.3,2.9-4,3.9-8.4
			c1.2-5.3,1.4-8.5,2.2-10.8c0.2-0.6,0.5-0.8,0.9-0.5c0.8,0.5,1.7,2.4,1.4,4.9c-0.3,2.2-1.3,6.1-1.5,8.6c-0.3,2.8,0.4,4.5,1.6,4
			c2.4-1,4.1-7.6,4.4-14.5c-3.5-0.4-1.5-7.5,0-8c1.2-0.4,1.7,2.4,1.7,5.6c1.3-0.6,2.5-1.7,3.7-3.3c0.3-0.6,0.7-0.8,1.1-0.5
			c1,0.8,2.6,2.5,1.8,4.4c-1.2,2.9-2.2,6.5-2.3,8.9c-0.1,2.6,0.9,4.3,2.2,4c1.6-0.4,2.8-3.8,3.1-7.5c0-0.4,0.3-0.5,0.6-0.2
			c0.3,0.4,0.7,1.5,0.6,2.9C289.7,412.2,287.8,414.8,285.7,415.3z"/>
		<path class="st9" d="M299.2,391.3c0.2-0.7,0.4-0.9,0.8-0.6c0.9,0.6,1.8,2.3,1.6,4.8c-0.2,2.2-1,6.2-1.1,8.8
			c-0.1,2.8,0.5,4.7,1.8,4.1c1.6-0.6,2.7-4.3,3-7.8c0.1-0.5,0.3-0.6,0.6-0.3s0.7,1.4,0.6,2.8c-0.2,2.7-1.8,6-4,6.6
			c-2.1,0.6-3.7-0.4-4.4-2.5c-0.6,2.2-1.8,4.4-3.7,5.1c-3.6,1.2-6.2-4-4.8-10.4c1.4-6.2,3.7-9.2,5.7-9.9c1.7-0.6,2.9,0.6,3.4,2.3
			C298.9,393.2,299,392.1,299.2,391.3z M296.7,394.1c-1.3,0.3-3.1,4.1-3.9,8.7c-0.8,4.4,0.1,8.4,1.6,8c1.6-0.5,2.7-4,3.3-8.5
			C298.5,396.7,297.9,393.9,296.7,394.1z"/>
		<path class="st9" d="M313.1,405.5c-2,0.8-3.8,0.1-5.2-1.5c0,1,0,2.2,0,3.3c0,0.5-0.2,0.6-0.6,0.4c-0.9-0.6-1.8-1.7-2-4.7
			c-0.3-4,1.1-22.7,2.2-27.9c0.1-0.7,0.4-0.8,1-0.3c1,1,1.8,2.9,1.4,6.7c-0.1,1.4-0.6,5-0.9,7.8c0.7-1.5,1.6-2.7,2.6-3.1
			c3.3-1.2,5.3,3.8,5.2,9.8C316.8,401.3,315.3,404.7,313.1,405.5z M309.6,391.1c-1,2.7-1.4,6.9-1.6,10.8c0.6,1.2,1.6,2.4,2.7,2.3
			c1.5-0.2,2.7-2.1,3.1-8c0.3-5.7-1.1-8.1-2-7.9C310.9,388.5,310.2,389.3,309.6,391.1z"/>
		<path class="st9" d="M324.5,399.8c1.9-0.6,3.3-4.7,3.5-8.6c0-0.7,0.4-0.9,0.8-0.3c0.5,0.6,0.7,1.6,0.7,2.8c0,1.5-1.3,6.2-4.4,7.3
			c-2.7,1-4.9-0.5-5.9-5.5c-1.6-8-0.4-17.5,1.6-23.5c0.3-0.9,0.8-1.2,1.5-0.9c1.5,0.7,2.4,2.1,2.8,4.3c1,5.7-1.2,12.6-3.6,16.4
			C321.7,396.6,322.7,400.3,324.5,399.8z M323.5,375.1c-0.6-0.1-1.5,5.7-1.9,12.2c-0.1,0.8-0.1,1.6-0.1,2.4
			C324.7,382.9,324.1,375.2,323.5,375.1z"/>
		<path class="st9" d="M335.2,395.5c3.2-1.2,4.5-5.7,4.9-9.2c0-0.4,0.3-0.5,0.7-0.2c0.3,0.3,0.7,1.5,0.5,2.9
			c-0.5,3.3-2.5,6.4-5.4,7.7c-4.7,2.1-8.7-2.4-8.5-9s3-10.3,5.4-9.9c1.2,0.2,2.2,0.6,3.2,1.2c1.1,0.7,1.9,3.4,1.3,6.3
			c-0.8,3.3-2.8,5.5-6.5,4.2C331.1,393.9,333.2,396.2,335.2,395.5z M334.2,384.4c0.4-2.3,0.3-4.8-0.4-5.1c-1.1-0.4-3.1,3.5-3.2,8.3
			c0,0.3,0,0.6,0,0.8C333,388.9,333.8,386.5,334.2,384.4z"/>
		<path class="st9" d="M341.9,376.3c-0.6-1.7-0.5-2.7-0.1-3.8c0.4-1.2,1.2-1.8,1.7-1.5c0.6,0.3,0.6,0.8,0.5,2c0,0.3,0,0.6-0.1,1
			c1.5,4,3.7,6.9,4.9,9.9c0.7,1.7,1.2,3.5,0.3,5.2c2-2.2,2.5-5.4,2.4-8.1c0-0.5,0.4-0.6,0.7-0.3c0.3,0.3,0.8,1.4,0.7,3
			c-0.1,3.5-1.9,6.3-4.5,7.6c-2.1,1.1-4.5,1.4-6.9-0.7c-1.7-1.5-2.9-4.3-2.1-6c0.3-0.6,0.6-0.6,1,0.1c0.2,0.3,0.3,0.7,0.5,1
			C341.3,382.4,341.8,378.9,341.9,376.3z M342.2,387.6c1.7,2.2,3.5,3.4,4.6,2.4c1.5-1.4-2.1-7.7-3.7-11
			C343,381.7,342.6,384.7,342.2,387.6z"/>
	</g>
</g>
<g>
	<path class="st0" d="M318.3,93.4l0.3-0.8c-1,0-0.4-1-0.7-1.5c-1.5-0.5-3.5-1.7-4.5-0.3l-0.3,2.6c0.9-0.1,1.2,1.3,1.9,1.9
		c0.2-0.9,1.5,0.2,1.4,0.1l-0.1-0.4c1,0.1,1.4-0.1,2.5-0.5C318.2,94.4,317.9,93.8,318.3,93.4z"/>
	<path class="st0" d="M270.9,89.6c-1.5-0.5-3.6,0.4-3.3,2.2c0.4,1.1,1.7,1.5,2.9,1.5C272.2,93.2,273.5,90,270.9,89.6z"/>
	<path class="st0" d="M296.8,100.2c-0.2-0.8-1.1-1.4-2.1-1.7c-0.3,0.5-1.3,0.6-0.8,1.4c0.5,0.8,1.1,1.3,2,1.7
		c0.4-0.3,1.2-0.5,0.5-1.3L296.8,100.2z"/>
	<path class="st0" d="M295.3,100.2l-0.4,0.1c-0.4-0.7,0.7,1.5,1.2,0.2C296.2,99.6,295.6,100.1,295.3,100.2z"/>
	<polygon class="st0" points="284.9,91.6 286.6,93.1 286.7,92.8 287.1,93.2 287.4,92.7 	"/>
	<path class="st0" d="M281,55.9c0.7,0.1,0.8-0.4,1.3-0.9c-1.3-0.3-2.2-0.1-3.3-0.6l3.2-2.2c-3,0.2-4.7-1.4-6.7-3.2l0.4-0.7
		c-5.3-2.7-12.6-0.9-17.3,1.4c-3,3-5.4,8-10.7,7.9c-0.9,2.5,3.6,0.9,1.4,3.1c-2.3,2.2-1.7,6.9-2.7,10.3c5,1.4,4.4,4,6.5,7.3
		c1.5,1.1,5.3-0.1,4.5,3.1l1.5-2.6c3,0.7,1.9,3.8,3,5.5l2.8-3.5c2.5,2.5,7.9,0.4,10.5,0.9c2.3-4.6,7.9-0.9,10.8,0.7
		c0.8-2.8-6.4-5.2-3.1-9.5c0.7,0.4,1.3,1.4,2.4,0.8c2.7-3.8-5.6-3.7-1.8-7l8.3,3.3C286.5,65.4,279.9,63.9,281,55.9z"/>
	<polygon class="st0" points="277,85.2 277.2,85.3 277.6,84.4 	"/>
</g>
<g>
	<g>
		<g>
			<g>
				<path class="st9" d="M237.9,440.4c3.3-0.3,6.7-0.4,9.9-0.6c3.3-0.2,6.5-0.4,9.5-0.6l-7.3,0.5c3.6-0.3,6.7-0.3,10.4-0.4
					c-1.1,0.4-3.5,0.3-4.1,0.7c-8.9,0.6-17.8,0.5-26.5,0.2C233.3,439.4,235.4,440.5,237.9,440.4z"/>
				<path class="st9" d="M270.3,439c-0.9,0.1-1.8,0.2-2.6,0.2C268.6,439.1,269.5,439,270.3,439z"/>
				<path class="st9" d="M178.8,443.1c-1,0-2.1,0-3.1-0.1C176.7,443,177.8,443.1,178.8,443.1z"/>
				<path class="st9" d="M226.2,442.8c-0.5,0.1-1.1,0.1-1.6,0.2c-4.1,0-8.3-0.2-12.5-0.3C216.7,442.8,221.6,442.5,226.2,442.8z"/>
				<path class="st9" d="M230.7,443.6c4.2-0.1,8.4-0.2,12.4,0.1C239.1,443.5,234.9,443.6,230.7,443.6z"/>
				<path class="st9" d="M147,444.7c0,0.1-0.1,0.1-0.2,0.2c-0.1,0-0.2,0-0.3,0.1c-1.7-0.3-3.4-0.7-5-1c0.4,0,0.8-0.1,1.3,0
					C144.5,444.3,144.8,444.7,147,444.7z"/>
				<path class="st9" d="M179.9,443.2l0.1,0c0.4,0,0.7,0,1,0c0,0,0.1,0,0.1,0C180.8,443.2,180.4,443.2,179.9,443.2z"/>
				<path class="st9" d="M149.1,445c0,0.1,0,0.3,0.2,0.4c-1-0.2-1.9-0.3-2.9-0.5c0.1,0,0.2,0,0.3-0.1
					C147.4,444.9,148.4,445.1,149.1,445z"/>
				<path class="st9" d="M170.9,448.3c0.6,0,1.2-0.2,1.5-0.3c1.6,0.3,3.2,0.6,5,0.9c0.3-0.1,0.9,0,1.5-0.1c0.3,0.1,0.7,0.3,1.1,0.4
					c-4.1-0.4-8.4-0.6-12.7-1.2C168.4,448.1,169.6,448.2,170.9,448.3z"/>
				<path class="st9" d="M73.5,428c5.4,1.1,11.4,3.4,16.8,3.8c-1.5-0.4-3.2-0.9-4.8-1.4c-1.6-0.5-3.3-1-4.7-1.5
					c-2.9-1-5.1-1.9-5.4-2.6c-0.3-0.7,1.8-0.2,4.5,0.6c2.8,0.8,6.2,1.9,8.6,2.4c-0.6-0.3-0.6-0.3-1.2-0.5c0.6,0.3,1.2,0.5,1.8,0.5
					c-1.2-0.5-3.6-1.3-4.2-1.9l1.2,0c-3-1.7-8.9-3.4-11.9-5.1c3.7,1.7,7.8,3.2,12.3,4.6c4.5,1.3,9.2,2.5,14.1,3.5
					c4.9,1,9.9,2,15,2.7c2.5,0.4,5,0.8,7.5,1.2c2.5,0.3,4.9,0.7,7.4,1c1.4,0.1,2.7,0.3,4,0.4c1.3,0.1,2.7,0.2,4,0.3
					c2.6,0.2,5.2,0.3,7.8,0.4c5.1,0.1,10,0.1,14.8-0.1c1.8,0,6,0.5,9.1,0.9c2.7,0.2,5.4,0.2,8.1,0.2c2.7,0,5.4,0.1,8.1,0
					c2.9,0,5.7,0.1,8.5,0.2c2.8,0.1,5.6,0.2,8.5,0.3c5.7,0.3,11.5,0.4,17.6,0.4c2.4-0.1,5.8,1.1-0.2,1.6c-2.5,0.2-5,0.3-7.5,0.4
					c-2.5,0.1-5,0.1-7.5,0c0.6-0.4,3-0.1,4.1-0.4c-3.7-0.3-6.8-0.5-10.4-0.5c2.4,0,4.9,0.1,7.3,0.1c-3-0.1-6.2-0.1-9.5-0.2
					c-3.3-0.1-6.6-0.2-9.9-0.3c-2.4-0.1-4.5-1.4-8-0.8c4.3,0.6,8.7,1,13.1,1.3c4.4,0.4,8.9,0.6,13.3,0.7c0,0,0,0,0,0
					c4,0.1,7.6,0.1,11.4,0.1c-1.2,0-2.4,0.1-3.5,0c2.8,0.2,5.6,0.3,8.3,0.4c2.8,0,5.5,0,8.3,0c-15.5,1.7-32.9,0.4-48.6-0.1
					c4.4,1,10.3,0.3,14.1,1.3c-3.6-0.2-7.2-0.4-10.9-0.6c-3.6-0.3-7.3-0.6-11-1c0.6,0,1.1,0,1.6-0.1c-4.6-0.7-9.5-0.9-14-1.4
					c-0.4-0.1-0.8-0.1-1.2-0.2c0.4,0.1,0.8,0.1,1.2,0.2c4.2,0.5,8.3,1.1,12.4,1.4c-1.9,0-3.9-0.1-6.2-0.4c1.3,0.4,3.1,0.7,5,0.9
					c2.4,0.2,4.9,0.4,7.3,0.6c-3.7-0.3-7.4-0.2-10.9-0.3c2.5,0.4,5.1,0.6,7.7,0.8c2.6,0.2,5.2,0.5,7.7,0.7c-2.8-0.1-5.6-0.3-8.4-0.4
					c-4.7-0.4-9.4-1-14.2-1.5l0.5,0l-1.1-0.1c-1.9-0.2-3.7-0.4-5.6-0.7c-1.7-0.2-3.4-0.2-5-0.2c-0.3,0-0.6-0.1-0.8-0.1
					c0.5-0.1,0.8-0.2-0.2-0.3c-4.3-0.8-9.1-0.9-14-2.1c-1.3-0.3-3-0.5-5-0.7c-0.5-0.2-0.8-0.2-1-0.1c-0.4,0-0.8-0.1-1.2-0.1
					c-1-0.1-2-0.3-3-0.4c1,0.1,2,0.3,3,0.4c0.4,0.1,0.8,0.1,1.1,0.2c-0.3,0.1-0.6,0.1-1.1,0.1c3.5,0.6,7,1.2,10.6,1.7
					c3.6,0.5,7.2,1.1,10.8,1.4c-0.5,0-1.1,0.1-1.3,0.1l2.2,0c2.4,0.2,4.7,0.5,7.1,0.7c-0.7,0-1.4,0-2,0.1c3.3,0.4,6.7,0.7,10.1,1
					c1.7,0.1,3.4,0.3,5.1,0.4l5.1,0.3c3.2,0.3,6.3,0.7,9.5,0.9c3.2,0.2,6.3,0.5,9.4,0.7c-3.4-0.5-6.9-0.9-10.5-1.1
					c9.6,0.3,19.2,0.6,28.8,1.1c-1.7,0.4-4.1,0.7-5.2,1.3c0.1,0.3,3.2,0.4,1.4,0.6c-6.6,0.6-11.3-0.2-14,1.3
					c-0.5,0.4,6.8,2.1,4.4,2.4c-1,0-2.4,0.1-4,0.1c-1.6,0-3.5-0.1-5.4-0.1c-1.1-0.1-2.3-0.2-3.5-0.2c-0.1,0-0.4,0-0.7,0.1
					c-4.2-0.1-8.2-0.5-10.4-0.7c-0.8-0.1-1.6-0.2-2.4-0.3c-0.4-0.1-0.8-0.3-1-0.4c-0.5,0.1-1,0.1-1.6,0.1c-2.2-0.3-4.3-0.5-6.4-0.8
					c-1.2-0.2-2.3-0.5-3.5-0.7c0,0.1,0.2,0.3,0,0.3c-2.7-0.3-5.3-0.6-7.9-1c-1.1-0.2-2-0.5-2.9-0.9c-3,0.6-9.5-0.9-14.1-1.3l0,0
					c-2.3-0.3-4.6-0.7-6.9-1.1c-0.4-0.1-0.7-0.3-1.1-0.5c-0.6,0.1-1.2,0-1.5,0c-1.8-0.4-3.4-0.8-4.9-1.3c-0.3,0-0.9,0.2-1.5,0.1
					c-1.2-0.2-2.4-0.4-3.5-0.6c-1.3-0.3-2.7-0.6-4.1-0.8c-1.2-0.2-2.3-0.5-3.4-0.7c-1.1-0.3-2.3-0.6-3.4-0.8
					c-2.3-0.6-4.5-1.1-6.7-1.7c-0.1-0.1-0.1-0.3-0.1-0.4c-0.7,0-1.7-0.3-2.3-0.3c0.1,0,0.2-0.1,0.2-0.1c-2.1-0.2-2.4-0.6-4.2-1.2
					c-0.4-0.1-0.8,0-1.3-0.1c-0.2-0.1-0.4-0.1-0.6-0.2c-1.9-1.1-4.1-1.3-6.4-1.9l-6.8-2.2C75.2,429.1,74.6,428.5,73.5,428z"/>
				<path class="st9" d="M140.8,443.8c-2.2-0.4-4.4-0.9-6.5-1.3C136.6,442.8,138.7,442.9,140.8,443.8z"/>
				<path class="st9" d="M201.1,449.7c0.9,0.3,1.9,0.5,2.9,0.7c-2.8-0.1-5.7-0.2-8.5-0.3c-2.8-0.1-5.7-0.3-8.6-0.4l0,0
					c2.3,0,5.1,0.3,7.7,0.4C197.3,450.1,199.7,450.1,201.1,449.7z"/>
				<path class="st9" d="M146.8,444.9c-0.1,0-0.2,0-0.3,0.1c0,0,0,0,0,0C146.5,444.9,146.6,444.9,146.8,444.9z"/>
				<path class="st9" d="M212,444.5c0.2,0,0.4,0,0.5,0l-4.1,0.1C209.5,444.5,210.8,444.5,212,444.5z"/>
				<path class="st9" d="M226.9,444.8c2.8-0.1,5.6-0.1,8.4-0.3c3.6,0,7.2,0,10.6,0.2C239.6,444.8,233.3,444.9,226.9,444.8z"/>
				<path class="st9" d="M212.1,450.3c1.2,0.1,2.4,0.3,3.5,0.4c-1.2,0-2.4-0.1-3.6-0.1C212.3,450.5,212.1,450.4,212.1,450.3z"/>
				<path class="st9" d="M200.5,444.6l0.8,0c-0.7,0.1-1.4,0.1-2.2,0.2C199.4,444.7,200,444.6,200.5,444.6z"/>
				<path class="st9" d="M224.7,450.9c-0.9,0-1.7,0-2.6-0.1c0.5-0.1,1-0.2,1.5-0.3C223.9,450.7,224.3,450.9,224.7,450.9z"/>
				<path class="st9" d="M238.3,450.6c1.2,0,2.4-0.1,3.5-0.1c-1.4,0.1-2.8,0.2-4.2,0.2C237.9,450.7,238.1,450.6,238.3,450.6z"/>
			</g>
		</g>
	</g>
</g>
</svg>
