<?xml version="1.0" encoding="utf-8"?>
<!-- Generator: Adobe Illustrator 25.2.0, SVG Export Plug-In . SVG Version: 6.00 Build 0)  -->
<svg version="1.1" id="Calque_1" xmlns="http://www.w3.org/2000/svg" xmlns:xlink="http://www.w3.org/1999/xlink" x="0px" y="0px"
	 viewBox="0 0 47 47" style="enable-background:new 0 0 47 47;" xml:space="preserve">
<style type="text/css">
	.st0{fill:#4A0D17;}
</style>
<g>
	<path class="st0" d="M23.6,0.4C10.8,0.4,0.4,10.8,0.4,23.6s10.4,23.2,23.2,23.2c12.8,0,23.2-10.4,23.2-23.2S36.4,0.4,23.6,0.4z
		 M29.1,23.6h-3.6v12.9h-5.4V23.6h-2.5V19h2.5v-2.9c0-0.8,0.1-1.6,0.4-2.3c0.3-0.9,0.9-1.6,1.6-2.2c1-0.7,2.2-1,3.4-0.9l4,0v4.4
		h-2.9c-0.3,0-0.5,0.1-0.7,0.2c-0.3,0.3-0.4,0.6-0.4,1V19h4.1L29.1,23.6z"/>
</g>
</svg>
