<svg xmlns="http://www.w3.org/2000/svg" width="138.31mm" height="67.49mm" viewBox="0 0 392.07 191.31"><defs><style>.cls-1{isolation:isolate;}.cls-2{fill:#82b657;}.cls-3{fill:#abcc57;}.cls-4{fill:#9fc75c;}.cls-5{fill:#ec646e;}.cls-6{fill:#ec6726;}.cls-7{fill:#3fa5a5;}.cls-13,.cls-8{fill:#490f19;}.cls-9{fill:#be2220;}.cls-10{fill:#a92120;}.cls-11{fill:#008492;}.cls-12{fill:#ead016;}.cls-13{mix-blend-mode:darken;}.cls-14{fill:#da1315;}</style></defs><g class="cls-1"><g id="Calque_3" data-name="Calque 3"><path class="cls-2" d="M178.37,158.39c-1.56,1.08-3.76.94-5.06,2.66,2.2.58,4.47.18,6.6,1.06,1.73.72,3.22,1.6,5.24,1.23-2.55.86-5.62.85-8.06,3,.72,1,1.86,1,3,1a2.92,2.92,0,0,0-.54.82c.46.12.89.74,1.39.79-.06.2-.11.4-.16.6l.08-.21.18.64a11.53,11.53,0,0,0,7,1.19c5.08-.52,7.13,7.34,12.34,6.21,3.22-.79,5.86.64,8.58,2.14s5.51,3,8.68,2.68c11.75-1.53,23-5.25,33.9-1.6,10.33,3.44,14.07,8.1,23.24,6s-4.23-9.73,6.38-10.15c27.6-1.09,48.76-9.6,56-15.92,5.27-4.48,17.45-12,18.8-19.4-4.78,6.49-12.19,10.73-19.23,13.9,12.54-11.24,25.54-23.18,33.57-37.48a94.68,94.68,0,0,1-32.51,31.14c-12.95,7.44-30.74,16.75-51.13,11.48,22.48-.56,40.46-7,55.34-17.44S369.29,118.39,373,102.5a25.1,25.1,0,0,0,.64-7.71c-1.3,16.83-12.71,31.36-27,41.86s-29.54,13.95-57.69,12.19c-16.38-1-40.79-14-40.79-14-18.1-1.1-52.18,18.42-70.7,23A3,3,0,0,1,178.37,158.39Z"/><path class="cls-3" d="M228.53,151c-35-20.22,23.7,5.62,53.87-14.28-7.2,4.74-13.1-9.21-17-13-19-6.74-17.51,13.32-36.16,8.42-4.16-1.14-7.4-2.72-12.62-4.26-7.65-2.26-17.17-4.31-22.56-4.13-11.31.36-14.68,3.92-20.73,16.9,5.76,4,12.71,3.74,18.11,8.53-2.43,1.76-5.3,3.75-8.13,4.31,2.48,1.09,5.1,3.56,7.6,2.86Z"/><path class="cls-4" d="M315.65,160.73a20.11,20.11,0,0,0,4.8-3.28c-10.43,7.2-26.14,9.25-41.47,8.26s-32.61-6.53-47.08-13.13c-13.48-6-25.34-12.45-38.36-16.64-3.17-1.73-6.42-3.28-9.6-4.86-6.54-3.24-12.95-6.42-19.9-9.1l-5.3-2.12A41.93,41.93,0,0,0,152.2,118l-.58-.09-5.26-2.1c-1.52-.55-3.15-1.08-4.84-1.54-.35-.43-.82-.63-1.12-1.15v-.24l-.59.39c-.28-.36-.15.18-.48.1l-.9-.54c-.05.18.14.25.22.35-.2.42-.48.06-.71-.05a.4.4,0,0,1,0,.34,32.57,32.57,0,0,0-20.38,3.31c1.66,1.88,5.6,2.36,6.75,4.5a31,31,0,0,1-6.14.85c1,.59,1.46,1.68,3.11,1.63a10.78,10.78,0,0,0-4.59,1.07c.72,1.08,4.31.59,6,.52,1,0,6.4-1,6.54-.16-3.2.71-6.64,1.12-10.13,1.92l-.09,0a.16.16,0,0,1,0,.07l-.45.11c-.08,0-.14,0-.12,0l0,0c-.82.2-1.64.41-2.46.67.53.49,1.34.74,1.67,1.37-1.93.45-3.91-.15-5.89.82,1.77.92,4.06,1.14,5.64,2.27,1.28.92,2.26,1.9,4.3,2.08-2.75.06-5.59-.64-8.85.42.22.89,1.28,1.15,2.28,1.42a4.14,4.14,0,0,0-.87.48c.37.19.49.75.93.89l-.43.42.18-.14,19.79,4.29a.26.26,0,0,0,0,.26l.56,0a.48.48,0,0,0,0-.17l5.78,1.26c.73,1.42,1.48,2.82,3.71,3,2.76.13,4.24,1.48,5.76,2.9s3.07,2.86,5.63,3.23c9.54,1.26,19.55,1.12,26.47,5.34,6.61,4,10.94.79,18.11,3.57s9,6.14,16.44,10.07c8.59,4.64,30.81,3.23,39.12,3.26,6,.08,18.21,1.58,23.32-1.28-6.81,1-14.06,0-20.47-1.42,14.59-.08,29.87-.29,43.25-3.6a115,115,0,0,1-38.95,1.12c-12.69-1.85-29.61-4.78-39.94-15.48a159.4,159.4,0,0,0,48.91,12.36C288,167.94,304.19,166.53,315.65,160.73Z"/><path class="cls-4" d="M114.75,138.11l-.6.48A3.32,3.32,0,0,0,114.75,138.11Z"/><path class="cls-4" d="M108.55,125.89c0-.25-.39-.5-.1-.74a1.24,1.24,0,0,1-.92-.71c0-.48-.43-1-.82-.84-.15-.11-.1-.25-.1-.34A.69.69,0,0,1,106,123a10.12,10.12,0,0,1-2.74-1.08l-.17.33-.83-.83c.09.44.73.83.45,1.26s-.69,0-1-.11l.34.25c-.33.39-.93-.3-1.41.08.6.68.11,1.07-.42,1.4H99.06a1.3,1.3,0,0,1,1.28.94c.24.77-.68.28-.92.57.25.24.72-.29.93.25a.85.85,0,0,1-1.06.23h-.11c.54.44,1.79,0,2.1.94-.24,0-.48.38-.24.58.82.06,1.12.79,1.89.94l-.33.24a11.54,11.54,0,0,0,2.16.14c-.52.81,1.19.14,1.06.86.38-.53,1-.8,1.24-.45.81-.45,1.87-1.3,1.87-2.36.34-.58-.14-.68-.24-1.42Z"/><path class="cls-4" d="M103,121.66a3.92,3.92,0,0,0,.32.25l0,0Z"/><path class="cls-4" d="M137.7,157.1l.09.1h.1C137.8,157.18,137.72,157.15,137.7,157.1Z"/><path class="cls-4" d="M142.79,151.53c-.48.24-1-.08-1.42-.35l-.23-.22c.39.9-.94.5-1.46.66l-.32,0c.17.2.54.18.53.52l-.79-.06c.14.06.33.07.46.28l-.24.32c.18,0,.22.16.31.27s-.15.22-.25.32l.36.26c-.29.28-.62.3-.49.79l-1.12.11.32.27a.49.49,0,0,1-.57.19l-.09-.09.22.35-.79,0c.08.39,1.13.62.51,1.1l-.23,0c.32.13.5.48.75.74-.11.11-.2.22-.36.22.22.06.52.11.34.51l-.14.09c1-.07,1.15.91,2.08.84.69,1,1.66,0,2.3.07,0-.38.39-.5.58-.77l.09-2c-.36-.21-.52-.62-.83-1.08a2.68,2.68,0,0,0,1.41-1.3C144.18,152.5,143,152.32,142.79,151.53Z"/><path class="cls-4" d="M98.7,112.74c-1.19-1.06-2.87-.67-4.12-.13l-1.73,1c.36.17.2.59-.07.71l-.61.6c1.46.41-.5,1.13-.14,2l.19-.19c1,1-.59,1.49-.08,2.56l-.26.65c.45.47,1.09.1,1.65.23l.09.28c-.18.18,1.1-.43,1.31.28,2.78-.62-.28-4,3.31-3.9C98.06,115.18,100,114.33,98.7,112.74Z"/><path class="cls-4" d="M106.47,146.71l-.38-.34c-.22.77-.61-.84-1,0-.37-.06-.61-.36-1-.26a.38.38,0,0,1,.14.34c-.22.24-.56.09-.79.13l.1.35-.55.23c.13,0,.13.2.14.35l-.36.09c-.23.58.79.54.15,1.07-.32.14.56.15.1.49.51,0,.43.58.8.68l-.09.1c.78-.34.62,1.21,1.85.5.57.68,1-.57,1.48-.32a2,2,0,0,0,.4-2.32C107,147,107.13,147.54,106.47,146.71Z"/><polygon class="cls-4" points="99.07 144.42 99.4 144.42 98.6 144.32 99.07 144.42"/><path class="cls-4" d="M121.51,102.17c.64,0,1.3-.57.86-1.27a1.26,1.26,0,0,0-1.33-.3C120.44,100.86,120.47,102.32,121.51,102.17Z"/><path class="cls-4" d="M148.69,111.59c.66.1.29,1,.85,1.24.31.27.31.41.11.69l-.14.13c.11,0,.39.06.47-.1.27.21.06.78.63.63.37.36-.21.51-.27.8.56.09.54-.54,1.14-.26.51,1.21,1.52-.17,2.06.41.09,0,.65.1.67-.34.19,0,.23.21.32.27.58-.2.76-1.25,1.19-1.17.33-.17.3-.51.59-.68a.52.52,0,0,1,.26-.56c-.72-.5.84-.67,0-1-.13-.34.36-.45.45-.54-.23-.07-.53.2-.8-.07.93-.7-.63-.83-.25-1.76-.2.23-.52,0-.55-.28v-.24c-.54.43-.83-.51-1.21-.54-.28-.21-1.17.74-1.69-.28-.42-.27-.58,1.27-1.31.49l-.31-.37c-.3.42.59.57.1.93-.48.16-.36-.36-.69-.49.05.15.85,1.14-.15,1.25l-.78-.3a3.89,3.89,0,0,1,.43,1c-.21.61-.8-.25-.71.19.22.17.6.24.44.62Z"/><path class="cls-4" d="M149.5,113.65h0S149.44,113.63,149.5,113.65Z"/><path class="cls-4" d="M151.49,151.38c.39.38,0,.63.66.64.06-.23.34-.35.27-.65C152.21,150.87,151.64,151.15,151.49,151.38Z"/><path class="cls-4" d="M165.3,117.06a2.84,2.84,0,0,0,.18.94,2.51,2.51,0,0,0,1.82.66c.78-.6,1.29-.7,1.21-1.62.44-.25-.47-.63.19-.81-.24-.16-.8-.27-.61-.63a1.7,1.7,0,0,1-.77-.24v-.19c-.14,0-.25.31-.48.15-.19-.6-.52.19-.87-.09.13.11.07.26.07.4s-.36,0-.55,0l.11.11-.49.54.21.26-.33.12Z"/><path class="cls-4" d="M168.2,115.45a.36.36,0,0,0-.11.15A.11.11,0,0,0,168.2,115.45Z"/><path class="cls-4" d="M165.48,115.67h0l-.11-.11Z"/><path class="cls-4" d="M174.56,123.69c.13.21.88.09.75.65.19-.07.32.14.4.29v.24c.1-.23.32-.06.47-.1.18.12,0,.3.06.5.15-.18.33-.12.48-.29l.41.23c0-.14.19-.17.25-.31.66.5.95-.44,1.47-.53s.07-1.07.86-1.09c-.78-1,.47-1.46-.39-2.61-.09,0-.22-.07-.33.06-.32-.13-.19-.6,0-.78-.23,0-.34.16-.49.29-.21-.94-1.18-.36-1.53-.74,0,.45-.51,0-.67.28l-.21-.26.1.49c-.22-.12-.47.15-.67-.31-.26.51,0,1.31-.73,1.09.27.17.16.46.2.71C173.79,121.91,175.26,123.08,174.56,123.69Z"/><path class="cls-4" d="M117.42,156.63l-.23-.26-.65.55c.36.45-.47.7,0,1.16.23.06.64.13.54.51.51-.07,1.15.31,1.43-.51C118.46,157.44,118.29,156.18,117.42,156.63Z"/><polygon class="cls-4" points="120.93 157.85 120.7 157.7 120.69 157.94 121.79 158.1 120.93 157.72 120.93 157.85"/><path class="cls-4" d="M127.79,160c.42-.26.53-1.07.83-1.59-.68-.48-.48-.9-.65-1.55-.18-.25-.77-.24-.53-.75l-.33.36c-.41-.27-.12-.74-.2-1.08l-.56.45c-.27-.55-1.14-.47-1.5-.68-.53.66-1.2-.25-1.56-.66-.24.43.71,1.2,0,1.75-.08-.1-.13-.29-.31-.26-.56.51.67.91,0,1.27l-1.08-1c.62,1.1,1.53,1.68,1,3-.09-.05-.14,0-.23.08.18.11.32.12.45.27l-.56.22c.46.11.63.46.85.86l-.08.1a2.9,2.9,0,0,0,2.58.62c.56-.36,1.13-1.08,1.9-.79C128.1,160.2,127.37,160.25,127.79,160Z"/><polygon class="cls-4" points="126.87 153.71 126.86 154.11 126.95 153.72 126.87 153.71"/><path class="cls-4" d="M122.11,104.92l-.64.29A3.76,3.76,0,0,0,122.11,104.92Z"/><path class="cls-5" d="M184.73,148.22c.73.59-.47.7-.52,1.12.39.08.51-.72,1-.34a1,1,0,0,1-.87.9l-.1.06c.79.08,1.7-1.16,2.61-.42-.23.15-.22.67.14.7.82-.47,1.58,0,2.42-.29l-.17.44a13.27,13.27,0,0,0,2.16-1.24c0,1.11,1.24-.62,1.56.16,0-.75.42-1.37.91-1.22.5-1,1-2.43.3-3.44,0-.77-.57-.57-1.13-1.22l0,.24c-.21-.21-.69-.23-.56-.64a1.42,1.42,0,0,1-1.33-.11c-.31-.46-1-.66-1.33-.29-.21,0-.25-.17-.31-.26a.8.8,0,0,1-.73.12c-1.16.26-2.28.87-3.79.65l.46,0,.06.49-1.33-.26c.37.35,1.23.33,1.23.92s-.69.38-1,.54l.48,0c-.07.58-1.08.3-1.3,1,1,.27.78.95.48,1.6l-1.13.73A1.52,1.52,0,0,1,184.73,148.22Z"/><path class="cls-6" d="M240.09,148.1l-.23.13a2.88,2.88,0,0,1,1.19.24c-.05.21-.05.4-.31.49l-.16-.05c.21.14.79-.43.91.27l-.08.17c.93-.71,1.69.14,2.53-.51,1.28.5,1.58-1.07,2.26-1.38-.27-.35.05-.74.07-1.12l-1.17-2a4,4,0,0,1-1.49-.52,3,3,0,0,0,.53-2.13c-.24-1.34-1.46-.78-2.2-1.39-.3.54-1,.57-1.59.57l-.35-.07c.94.62-.59,1.08-1,1.56l-.33.18c.3.09.64-.17.84.17l-.79.44a.79.79,0,0,1,.61,0l0,.46c.16-.15.32,0,.47.06s0,.31,0,.46l.51,0c-.1.44-.4.67,0,1.07l-1,.8.47.07a.58.58,0,0,1-.42.54l-.15,0,.43.2-.73.54C239.22,147.69,240.38,147.25,240.09,148.1Z"/><path class="cls-6" d="M174.69,141.46l.27.22c-.06.29.79-1.11,1.44-.56,2.28-2.35-2.82-3.69.71-5.84-1.23-1.47.09-3.51-2.17-4.21-1.81-.28-3.18,1.17-4,2.47l-1,2.08c.45-.05.56.44.38.73l-.21,1c1.66-.53.24,1.4,1.12,2l.06-.29c1.59.34.38,1.8,1.56,2.5l.15.79C173.7,142.46,174.07,141.7,174.69,141.46Z"/><path class="cls-6" d="M201.79,162.83c-.22.34.64-.21.41.41.49-.32.78.28,1.2.15l0,.15c.55-.82,1.37.77,2.11-.69,1,.29.57-1.16,1.21-1.25a2.29,2.29,0,0,0-1.09-2.48c-.95-.44-.47,0-1.63-.4l-.58-.09c.27.88-1.12-.41-.95.61-.39.18-.81,0-1.14.4a.43.43,0,0,1,.35.24c-.07.37-.48.44-.68.62l.32.27-.39.58c.16,0,.26.1.36.24l-.29.31C201.12,162.6,202.07,161.92,201.79,162.83Z"/><polygon class="cls-5" points="195.72 161 194.89 161.41 195.4 161.2 195.72 161"/><path class="cls-7" d="M203.47,133.78l.28.43c.37-.48.64.2,1,.24.83-.57,2.18-1.11,1.88-2.13l-1.16-1.16c-.29.49-1.11.14-1.67.21.38.46-.69.66-.59.69l.24.1a2.58,2.58,0,0,0-.7,1.44A.38.38,0,0,1,203.47,133.78Z"/><polygon class="cls-5" points="203.15 133.09 203.21 133.18 203.68 132.91 203.62 132.81 203.15 133.09"/><path class="cls-5" d="M221.69,163.41c.44-.39,1.3-.44,1.05-1.4-.44-.58-1.4-1.7-2-.71l-.39-.11-.27.94c.63.21,0,1,.72,1.13C221.1,163.17,221.54,163,221.69,163.41Z"/><path class="cls-5" d="M223.55,160.44l.78-.15Z"/><polygon class="cls-5" points="225.93 159.95 224.85 160.12 224.94 160.26 224.63 160.25 224.77 160.49 225.93 159.95"/><path class="cls-5" d="M227.76,160.28c-.12,0-.11.12-.17.22a2,2,0,0,1,.6,0l-.39.55a1.65,1.65,0,0,1,1.36.3l0,.14a3.33,3.33,0,0,0,2.88-1c.31-.7.4-1.76,1.32-2,0-.51-.69,0-.45-.52s-.17-1.37-.22-2c-.95,0-1-.56-1.6-1.07-.33-.13-.89.25-1-.39L230,155c-.56,0-.58-.63-.88-.9l-.25.78c-.6-.36-1.39.28-1.87.31-.09.95-1.31.51-1.91.34,0,.57,1.44.71,1.16,1.65-.15,0-.32-.2-.47,0-.22.84,1.22.45.77,1.23l-1.65-.26C226.18,158.75,227.42,158.74,227.76,160.28Z"/><path class="cls-5" d="M226.42,159.84l.6,0Z"/><polygon class="cls-5" points="228.11 152.48 228.02 152.53 228.26 152.91 228.11 152.48"/><path class="cls-8" d="M371.08,45.47c.44.2.88.41,1.36.6,1.84.76,4,1.9,6,1.94,4.33.09,9-4.19,10.58-8.37a7.32,7.32,0,0,0,.67-3.51,1.72,1.72,0,0,0-1.14-1.62c-1.24-.35-2.31.8-2.59,2.29s.15,3-.14,4.48a6.1,6.1,0,0,1-4.36,4.44,9.51,9.51,0,0,1-5.68-.62,31.3,31.3,0,0,1-5.17-2.47,28.76,28.76,0,0,0-1.69-5.23c.86-2.32,0-5.64-2.29-8.41h0l0,0,0,0h0c-2.65-2.45-5.93-3.42-8.3-2.68a28.55,28.55,0,0,0-5.14-1.92,31.38,31.38,0,0,1-2.23-5.28,9.56,9.56,0,0,1-.37-5.7,6.09,6.09,0,0,1,4.65-4.15c1.51-.22,3,.27,4.47.06s2.7-1.23,2.41-2.48c-.13-.58-.62-1-1.56-1.21a7.34,7.34,0,0,0-3.55.51c-4.24,1.36-8.73,5.85-8.84,10.18-.05,2,1,4.2,1.66,6.07.18.49.36.94.54,1.39a27.1,27.1,0,0,0-11,.45c6.27,3.85,14.25,10.38,19,18.5,3.53,7.89,4.57,12.66,8.13,19.1C369.84,56.32,371.5,49.12,371.08,45.47Z"/><path class="cls-8" d="M304.35,101.13c-38.21,19.12-62,19.82-62,19.82,8.44,13.37,32.84,32.59,79.31,8.69,18.09-9.3,46.55-37.77,34.2-70.35A159.33,159.33,0,0,1,304.35,101.13Z"/><path class="cls-9" d="M312.41,93.64c-36.84,25.44-68.19,33.75-68.19,33.75,10.92,12.57,45.54,30.69,90.25-.92,17.39-12.3,42.59-46,24.56-77.82C359,48.65,343.59,72.11,312.41,93.64Z"/><path class="cls-10" d="M312.41,93.64c-33.87,29.28-59.75,39.74-59.75,39.74,12.22,11.32,52.61,29.38,93.63-6.88,16-14.11,33.89-55.82,10.63-86A222.75,222.75,0,0,1,312.41,93.64Z"/><path class="cls-11" d="M302,146.7c-1.19-.27-.84-1.46-1.17-2.28.3-.07.71-.47,1.1-.4.19-.91-.78-.49-1.35-.83-1.08-.79,1-1.41.64-1.77a8.38,8.38,0,0,1-3.08-1.58,17.39,17.39,0,0,1,.32-2.22c-.33-.51-1-.07-1.47-.26,0-.68.74-1.5-.08-2.1-1.17.68-1.7-.46-2.74-.56s.47-2-.29-1.84-.21,1.18-.91,1.48a3.46,3.46,0,0,1-1.95-.2l0-1.27a13.66,13.66,0,0,1-4.6,1.95c-.09-.42,0-1.11-.63-1.22-.4.45-.08,1-.37,1.5-2.11,0-1.94,2.87-3.58,2.37-.8.23.23.76.12,1.24-.28,1.11-1-.07-1.65.3,0,.41.55.57.69.91.21,1.53-1.57.71-2.16,1.22.18.6,1.26.05,1.3.76-1,.85-.43,2.33-1.81,2.85,1.14,0,1.08,1,1.55,1.64-.25.12-.55.55-.91.58,0,.64.52.42,1,.38-.05.14-.13.32-.19.47,8.85,1.37,13.61.54,20.84,0A1.76,1.76,0,0,1,302,146.7Z"/><path class="cls-12" d="M330.45,100.26c-1.94-.94.69-1.82.56-2.8-.92,0-.76,1.9-2.17,1.32a2.26,2.26,0,0,1,1.48-2.46l.19-.21c-1.81.25-3.19,3.51-5.62,2.33.45-.46.14-1.61-.68-1.5-1.6,1.48-3.56.72-5.25,1.92l.14-1.08c-1.53.84-2.74,2.68-4.19,3.92-.6-2.48-2.44,2-3.57.48.31,1.68-.21,3.28-1.41,3.2-.6,2.39-.88,6,1.16,7.89.5,1.7,1.57,1,3.17,2.13l0-.55c.57.36,1.67.16,1.59,1.15a3.34,3.34,0,0,1,3-.48c.93.88,2.69,1,3.14,0,.46-.09.64.25.82.43a1.81,1.81,0,0,1,1.57-.65c2.47-1.19,4.66-3.16,8.14-3.47l-1,.31-.39-1.07,3.12-.1c-1-.61-2.94-.09-3.26-1.43.08-1.18,1.36-1.22,2.08-1.77l-1.1.2c-.13-1.34,2.27-1.24,2.41-2.86-2.38-.09-2.26-1.73-1.92-3.35l2.14-2.22A3.48,3.48,0,0,1,330.45,100.26Z"/><path class="cls-6" d="M359.43,65.19c.09-.1.14-.36.3-.44-.17-.39-.42,0-.71,0-.61,0,0-.79-.23-.83a3.65,3.65,0,0,1-1.54.23,8.47,8.47,0,0,1-.46-.91c-.26-.11-.39.23-.61.29-.18-.25-.12-.76-.58-.76-.25.56-.74.28-1.15.51s-.35-.86-.59-.61.23.5.05.8-.54.34-.77.44l-.34-.47a6.29,6.29,0,0,1-1.19,1.95c-.14-.14-.28-.43-.55-.29,0,.27.22.37.25.65-.77.57,0,1.58-.7,1.84-.24.29.28.22.37.42.18.49-.4.24-.54.55.1.16.35.07.5.16.47.51-.4.67-.48,1,.22.18.47-.31.67-.06-.14.58.45,1,.08,1.54.41-.32.66.1,1,.2-.06.12-.06.35-.18.46.17.23.3,0,.47-.13a6.27,6.27,0,0,1,.19.82c.25.19.47-.14.72-.13.14.34,0,.87.45,1,.4-.53.86-.06,1.35-.19s.18,1.05.49.85-.13-.61.13-.88a1.6,1.6,0,0,1,.92-.23l.26.62A6.24,6.24,0,0,1,358.71,72c.12.19.2.55.52.49.1-.29-.15-.48-.12-.8,1-.36.32-1.72,1.17-1.76.32-.25-.26-.33-.3-.58-.09-.59.47-.14.69-.43-.06-.21-.36-.18-.49-.33-.39-.71.57-.61.74-1-.2-.26-.58.19-.74-.15.29-.58-.25-1.21.27-1.7C359.94,66,359.76,65.41,359.43,65.19Z"/><path class="cls-5" d="M363.32,98.74c0-.46-.4.05-.64,0-.54-.26.12-.54,0-.92-.21-.06-.34.24-.53.29-.79,0-.22-.92-.44-1.29-.32,0-.12.67-.49.63-.35-.62-1.16-.46-1.31-1.25-.07.62-.61.48-1,.68,0-.15-.24-.35-.22-.55-.41-.06-.19.42-.32.72-.31.59-.67-.46-.81-.26a4.42,4.42,0,0,1-.5,1.47,10.38,10.38,0,0,1-1.06-.67c-.36,0-.27.51-.48.72-.38-.17-.66-.78-1.18-.49.1.8-.65.79-.94,1.32s-1-.74-1.09-.31.6.41.61.86-.37.73-.56,1l-.71-.3a7.84,7.84,0,0,1,0,2.94c-.25-.06-.6-.3-.81,0,.15.32.51.28.74.57-.48,1.13,1.13,1.75.48,2.51-.06.48.47.06.71.24.55.43-.27.52-.22.95.22.13.45-.15.67-.14.89.28,0,1,.17,1.46.38.06.32-.66.72-.5.24.74,1.19.81,1.16,1.68.24-.63.81-.32,1.26-.42,0,.17.18.43.11.63.4.17.35-.25.49-.53l.65.14c.09.17.16.32.25.26a1.39,1.39,0,0,1,.11-.21,5.06,5.06,0,0,0,.55,0,105.78,105.78,0,0,0,4.76-10.46A.64.64,0,0,1,363.32,98.74Z"/><path class="cls-13" d="M315.55,91.36c-5.3,4-10.72,8-16.34,11.58-1.4.9-2.79,1.84-4.21,2.71l-4.3,2.57c-1.43.88-2.89,1.68-4.35,2.5s-2.9,1.67-4.39,2.43c-5.88,3.19-11.89,6.15-18,8.79A180.16,180.16,0,0,1,245.09,129l.37-1.63a87.1,87.1,0,0,0,10.88,8,96,96,0,0,0,11.91,6.39,78.5,78.5,0,0,0,26,6.73,68.74,68.74,0,0,0,26.71-3.1,79.78,79.78,0,0,0,12.54-5.22A99.17,99.17,0,0,0,345.14,133a82.07,82.07,0,0,1-23.81,13.39,69.73,69.73,0,0,1-27.16,3.78,80,80,0,0,1-26.69-6.68,89.51,89.51,0,0,1-23.28-14.69l-1.29-1.14,1.66-.49a180.23,180.23,0,0,0,18.67-6.85c6.1-2.62,12.17-5.35,18.08-8.4s11.75-6.26,17.44-9.71c2.89-1.67,5.67-3.5,8.49-5.29S312.77,93.21,315.55,91.36Z"/><path class="cls-8" d="M40.26,41.16a89.22,89.22,0,0,1,2.67-11.64,4.19,4.19,0,0,0,0-2.92A5.79,5.79,0,0,0,42.09,25c-.37-.56-.74-.56-1.32,0-3.89,3.48-9,11.4-11.84,16.84-.59,0-1.14-.12-1.65-.2s-.62.08-.44.6a2.73,2.73,0,0,0,1.21,1.36,22.58,22.58,0,0,0-1,2.28c-.77,2.24-.62,3.44-.18,4.08a.35.35,0,0,0,.66-.08c.73-1.76,1.68-3.72,2.78-5.76,1.73,0,4.69-.44,7.3-.64-.11,1.2-.15,2.24-.15,3,0,2.28.62,3.28,1.36,3.64.33.16.55,0,.55-.36.07-2.12.29-4.32.55-6.4a7.88,7.88,0,0,1,1.57.24c.33.12.48,0,.4-.36A2.43,2.43,0,0,0,40.26,41.16ZM37.91,41c-1.72,0-4,.48-6.19.68a107.53,107.53,0,0,1,8.9-13A66.3,66.3,0,0,0,37.91,41Z"/><path class="cls-8" d="M77.87,34a2.6,2.6,0,0,0,.25-2.68c-.47-1.08-1.54-1.56-2.12-.88a2.67,2.67,0,0,0-.19,3C76.36,34.44,77.39,34.56,77.87,34Z"/><path class="cls-8" d="M101.62,43.56c-.15-.36-.41-.28-.55,0-1.17,3-3,5.6-4.58,5.52-1.1,0-1.54-1.64-.92-3.84a22.58,22.58,0,0,1,4.21-7c1.1-1.32.19-3.24-.55-4.12-.25-.4-.58-.2-1,.12a9.36,9.36,0,0,1-4,1.88c.92-2.6,1.29-5,.15-5-1.54.08-5.13,5.4-2.31,6.68C90,43,86,49.28,82,49.08c-1.87-.08-2.78-2.68-1.61-6.32,2.57,2.24,5,1.24,6.74-1.2,1.47-2,1.84-4.4,1.21-5.36a6.81,6.81,0,0,0-2.16-2c-1.83-1.16-5.57,1.08-7.88,6a11.68,11.68,0,0,0-1,3.53c-1.11,2.73-3.09,5.31-4.72,5.39-1.18.08-1.25-1.48-.37-3.8.77-2,2.31-4.72,3.08-6.48.88-2,.58-3.72,0-4.36-.29-.36-.55-.24-.88.24a51.67,51.67,0,0,0-4.69,9.72s0,.06,0,.08c-1.47,2.57-3.59,4.7-5.11,4.56s-1.25-3.48.22-7.4c3.26-2.32,7.37-7.12,8.5-12,.44-1.88.22-3.36-.84-4.4-.51-.52-1-.44-1.58.2a43.14,43.14,0,0,0-9.23,18.28c-1.59,2.59-4.2,5.6-7.15,5.44-1.94-.12-2.82-2.64-1.65-6.32,2.57,2.28,5,1.24,6.82-1.16,1.54-2,1.83-4.48,1.17-5.44a7.15,7.15,0,0,0-2.16-2.08c-1.83-1.16-5.57.92-8,6.08a10.37,10.37,0,0,0-1,5.75c-1.18,1.87-2.56,3.27-3.72,3.21-1.54-.08-1.95-2.56-.74-5.48,1.39-3.36,3.48-7.24,4.91-9.92A10.06,10.06,0,0,1,53,33.64c.55,0,.7-.28.44-.76a2.25,2.25,0,0,0-2.27-1.2c.88-2.08.88-3.4.48-4.52-.19-.48-.55-.52-.88,0a51.5,51.5,0,0,0-2.79,5,19.11,19.11,0,0,1-3,.16c-.55,0-.77.24-.4.8a2.9,2.9,0,0,0,2.38,1c-1.58,3.16-3.12,6.52-3.89,8.52-1.76,4.6.19,7.56,2.61,7.64,1.83.08,3.47-1.28,4.55-2.59a4.48,4.48,0,0,0,4.39,2.63,9,9,0,0,0,6.77-3.74c.12,2.43,1.35,3.56,3.27,3.62s3.5-1.18,4.66-2.41a2.65,2.65,0,0,0,2.86,2.49c1.93,0,4.07-1.49,5.23-3.72a4.51,4.51,0,0,0,4.74,3.64c4.36-.08,8.32-5.12,11.36-12.08a8,8,0,0,0,4.4-1.52c-1.58,1.92-3.78,4.88-4.55,7.56-.91,3.24.19,6,3,6.12,2,.12,4.22-1.72,5.13-4.12A3.93,3.93,0,0,0,101.62,43.56ZM81,41.2c1.69-3.68,4.69-6.2,5.5-5.44.48.44-.29,2.52-1.47,4.16s-2.52,3.16-4.32,2C80.8,41.68,80.87,41.4,81,41.2ZM66.32,38c2.53-5.12,5.24-9.56,5.72-9.24S70.46,35.52,65.44,40C65.7,39.32,66,38.68,66.32,38ZM53.45,41.28c1.73-3.8,4.77-6.2,5.54-5.52.51.44-.3,2.52-1.47,4.2-1.06,1.52-2.56,3.24-4.36,2C53.23,41.76,53.34,41.52,53.45,41.28Z"/><path class="cls-8" d="M19,64.52a7.92,7.92,0,0,0,1.28-6.68A3.78,3.78,0,0,0,16,54.6c-2.46.16-5.76,2.12-8.32,2.36-.44,0-.55.24-.37.68a2.75,2.75,0,0,0,2.49,1.6,77.38,77.38,0,0,0-7,14.8c-.84,2.56-.47,3.2.08,4.08A5.23,5.23,0,0,0,4.73,80a4.33,4.33,0,0,0,3.08.2,12.29,12.29,0,0,0,6.42-3.72A5,5,0,0,0,15.07,71a4.55,4.55,0,0,0-1.76-1.68A15.3,15.3,0,0,0,19,64.52ZM12.91,74a11.81,11.81,0,0,1-7.08,4.08c-1.17.16-1.57-.32-1.17-1.72a39.12,39.12,0,0,1,2.46-6.2,3.79,3.79,0,0,0,2.27.28c.51-.08,1-.16,1.54-.28C14.26,70.36,14.26,72.16,12.91,74Zm-4.8-5.84c1.06-2,2.12-3.92,2.86-5.4a7.68,7.68,0,0,0,1.09-3.92c2.53-.88,6.16-2.72,6.9-.64C19.87,60.92,15.36,66.32,8.11,68.16Z"/><path class="cls-8" d="M61.48,64a2.6,2.6,0,0,0,.26-2.68c-.48-1.08-1.54-1.56-2.13-.88a2.65,2.65,0,0,0-.18,3C60,64.44,61,64.56,61.48,64Z"/><path class="cls-8" d="M74.79,64.36c-.3-.44-.52-.56-.92-.12a15.5,15.5,0,0,0-1.58,2.56c.11-1.48-.62-2.88-2.23-2.88-1.83,0-4.8,1.84-7.7,6.44a13.6,13.6,0,0,0-1.57,3.54c-1.12,2.66-3.06,5.15-4.66,5.22-1.17.08-1.25-1.47-.37-3.8.77-2,2.31-4.72,3.08-6.48.88-2,.59-3.72,0-4.36-.29-.36-.55-.24-.88.24a50.47,50.47,0,0,0-4.69,9.72A10.31,10.31,0,0,0,53,75.53c-1.25,2.11-2.76,3.74-4,3.67-1.54-.08-2-2.56-.74-5.48,1.4-3.36,3.49-7.24,4.92-9.92a10,10,0,0,1,2.86-.16c.55,0,.69-.28.43-.76a2.25,2.25,0,0,0-2.27-1.2c.88-2.08.88-3.4.48-4.52-.18-.48-.55-.52-.88,0a53.8,53.8,0,0,0-2.79,5,19.11,19.11,0,0,1-3,.16c-.55,0-.77.24-.4.8a2.9,2.9,0,0,0,2.38,1c-1.57,3.16-3.11,6.52-3.88,8.52a10.53,10.53,0,0,0-.52,1.77c-1.34,2.5-3,4.68-4.4,4.75s-1.47-1.55-.51-3.88c.84-2.08,2.64-5,3.44-6.8.88-2,.59-3.72,0-4.44-.29-.36-.59-.28-.92.24C42.09,66,41,68.76,38.75,72.8c-1.94,3.48-4,6.21-5.42,6.09-.81-.08-.92-1.49-.19-3.45A40.57,40.57,0,0,1,36,69.6c1.32-2.36,1.5-4,.7-5.36-.3-.36-.63-.4-.92,0-.44.68-1,1.56-1.39,2.2-1.25,2.2-3.26,4.08-5.35,4.12,0-.32.07-.56.07-.8.18-3-.84-3.2-1.72-4.4A2.49,2.49,0,0,0,24.9,64c-2.2.16-4.47,2.4-5.87,5.16-1.61,3.2-2.16,6.64-.55,9A3.87,3.87,0,0,0,23.14,80c2.6-1,4.84-4.93,5.68-8.29a6,6,0,0,0,3.3-.72,21.3,21.3,0,0,0-1.4,3.44C29.92,77,30,80,32.59,80.21c2.09.19,4-1.93,5.24-3.76-.29,2.32.63,3.91,3,3.91,1.75,0,3.54-1.31,4.72-3a3.47,3.47,0,0,0,3.13,3A5.8,5.8,0,0,0,53,78a2.62,2.62,0,0,0,2.81,2.26,6.21,6.21,0,0,0,4.75-2.92c.27,1.75,1.28,2.92,2.91,2.92a4.46,4.46,0,0,0,2.64-1,49.16,49.16,0,0,0-2.56,6.85c-.63,2.28-.19,3,.33,3.68.25.32.47.28.66-.16A211.65,211.65,0,0,1,74,69.48C75.19,67.12,75.23,65.36,74.79,64.36ZM25.19,74.2c-1.83,3.64-4.11,5.08-5.06,4.16s-.44-4.56,1.1-7.56A14.5,14.5,0,0,1,24.09,67a5,5,0,0,0,2.38,4A22.08,22.08,0,0,1,25.19,74.2Zm1.54-4.4a3.28,3.28,0,0,1-.84-2.72C26,66,26.84,65.68,27,67A8.52,8.52,0,0,1,26.73,69.8ZM69.11,73c-1.87,3.56-3.78,6.09-5.28,6.09s-1-3.65,1-7.09,4.69-6.08,5.86-6S71.41,68.56,69.11,73Z"/><path class="cls-8" d="M101.84,73.52c-.15-.36-.44-.36-.62,0-1.58,2.64-4.26,5.84-7.3,5.68-1.94-.11-2.82-2.64-1.65-6.32,2.57,2.28,5,1.24,6.82-1.16,1.54-2,1.83-4.48,1.17-5.44a6.93,6.93,0,0,0-2.16-2.08c-1.83-1.16-5.57.92-7.95,6.08a11.19,11.19,0,0,0-1.07,4.17c-1.37,2.5-3,4.68-4.43,4.75s-1.47-1.59-.52-3.88c.85-2,2.68-5,3.49-6.84a4.78,4.78,0,0,0,0-4.48c-.29-.4-.55-.32-.91.24-1.18,1.72-2.24,4.48-4.55,8.56-2,3.48-4,6.29-5.42,6.17-.85-.08-1-1.53-.19-3.49a43.12,43.12,0,0,1,2.86-5.88c1.32-2.28,1.5-4.08.7-5.4a.53.53,0,0,0-1,0,43.79,43.79,0,0,0-5.06,10.2C73.32,77,73.4,80,76,80.21c2,.15,4-1.89,5.27-3.76-.29,2.32.67,4,3,4,1.89,0,3.87-1.56,5-3.45A4.52,4.52,0,0,0,94,80.32,9.09,9.09,0,0,0,101.22,76,3.45,3.45,0,0,0,101.84,73.52ZM92.9,71.28c1.72-3.8,4.76-6.2,5.53-5.52.51.44-.29,2.52-1.47,4.2-1.06,1.52-2.56,3.24-4.36,2C92.68,71.76,92.79,71.52,92.9,71.28Z"/><rect class="cls-4" x="110.36" y="24.76" width="3.23" height="55.5"/><path class="cls-10" d="M159.66,71.13c1-2.34,1-3.83.54-5.1-.21-.54-.62-.58-1,0a56.48,56.48,0,0,0-3.15,5.59,21.6,21.6,0,0,1-3.43.18c-.62,0-.87.27-.45.9a3.27,3.27,0,0,0,2.68,1.17c-1.78,3.57-3.52,7.35-4.39,9.61a12.56,12.56,0,0,0-.49,1.6c-1.81,2.82-4.64,5.91-7.82,5.74-2.19-.14-3.18-3-1.85-7.13,2.89,2.57,5.66,1.4,7.68-1.3,1.74-2.3,2.08-5,1.33-6.13a8,8,0,0,0-2.43-2.35c-2.07-1.31-6.29,1-9,6.85s-.87,11.45,4.37,11.36a10.13,10.13,0,0,0,7.49-4c.3,2.44,1.84,3.9,3.63,4,3.3.14,6-3.83,6.57-5.13a4.08,4.08,0,0,0,.42-2.57c-.17-.64-.62-.55-.87,0-1.53,3.39-3.89,6.58-5.75,6.49S151.58,88,153,84.69c1.57-3.78,3.93-8.15,5.55-11.17a11.13,11.13,0,0,1,3.22-.18c.62,0,.79-.31.5-.86A2.54,2.54,0,0,0,159.66,71.13ZM141,81.93c2-4.28,5.38-7,6.25-6.21.57.49-.34,2.84-1.66,4.73-1.2,1.71-2.9,3.65-4.92,2.25C140.76,82.47,140.89,82.2,141,81.93Z"/><path class="cls-10" d="M293,73.87a2.93,2.93,0,0,0,.3-3c-.54-1.22-1.74-1.76-2.4-1a3,3,0,0,0-.21,3.33C291.29,74.37,292.45,74.5,293,73.87Z"/><path class="cls-10" d="M306.57,84.62c-.17-.41-.5-.41-.71-.05-1.78,3-4.79,6.58-8.22,6.39-2.19-.13-3.18-3-1.86-7.12,2.89,2.57,5.66,1.4,7.69-1.3,1.74-2.3,2.07-5.05,1.33-6.13a7.94,7.94,0,0,0-2.44-2.35c-2.06-1.31-6.28,1-9,6.84a13,13,0,0,0-1.16,4c-1.26,3-3.48,5.89-5.3,6-1.32.09-1.4-1.67-.4-4.29.86-2.25,2.6-5.31,3.47-7.3,1-2.25.67-4.19.05-4.91-.33-.41-.62-.27-1,.27a57.64,57.64,0,0,0-5.22,10.7c-1.52,2.9-3.38,5.48-5,5.57s-1.73-2-.66-4.65c.95-2.34,3-5.68,3.85-7.66,1-2.34-.24-4.56-1.6-4.78s-4.18,2.25-6,4.41a5.81,5.81,0,0,0-.12-4.28c-.25-.45-.58-.5-.87,0A79.53,79.53,0,0,0,267,86.73a20.76,20.76,0,0,1-5.88,4.79c1.74-4.38,4.35-9.83,5.59-12.53,1-2.21.71-4.15.09-5-.29-.41-.7-.37-1,.27l-1.37,2.47c0-1.57-.78-3-2.43-3-2.11,0-5.46,2-8.69,7.25a14.25,14.25,0,0,0-2,5.19c-1.4,2.53-3.23,4.69-4.65,4.77s-1.36-1.85-.33-4.38,3.07-5.77,4-7.79c1-2.26.66-4.2,0-5q-.44-.61-1,.27c-.45.72-.95,1.67-1.49,2.75.09-1.76-.74-3.25-2.52-3.25-2.06,0-5.33,2-8.68,7.34a14.48,14.48,0,0,0-1.94,4.66c-1.4,2.78-3.78,5.46-7.45,5.7,1.57-1,3.1-3.2,4.35-6.17,1.53-3.7,2.44-7.71.46-10-1.78-2-4.21-.77-6,.94a5.2,5.2,0,0,0-.25-2c-.21-.54-.58-.63-1,0a124.89,124.89,0,0,0-7.05,13.38c-1.2,2-2.46,3.45-3.63,3.52-1.52.08-2.06-2-.9-4.61,1-2.2,3-5.18,3.77-7.21s.5-4.82-1-4.87c-1.32,0-4.09,2.07-6,4.1.5-2-.2-4.37-1.6-4.42s-4.51,2.61-6.37,4.86c.62-1.75.75-3.51.08-4.68-.24-.46-.66-.46-.9,0-2.11,3.65-4.8,7-7.45,7a2,2,0,0,0,.09-.72c.25-3.34-1-3.56-2-5-.87-1.22-1.49-1.63-2.77-1.54-2.48.18-5,2.84-6.58,5.86a15,15,0,0,0-1.72,5.56c-1.75,2.66-4.48,5.61-7.62,5.57-2.44,0-3.31-3.8-1-8.89,1.87-4.1,5-7,5.67-6.35s-.67,2.43-1.12,4.06c-.58,2,0,3.38,1,3.92.53.32.7.18.86-.36.83-2.43,2.49-4.82,1.62-6.72A5.71,5.71,0,0,0,177.83,74c-2.06-1.35-6.24,1.08-8.89,6.76s-.92,11.4,4.33,11.32a10.09,10.09,0,0,0,7.6-4.35,6,6,0,0,0,.87,2.1,4.26,4.26,0,0,0,5.25,2c3.06-1.08,5.66-5.77,6.49-9.65A5.34,5.34,0,0,0,197.33,81a46.54,46.54,0,0,0-2.65,6.31c-.67,2.25-.46,3.79.41,4.55.41.36.62.23.78-.13,1.66-4.24,3.65-8.38,6-11.22,2.64-3.16,4.71-4.37,5.12-4.19.79.36-3.64,6.53-5,10.28-1.11,3.2-.62,4.91,0,5.63.37.41.74.27.95-.27,1.74-4.19,3.77-8.47,7.16-12.17,2.65-2.88,4.1-3.46,4.43-3.33.62.27-3.07,5.23-4.56,9s-.21,6.71,3.34,6.76a4.77,4.77,0,0,0,2.38-.68A45.77,45.77,0,0,0,214,96.43c-.79,2.75-.58,4,0,5,.25.41.54.32.7-.09,2-5,4.1-9.6,6.05-13.48a4.82,4.82,0,0,0,1.4,3c1.44,1.44,3.18,1.85,5.82,1.67A8.73,8.73,0,0,0,234.55,89c.34,1.9,1.46,3.16,3.26,3.16,2,0,3.84-1.66,5.17-3.51a3.36,3.36,0,0,0,3.38,3.7c1.73.11,3.64-1.3,4.94-3.06a3.2,3.2,0,0,0,3.16,2.85,6,6,0,0,0,4.17-2.25c-.41,1-.78,2.11-1.2,3.1-4.09,1.71-7.65,4.46-8.85,8.52a6.08,6.08,0,0,0,.82,5.59c.75,1.17,1.57,1.31,2.4,1,3.35-1.44,6.29-8.61,8.57-14.65a19.57,19.57,0,0,0,6.08-3.55,3.23,3.23,0,0,0,.78,2.12c.37.4.61.22.78-.18,1.78-4.24,3.6-8.57,6-11.45,2.65-3.15,5.05-4.41,5.46-4.23.75.36-2.89,5.13-4.26,9.55-1.21,3.92-.38,6.72,3.13,6.72a6.85,6.85,0,0,0,4.93-2.89,3,3,0,0,0,3.21,2.77c2.15,0,4.54-1.65,5.87-4.13a5.14,5.14,0,0,0,5.37,4.18,10.28,10.28,0,0,0,8.1-4.86A3.92,3.92,0,0,0,306.57,84.62Zm-10.08-2.54c1.94-4.28,5.38-7,6.24-6.22.58.5-.33,2.84-1.65,4.74-1.2,1.71-2.9,3.65-4.92,2.25A7.73,7.73,0,0,1,296.49,82.08ZM189.31,85.36c-2,4.06-4.55,5.72-5.67,4.64s-.53-5.14,1.29-8.52a16.58,16.58,0,0,1,3.19-4.28,5.48,5.48,0,0,0,2.68,4.28A18.93,18.93,0,0,1,189.31,85.36Zm1.82-5a3.71,3.71,0,0,1-1-3c.17-1.35,1-1.57,1.24-.13A10.07,10.07,0,0,1,191.13,80.36ZM223,89.9c-1.16-1-.95-3.74.09-6.58.49-.95,1-1.76,1.4-2.57,1.95-3.47,4.51-5.72,5.5-5.18s.58,4.28-1,7.89C227,87.79,224.3,91.07,223,89.9Zm15.28.74c-1.61,0-1.07-4,1.13-7.89s5.29-6.94,6.61-6.8.83,2.93-1.78,7.88C242.11,87.8,240,90.68,238.26,90.64Zm12,14.84c-.7-1.08,1.12-7.25,6.5-10.68C254,101.65,250.77,106.34,250.23,105.48ZM255,90.7c-1.66,0-1.2-4,1-7.89s5.29-6.81,6.57-6.71.83,2.88-1.78,7.84C258.68,87.91,256.57,90.74,255,90.7Z"/><path class="cls-8" d="M329.49,53.32c-.55-2.28-2-3.39-2-5.74,0-1.87,4.57-4.15,4.57-5s-1.66-2.83-2.84-2.83c-1.79,0-5.19,3-5.19,5.46a8.19,8.19,0,0,0,.9,3l-2.76,3h0A49.1,49.1,0,0,1,318,54.73c-.11,0-.22.07-.3.11a1.71,1.71,0,0,0-1.11.92c-1.73,1.17-3.54,2.11-4.91,2.11-1.6,0-2.49-1.52-2.49-3.67a13.62,13.62,0,0,1,.21-2.42c3.8-2.41,7.61-5.94,7.61-7.6,0-.76-1-3.25-3.18-3.25-3.18,0-9.21,6-9.71,11.93-2.64,2.22-7.24,5.83-9.4,5.83-.41,0-1.31-.28-1.31-1.94A25.09,25.09,0,0,1,295,49.83c6.65-6.29,17.38-18.52,17.38-22.74a3.91,3.91,0,0,0-3.73-4c-4.84,0-15.92,16.8-18.64,28.83-2.49,2.21-7.4,7.4-9.41,7.4-.41,0-1.31-.28-1.31-1.94C279.26,54.52,281,50,281,50c6.93-6.29,16.69-17.07,16.7-21.16a3.91,3.91,0,0,0-3.74-4c-5.17,0-15.26,14-18,26.26h0s-6.78,6.7-10.45,6.7c-1.59,0-2.49-1.53-2.49-3.67a13.54,13.54,0,0,1,.21-2.42c3.81-2.42,7.62-5.94,7.62-7.6,0-.76-1-3.25-3.18-3.26-3.2,0-9.29,6-9.72,12.06-2.42,2.11-6.57,5.29-9.67,5.29a.66.66,0,0,1-.69-.69c0-3.67,5.54-8.51,5.54-9.27S251.94,45,250.63,45c-2.49,0-8.93,4.21-11.7,6.21,1.52-2.56,2.77-4.35,2.77-5.39,0-1.8-2.14-3.74-3.45-3.74-.42,0-.69.28-.7.83,0,2.07-2.63,6.16-4.87,9.54-2.45,2.1-7.41,6-10.5,6-.28,0-.76-.07-.76-.9,0-2.63,8-11.75,8-13.07a3.82,3.82,0,0,0-3.32-3.25,1.5,1.5,0,0,0-1.31,1c-.89,2.19-3.87,6.34-5.73,9.78-2.46,2.18-8.91,7.51-13.32,7.5-1.31,0-2.21-1-2.21-2.7,0-5.88,6.66-12.31,10-12.3.48,0,.55.34.55.41,0,.83-1,2.28-1.94,3.18a.77.77,0,0,0-.21.42.15.15,0,0,0,.14.14,5,5,0,0,0,1.24-.21,5.93,5.93,0,0,0,1.94-3.66c0-1.87-1.86-3.12-3.59-3.12-3.85,0-9.85,5.3-11.77,11.06-2.88,2.46-8.5,6.77-12.46,6.76-1.32,0-2.21-1-2.21-2.7,0-5.88,6.65-12.3,10-12.3.49,0,.55.35.55.42,0,.83-1,2.28-1.94,3.18a.76.76,0,0,0-.2.41.15.15,0,0,0,.13.14,5.11,5.11,0,0,0,1.25-.21,5.91,5.91,0,0,0,1.94-3.66c0-1.87-1.86-3.12-3.59-3.12-2.95,0-7.14,3.09-9.82,7.12a12.24,12.24,0,0,1-4.57.36,9.87,9.87,0,0,0,.75-4c.14-2.91-2.48-4.92-5.6-4.92-3.6,0-11.29,3.54-12.12,12.8-6.64,6-15.19,11.25-25.4,11.24-6,0-9.4-2.22-9.4-7.9C127.14,39.57,155,18,168.39,18c2.56,0,3.94.83,3.94,2.29,0,5.25-9.35,11.47-14.12,12.23a.59.59,0,0,0-.56.62c0,.41,2.28,1.94,3.94,1.94,1.94,0,12.12-8.5,12.12-13.75a7.33,7.33,0,0,0-7.25-7.21c-15.91,0-44.23,21.89-44.25,39.67,0,6.92,7.67,12.6,14.59,12.6,8.81,0,19.24-7,25.07-12.26,0,.18,0,.35,0,.53,0,3.18,4.44,4.84,6.1,4.85,1,0,4.78-.64,10.47-9.2,0,0,.25,0,.66,0h0a11.21,11.21,0,0,0,3.53-.11,12.89,12.89,0,0,0-1.72,6c0,3.25,2.76,4.91,5.53,4.91,4,0,9.93-4.57,13.11-7.29a10.38,10.38,0,0,0-.31,2.39c0,3.26,2.77,4.92,5.53,4.92,4.18,0,10.49-5,13.53-7.66a7.24,7.24,0,0,0-.79,2.69c0,2.22,2.62,3.81,3.73,3.81,2.86,0,7.3-3.26,10.17-5.64a12.08,12.08,0,0,0-1.8,3.23c0,1.45,1.59,3.39,2.28,3.39s1.39-3.53,5.68-7.4c3.81-3.45,8.52-5.8,9.14-5.8a.15.15,0,0,1,.14.14c0,.48-2.91,4.35-2.91,7.4,0,2.21,2.48,4.64,4.35,4.64,2.47,0,7-3.77,9.64-6.14.09,3.46,2.34,5.6,5.86,5.6,4.8,0,10.82-6,12-7.24a25.06,25.06,0,0,0-.48,4.69,3.9,3.9,0,0,0,3.87,4.22c2.62,0,7.82-5.18,10.52-7.67a20.83,20.83,0,0,0-.28,2.7,4.09,4.09,0,0,0,3.94,4.36c2.68,0,7.94-4.21,10.81-6.7.05,3.51,2.31,5.68,5.86,5.68,2.17,0,4.59-1.23,6.69-2.7A7.09,7.09,0,0,0,323,61.14c3.32,0,6.78-2.77,6.78-5.81a5.47,5.47,0,0,0-.13-1,16.89,16.89,0,0,1,2.14,1.18,1,1,0,0,0,.83-.76C332.6,54.43,331.7,53.67,329.49,53.32ZM314.9,43.76c.28,0,.35.28.35.49,0,1.24-2.84,4.35-5.75,6.43C311.58,45.84,313.86,43.76,314.9,43.76Zm-4.76-17.3a.6.6,0,0,1,.62.56c0,3.94-9.91,15.62-15.24,21C297.74,41.19,306.61,26.46,310.14,26.46Zm-14.81,1.79a.6.6,0,0,1,.63.55c0,3.95-9,13.9-14.34,19.22C283.84,41.24,291.81,28.25,295.33,28.25ZM268.69,43.72c.27,0,.34.28.34.48,0,1.25-2.84,4.36-5.75,6.43C265.36,45.79,267.65,43.72,268.69,43.72ZM167.25,58.43c-1-.08-2-1.35-2.27-2.87s.36-6.77,3-9.69h0c.68,1,2.7,2.94,8.55,4.05C174.86,54.58,170.47,58.66,167.25,58.43Zm9.87-9.79a21.08,21.08,0,0,1-5.37-2.73,3.58,3.58,0,0,1-1.22-1.71c-.18-1.21.66-2.79,2.89-2.78s3.34,1.28,3.73,3.53A9.81,9.81,0,0,1,177.12,48.64ZM321.53,57.4c-2.21,0-3.53-.63-3.53-1.11,0-.21.07-.35.56-.56a25.26,25.26,0,0,1,6.85-1.86C324.92,55.81,323.81,57.4,321.53,57.4Zm4-4.22a52.7,52.7,0,0,0-5.7,1c1.37-1.22,2.25-2.17,2.3-2.22h0s1.31-1.31,3-3.18a9.92,9.92,0,0,1,.42,3.6A2.76,2.76,0,0,1,325.55,53.18Z"/><path class="cls-14" d="M239.73,20.21c.36-.1.24-.43.35-.78-.71.19-1.06.53-1.77.5l.78-1.93c-1.38.88-2.7.48-4.24.08l0-.45c-3.42,0-6.29,2.74-7.81,5.08-.44,2.29.05,5.5-2.54,6.75.39,1.53,2-.47,1.69,1.24s1.47,3.95,2.09,5.94c2.84-.56,3.43,1,5.47,2.08,1.09.16,2.49-1.38,3.21.46l-.12-1.71c1.66-.39,2.16,1.47,3.25,2.08l.2-2.5c2,.64,3.92-1.79,5.33-2.21-.41-2.91,3.5-2.44,5.41-2.37-.52-1.64-4.75-1.08-4.58-4.08.47,0,1.06.37,1.41-.18.06-2.65-3.91-.48-3.14-3.11l5.09-.4C245.48,23.64,241.83,24.56,239.73,20.21Z"/></g></g></svg>