<svg xmlns="http://www.w3.org/2000/svg" width="106.99mm" height="67.49mm" viewBox="0 0 303.28 191.31"><defs><style>.cls-1{isolation:isolate;}.cls-2{fill:#82b657;}.cls-3{fill:#abcc57;}.cls-4{fill:#9fc75c;}.cls-5{fill:#ec646e;}.cls-6{fill:#ec6726;}.cls-7{fill:#3fa5a5;}.cls-13,.cls-8{fill:#490f19;}.cls-9{fill:#be2220;}.cls-10{fill:#a92120;}.cls-11{fill:#008492;}.cls-12{fill:#ead016;}.cls-13{mix-blend-mode:darken;}.cls-14{fill:#da1315;}</style></defs><g class="cls-1"><g id="Calque_3" data-name="Calque 3"><path class="cls-2" d="M88.67,157.07c-1.55,1.08-3.76.94-5,2.66,2.19.58,4.47.18,6.6,1.06,1.73.72,3.22,1.6,5.23,1.23-2.54.86-5.61.85-8,3,.71,1,1.86,1,2.95,1a3.13,3.13,0,0,0-.53.82c.45.12.89.74,1.38.79-.06.2-.11.4-.16.6l.08-.21.19.64a11.5,11.5,0,0,0,7,1.19c5.09-.52,7.13,7.34,12.34,6.21,3.23-.79,5.87.64,8.59,2.14s5.5,3,8.67,2.68c11.76-1.53,23.06-5.25,33.91-1.6,10.33,3.44,14.06,8.1,23.24,6s-4.24-9.73,6.37-10.15c27.6-1.09,48.77-9.6,56-15.92,5.27-4.48,17.45-12,18.81-19.4-4.79,6.49-12.2,10.73-19.23,13.9,12.53-11.24,25.54-23.18,33.57-37.48a94.85,94.85,0,0,1-32.51,31.14c-13,7.44-30.74,16.75-51.13,11.48,22.48-.56,40.45-7,55.33-17.44s27.35-24.45,31.06-40.34a24.78,24.78,0,0,0,.63-7.71c-1.3,16.83-12.71,31.36-27,41.86s-29.53,13.95-57.69,12.19c-16.37-1-40.79-14-40.79-14-18.1-1.1-52.17,18.42-70.7,23A2.86,2.86,0,0,1,88.67,157.07Z"/><path class="cls-3" d="M138.83,149.69c-35-20.22,23.7,5.62,53.87-14.28-7.19,4.74-13.09-9.21-17-13-19-6.74-17.51,13.32-36.16,8.42-4.16-1.14-7.4-2.72-12.63-4.26-7.65-2.26-17.17-4.31-22.55-4.13-11.32.36-14.68,3.92-20.73,16.9,5.76,4,12.71,3.74,18.11,8.53-2.44,1.76-5.3,3.75-8.14,4.31,2.48,1.09,5.11,3.56,7.6,2.86Z"/><path class="cls-4" d="M226,159.41a19.91,19.91,0,0,0,4.8-3.28c-10.42,7.2-26.14,9.25-41.47,8.26s-32.6-6.53-47.08-13.13c-13.48-6-25.33-12.45-38.36-16.64-3.16-1.73-6.42-3.28-9.6-4.86-6.54-3.24-12.95-6.42-19.9-9.1L69,118.54a42.12,42.12,0,0,0-6.53-1.86l-.58-.09-5.26-2.1c-1.53-.55-3.15-1.08-4.85-1.54-.34-.43-.81-.63-1.12-1.15v-.24l-.59.39c-.27-.36-.15.18-.48.1l-.9-.54c-.05.18.14.25.23.35-.21.42-.48.06-.72,0a.45.45,0,0,1,0,.34,32.6,32.6,0,0,0-20.39,3.31c1.66,1.88,5.6,2.36,6.75,4.5a30.15,30.15,0,0,1-6.13.85c.95.59,1.46,1.68,3.1,1.63A10.82,10.82,0,0,0,27,123.51c.73,1.08,4.31.59,6,.52,1,0,6.4-1,6.54-.16-3.21.71-6.65,1.12-10.13,1.92l-.09-.05s0,.05,0,.07l-.45.11c-.08,0-.13,0-.12,0l0,0c-.82.2-1.64.41-2.46.67.52.49,1.34.74,1.66,1.37-1.93.45-3.91-.15-5.88.82,1.77.92,4.06,1.14,5.64,2.27C29,132,30,133,32,133.16c-2.75.06-5.59-.64-8.84.42.21.89,1.28,1.15,2.28,1.42a3.7,3.7,0,0,0-.87.48c.36.19.49.75.93.89l-.43.42.17-.14L45,140.94a.26.26,0,0,0,0,.26l.56,0a.33.33,0,0,0,0-.17l5.79,1.26c.72,1.42,1.47,2.82,3.71,3,2.75.13,4.24,1.48,5.75,2.9s3.07,2.86,5.63,3.23c9.54,1.26,19.55,1.12,26.48,5.34,6.6,4,10.94.79,18.1,3.57s9,6.14,16.44,10.08c8.59,4.63,30.82,3.22,39.12,3.25,6,.08,18.22,1.58,23.32-1.28-6.81,1-14.06,0-20.46-1.42,14.58-.08,29.87-.29,43.25-3.6a115.07,115.07,0,0,1-39,1.12c-12.69-1.85-29.6-4.78-39.93-15.48a159.4,159.4,0,0,0,48.91,12.36C198.28,166.62,214.49,165.21,226,159.41Z"/><path class="cls-4" d="M25.06,136.79l-.6.48A3.71,3.71,0,0,0,25.06,136.79Z"/><path class="cls-4" d="M18.85,124.57c-.05-.25-.39-.5-.09-.74a1.23,1.23,0,0,1-.92-.71c0-.48-.44-1-.83-.84-.14-.11-.09-.25-.09-.34a.71.71,0,0,1-.59-.27,10.25,10.25,0,0,1-2.74-1.08l-.16.33-.84-.83c.1.44.74.83.45,1.26s-.68,0-1-.11l.34.25c-.34.39-.93-.3-1.41.08.59.68.11,1.07-.42,1.4H9.36a1.29,1.29,0,0,1,1.28.94c.25.77-.68.28-.91.57.24.24.72-.29.92.25a.85.85,0,0,1-1.06.23h-.1c.54.44,1.79,0,2.09.94-.24,0-.48.38-.23.58.82.06,1.12.79,1.89.94l-.34.24a11.6,11.6,0,0,0,2.16.14c-.52.81,1.2.14,1.06.86.38-.53,1-.8,1.24-.45.82-.45,1.87-1.3,1.87-2.36.34-.58-.14-.68-.23-1.42Z"/><path class="cls-4" d="M13.27,120.34l.32.25,0,0Z"/><path class="cls-4" d="M48,155.78l.09.1h.11A.38.38,0,0,1,48,155.78Z"/><path class="cls-4" d="M53.09,150.21c-.47.24-1-.08-1.42-.35l-.22-.22c.38.9-1,.5-1.46.66l-.33,0c.18.2.55.18.53.52l-.78-.06c.14.06.32.07.45.28l-.24.32c.18,0,.22.16.31.27s-.15.22-.25.32l.37.26c-.3.28-.62.3-.5.79l-1.11.11.31.27a.48.48,0,0,1-.56.19l-.09-.09.21.35-.78,0c.07.39,1.13.62.51,1.1l-.23,0c.32.13.49.48.75.74-.12.11-.21.22-.36.22.22.06.51.11.33.51l-.14.09c1-.07,1.16.91,2.08.84.69,1,1.66,0,2.3.07,0-.38.39-.5.59-.77l.09-2c-.36-.21-.53-.62-.83-1.08a2.66,2.66,0,0,0,1.4-1.3C54.49,151.18,53.34,151,53.09,150.21Z"/><path class="cls-4" d="M9,111.42c-1.18-1.06-2.87-.67-4.12-.13l-1.72,1c.35.17.2.59-.07.71l-.62.6c1.47.41-.49,1.13-.13,2l.18-.19c1,1-.59,1.49-.07,2.56l-.27.65c.45.47,1.09.1,1.65.23l.09.28c-.18.18,1.11-.43,1.32.28,2.77-.62-.28-4,3.31-3.9C8.36,113.86,10.29,113,9,111.42Z"/><path class="cls-4" d="M16.77,145.39l-.37-.34c-.23.77-.62-.84-1,0-.37-.06-.61-.36-1-.26a.44.44,0,0,1,.14.34c-.23.24-.56.09-.79.13l.1.35-.56.23c.14,0,.14.2.14.35l-.36.09c-.22.58.8.54.15,1.07-.32.14.56.15.1.49.51,0,.43.58.8.68l-.09.1c.79-.34.62,1.21,1.86.5.56.68,1-.57,1.47-.32a2,2,0,0,0,.4-2.32C17.29,145.69,17.43,146.22,16.77,145.39Z"/><polygon class="cls-4" points="9.37 143.1 9.7 143.1 8.9 143 9.37 143.1"/><path class="cls-4" d="M31.82,100.85c.64,0,1.3-.57.86-1.27a1.27,1.27,0,0,0-1.33-.3C30.75,99.54,30.77,101,31.82,100.85Z"/><path class="cls-4" d="M59,110.27c.66.1.3,1.06.85,1.24.32.27.31.41.11.69l-.14.13c.11,0,.4.06.47-.1.27.21.07.78.64.63.36.36-.21.51-.27.8.56.09.54-.54,1.14-.26.51,1.21,1.51-.17,2.05.41.1,0,.65.1.67-.34.2,0,.24.21.33.27.57-.2.76-1.25,1.18-1.17.34-.17.3-.51.6-.68a.5.5,0,0,1,.26-.56c-.73-.5.84-.67,0-1-.12-.34.36-.45.45-.54-.23-.07-.52.2-.8-.07.94-.7-.62-.83-.24-1.76-.21.23-.52,0-.56-.28v-.24c-.54.43-.83-.51-1.21-.54-.27-.21-1.17.74-1.69-.28-.42-.27-.58,1.27-1.3.49l-.32-.37c-.3.42.59.57.11.93-.48.16-.37-.36-.69-.49,0,.15.85,1.14-.15,1.25l-.79-.3a3.27,3.27,0,0,1,.43,1c-.21.61-.8-.25-.71.19.23.17.6.24.44.62Z"/><path class="cls-4" d="M59.81,112.33Z"/><path class="cls-4" d="M61.79,150.06c.4.38,0,.63.66.64.06-.23.34-.35.27-.65C62.51,149.55,61.94,149.83,61.79,150.06Z"/><path class="cls-4" d="M75.61,115.74a2.57,2.57,0,0,0,.17.94,2.53,2.53,0,0,0,1.82.66c.78-.6,1.3-.7,1.22-1.62.43-.25-.48-.63.19-.81-.24-.16-.8-.27-.62-.63a1.74,1.74,0,0,1-.77-.24v-.19c-.14,0-.25.31-.47.15-.2-.6-.53.19-.88-.09.13.11.08.26.07.4s-.35,0-.54,0l.11.11-.5.54.22.26-.33.12Z"/><path class="cls-4" d="M78.5,114.13a.72.72,0,0,0-.11.15A.11.11,0,0,0,78.5,114.13Z"/><path class="cls-4" d="M75.79,114.35h0l-.11-.11Z"/><path class="cls-4" d="M84.87,122.37c.12.21.88.09.75.65.19-.07.31.14.4.29l0,.24c.11-.23.33-.06.47-.1.18.12,0,.3.06.5.16-.18.34-.12.49-.29l.4.23c0-.14.2-.17.26-.31.66.5.95-.44,1.47-.53S89.22,122,90,122c-.78-.95.47-1.46-.39-2.61-.1,0-.23-.07-.33.06-.32-.13-.2-.6-.05-.78-.23,0-.34.16-.48.29-.22-.94-1.19-.36-1.54-.74,0,.45-.5,0-.66.28l-.22-.26.11.49c-.23-.12-.48.15-.68-.31-.26.51,0,1.31-.72,1.09.27.17.16.46.19.71C84.09,120.59,85.56,121.76,84.87,122.37Z"/><path class="cls-4" d="M27.72,155.31l-.23-.26-.65.55c.37.45-.46.7,0,1.16.22.06.64.13.54.51.5-.07,1.14.31,1.43-.51C28.76,156.12,28.6,154.86,27.72,155.31Z"/><polygon class="cls-4" points="31.23 156.53 31 156.38 31 156.62 32.09 156.78 31.23 156.4 31.23 156.53"/><path class="cls-4" d="M38.1,158.66c.42-.26.53-1.07.82-1.59-.67-.48-.48-.9-.64-1.55-.18-.25-.77-.24-.53-.75l-.33.36c-.41-.27-.12-.74-.21-1.08l-.56.45c-.26-.55-1.14-.47-1.5-.68-.52.66-1.19-.25-1.55-.66-.24.43.71,1.2,0,1.75-.09-.1-.13-.29-.32-.25-.56.5.67.9,0,1.26l-1.08-1c.62,1.1,1.52,1.68,1,3-.09-.05-.13,0-.23.08.18.11.32.12.45.27l-.55.22c.45.11.63.46.85.86l-.09.1a2.91,2.91,0,0,0,2.58.62c.56-.36,1.13-1.08,1.9-.79C38.41,158.88,37.67,158.93,38.1,158.66Z"/><polygon class="cls-4" points="37.17 152.39 37.16 152.79 37.26 152.4 37.17 152.39"/><path class="cls-4" d="M32.41,103.6l-.63.29A3.33,3.33,0,0,0,32.41,103.6Z"/><path class="cls-5" d="M95,146.9c.73.59-.47.7-.51,1.12.39.09.51-.72,1-.34a1,1,0,0,1-.87.9l-.11.06c.8.08,1.7-1.16,2.61-.42-.23.15-.21.67.15.7.82-.47,1.57.05,2.41-.29l-.17.44a13.78,13.78,0,0,0,2.17-1.24c0,1.11,1.23-.62,1.55.16,0-.75.42-1.37.92-1.22.49-1,1-2.43.29-3.44,0-.77-.56-.57-1.12-1.22l-.05.24c-.2-.21-.69-.23-.55-.64a1.44,1.44,0,0,1-1.34-.11c-.3-.46-1-.66-1.33-.29-.2,0-.24-.17-.3-.26a.8.8,0,0,1-.73.12c-1.17.26-2.29.87-3.8.65l.46,0,.06.49L94.49,142c.37.35,1.24.33,1.24.92-.15.5-.7.38-1.06.54l.49,0c-.08.58-1.08.3-1.31,1,1,.27.79,1,.48,1.6l-1.12.73A1.5,1.5,0,0,1,95,146.9Z"/><path class="cls-6" d="M150.4,146.78l-.23.13a2.94,2.94,0,0,1,1.19.24c-.05.21-.06.4-.32.49l-.15,0c.21.14.79-.43.9.27l-.08.17c.94-.71,1.69.14,2.53-.51,1.29.5,1.59-1.07,2.27-1.38-.28-.35.05-.74.06-1.12l-1.17-2a3.88,3.88,0,0,1-1.48-.52,3.06,3.06,0,0,0,.52-2.13c-.24-1.34-1.46-.78-2.19-1.39-.3.54-1,.57-1.59.57l-.36-.07c.95.62-.58,1.08-1,1.56l-.32.18c.29.09.64-.16.84.17l-.8.44a.81.81,0,0,1,.62,0l0,.46c.15-.15.31,0,.47.06s0,.31,0,.46l.52,0c-.11.44-.41.67,0,1.07l-1,.8.48.07a.59.59,0,0,1-.43.54l-.14,0,.43.2-.73.54C149.53,146.37,150.69,145.93,150.4,146.78Z"/><path class="cls-6" d="M85,140.14l.27.22c-.06.29.78-1.11,1.44-.56,2.27-2.35-2.83-3.69.71-5.84-1.24-1.47.08-3.51-2.17-4.21-1.82-.28-3.18,1.17-4,2.47l-1,2.09c.45-.06.57.43.38.72l-.2,1c1.66-.53.24,1.4,1.12,2l.06-.29c1.58.34.38,1.8,1.55,2.5l.16.79C84,141.14,84.38,140.38,85,140.14Z"/><path class="cls-6" d="M112.1,161.51c-.22.34.63-.21.4.41.5-.32.79.28,1.21.15l0,.15c.54-.82,1.37.77,2.1-.69,1,.29.57-1.16,1.22-1.25a2.29,2.29,0,0,0-1.09-2.48c-1-.44-.48,0-1.64-.4l-.58-.09c.28.88-1.12-.41-.94.61-.4.18-.81,0-1.15.4a.43.43,0,0,1,.35.24c-.06.37-.48.44-.67.62l.31.27-.38.58c.16,0,.25.1.35.24l-.29.31C111.42,161.28,112.38,160.6,112.1,161.51Z"/><polygon class="cls-5" points="106.02 159.68 105.19 160.09 105.71 159.88 106.02 159.68"/><path class="cls-7" d="M113.78,132.46l.27.43c.38-.48.65.2,1,.24.83-.57,2.19-1.11,1.89-2.13l-1.17-1.16c-.29.49-1.11.14-1.66.21.38.46-.69.66-.59.69l.24.1c-.48.47-.48.71-.7,1.44A.39.39,0,0,1,113.78,132.46Z"/><polygon class="cls-5" points="113.45 131.77 113.51 131.86 113.98 131.59 113.92 131.49 113.45 131.77"/><path class="cls-5" d="M132,162.09c.45-.39,1.3-.44,1.06-1.4-.44-.58-1.4-1.7-2-.71l-.38-.11-.28.94c.64.21,0,1,.72,1.13C131.41,161.85,131.85,161.66,132,162.09Z"/><path class="cls-5" d="M133.86,159.12l.78-.15Z"/><polygon class="cls-5" points="136.23 158.63 135.16 158.8 135.24 158.94 134.93 158.94 135.08 159.17 136.23 158.63"/><path class="cls-5" d="M138.06,159c-.12,0-.11.12-.17.22a2.1,2.1,0,0,1,.61,0l-.4.56a1.64,1.64,0,0,1,1.37.29l0,.14a3.33,3.33,0,0,0,2.88-1c.31-.7.4-1.76,1.32-2,0-.51-.68,0-.44-.52s-.18-1.37-.23-2c-.95,0-1-.56-1.59-1.07-.34-.13-.9.25-1-.39l-.09.55c-.56,0-.58-.63-.88-.9l-.26.78c-.6-.36-1.39.28-1.87.31-.09.95-1.3.51-1.91.34,0,.57,1.44.71,1.16,1.65-.15,0-.31-.2-.47,0-.21.84,1.22.45.78,1.23l-1.66-.26C136.48,157.43,137.72,157.42,138.06,159Z"/><path class="cls-5" d="M136.73,158.52l.6,0Z"/><polygon class="cls-5" points="138.41 151.16 138.33 151.21 138.57 151.59 138.41 151.16"/><path class="cls-8" d="M281.38,44.15c.44.2.89.41,1.37.6,1.83.76,3.95,1.9,6,1.94,4.33.09,9-4.19,10.58-8.37a7.21,7.21,0,0,0,.67-3.51,1.72,1.72,0,0,0-1.14-1.62c-1.24-.35-2.31.8-2.58,2.29s.14,3-.15,4.48a6.06,6.06,0,0,1-4.36,4.44,9.48,9.48,0,0,1-5.67-.62,31,31,0,0,1-5.18-2.47,28,28,0,0,0-1.68-5.23c.85-2.32,0-5.64-2.3-8.41h0l0,0,0,0h0c-2.66-2.45-5.94-3.42-8.3-2.68A28.84,28.84,0,0,0,263.44,23a29.82,29.82,0,0,1-2.23-5.28,9.56,9.56,0,0,1-.37-5.7,6.08,6.08,0,0,1,4.64-4.15c1.51-.22,3,.27,4.48.06s2.7-1.23,2.41-2.48a1.74,1.74,0,0,0-1.57-1.21,7.31,7.31,0,0,0-3.54.51C263,6.13,258.52,10.62,258.42,15c-.05,2,1,4.2,1.66,6.07.17.49.35.94.53,1.39a27.06,27.06,0,0,0-11,.45c6.26,3.85,14.25,10.38,19,18.5,3.53,7.89,4.57,12.66,8.13,19.1C280.15,55,281.8,47.8,281.38,44.15Z"/><path class="cls-8" d="M214.66,99.81c-38.21,19.12-62,19.82-62,19.82,8.45,13.37,32.85,32.59,79.32,8.69C250,119,278.48,90.55,266.12,58A159.23,159.23,0,0,1,214.66,99.81Z"/><path class="cls-9" d="M222.72,92.32c-36.85,25.44-68.19,33.75-68.19,33.75,10.92,12.57,45.53,30.69,90.24-.92,17.4-12.3,42.6-46,24.57-77.82C269.34,47.33,253.89,70.79,222.72,92.32Z"/><path class="cls-10" d="M222.72,92.32C188.84,121.6,163,132.06,163,132.06c12.21,11.32,52.6,29.38,93.62-6.88,16-14.11,33.9-55.82,10.63-86A222.55,222.55,0,0,1,222.72,92.32Z"/><path class="cls-11" d="M212.34,145.38c-1.2-.27-.85-1.46-1.17-2.28.29-.07.71-.47,1.09-.4.19-.91-.78-.49-1.34-.83-1.08-.79,1-1.41.64-1.77a8.3,8.3,0,0,1-3.08-1.58,15.77,15.77,0,0,1,.32-2.22c-.34-.51-1-.07-1.48-.26,0-.68.75-1.5-.07-2.1-1.18.68-1.7-.46-2.75-.56s.47-2-.28-1.84-.22,1.18-.92,1.48a3.46,3.46,0,0,1-2-.2l0-1.27a13.71,13.71,0,0,1-4.61,1.95c-.08-.42,0-1.11-.62-1.22-.4.45-.08.95-.37,1.5-2.11,0-1.94,2.87-3.59,2.37-.8.23.23.76.13,1.24-.29,1.11-1-.07-1.65.3,0,.41.54.57.69.91.2,1.53-1.57.71-2.16,1.22.17.6,1.25.05,1.3.76-1,.85-.44,2.33-1.82,2.85,1.15,0,1.09,1,1.55,1.64-.25.12-.54.55-.9.58,0,.64.51.42,1,.38-.05.14-.14.32-.19.47,8.84,1.37,13.61.54,20.83,0A1.8,1.8,0,0,1,212.34,145.38Z"/><path class="cls-12" d="M240.76,98.94c-1.95-.94.68-1.82.56-2.8-.92,0-.76,1.9-2.17,1.32A2.26,2.26,0,0,1,240.62,95l.2-.21c-1.82.25-3.19,3.51-5.62,2.33.44-.46.13-1.61-.69-1.5-1.6,1.48-3.55.72-5.25,1.92l.15-1.08c-1.53.84-2.75,2.68-4.2,3.92-.6-2.48-2.43,2.05-3.57.48.31,1.68-.21,3.28-1.4,3.2-.61,2.39-.88,6,1.15,7.89.5,1.7,1.57,1,3.17,2.13l0-.55c.57.36,1.68.16,1.59,1.15a3.35,3.35,0,0,1,3-.48c.93.88,2.68,1,3.13,0,.47-.09.64.25.83.43a1.8,1.8,0,0,1,1.57-.65c2.46-1.19,4.65-3.16,8.14-3.47l-1,.31-.4-1.07,3.12-.1c-1-.61-2.94-.09-3.26-1.43.08-1.18,1.36-1.22,2.08-1.77l-1.1.2c-.13-1.34,2.27-1.24,2.41-2.86-2.38-.09-2.26-1.73-1.92-3.35l2.14-2.22A3.46,3.46,0,0,1,240.76,98.94Z"/><path class="cls-6" d="M269.73,63.87c.09-.1.14-.36.3-.44-.16-.39-.41,0-.71,0-.6,0,0-.79-.22-.83a3.72,3.72,0,0,1-1.55.23,8.47,8.47,0,0,1-.46-.91c-.25-.11-.38.23-.61.29-.18-.25-.11-.76-.57-.76-.26.56-.75.28-1.16.51s-.34-.86-.58-.61.22.5,0,.8-.54.34-.77.44l-.34-.47a6.29,6.29,0,0,1-1.19,2c-.14-.14-.27-.43-.55-.29,0,.27.22.37.26.65-.78.57,0,1.58-.71,1.84-.23.29.29.22.37.42.18.49-.39.24-.53.55.09.16.35.07.49.16.47.51-.39.67-.48,1,.22.18.47-.31.68-.06-.15.58.44,1,.07,1.54.41-.32.66.1,1,.2-.07.12-.06.35-.19.46.17.23.3,0,.48-.13.06.24.13.5.19.82.25.19.46-.14.72-.13.13.34,0,.87.44,1,.4-.53.86-.06,1.36-.19s.17,1,.49.85-.14-.61.12-.88a1.63,1.63,0,0,1,.93-.23l.26.62A6.11,6.11,0,0,1,269,70.63c.12.19.2.55.52.49.09-.29-.15-.48-.13-.8,1-.36.33-1.72,1.17-1.76.32-.25-.25-.33-.3-.58-.08-.59.48-.14.69-.43-.06-.21-.36-.18-.49-.33-.39-.71.58-.61.75-1-.2-.26-.58.19-.74-.15.28-.58-.26-1.21.27-1.7C270.25,64.63,270.07,64.09,269.73,63.87Z"/><path class="cls-5" d="M273.63,97.42c-.05-.46-.41,0-.64,0-.55-.26.12-.54,0-.92-.21-.06-.34.24-.53.29-.8,0-.23-.92-.44-1.29-.32,0-.13.67-.5.63-.35-.62-1.15-.46-1.3-1.25-.07.62-.61.49-1,.68,0-.15-.23-.35-.22-.55-.41-.06-.19.42-.32.72-.3.59-.66-.45-.81-.26a4.21,4.21,0,0,1-.5,1.47,10.38,10.38,0,0,1-1.06-.67c-.36,0-.27.51-.48.72-.38-.17-.66-.78-1.18-.49.11.8-.64.79-.94,1.32s-1-.74-1.08-.31.6.41.6.86-.37.73-.56,1L262,99a7.83,7.83,0,0,1,0,2.94c-.25-.06-.61-.3-.82,0,.16.32.51.28.75.57-.49,1.13,1.13,1.75.48,2.51-.07.48.47.06.71.24.54.43-.28.52-.22,1,.22.13.44-.15.66-.14.9.28,0,1,.18,1.46.37.06.31-.66.72-.5.24.74,1.18.81,1.15,1.68.24-.63.82-.32,1.27-.42,0,.17.17.43.1.63.4.17.36-.25.49-.53l.65.14c.09.17.17.32.25.26s.08-.14.11-.21a5.15,5.15,0,0,0,.55,0,105.81,105.81,0,0,0,4.77-10.46A.62.62,0,0,1,273.63,97.42Z"/><path class="cls-13" d="M225.86,90c-5.3,4-10.73,8-16.34,11.58-1.41.9-2.79,1.84-4.22,2.71L201,106.9c-1.42.88-2.89,1.68-4.35,2.5s-2.89,1.67-4.38,2.43c-5.88,3.19-11.89,6.15-18,8.79a181.18,181.18,0,0,1-18.84,7.07l.37-1.63a87.94,87.94,0,0,0,10.89,8,95.26,95.26,0,0,0,11.91,6.39,78.44,78.44,0,0,0,26,6.73,68.78,68.78,0,0,0,26.71-3.1,79.67,79.67,0,0,0,12.53-5.22,97.54,97.54,0,0,0,11.61-7.15,82,82,0,0,1-23.8,13.39,69.78,69.78,0,0,1-27.17,3.78,80.07,80.07,0,0,1-26.69-6.68,89.46,89.46,0,0,1-23.27-14.69l-1.3-1.14,1.67-.49A179.22,179.22,0,0,0,173.54,119c6.11-2.62,12.17-5.35,18.09-8.4s11.74-6.26,17.44-9.71c2.88-1.67,5.66-3.5,8.48-5.29S223.08,91.89,225.86,90Z"/><path class="cls-10" d="M70,69.81c1-2.34,1-3.83.54-5.1-.2-.54-.62-.58-1,0a59.11,59.11,0,0,0-3.14,5.59,21.72,21.72,0,0,1-3.43.18c-.62,0-.87.27-.46.9a3.27,3.27,0,0,0,2.69,1.17c-1.78,3.57-3.52,7.35-4.39,9.61a12.67,12.67,0,0,0-.5,1.6c-1.81,2.82-4.64,5.91-7.82,5.74-2.19-.14-3.17-3-1.85-7.13,2.89,2.57,5.66,1.4,7.69-1.3,1.74-2.3,2.07-5,1.33-6.13a8.06,8.06,0,0,0-2.44-2.35c-2.06-1.31-6.28,1-9,6.85s-.88,11.45,4.37,11.36a10.11,10.11,0,0,0,7.48-4c.3,2.44,1.85,3.9,3.63,4,3.31.14,6-3.83,6.58-5.13a4.07,4.07,0,0,0,.41-2.57c-.16-.64-.62-.55-.87,0-1.53,3.39-3.89,6.58-5.74,6.49s-2.19-2.88-.83-6.18c1.58-3.78,3.94-8.15,5.55-11.17A11.2,11.2,0,0,1,72,72c.62,0,.78-.31.49-.86A2.54,2.54,0,0,0,70,69.81ZM51.32,80.61c1.94-4.28,5.37-7,6.24-6.21.58.49-.33,2.84-1.66,4.73C54.7,80.84,53,82.78,51,81.38A7.73,7.73,0,0,1,51.32,80.61Z"/><path class="cls-10" d="M203.29,72.55a2.91,2.91,0,0,0,.29-3c-.54-1.22-1.73-1.76-2.4-1a3,3,0,0,0-.21,3.33C201.59,73.05,202.75,73.18,203.29,72.55Z"/><path class="cls-10" d="M216.87,83.3c-.16-.41-.49-.41-.7,0-1.78,3-4.8,6.58-8.23,6.39-2.19-.13-3.18-3-1.85-7.12,2.89,2.57,5.66,1.4,7.68-1.3,1.74-2.3,2.07-5,1.33-6.13a7.91,7.91,0,0,0-2.43-2.35c-2.07-1.31-6.29,1-9,6.85a13.44,13.44,0,0,0-1.16,4c-1.26,3-3.47,5.89-5.29,6-1.32.09-1.4-1.67-.41-4.29.87-2.25,2.61-5.31,3.48-7.3,1-2.25.66-4.19,0-4.91-.33-.41-.62-.27-1,.27a58.27,58.27,0,0,0-5.21,10.7c-1.52,2.9-3.39,5.48-5,5.57s-1.73-2-.65-4.65c.95-2.34,3-5.68,3.85-7.66,1-2.34-.25-4.56-1.61-4.78s-4.18,2.25-6,4.41a5.76,5.76,0,0,0-.12-4.28c-.24-.45-.57-.5-.87,0a79,79,0,0,0-6.44,12.74,20.9,20.9,0,0,1-5.88,4.79c1.74-4.38,4.34-9.83,5.59-12.53,1-2.21.7-4.15.08-5-.29-.41-.7-.37-1,.27s-.87,1.57-1.37,2.47c.05-1.57-.78-3-2.43-3-2.11,0-5.46,2-8.68,7.25a13.9,13.9,0,0,0-2,5.19c-1.41,2.53-3.24,4.69-4.66,4.77s-1.36-1.85-.32-4.38,3.06-5.77,4-7.79c1-2.26.67-4.2.05-5q-.44-.62-1,.27a29.47,29.47,0,0,0-1.49,2.75c.08-1.76-.74-3.25-2.52-3.25-2.07,0-5.33,2-8.69,7.34A14.71,14.71,0,0,0,145,84.28c-1.4,2.78-3.78,5.46-7.44,5.7,1.57-1,3.1-3.2,4.34-6.17,1.53-3.7,2.45-7.71.46-10-1.77-2-4.21-.77-6,.94a5.2,5.2,0,0,0-.25-2c-.2-.54-.57-.63-1,0a126.76,126.76,0,0,0-7,13.38c-1.19,2-2.46,3.45-3.62,3.52-1.53.08-2.06-2-.91-4.61,1-2.2,3-5.18,3.77-7.21s.5-4.82-1-4.87c-1.32,0-4.09,2.07-6,4.1.5-2-.2-4.37-1.61-4.42s-4.51,2.61-6.37,4.86a6,6,0,0,0,.09-4.68c-.25-.46-.66-.46-.91,0-2.11,3.65-4.8,7-7.44,7a2.19,2.19,0,0,0,.08-.72c.25-3.34-1-3.56-2-5-.87-1.22-1.48-1.63-2.77-1.54-2.48.18-5,2.84-6.57,5.86A14.85,14.85,0,0,0,91,84c-1.75,2.66-4.48,5.61-7.62,5.57-2.44,0-3.3-3.8-1-8.89,1.86-4.1,5-7,5.66-6.35s-.66,2.43-1.12,4.06c-.58,2,0,3.38,1,3.92.54.32.7.18.87-.36.83-2.43,2.48-4.82,1.62-6.72a5.83,5.83,0,0,0-2.27-2.48c-2.07-1.35-6.24,1.08-8.89,6.76s-.92,11.4,4.33,11.32a10.07,10.07,0,0,0,7.59-4.35,6,6,0,0,0,.88,2.1C93.7,91,95.8,91,97.29,90.49c3.06-1.08,5.67-5.77,6.5-9.65a5.32,5.32,0,0,0,3.84-1.12A47.89,47.89,0,0,0,105,86c-.66,2.25-.46,3.79.41,4.55.41.36.62.23.79-.13,1.65-4.24,3.64-8.38,6-11.22,2.65-3.16,4.71-4.37,5.13-4.19.78.36-3.65,6.53-5,10.28-1.12,3.2-.63,4.91,0,5.63.37.41.74.27,1-.27,1.74-4.19,3.76-8.47,7.16-12.17,2.64-2.88,4.09-3.46,4.42-3.33.62.27-3.06,5.23-4.55,9s-.22,6.71,3.34,6.76a4.79,4.79,0,0,0,2.38-.68,45.77,45.77,0,0,0-1.85,4.83c-.79,2.75-.58,4,0,5,.25.41.54.32.71-.09,2-5,4.1-9.6,6-13.48a4.88,4.88,0,0,0,1.4,3c1.45,1.44,3.18,1.85,5.83,1.67a8.75,8.75,0,0,0,6.58-3.56c.34,1.9,1.45,3.16,3.25,3.16,2,0,3.85-1.66,5.17-3.51a3.36,3.36,0,0,0,3.38,3.7c1.73.11,3.65-1.3,4.94-3.06a3.22,3.22,0,0,0,3.16,2.85,6,6,0,0,0,4.18-2.25c-.42,1-.79,2.11-1.2,3.1-4.1,1.71-7.65,4.46-8.85,8.52a6,6,0,0,0,.82,5.59c.74,1.17,1.57,1.31,2.39,1,3.35-1.44,6.29-8.61,8.57-14.65a19.26,19.26,0,0,0,6.08-3.55,3.28,3.28,0,0,0,.78,2.12c.37.4.62.22.79-.18,1.78-4.24,3.6-8.57,6-11.45,2.65-3.15,5-4.41,5.46-4.23.74.36-2.9,5.13-4.27,9.55-1.2,3.92-.38,6.72,3.14,6.72a6.87,6.87,0,0,0,4.93-2.89,3,3,0,0,0,3.21,2.77c2.15,0,4.54-1.65,5.86-4.13A5.14,5.14,0,0,0,208.06,91a10.3,10.3,0,0,0,8.11-4.86A3.89,3.89,0,0,0,216.87,83.3Zm-10.08-2.54c2-4.28,5.38-7,6.25-6.22.58.5-.34,2.84-1.66,4.74-1.2,1.71-2.9,3.65-4.92,2.25C206.54,81.3,206.67,81,206.79,80.76ZM99.61,84c-2,4.06-4.55,5.72-5.66,4.64s-.54-5.14,1.29-8.52a16.56,16.56,0,0,1,3.18-4.28,5.5,5.5,0,0,0,2.68,4.28A18.37,18.37,0,0,1,99.61,84Zm1.83-5a3.68,3.68,0,0,1-1-3c.16-1.35,1-1.57,1.24-.13A10.07,10.07,0,0,1,101.44,79Zm31.84,9.54c-1.16-1-.95-3.74.09-6.58.5-1,.95-1.76,1.41-2.57,1.94-3.47,4.51-5.72,5.5-5.18s.57,4.28-1,7.89C137.29,86.47,134.6,89.75,133.28,88.58Zm15.29.74c-1.61,0-1.07-4,1.12-7.89s5.3-6.94,6.62-6.8.82,2.93-1.79,7.88C152.41,86.48,150.26,89.36,148.57,89.32Zm12,14.84c-.71-1.08,1.12-7.25,6.49-10.68C164.34,100.33,161.07,105,160.54,104.16Zm4.72-14.78c-1.65,0-1.19-4,1-7.89s5.3-6.81,6.58-6.71.82,2.88-1.79,7.84C169,86.59,166.87,89.42,165.26,89.38Z"/><path class="cls-8" d="M239.79,52c-.55-2.28-2-3.39-2-5.74,0-1.87,4.57-4.15,4.57-5s-1.65-2.83-2.83-2.83c-1.8,0-5.19,3-5.19,5.46a8.19,8.19,0,0,0,.89,3c-1.68,1.82-2.71,2.91-2.76,3h0a48,48,0,0,1-4.12,3.56l-.31.11a1.71,1.71,0,0,0-1.11.92c-1.73,1.17-3.54,2.11-4.91,2.11-1.59,0-2.49-1.52-2.49-3.67a13.62,13.62,0,0,1,.21-2.42c3.81-2.41,7.62-5.94,7.62-7.6,0-.76-1-3.25-3.18-3.25-3.18,0-9.21,6-9.72,11.93-2.63,2.22-7.24,5.83-9.39,5.83-.42,0-1.32-.28-1.32-1.94a25.49,25.49,0,0,1,1.53-6.92c6.65-6.29,17.38-18.52,17.39-22.74a3.92,3.92,0,0,0-3.73-4c-4.85,0-15.93,16.8-18.64,28.83-2.49,2.21-7.41,7.4-9.42,7.4-.41,0-1.31-.28-1.31-1.94,0-2.84,1.74-7.33,1.74-7.33C198.22,42.42,208,31.64,208,27.55a3.91,3.91,0,0,0-3.73-4c-5.18,0-15.27,14.05-18,26.26h0s-6.79,6.7-10.46,6.7c-1.59,0-2.49-1.53-2.48-3.67a13.54,13.54,0,0,1,.21-2.42c3.8-2.42,7.61-5.94,7.61-7.6,0-.76-1-3.25-3.18-3.26-3.2,0-9.29,6-9.72,12.06-2.41,2.11-6.56,5.29-9.66,5.29a.65.65,0,0,1-.69-.69c0-3.67,5.54-8.51,5.54-9.27s-1.17-3.32-2.49-3.32c-2.49,0-8.93,4.21-11.7,6.21,1.53-2.56,2.77-4.35,2.78-5.39,0-1.8-2.15-3.74-3.46-3.74-.41,0-.69.28-.69.83,0,2.07-2.63,6.16-4.87,9.54-2.45,2.1-7.42,6-10.5,6-.28,0-.77-.07-.76-.9,0-2.63,8-11.75,8-13.07a3.81,3.81,0,0,0-3.31-3.25,1.51,1.51,0,0,0-1.32,1c-.89,2.18-3.86,6.33-5.72,9.77-2.46,2.18-8.92,7.51-13.32,7.5-1.32,0-2.21-1-2.21-2.7,0-5.88,6.65-12.31,10-12.3.48,0,.55.34.55.41,0,.83-1,2.28-1.94,3.18a.74.74,0,0,0-.2.42.14.14,0,0,0,.13.14,5.11,5.11,0,0,0,1.25-.21,5.93,5.93,0,0,0,1.94-3.66c0-1.87-1.87-3.12-3.6-3.12-3.85,0-9.84,5.3-11.76,11.06-2.88,2.46-8.5,6.77-12.47,6.76-1.31,0-2.21-1-2.21-2.7,0-5.88,6.66-12.3,10-12.3.48,0,.55.35.55.42,0,.83-1,2.28-1.94,3.18a.72.72,0,0,0-.21.41.15.15,0,0,0,.14.14,5,5,0,0,0,1.24-.21,5.91,5.91,0,0,0,1.94-3.66c0-1.87-1.86-3.12-3.59-3.12-2.94,0-7.14,3.09-9.81,7.12a12.29,12.29,0,0,1-4.57.36,10.07,10.07,0,0,0,.75-4c.13-2.91-2.49-4.92-5.6-4.92-3.61,0-11.29,3.54-12.12,12.8C65.58,57.72,57,63,46.83,63c-5.95,0-9.41-2.22-9.4-7.9,0-16.81,27.84-38.43,41.26-38.42,2.56,0,4,.83,3.94,2.29,0,5.25-9.34,11.47-14.12,12.23a.59.59,0,0,0-.55.62c0,.41,2.28,1.94,3.94,1.94C73.83,33.72,84,25.22,84,20a7.35,7.35,0,0,0-7.26-7.21c-15.91,0-44.22,21.89-44.24,39.67,0,6.92,7.66,12.6,14.58,12.6C55.92,65,66.35,58,72.17,52.77c0,.18,0,.35,0,.53,0,3.18,4.44,4.84,6.1,4.85,1,0,4.78-.64,10.47-9.2,0,0,.26,0,.66,0h0a11.16,11.16,0,0,0,3.52-.11,13.13,13.13,0,0,0-1.72,6c0,3.25,2.77,4.91,5.53,4.91,4,0,9.94-4.57,13.11-7.29a10.36,10.36,0,0,0-.3,2.39c0,3.26,2.76,4.92,5.53,4.92,4.18,0,10.49-5,13.53-7.66a7.29,7.29,0,0,0-.8,2.69c0,2.22,2.63,3.81,3.74,3.81,2.85,0,7.3-3.26,10.16-5.64a11.92,11.92,0,0,0-1.79,3.23c0,1.45,1.59,3.39,2.28,3.39s1.39-3.53,5.68-7.4c3.81-3.45,8.51-5.8,9.14-5.8a.15.15,0,0,1,.13.14c0,.48-2.91,4.35-2.91,7.4,0,2.21,2.49,4.64,4.35,4.64,2.47,0,7-3.77,9.65-6.14.09,3.46,2.33,5.6,5.85,5.6,4.8,0,10.82-6,12-7.24a25.92,25.92,0,0,0-.48,4.69,3.91,3.91,0,0,0,3.87,4.22c2.63,0,7.82-5.18,10.52-7.67a20.83,20.83,0,0,0-.28,2.7,4.09,4.09,0,0,0,3.94,4.36c2.69,0,7.94-4.21,10.81-6.7.06,3.51,2.32,5.68,5.87,5.68,2.17,0,4.58-1.23,6.69-2.7a7.09,7.09,0,0,0,6.31,4.38c3.32,0,6.78-2.77,6.79-5.81a4.75,4.75,0,0,0-.14-1,16.09,16.09,0,0,1,2.14,1.18,1,1,0,0,0,.84-.76C242.91,53.11,242,52.35,239.79,52ZM225.2,42.44c.28,0,.35.28.35.49,0,1.24-2.84,4.35-5.75,6.43C221.88,44.52,224.17,42.44,225.2,42.44Zm-4.76-17.3a.61.61,0,0,1,.63.56c0,3.94-9.91,15.62-15.24,21C208.05,39.87,216.92,25.14,220.44,25.14Zm-14.8,1.79a.6.6,0,0,1,.62.55c0,3.95-9,13.9-14.34,19.22C194.14,39.92,202.11,26.93,205.64,26.93ZM179,42.4c.28,0,.35.28.34.48,0,1.25-2.84,4.36-5.74,6.43C175.67,44.47,178,42.4,179,42.4ZM77.55,57.11c-1-.08-2-1.35-2.27-2.87s.37-6.77,3-9.69h0c.68,1,2.71,2.94,8.55,4.05C85.16,53.26,80.77,57.34,77.55,57.11Zm9.87-9.79a21.08,21.08,0,0,1-5.37-2.73,3.73,3.73,0,0,1-1.22-1.71c-.17-1.21.67-2.79,2.9-2.78s3.33,1.28,3.73,3.53A9.92,9.92,0,0,1,87.42,47.32Zm144.41,8.76c-2.21,0-3.52-.63-3.52-1.11,0-.21.07-.35.55-.56a25.38,25.38,0,0,1,6.85-1.86C235.22,54.49,234.12,56.08,231.83,56.08Zm4-4.22a52.5,52.5,0,0,0-5.69,1c1.36-1.21,2.25-2.17,2.29-2.22h0s1.32-1.31,3-3.18a10.18,10.18,0,0,1,.41,3.6A2.76,2.76,0,0,1,235.85,51.86Z"/><path class="cls-14" d="M150,18.89c.36-.1.24-.43.35-.78-.72.19-1.07.53-1.78.5l.79-1.93c-1.39.88-2.71.48-4.25.08l0-.45c-3.42,0-6.29,2.74-7.8,5.08-.44,2.29,0,5.5-2.55,6.75.4,1.53,2-.47,1.69,1.24s1.47,3.95,2.09,5.94c2.84-.56,3.44,1,5.48,2.08,1.08.16,2.48-1.38,3.2.46l-.12-1.71c1.66-.39,2.16,1.47,3.25,2.08l.2-2.5c2,.64,3.93-1.79,5.33-2.21-.4-2.91,3.5-2.44,5.42-2.37-.52-1.64-4.76-1.08-4.58-4.08.46,0,1.06.37,1.41-.18.06-2.65-3.92-.47-3.15-3.11l5.09-.4C155.78,22.32,152.13,23.24,150,18.89Z"/></g></g></svg>