<?xml version="1.0" encoding="utf-8"?>
<!-- Generator: Adobe Illustrator 25.2.0, SVG Export Plug-In . SVG Version: 6.00 Build 0)  -->
<svg version="1.1" id="Calque_1" xmlns="http://www.w3.org/2000/svg" xmlns:xlink="http://www.w3.org/1999/xlink" x="0px" y="0px"
	 viewBox="0 0 405 199" style="enable-background:new 0 0 405 199;" xml:space="preserve">
<style type="text/css">
	.st0{fill:#82B657;}
	.st1{fill:#ACDB52;}
	.st2{fill:#A1CE57;}
	.st3{fill:#400F18;}
	.st4{fill:#4A0D17;}
	.st5{fill:#BE1F1F;}
	.st6{fill:#A91F1F;}
	.st7{fill:#3FA4A4;}
	.st8{fill:#EAD015;}
	.st9{fill:#FF9517;}
	.st10{fill:#FF646B;}
	.st11{fill:#DA0B00;}
	.st12{fill:#EDB720;}
</style>
<g>
	<path class="st0" d="M185,162.8c-1.6,1.1-3.8,0.9-5.1,2.7c2.2,0.6,4.5,0.2,6.6,1.1c1.7,0.7,3.2,1.6,5.2,1.2c-2.5,0.9-5.6,0.9-8.1,3
		c0.7,1,1.9,1,3,1c-0.2,0.2-0.4,0.5-0.5,0.8c0.5,0.1,0.9,0.7,1.4,0.8c-0.1,0.2-0.1,0.4-0.2,0.6l0.1-0.2l0.2,0.6
		c2.1,1.2,4.6,1.4,7,1.2c5.1-0.5,7.1,7.3,12.3,6.2c3.2-0.8,5.9,0.6,8.6,2.1c2.7,1.4,5.5,3,8.7,2.7c11.8-1.5,23.1-5.2,33.9-1.6
		c10.3,3.4,14.1,8.1,23.2,6c9.2-2.1-4.2-9.7,6.4-10.2c27.6-1.1,48.8-9.6,56-15.9c5.3-4.5,17.5-12,18.8-19.4
		c-4.8,6.5-12.2,10.7-19.2,13.9c12.5-11.2,25.5-23.2,33.6-37.5c-8.1,12.8-19.5,23.7-32.5,31.1c-13,7.4-30.7,16.7-51.1,11.5
		c22.5-0.6,40.5-7,55.3-17.4c14.8-10.3,27.3-24.5,31.1-40.3c0.6-2.4,0.9-5.3,0.6-7.7c-1.3,16.8-12.7,31.4-27,41.9
		c-14.4,10.6-29.5,13.9-57.7,12.2c-16.4-1-40.8-14-40.8-14c-18.1-1.1-52.2,18.4-70.7,23C184.4,162.4,184.7,162.5,185,162.8z"/>
	<path class="st1" d="M235.1,155.4c-35-20.2,23.7,5.6,53.9-14.3c-7.2,4.7-13.1-9.2-17-13c-19-6.7-17.5,13.3-36.2,8.4
		c-4.2-1.1-7.4-2.7-12.6-4.3c-7.6-2.3-17.2-4.3-22.6-4.1c-11.3,0.4-14.7,3.9-20.7,16.9c5.8,4,12.7,3.7,18.1,8.5
		c-2.4,1.8-5.3,3.7-8.1,4.3c2.5,1.1,5.1,3.6,7.6,2.9L235.1,155.4z"/>
	<path class="st2" d="M121.4,142.5l-0.6,0.5C121,142.9,121.2,142.7,121.4,142.5z"/>
	<g>
		<path class="st2" d="M107,129.6c0.2,0.8-0.7,0.3-0.9,0.6c0.2,0.2,0.7-0.3,0.9,0.3c-0.2,0.2-0.7,0.5-1.1,0.2l-0.1,0
			c0.5,0.4,1.8,0,2.1,0.9c-0.2,0-0.5,0.4-0.2,0.6c0.8,0.1,1.1,0.8,1.9,0.9l-0.3,0.2c0.6,0.2,1.4,0.1,2.2,0.1
			c-0.5,0.8,1.2,0.1,1.1,0.9c0.4-0.5,1-0.8,1.2-0.4c0.8-0.5,1.9-1.3,1.9-2.4c0.3-0.6-0.1-0.7-0.2-1.4l-0.1,0.2
			c0-0.3-0.4-0.5-0.1-0.7c-0.4-0.1-0.8-0.3-0.9-0.7c0-0.5-0.4-1-0.8-0.8c-0.1-0.1-0.1-0.2-0.1-0.3c-0.2,0-0.4-0.1-0.6-0.3
			c-1-0.4-2.1-0.5-3.1-1.3l0.3,0.2l-0.2,0.4l-0.8-0.8c0.1,0.4,0.7,0.8,0.5,1.3c-0.3,0.3-0.7-0.1-1-0.1l0.3,0.3
			c-0.3,0.4-0.9-0.3-1.4,0.1c0.6,0.7,0.1,1.1-0.4,1.4l-1.2,0C106.2,128.7,106.8,129.1,107,129.6z"/>
		<path class="st2" d="M144.3,160.7l-0.2,0c0.3,0.1,0.5,0.5,0.8,0.7c-0.1,0.1-0.2,0.3-0.5,0.2l-0.1-0.1c0.1,0.2,0.8,0.1,0.5,0.6
			l-0.1,0.1c1-0.1,1.2,0.9,2.1,0.8c0.7,1,1.7,0,2.3,0.1c0-0.4,0.4-0.5,0.6-0.8l0.1-2c-0.4-0.2-0.5-0.6-0.8-1.1
			c0.6-0.2,1.2-0.7,1.4-1.3c0.5-1.1-0.7-1.3-0.9-2.1c-0.5,0.2-1-0.1-1.4-0.3l-0.2-0.2c0.4,0.9-0.9,0.5-1.5,0.7l-0.3,0
			c0.2,0.2,0.5,0.2,0.5,0.5l-0.8-0.1c0.1,0.1,0.3,0.1,0.5,0.3l-0.2,0.3c0.2,0,0.2,0.2,0.3,0.3c0,0.1-0.1,0.2-0.2,0.3l0.4,0.3
			c-0.3,0.3-0.6,0.3-0.5,0.8l-1.1,0.1l0.3,0.3c-0.1,0.2-0.3,0.3-0.6,0.2l-0.1-0.1l0.2,0.4l-0.8,0C143.9,160,145,160.2,144.3,160.7z"
			/>
		<path class="st2" d="M100.1,124.6l0.1,0.3c-0.2,0.2,1.1-0.4,1.3,0.3c2.8-0.6-0.3-4,3.3-3.9c-0.2-1.7,1.7-2.5,0.5-4.1
			c-1.2-1.1-2.9-0.7-4.1-0.1l-1.7,1c0.4,0.2,0.2,0.6-0.1,0.7l-0.6,0.6c1.5,0.4-0.5,1.1-0.1,2l0.2-0.2c1,1-0.6,1.5-0.1,2.6l-0.3,0.6
			C98.9,124.8,99.6,124.5,100.1,124.6z"/>
		<path class="st2" d="M109.5,153.1c-0.3,0.1,0.6,0.2,0.1,0.5c0.5,0,0.4,0.6,0.8,0.7l-0.1,0.1c0.8-0.3,0.6,1.2,1.9,0.5
			c0.6,0.7,1-0.6,1.5-0.3c0.7-0.9,0.7-1.3,0.4-2.3c-0.5-0.8-0.3-0.2-1-1.1l-0.4-0.3c-0.2,0.8-0.6-0.8-1,0c-0.4-0.1-0.6-0.4-1-0.3
			c0.1,0.1,0.1,0.2,0.1,0.3c-0.2,0.2-0.6,0.1-0.8,0.1l0.1,0.3l-0.6,0.2c0.1,0,0.1,0.2,0.1,0.3l-0.4,0.1
			C109.2,152.6,110.2,152.5,109.5,153.1z"/>
		<path class="st2" d="M128.1,106.6c0.6,0,1.3-0.6,0.9-1.3c-0.3-0.4-0.9-0.4-1.3-0.3C127.1,105.3,127.1,106.7,128.1,106.6z"/>
		<path class="st2" d="M156.2,117.2c0.3,0.3,0.3,0.4,0.1,0.7l-0.1,0.1c-0.2-0.1,0.4,0.1,0.5-0.1c0.3,0.2,0.1,0.8,0.6,0.6
			c0.4,0.4-0.2,0.5-0.3,0.8c0.6,0.1,0.5-0.5,1.1-0.3c0.5,1.2,1.5-0.2,2.1,0.4c0.1,0,0.6,0.1,0.7-0.3c0.2,0,0.2,0.2,0.3,0.3
			c0.6-0.2,0.8-1.3,1.2-1.2c0.3-0.2,0.3-0.5,0.6-0.7c0-0.1-0.1-0.4,0.3-0.6c-0.7-0.5,0.8-0.7,0-1c-0.1-0.3,0.4-0.5,0.4-0.5
			c-0.2-0.1-0.5,0.2-0.8-0.1c0.9-0.7-0.6-0.8-0.2-1.8c-0.2,0.2-0.5,0-0.6-0.3l0-0.2c-0.5,0.4-0.8-0.5-1.2-0.5
			c-0.3-0.2-1.2,0.7-1.7-0.3c-0.4-0.3-0.6,1.3-1.3,0.5l-0.3-0.4c-0.3,0.4,0.6,0.6,0.1,0.9c-0.5,0.2-0.4-0.4-0.7-0.5
			c0,0.2,0.9,1.1-0.1,1.2l-0.8-0.3c0.1,0.3,0.4,0.6,0.4,1c-0.2,0.6-0.8-0.3-0.7,0.2c0.2,0.2,0.6,0.2,0.4,0.6l-0.8,0.4
			C156,116.1,155.6,117.1,156.2,117.2z"/>
		<path class="st2" d="M171.9,121.5c0,0.2,0.1,0.6,0.2,0.9c0.5,0.5,1.1,0.6,1.8,0.7c0.8-0.6,1.3-0.7,1.2-1.6
			c0.4-0.2-0.5-0.6,0.2-0.8c-0.3-0.2-1-0.3-0.5-0.8c0.1,0.4-0.7,0-0.9-0.1l0-0.2c-0.1,0-0.2,0.3-0.5,0.1c-0.2-0.6-0.5,0.2-0.9-0.1
			c0.1,0.1,0.1,0.3,0.1,0.4c-0.1,0.2-0.4,0-0.6,0L172,120l0.2,0.2l-0.5,0.5l0.2,0.3l-0.3,0.1L171.9,121.5z"/>
		<path class="st2" d="M181.2,128.1c0.1,0.2,0.9,0.1,0.8,0.7c0.2-0.1,0.3,0.1,0.4,0.3l0,0.2c0.1-0.2,0.3-0.1,0.5-0.1
			c0.2,0.1,0,0.3,0.1,0.5c0.2-0.2,0.3-0.1,0.5-0.3l0.4,0.2c0-0.1,0.2-0.2,0.3-0.3c0.7,0.5,1-0.4,1.5-0.5c0.5-0.1,0.1-1.1,0.9-1.1
			c-0.8-0.9,0.5-1.5-0.4-2.6c-0.1,0-0.2-0.1-0.3,0.1c-0.3-0.1-0.2-0.6,0-0.8c-0.2,0-0.3,0.2-0.5,0.3c-0.2-0.9-1.2-0.4-1.5-0.7
			c0,0.4-0.5,0-0.7,0.3l-0.2-0.3l0.1,0.5c-0.2-0.1-0.5,0.1-0.7-0.3c-0.3,0.5,0,1.3-0.7,1.1c0.3,0.2,0.2,0.5,0.2,0.7
			C180.4,126.3,181.9,127.5,181.2,128.1z"/>
		<path class="st2" d="M123.7,163c0.5-0.1,1.1,0.3,1.4-0.5c0-0.6-0.2-1.9-1.1-1.5l-0.2-0.3l-0.7,0.6c0.4,0.5-0.5,0.7,0,1.2
			C123.4,162.6,123.8,162.6,123.7,163z"/>
		<path class="st2" d="M126.4,161.7l0.6,0.3L126.4,161.7z"/>
		<polygon class="st2" points="128.4,162.5 127.5,162.1 127.5,162.3 127.3,162.1 127.3,162.4 		"/>
		<path class="st2" d="M129.6,163.6c-0.1-0.1-0.1,0-0.2,0.1c0.2,0.1,0.3,0.1,0.5,0.3l-0.6,0.2c0.5,0.1,0.6,0.5,0.8,0.9l-0.1,0.1
			c0.7,0.7,1.8,0.8,2.6,0.6c0.6-0.4,1.1-1.1,1.9-0.8c0.2-0.4-0.5-0.3-0.1-0.6c0.4-0.3,0.5-1.1,0.8-1.6c-0.7-0.5-0.5-0.9-0.6-1.5
			c-0.2-0.3-0.8-0.2-0.5-0.8l-0.3,0.4c-0.4-0.3-0.1-0.7-0.2-1.1l-0.6,0.4c-0.3-0.5-1.1-0.5-1.5-0.7c-0.5,0.7-1.2-0.2-1.6-0.7
			c-0.2,0.4,0.7,1.2,0.1,1.7c-0.1-0.1-0.1-0.3-0.3-0.3c-0.6,0.5,0.7,0.9,0,1.3l-1.1-1C129.2,161.8,130.1,162.4,129.6,163.6z"/>
		<path class="st2" d="M128.8,162.7l0.5,0.3L128.8,162.7z"/>
		<polygon class="st2" points="133.6,158.1 133.5,158.1 133.5,158.5 		"/>
	</g>
</g>
<g>
	<g>
		<path class="st3" d="M46.9,45.6c0.7-4.4,1.7-8.5,2.7-11.6c0.3-1.1,0.4-2,0-2.9c-0.4-1-0.5-1.1-0.8-1.6c-0.4-0.6-0.7-0.6-1.3,0
			c-3.9,3.5-9,11.4-11.8,16.8c-0.6,0-1.1-0.1-1.6-0.2c-0.5-0.1-0.6,0.1-0.4,0.6c0.1,0.3,0.4,0.9,1.2,1.4c-0.4,0.9-0.8,1.7-1,2.3
			c-0.8,2.2-0.6,3.4-0.2,4.1c0.2,0.3,0.5,0.3,0.7-0.1c0.7-1.8,1.7-3.7,2.8-5.8c1.7,0,4.7-0.4,7.3-0.6c-0.1,1.2-0.1,2.2-0.1,3
			c0,2.3,0.6,3.3,1.4,3.6c0.3,0.2,0.5,0,0.5-0.4c0.1-2.1,0.3-4.3,0.5-6.4c0.6,0,1.1,0.1,1.6,0.2c0.3,0.1,0.5,0,0.4-0.4
			C48.4,46.8,48,46,46.9,45.6z M44.5,45.4c-1.7,0-4,0.5-6.2,0.7c2.8-4.8,6.1-9.6,8.9-13C46.1,36.2,45.1,41.2,44.5,45.4z"/>
		<path class="st3" d="M84.5,38.4c0.5-0.6,0.7-1.6,0.3-2.7c-0.5-1.1-1.5-1.6-2.1-0.9c-0.6,0.7-0.8,1.9-0.2,3
			C83,38.9,84,39,84.5,38.4z"/>
		<path class="st3" d="M108.2,48c-0.1-0.4-0.4-0.3-0.5,0c-1.2,3-3,5.6-4.6,5.5c-1.1,0-1.5-1.6-0.9-3.8c0.6-2.2,2.5-4.9,4.2-7
			c1.1-1.3,0.2-3.2-0.5-4.1c-0.3-0.4-0.6-0.2-1,0.1c-1.4,1-2.7,1.7-4,1.9c0.9-2.6,1.3-5,0.1-5c-1.5,0.1-5.1,5.4-2.3,6.7
			c-2,5.1-6,11.4-10.1,11.2c-1.9-0.1-2.8-2.7-1.6-6.3c2.6,2.2,5,1.2,6.7-1.2c1.5-2,1.8-4.4,1.2-5.4c-0.6-0.9-1.2-1.4-2.2-2
			c-1.8-1.2-5.6,1.1-7.9,6c-0.6,1.2-0.9,2.4-1,3.5c-1.1,2.7-3.1,5.3-4.7,5.4c-1.2,0.1-1.2-1.5-0.4-3.8c0.8-2,2.3-4.7,3.1-6.5
			c0.9-2,0.6-3.7,0-4.4c-0.3-0.4-0.5-0.2-0.9,0.2c-1.4,2.1-3.8,6.8-4.7,9.7c0,0,0,0.1,0,0.1c-1.5,2.6-3.6,4.7-5.1,4.6
			c-1.6-0.2-1.2-3.5,0.2-7.4c3.3-2.3,7.4-7.1,8.5-12c0.4-1.9,0.2-3.4-0.8-4.4c-0.5-0.5-1-0.4-1.6,0.2c-3.7,4.2-7.8,11.4-9.2,18.3
			c-1.6,2.6-4.2,5.6-7.1,5.4c-1.9-0.1-2.8-2.6-1.6-6.3c2.6,2.3,5,1.2,6.8-1.2c1.5-2,1.8-4.5,1.2-5.4c-0.6-0.9-1.2-1.5-2.2-2.1
			c-1.8-1.2-5.6,0.9-8,6.1c-0.9,2-1.3,4.1-1,5.7c-1.2,1.9-2.6,3.3-3.7,3.2c-1.5-0.1-1.9-2.6-0.7-5.5c1.4-3.4,3.5-7.2,4.9-9.9
			c0.9-0.2,2.1-0.3,2.9-0.2c0.5,0,0.7-0.3,0.4-0.8c-0.3-0.5-0.8-1.2-2.3-1.2c0.9-2.1,0.9-3.4,0.5-4.5c-0.2-0.5-0.5-0.5-0.9,0
			c-0.6,0.9-1.6,2.8-2.8,5c-1,0.1-2,0.2-3,0.2c-0.5,0-0.8,0.2-0.4,0.8c0.3,0.4,1.1,1,2.4,1c-1.6,3.2-3.1,6.5-3.9,8.5
			c-1.8,4.6,0.2,7.6,2.6,7.6c1.8,0.1,3.5-1.3,4.6-2.6c0.8,1.6,2.2,2.7,4.4,2.6c2.6,0,5.2-1.6,6.8-3.7c0.1,2.4,1.4,3.6,3.3,3.6
			c1.8,0,3.5-1.2,4.7-2.4c0.2,1.5,1.1,2.5,2.9,2.5c1.9,0,4.1-1.5,5.2-3.7c0.5,2.2,2.2,3.7,4.7,3.6c4.4-0.1,8.3-5.1,11.4-12.1
			c1.1,0,2.8-0.4,4.4-1.5c-1.6,1.9-3.8,4.9-4.5,7.6c-0.9,3.2,0.2,6,3,6.1c2,0.1,4.2-1.7,5.1-4.1C108.5,49.5,108.4,48.4,108.2,48z
			 M87.6,45.6c1.7-3.7,4.7-6.2,5.5-5.4c0.5,0.4-0.3,2.5-1.5,4.2c-1.1,1.5-2.5,3.2-4.3,2C87.4,46.1,87.5,45.8,87.6,45.6z M72.9,42.5
			c2.5-5.1,5.2-9.6,5.7-9.2c0.5,0.3-1.6,6.7-6.6,11.2C72.3,43.7,72.6,43.1,72.9,42.5z M60.1,45.7c1.7-3.8,4.8-6.2,5.5-5.5
			c0.5,0.4-0.3,2.5-1.5,4.2c-1.1,1.5-2.6,3.2-4.4,2C59.8,46.2,60,45.9,60.1,45.7z"/>
	</g>
	<g>
		<path class="st3" d="M25.6,68.9c1.2-1.8,1.9-4,1.3-6.7c-0.7-2.7-2.5-3.4-4.3-3.2c-2.5,0.2-5.8,2.1-8.3,2.4c-0.4,0-0.5,0.2-0.4,0.7
			c0.3,0.6,1,1.5,2.5,1.6c-2.7,4.5-5.5,10.3-7,14.8c-0.8,2.6-0.5,3.2,0.1,4.1c0.5,0.8,1.1,1.4,1.9,1.8c0.8,0.4,1.7,0.5,3.1,0.2
			c2.1-0.4,4.8-1.8,6.4-3.7c1.6-1.9,1.6-4.2,0.8-5.5c-0.5-0.8-1.1-1.3-1.8-1.7C22.6,72.4,24.6,70.4,25.6,68.9z M19.5,78.4
			c-1.6,2.1-4.7,3.8-7.1,4.1c-1.2,0.2-1.6-0.3-1.2-1.7c0.5-2,1.5-4.1,2.5-6.2c0.5,0.3,1.2,0.4,2.3,0.3c0.5-0.1,1-0.2,1.5-0.3
			C20.9,74.8,20.9,76.6,19.5,78.4z M14.7,72.6c1.1-2,2.1-3.9,2.9-5.4c0.9-1.8,1.2-3,1.1-3.9c2.5-0.9,6.2-2.7,6.9-0.6
			C26.5,65.3,22,70.7,14.7,72.6z"/>
		<path class="st3" d="M68.1,68.4c0.5-0.6,0.7-1.6,0.3-2.7c-0.5-1.1-1.5-1.6-2.1-0.9c-0.6,0.7-0.8,1.9-0.2,3
			C66.6,68.9,67.6,69,68.1,68.4z"/>
		<path class="st3" d="M81.4,68.8c-0.3-0.4-0.5-0.6-0.9-0.1c-0.3,0.4-1,1.4-1.6,2.6c0.1-1.5-0.6-2.9-2.2-2.9c-1.8,0-4.8,1.8-7.7,6.4
			c-0.7,1.2-1.3,2.4-1.6,3.5c-1.1,2.7-3.1,5.1-4.7,5.2c-1.2,0.1-1.2-1.5-0.4-3.8c0.8-2,2.3-4.7,3.1-6.5c0.9-2,0.6-3.7,0-4.4
			c-0.3-0.4-0.5-0.2-0.9,0.2c-1.4,2.1-3.8,6.8-4.7,9.7c-0.1,0.4-0.2,0.7-0.3,1.1c-1.2,2.1-2.8,3.7-4,3.7c-1.5-0.1-1.9-2.6-0.7-5.5
			c1.4-3.4,3.5-7.2,4.9-9.9c0.9-0.2,2.1-0.3,2.9-0.2c0.5,0,0.7-0.3,0.4-0.8c-0.3-0.5-0.8-1.2-2.3-1.2c0.9-2.1,0.9-3.4,0.5-4.5
			c-0.2-0.5-0.5-0.5-0.9,0c-0.6,0.9-1.6,2.8-2.8,5c-1,0.1-2,0.2-3,0.2c-0.5,0-0.8,0.2-0.4,0.8c0.3,0.4,1.1,1,2.4,1
			c-1.6,3.2-3.1,6.5-3.9,8.5c-0.2,0.6-0.4,1.2-0.5,1.8c-1.3,2.5-3,4.7-4.4,4.8c-1.3,0.1-1.5-1.6-0.5-3.9c0.8-2.1,2.6-5,3.4-6.8
			c0.9-2,0.6-3.7,0-4.4c-0.3-0.4-0.6-0.3-0.9,0.2c-1.1,1.7-2.2,4.5-4.5,8.5c-1.9,3.5-4,6.2-5.4,6.1c-0.8-0.1-0.9-1.5-0.2-3.4
			c0.7-1.9,1.5-3.5,2.9-5.8c1.3-2.4,1.5-4,0.7-5.4c-0.3-0.4-0.6-0.4-0.9,0c-0.4,0.7-1,1.6-1.4,2.2c-1.2,2.2-3.3,4.1-5.4,4.1
			c0-0.3,0.1-0.6,0.1-0.8c0.2-3-0.8-3.2-1.7-4.4c-0.8-1.1-1.4-1.4-2.5-1.4c-2.2,0.2-4.5,2.4-5.9,5.2c-1.6,3.2-2.2,6.6-0.5,9
			c1.4,2.1,3.3,2.2,4.7,1.8c2.6-1,4.8-4.9,5.7-8.3c1.1,0.1,2.3-0.2,3.3-0.7c-0.6,1.2-1.1,2.4-1.4,3.4c-0.8,2.6-0.7,5.6,1.9,5.8
			c2.1,0.2,4-1.9,5.2-3.8c-0.3,2.3,0.6,3.9,3,3.9c1.7,0,3.5-1.3,4.7-3c0.4,1.8,1.7,2.9,3.1,2.9c1.7,0.1,3.2-1.1,4.3-2.3
			c0.3,1.4,1.2,2.3,2.8,2.3c1.7,0,3.5-1.1,4.7-2.9c0.3,1.7,1.3,2.9,2.9,2.9c0.9,0,1.8-0.4,2.6-1c-1.2,2.6-2.1,5.2-2.6,6.8
			c-0.6,2.3-0.2,3,0.3,3.7c0.3,0.3,0.5,0.3,0.7-0.2c2.9-7.6,7.3-15.8,9.5-20.2C81.8,71.5,81.8,69.8,81.4,68.8z M31.8,78.6
			c-1.8,3.6-4.1,5.1-5.1,4.2c-1-0.9-0.4-4.6,1.1-7.6c0.8-1.6,1.9-2.9,2.9-3.8c0,1.6,1.1,3.2,2.4,4C32.8,76.4,32.4,77.5,31.8,78.6z
			 M33.3,74.2c-0.7-0.6-1-1.6-0.8-2.7c0.1-1.1,1-1.4,1.1-0.1C33.7,72.1,33.6,73.1,33.3,74.2z M75.7,77.4c-1.9,3.6-3.8,6.1-5.3,6.1
			c-1.4,0-1-3.6,1-7.1c2-3.5,4.7-6.1,5.9-6C78.4,70.5,78,73,75.7,77.4z"/>
		<path class="st3" d="M108.5,77.9c-0.1-0.4-0.4-0.4-0.6,0c-1.6,2.6-4.3,5.8-7.3,5.7c-1.9-0.1-2.8-2.6-1.6-6.3
			c2.6,2.3,5,1.2,6.8-1.2c1.5-2,1.8-4.5,1.2-5.4c-0.6-0.9-1.2-1.5-2.2-2.1c-1.8-1.2-5.6,0.9-8,6.1c-0.7,1.4-1,2.9-1.1,4.2
			c-1.4,2.5-3,4.7-4.4,4.8c-1.3,0.1-1.5-1.6-0.5-3.9c0.8-2,2.7-5,3.5-6.8c0.9-2,0.6-3.8,0-4.5c-0.3-0.4-0.5-0.3-0.9,0.2
			c-1.2,1.7-2.2,4.5-4.5,8.6c-2,3.5-4,6.3-5.4,6.2c-0.8-0.1-1-1.5-0.2-3.5c0.8-1.9,1.5-3.5,2.9-5.9c1.3-2.3,1.5-4.1,0.7-5.4
			c-0.3-0.4-0.7-0.4-1,0c-2.4,3.6-4.3,7.6-5.1,10.2c-0.8,2.6-0.7,5.6,1.9,5.8c2.1,0.2,4-1.9,5.3-3.8c-0.3,2.3,0.7,4,3,4
			c1.9,0,3.9-1.6,5-3.5c0.6,2,2.2,3.4,4.7,3.4c2.8,0,5.6-1.9,7.2-4.3C108.5,79.4,108.6,78.3,108.5,77.9z M99.5,75.7
			c1.7-3.8,4.8-6.2,5.5-5.5c0.5,0.4-0.3,2.5-1.5,4.2c-1.1,1.5-2.6,3.2-4.4,2C99.3,76.2,99.4,75.9,99.5,75.7z"/>
	</g>
</g>
<rect x="117" y="29.2" class="st0" width="3.2" height="55.5"/>
<g>
	<g>
		<path class="st4" d="M377.7,49.9c0.4,0.2,0.9,0.4,1.4,0.6c1.8,0.8,4,1.9,6,1.9c4.3,0.1,9-4.2,10.6-8.4c0.5-1.3,0.8-2.5,0.7-3.5
			c-0.1-0.9-0.6-1.5-1.1-1.6c-1.2-0.3-2.3,0.8-2.6,2.3c-0.3,1.5,0.1,3-0.1,4.5c-0.4,2.2-2.4,3.9-4.4,4.4c-2,0.5-3.9,0-5.7-0.6
			c-1.8-0.6-3.5-1.5-5.2-2.5c-0.4-1.8-1-3.6-1.7-5.2c0.9-2.3,0-5.6-2.3-8.4l0,0c0,0,0,0,0,0c0,0,0,0,0,0l0,0
			c-2.7-2.5-5.9-3.4-8.3-2.7c-1.6-0.8-3.4-1.4-5.1-1.9c-0.9-1.7-1.7-3.5-2.2-5.3c-0.6-1.8-1-3.8-0.4-5.7c0.6-1.9,2.4-3.8,4.6-4.2
			c1.5-0.2,3,0.3,4.5,0.1c1.5-0.2,2.7-1.2,2.4-2.5c-0.1-0.6-0.6-1-1.6-1.2c-1-0.2-2.2,0.1-3.5,0.5c-4.2,1.4-8.7,5.9-8.8,10.2
			c0,2,1,4.2,1.7,6.1c0.2,0.5,0.4,0.9,0.5,1.4c-3.6-0.6-7.4-0.5-11,0.5c6.3,3.8,14.2,10.4,19,18.5c3.5,7.9,4.6,12.7,8.1,19.1
			C376.5,60.7,378.1,53.5,377.7,49.9z"/>
	</g>
	<path class="st3" d="M311,105.5c-38.2,19.1-62,19.8-62,19.8c8.4,13.4,32.8,32.6,79.3,8.7c18.1-9.3,46.5-37.8,34.2-70.4
		C362.4,63.7,343.3,89.4,311,105.5z"/>
	<path class="st5" d="M319,98.1c-36.8,25.4-68.2,33.8-68.2,33.8c10.9,12.6,45.5,30.7,90.2-0.9c17.4-12.3,42.6-46,24.6-77.8
		C365.6,53.1,350.2,76.5,319,98.1z"/>
	<g>
		<path class="st6" d="M319,98.1c-33.9,29.3-59.8,39.7-59.8,39.7c12.2,11.3,52.6,29.4,93.6-6.9c16-14.1,33.9-55.8,10.6-86
			C363.5,44.9,347.7,73.3,319,98.1z"/>
		<g>
			<path class="st7" d="M308.6,151.1c-1.2-0.3-0.8-1.5-1.2-2.3c0.3-0.1,0.7-0.5,1.1-0.4c0.2-0.9-0.8-0.5-1.3-0.8
				c-1.1-0.8,1-1.4,0.6-1.8c-1.1-0.2-2.1-0.9-3.1-1.6c0.1-0.7,0.1-1.3,0.3-2.2c-0.3-0.5-1-0.1-1.5-0.3c0-0.7,0.7-1.5-0.1-2.1
				c-1.2,0.7-1.7-0.5-2.7-0.6c-1-0.1,0.5-2-0.3-1.8c-0.9,0.2-0.2,1.2-0.9,1.5c-0.6,0.2-1.4-0.1-1.9-0.2l0-1.3
				c-1.2,0.8-2.9,1.7-4.6,2c-0.1-0.4,0-1.1-0.6-1.2c-0.4,0.5-0.1,1-0.4,1.5c-2.1,0-1.9,2.9-3.6,2.4c-0.8,0.2,0.2,0.8,0.1,1.2
				c-0.3,1.1-1-0.1-1.6,0.3c0,0.4,0.5,0.6,0.7,0.9c0.2,1.5-1.6,0.7-2.2,1.2c0.2,0.6,1.3,0,1.3,0.8c-1,0.9-0.4,2.3-1.8,2.9
				c1.1,0,1.1,1,1.6,1.6c-0.3,0.1-0.5,0.5-0.9,0.6c0,0.6,0.5,0.4,1,0.4c-0.1,0.1-0.1,0.3-0.2,0.5c8.8,1.4,13.6,0.5,20.8,0
				C307.5,151.7,307.9,151.2,308.6,151.1z"/>
		</g>
		<path class="st8" d="M337.1,104.7c-1.9-0.9,0.7-1.8,0.6-2.8c-0.9,0-0.8,1.9-2.2,1.3c-0.1-0.8,0.3-2.2,1.5-2.5l0.2-0.2
			c-1.8,0.2-3.2,3.5-5.6,2.3c0.4-0.5,0.1-1.6-0.7-1.5c-1.6,1.5-3.6,0.7-5.3,1.9l0.1-1.1c-1.5,0.8-2.7,2.7-4.2,3.9
			c-0.6-2.5-2.4,2.1-3.6,0.5c0.3,1.7-0.2,3.3-1.4,3.2c-0.6,2.4-0.9,6,1.2,7.9c0.5,1.7,1.6,1,3.2,2.1l0-0.5c0.6,0.4,1.7,0.2,1.6,1.1
			c0.9-0.5,2-0.9,3-0.5c0.9,0.9,2.7,1,3.1,0c0.5-0.1,0.6,0.3,0.8,0.4c0.5-0.5,0.9-0.7,1.6-0.6c2.5-1.2,4.7-3.2,8.1-3.5l-1,0.3
			l-0.4-1.1l3.1-0.1c-1-0.6-2.9-0.1-3.3-1.4c0.1-1.2,1.4-1.2,2.1-1.8l-1.1,0.2c-0.1-1.3,2.3-1.2,2.4-2.9c-2.4-0.1-2.3-1.7-1.9-3.4
			l2.1-2.2C340.2,104.9,338.4,105.5,337.1,104.7z"/>
		<path class="st9" d="M366,69.6c0.1-0.1,0.1-0.4,0.3-0.4c-0.2-0.4-0.4,0-0.7,0c-0.6,0,0-0.8-0.2-0.8c-0.5,0.2-1,0.2-1.5,0.2
			c-0.1-0.3-0.3-0.5-0.5-0.9c-0.3-0.1-0.4,0.2-0.6,0.3c-0.2-0.3-0.1-0.8-0.6-0.8c-0.3,0.6-0.7,0.3-1.2,0.5c-0.4,0.2-0.3-0.9-0.6-0.6
			c-0.3,0.3,0.2,0.5,0,0.8c-0.2,0.3-0.5,0.3-0.8,0.4l-0.3-0.5c-0.3,0.6-0.7,1.4-1.2,1.9c-0.1-0.1-0.3-0.4-0.5-0.3
			c0,0.3,0.2,0.4,0.3,0.7c-0.8,0.6,0,1.6-0.7,1.8c-0.2,0.3,0.3,0.2,0.4,0.4c0.2,0.5-0.4,0.2-0.5,0.5c0.1,0.2,0.3,0.1,0.5,0.2
			c0.5,0.5-0.4,0.7-0.5,1c0.2,0.2,0.5-0.3,0.7-0.1c-0.1,0.6,0.4,1,0.1,1.5c0.4-0.3,0.7,0.1,1,0.2c-0.1,0.1-0.1,0.3-0.2,0.5
			c0.2,0.2,0.3,0,0.5-0.1c0.1,0.2,0.1,0.5,0.2,0.8c0.3,0.2,0.5-0.1,0.7-0.1c0.1,0.3,0,0.9,0.4,1c0.4-0.5,0.9-0.1,1.4-0.2
			c0.5-0.1,0.2,1.1,0.5,0.9c0.4-0.2-0.1-0.6,0.1-0.9c0.2-0.2,0.7-0.2,0.9-0.2l0.3,0.6c0.4-0.6,1-1.3,1.7-1.7
			c0.1,0.2,0.2,0.5,0.5,0.5c0.1-0.3-0.2-0.5-0.1-0.8c1-0.4,0.3-1.7,1.2-1.8c0.3-0.2-0.3-0.3-0.3-0.6c-0.1-0.6,0.5-0.1,0.7-0.4
			c-0.1-0.2-0.4-0.2-0.5-0.3c-0.4-0.7,0.6-0.6,0.7-1c-0.2-0.3-0.6,0.2-0.7-0.2c0.3-0.6-0.3-1.2,0.3-1.7
			C366.6,70.4,366.4,69.8,366,69.6z"/>
	</g>
	<g>
		<path class="st10" d="M369.9,103.2c0-0.5-0.4,0.1-0.6-0.1c-0.5-0.3,0.1-0.5,0-0.9c-0.2-0.1-0.3,0.2-0.5,0.3
			c-0.8,0-0.2-0.9-0.4-1.3c-0.3,0-0.1,0.7-0.5,0.6c-0.4-0.6-1.2-0.5-1.3-1.3c-0.1,0.6-0.6,0.5-1,0.7c0-0.1-0.2-0.3-0.2-0.5
			c-0.4-0.1-0.2,0.4-0.3,0.7c-0.3,0.6-0.7-0.5-0.8-0.3c0,0.5-0.3,1-0.5,1.5c-0.3-0.2-0.7-0.4-1.1-0.7c-0.4,0-0.3,0.5-0.5,0.7
			c-0.4-0.2-0.7-0.8-1.2-0.5c0.1,0.8-0.6,0.8-0.9,1.3c-0.3,0.5-1-0.7-1.1-0.3c-0.1,0.5,0.6,0.4,0.6,0.9c0,0.4-0.4,0.7-0.6,1
			l-0.7-0.3c0.1,0.8,0.2,2,0,2.9c-0.2-0.1-0.6-0.3-0.8,0c0.2,0.3,0.5,0.3,0.7,0.6c-0.5,1.1,1.1,1.8,0.5,2.5
			c-0.1,0.5,0.5,0.1,0.7,0.2c0.5,0.4-0.3,0.5-0.2,1c0.2,0.1,0.4-0.1,0.7-0.1c0.9,0.3,0,1,0.2,1.5c0.4,0.1,0.3-0.7,0.7-0.5
			c0.2,0.7,1.2,0.8,1.2,1.7c0.2-0.6,0.8-0.3,1.3-0.4c0,0.2,0.2,0.4,0.1,0.6c0.4,0.2,0.4-0.2,0.5-0.5c0.2,0.1,0.4,0.1,0.7,0.1
			c0.1,0.2,0.2,0.3,0.2,0.3c0-0.1,0.1-0.1,0.1-0.2c0.2,0,0.4,0,0.6,0c1.7-3.3,3.3-6.8,4.8-10.5C369.9,103.7,369.8,103.5,369.9,103.2
			z"/>
	</g>
	<path class="st3" d="M322.2,95.8c-5.3,4.1-10.7,8-16.3,11.6c-1.4,0.9-2.8,1.8-4.2,2.7l-4.3,2.6c-1.4,0.9-2.9,1.7-4.3,2.5
		c-1.5,0.8-2.9,1.7-4.4,2.4c-5.9,3.2-11.9,6.1-18,8.8c-6.2,2.6-12.4,5.1-18.8,7.1l0.4-1.6c3.4,2.9,7.1,5.6,10.9,8
		c3.8,2.4,7.8,4.6,11.9,6.4c8.2,3.7,17,6.1,26,6.7c9,0.7,18.1-0.3,26.7-3.1c4.3-1.4,8.5-3.1,12.5-5.2c4-2.1,7.9-4.5,11.6-7.1
		c-7.1,5.7-15.1,10.4-23.8,13.4c-8.7,3-18,4.3-27.2,3.8c-9.2-0.6-18.3-3-26.7-6.7c-8.4-3.7-16.3-8.6-23.3-14.7l-1.3-1.1l1.7-0.5
		c6.3-1.9,12.6-4.3,18.7-6.8c6.1-2.6,12.2-5.4,18.1-8.4c5.9-3,11.7-6.3,17.4-9.7c2.9-1.7,5.7-3.5,8.5-5.3
		C316.7,99.5,319.4,97.6,322.2,95.8z"/>
</g>
<g>
	<path class="st11" d="M259.6,19l-2.2,1L259.6,19z"/>
	<polygon class="st11" points="252.9,22.1 256,20.8 255.6,20.5 256.5,20.3 255.9,19.7 	"/>
	<path class="st11" d="M251.5,22.7l-1.8,0.5L251.5,22.7z"/>
</g>
<g>
	<path class="st6" d="M166.3,75.5c1-2.3,1-3.8,0.5-5.1c-0.2-0.5-0.6-0.6-1,0c-0.7,1-1.9,3.1-3.1,5.6c-1.1,0.1-2.3,0.2-3.4,0.2
		c-0.6,0-0.9,0.3-0.5,0.9c0.3,0.5,1.3,1.2,2.7,1.2c-1.8,3.6-3.5,7.3-4.4,9.6c-0.2,0.6-0.4,1.1-0.5,1.6c-1.8,2.8-4.6,5.9-7.8,5.7
		c-2.2-0.1-3.2-3-1.9-7.1c2.9,2.6,5.7,1.4,7.7-1.3c1.7-2.3,2.1-5,1.3-6.1c-0.7-1-1.4-1.7-2.4-2.3c-2.1-1.3-6.3,1-9,6.8
		c-2.7,5.8-0.9,11.5,4.4,11.4c2.8,0,5.7-1.7,7.5-4c0.3,2.4,1.8,3.9,3.6,4c3.3,0.1,6-3.8,6.6-5.1c0.4-1,0.6-1.8,0.4-2.6
		c-0.2-0.6-0.6-0.5-0.9,0c-1.5,3.4-3.9,6.6-5.7,6.5c-1.7-0.1-2.2-2.9-0.8-6.2c1.6-3.8,3.9-8.2,5.5-11.2c1-0.2,2.3-0.3,3.2-0.2
		c0.6,0,0.8-0.3,0.5-0.9C168.5,76.3,167.9,75.5,166.3,75.5z M147.6,86.4c1.9-4.3,5.4-7,6.2-6.2c0.6,0.5-0.3,2.8-1.7,4.7
		c-1.2,1.7-2.9,3.6-4.9,2.2C147.4,86.9,147.5,86.6,147.6,86.4z"/>
	<path class="st6" d="M299.6,78.3c0.5-0.6,0.8-1.8,0.3-3c-0.5-1.2-1.7-1.8-2.4-1c-0.7,0.8-0.9,2.1-0.2,3.3
		C297.9,78.8,299.1,78.9,299.6,78.3z"/>
	<path class="st6" d="M313.2,89c-0.2-0.4-0.5-0.4-0.7,0c-1.8,3-4.8,6.6-8.2,6.4c-2.2-0.1-3.2-3-1.9-7.1c2.9,2.6,5.7,1.4,7.7-1.3
		c1.7-2.3,2.1-5,1.3-6.1c-0.7-1-1.4-1.7-2.4-2.3c-2.1-1.3-6.3,1-9,6.8c-0.6,1.4-1,2.7-1.2,4c-1.3,3-3.5,5.9-5.3,6
		c-1.3,0.1-1.4-1.7-0.4-4.3c0.9-2.3,2.6-5.3,3.5-7.3c1-2.3,0.7-4.2,0-4.9c-0.3-0.4-0.6-0.3-1,0.3c-1.5,2.3-4.1,7.4-5.2,10.7
		c-1.5,2.9-3.4,5.5-5,5.6c-1.5,0.1-1.7-2-0.7-4.6c1-2.3,3-5.7,3.8-7.7c1-2.3-0.2-4.6-1.6-4.8c-1.4-0.2-4.2,2.2-6,4.4
		c0.5-1.6,0.5-3.2-0.1-4.3c-0.2-0.5-0.6-0.5-0.9,0c-2.5,3.9-5.4,9.7-6.4,12.7c-1.5,1.7-3.4,3.4-5.9,4.8c1.7-4.4,4.3-9.8,5.6-12.5
		c1-2.2,0.7-4.1,0.1-5c-0.3-0.4-0.7-0.4-1,0.3c-0.4,0.8-0.9,1.6-1.4,2.5c0-1.6-0.8-3-2.4-3c-2.1,0-5.5,2-8.7,7.3
		c-1.1,1.8-1.8,3.6-2,5.2c-1.4,2.5-3.2,4.7-4.7,4.8c-1.4,0.1-1.4-1.8-0.3-4.4c1-2.4,3.1-5.8,4-7.8c1-2.3,0.7-4.2,0-5
		c-0.3-0.4-0.6-0.3-1,0.3c-0.5,0.7-1,1.7-1.5,2.7c0.1-1.8-0.7-3.2-2.5-3.2c-2.1,0-5.3,2-8.7,7.3c-1,1.6-1.6,3.2-1.9,4.7
		c-1.4,2.8-3.8,5.5-7.4,5.7c1.6-1,3.1-3.2,4.3-6.2c1.5-3.7,2.4-7.7,0.5-10c-1.8-2-4.2-0.8-6,0.9c0-0.8,0-1.4-0.2-2
		c-0.2-0.5-0.6-0.6-1,0c-1.5,2.2-4.6,8.1-7,13.4c-1.2,2-2.5,3.4-3.6,3.5c-1.5,0.1-2.1-2-0.9-4.6c1-2.2,3-5.2,3.8-7.2
		c0.8-2.2,0.5-4.8-1-4.9c-1.3,0-4.1,2.1-6,4.1c0.5-2-0.2-4.4-1.6-4.4c-1.5,0-4.5,2.6-6.4,4.9c0.6-1.8,0.7-3.5,0.1-4.7
		c-0.2-0.5-0.7-0.5-0.9,0c-2.1,3.7-4.8,7-7.4,7c0.1-0.2,0.1-0.5,0.1-0.7c0.3-3.3-1-3.6-2-5c-0.9-1.2-1.5-1.6-2.8-1.5
		c-2.5,0.2-5,2.8-6.6,5.9c-1,1.8-1.6,3.8-1.7,5.6c-1.7,2.7-4.5,5.6-7.6,5.6c-2.4,0-3.3-3.8-1-8.9c1.9-4.1,5-7,5.7-6.4
		c0.6,0.5-0.7,2.4-1.1,4.1c-0.6,2,0,3.4,1,3.9c0.5,0.3,0.7,0.2,0.9-0.4c0.8-2.4,2.5-4.8,1.6-6.7c-0.5-1-1.2-1.8-2.3-2.5
		c-2.1-1.4-6.2,1.1-8.9,6.8c-2.7,5.8-0.9,11.4,4.3,11.3c2.9,0,5.9-2,7.6-4.4c0.2,0.8,0.4,1.5,0.9,2.1c1.7,2.4,3.8,2.5,5.2,1.9
		c3.1-1.1,5.7-5.8,6.5-9.6c1.4,0.1,2.7-0.3,3.8-1.1c-1.2,2.5-2.2,4.8-2.7,6.3c-0.7,2.3-0.5,3.8,0.4,4.6c0.4,0.4,0.6,0.2,0.8-0.1
		c1.7-4.2,3.6-8.4,6-11.2c2.6-3.2,4.7-4.4,5.1-4.2c0.8,0.4-3.6,6.5-5,10.3c-1.1,3.2-0.6,4.9,0,5.6c0.4,0.4,0.7,0.3,1-0.3
		c1.7-4.2,3.8-8.5,7.2-12.2c2.6-2.9,4.1-3.5,4.4-3.3c0.6,0.3-3.1,5.2-4.6,9c-1.4,3.7-0.2,6.7,3.3,6.8c0.8,0,1.6-0.3,2.4-0.7
		c-0.9,2-1.5,3.7-1.9,4.8c-0.8,2.8-0.6,4,0,5c0.2,0.4,0.5,0.3,0.7-0.1c2-5,4.1-9.6,6-13.5c0.1,1.1,0.5,2.2,1.4,3
		c1.4,1.4,3.2,1.9,5.8,1.7c2.5-0.2,4.9-1.3,6.6-3.6c0.3,1.9,1.5,3.2,3.3,3.2c2,0,3.8-1.7,5.2-3.5c0,2.1,1.2,3.6,3.4,3.7
		c1.7,0.1,3.6-1.3,4.9-3.1c0.4,1.7,1.5,2.8,3.2,2.8c1.5,0,3-0.9,4.2-2.2c-0.4,1-0.8,2.1-1.2,3.1c-4.1,1.7-7.6,4.5-8.9,8.5
		c-0.8,2.7,0,4.2,0.8,5.6c0.7,1.2,1.6,1.3,2.4,0.9c3.3-1.4,6.3-8.6,8.6-14.6c2.3-0.9,4.5-2.1,6.1-3.6c0,0.9,0.3,1.6,0.8,2.1
		c0.4,0.4,0.6,0.2,0.8-0.2c1.8-4.2,3.6-8.6,6-11.4c2.6-3.2,5-4.4,5.5-4.2c0.7,0.4-2.9,5.1-4.3,9.6c-1.2,3.9-0.4,6.7,3.1,6.7
		c1.8,0,3.6-1.2,4.9-2.9c0.3,1.7,1.3,2.8,3.2,2.8c2.2,0,4.5-1.6,5.9-4.1c0.6,2.5,2.5,4.2,5.4,4.2c3.2,0,6.4-2.1,8.1-4.9
		C313.2,90.7,313.3,89.4,313.2,89z M303.1,86.5c1.9-4.3,5.4-7,6.2-6.2c0.6,0.5-0.3,2.8-1.7,4.7c-1.2,1.7-2.9,3.6-4.9,2.2
		C302.9,87,303,86.8,303.1,86.5z M195.9,89.8c-2,4.1-4.5,5.7-5.7,4.6c-1.1-1-0.5-5.1,1.3-8.5c0.9-1.7,2.1-3.2,3.2-4.3
		c0.1,1.8,1.2,3.4,2.7,4.3C197.1,87.1,196.6,88.4,195.9,89.8z M197.7,84.8c-0.8-0.8-1.1-2.1-1-3c0.2-1.4,1-1.6,1.2-0.1
		C198.1,82.4,198,83.5,197.7,84.8z M229.6,94.3c-1.2-1-0.9-3.7,0.1-6.6c0.5-0.9,1-1.8,1.4-2.6c1.9-3.5,4.5-5.7,5.5-5.2
		c1,0.5,0.6,4.3-1,7.9C233.6,92.2,230.9,95.5,229.6,94.3z M244.9,95.1c-1.6,0-1.1-4,1.1-7.9c2.3-4,5.3-6.9,6.6-6.8
		c1.2,0.1,0.8,2.9-1.8,7.9C248.7,92.2,246.6,95.1,244.9,95.1z M256.8,109.9c-0.7-1.1,1.1-7.3,6.5-10.7
		C260.7,106.1,257.4,110.8,256.8,109.9z M261.6,95.1c-1.7,0-1.2-4,1-7.9c2.3-3.9,5.3-6.8,6.6-6.7c1.2,0.1,0.8,2.9-1.8,7.8
		C265.3,92.3,263.2,95.2,261.6,95.1z"/>
</g>
<g>
	<path class="st2" d="M322.3,165.1c1.7-0.9,3.6-2.1,4.8-3.3c-10.4,7.2-26.1,9.3-41.5,8.3c-15.4-1-32.6-6.5-47.1-13.1
		c-13.5-6-25.3-12.4-38.4-16.6c-3.2-1.7-6.4-3.3-9.6-4.9c-6.5-3.2-13-6.4-19.9-9.1c-1.5-0.6-3.4-1.3-5.3-2.1c-2-0.7-4.2-1.4-6.5-1.9
		c-0.2,0-0.4-0.1-0.6-0.1c-1.6-0.6-3.4-1.3-5.3-2.1c-1.5-0.6-3.1-1.1-4.8-1.5c-0.3-0.4-0.8-0.6-1.1-1.2l0-0.2l-0.6,0.4
		c-0.3-0.4-0.2,0.2-0.5,0.1l-0.9-0.5c-0.1,0.2,0.1,0.2,0.2,0.4c-0.2,0.4-0.5,0.1-0.7-0.1c0.1,0.1,0,0.2,0,0.3
		c-5.7-0.9-12.3-0.7-20.4,3.3c1.7,1.9,5.6,2.4,6.8,4.5c-2,0.4-4.4,0.9-6.1,0.9c1,0.6,1.5,1.7,3.1,1.6c-1.4,0.1-3,0.2-4.6,1.1
		c0.7,1.1,4.3,0.6,6,0.5c1,0,6.4-1,6.5-0.2c-4.2,0.9-8.7,1.3-13.2,2.7c0.5,0.5,1.3,0.7,1.7,1.4c-1.9,0.4-3.9-0.2-5.9,0.8
		c1.8,0.9,4.1,1.1,5.6,2.3c1.3,0.9,2.3,1.9,4.3,2.1c-2.8,0.1-5.6-0.6-8.8,0.4c0.2,0.9,1.3,1.1,2.3,1.4c-0.3,0.1-0.6,0.3-0.9,0.5
		c0.4,0.2,0.5,0.7,0.9,0.9c-0.2,0.1-0.3,0.3-0.4,0.4l0.2-0.1l26.1,5.7c0.7,1.4,1.5,2.8,3.7,3c2.8,0.1,4.2,1.5,5.8,2.9
		c1.5,1.4,3.1,2.9,5.6,3.2c9.5,1.3,19.5,1.1,26.5,5.3c6.6,4,10.9,0.8,18.1,3.6c7.2,2.8,9,6.1,16.4,10.1c8.6,4.6,30.8,3.2,39.1,3.3
		c6,0.1,18.2,1.6,23.3-1.3c-6.8,1-14.1,0-20.5-1.4c14.6-0.1,29.9-0.3,43.3-3.6c-12.6,2.6-26.2,3-39,1.1
		c-12.7-1.8-29.6-4.8-39.9-15.5c14.2,6.4,33.2,11.1,48.9,12.4C294.6,172.4,310.8,171,322.3,165.1z"/>
	<path class="st10" d="M191.3,152.6c0.7,0.6-0.5,0.7-0.5,1.1c0.4,0.1,0.5-0.7,1-0.3c0,0.4-0.3,0.9-0.9,0.9l-0.1,0.1
		c0.8,0.1,1.7-1.2,2.6-0.4c-0.2,0.1-0.2,0.7,0.1,0.7c0.8-0.5,1.6,0.1,2.4-0.3l-0.2,0.4c0.7-0.2,1.4-0.9,2.2-1.2
		c0,1.1,1.2-0.6,1.6,0.2c0-0.7,0.4-1.4,0.9-1.2c0.5-1,1-2.4,0.3-3.4c0-0.8-0.6-0.6-1.1-1.2l0,0.2c-0.2-0.2-0.7-0.2-0.6-0.6
		c-0.4,0.1-0.9,0.2-1.3-0.1c-0.3-0.5-1-0.7-1.3-0.3c-0.2,0-0.2-0.2-0.3-0.3c-0.2,0.1-0.5,0.2-0.7,0.1c-1.2,0.3-2.3,0.9-3.8,0.7
		l0.5,0l0.1,0.5l-1.3-0.3c0.4,0.4,1.2,0.3,1.2,0.9c-0.2,0.5-0.7,0.4-1.1,0.5l0.5,0c-0.1,0.6-1.1,0.3-1.3,1c1,0.3,0.8,1,0.5,1.6
		l-1.1,0.7C190,152.2,190.9,152.2,191.3,152.6z"/>
	<path class="st12" d="M246.7,152.5l-0.2,0.1c0.4-0.1,0.8,0.1,1.2,0.2c-0.1,0.2-0.1,0.4-0.3,0.5l-0.2,0c0.2,0.1,0.8-0.4,0.9,0.3
		l-0.1,0.2c0.9-0.7,1.7,0.1,2.5-0.5c1.3,0.5,1.6-1.1,2.3-1.4c-0.3-0.4,0.1-0.7,0.1-1.1l-1.2-2c-0.5,0-0.9-0.3-1.5-0.5
		c0.4-0.6,0.7-1.5,0.5-2.1c-0.2-1.3-1.5-0.8-2.2-1.4c-0.3,0.5-1,0.6-1.6,0.6l-0.4-0.1c0.9,0.6-0.6,1.1-1,1.6l-0.3,0.2
		c0.3,0.1,0.6-0.2,0.8,0.2l-0.8,0.4c0.2,0,0.4-0.1,0.6,0l0,0.5c0.2-0.1,0.3,0,0.5,0.1c0.1,0.1,0,0.3,0,0.5l0.5,0
		c-0.1,0.4-0.4,0.7,0,1.1l-1,0.8l0.5,0.1c0,0.3-0.2,0.5-0.4,0.5l-0.1,0l0.4,0.2l-0.7,0.5C245.8,152.1,247,151.7,246.7,152.5z"/>
	<path class="st12" d="M181.3,145.9l0.3,0.2c-0.1,0.3,0.8-1.1,1.4-0.6c2.3-2.4-2.8-3.7,0.7-5.8c-1.2-1.5,0.1-3.5-2.2-4.2
		c-1.8-0.3-3.2,1.2-4,2.5l-1,2.1c0.5-0.1,0.6,0.4,0.4,0.7l-0.2,1c1.7-0.5,0.2,1.4,1.1,2l0.1-0.3c1.6,0.3,0.4,1.8,1.6,2.5l0.2,0.8
		C180.3,146.9,180.7,146.1,181.3,145.9z"/>
	<path class="st9" d="M208.4,167.3c-0.2,0.3,0.6-0.2,0.4,0.4c0.5-0.3,0.8,0.3,1.2,0.2l0,0.1c0.5-0.8,1.4,0.8,2.1-0.7
		c1,0.3,0.6-1.2,1.2-1.2c0.1-1.3-0.1-1.7-1.1-2.5c-1-0.4-0.5,0-1.6-0.4L210,163c0.3,0.9-1.1-0.4-0.9,0.6c-0.4,0.2-0.8,0-1.1,0.4
		c0.2,0,0.3,0.1,0.4,0.2c-0.1,0.4-0.5,0.4-0.7,0.6l0.3,0.3l-0.4,0.6c0.2,0,0.3,0.1,0.4,0.2l-0.3,0.3
		C207.7,167,208.7,166.3,208.4,167.3z"/>
	<polygon class="st10" points="202.3,165.4 201.5,165.8 202,165.6 	"/>
	<path class="st7" d="M210.1,138.2l0.3,0.4c0.4-0.5,0.6,0.2,1,0.2c0.8-0.6,2.2-1.1,1.9-2.1l-1.2-1.2c-0.3,0.5-1.1,0.1-1.7,0.2
		c0.4,0.5-0.7,0.7-0.6,0.7l0.2,0.1c-0.5,0.5-0.5,0.7-0.7,1.4C209.6,137.7,210,137.8,210.1,138.2z"/>
	<polygon class="st10" points="209.8,137.5 209.8,137.6 210.3,137.3 210.2,137.2 	"/>
	<path class="st10" d="M228.3,167.8c0.4-0.4,1.3-0.4,1.1-1.4c-0.4-0.6-1.4-1.7-2-0.7l-0.4-0.1l-0.3,0.9c0.6,0.2,0,1,0.7,1.1
		C227.7,167.6,228.2,167.4,228.3,167.8z"/>
	<path class="st10" d="M230.2,164.9l0.8-0.1L230.2,164.9z"/>
	<polygon class="st10" points="232.5,164.4 231.5,164.5 231.6,164.7 231.2,164.7 231.4,164.9 	"/>
	<path class="st10" d="M234.4,164.7c-0.1,0-0.1,0.1-0.2,0.2c0.2,0,0.4-0.1,0.6,0l-0.4,0.6c0.5-0.2,0.9,0.1,1.4,0.3l0,0.1
		c1.1,0.3,2.2-0.4,2.9-1c0.3-0.7,0.4-1.8,1.3-2c0-0.5-0.7,0-0.4-0.5c0.2-0.5-0.2-1.4-0.2-2.1c-1,0-1-0.6-1.6-1.1
		c-0.3-0.1-0.9,0.3-1-0.4l-0.1,0.6c-0.6,0-0.6-0.6-0.9-0.9l-0.3,0.8c-0.6-0.4-1.4,0.3-1.9,0.3c-0.1,1-1.3,0.5-1.9,0.3
		c0,0.6,1.4,0.7,1.2,1.6c-0.1,0-0.3-0.2-0.5,0c-0.2,0.8,1.2,0.4,0.8,1.2l-1.7-0.3C232.8,163.2,234,163.2,234.4,164.7z"/>
	<path class="st10" d="M233,164.3l0.6,0L233,164.3z"/>
	<polygon class="st10" points="234.7,156.9 234.6,156.9 234.9,157.3 	"/>
</g>
<path class="st3" d="M336.1,57.7c-0.6-2.3-2-3.4-2-5.7c0-1.9,4.6-4.1,4.6-5c0-1-1.7-2.8-2.8-2.8c-1.8,0-5.2,3-5.2,5.5
	c0,1.2,0.6,2.1,0.9,3c-1.7,1.8-2.7,2.9-2.8,3c0,0,0,0,0,0s-1.8,1.8-4.1,3.6c-0.1,0-0.2,0.1-0.3,0.1c-0.6,0.2-1,0.5-1.1,0.9
	c-1.7,1.2-3.5,2.1-4.9,2.1c-1.6,0-2.5-1.5-2.5-3.7c0-0.5,0.1-2,0.2-2.4c3.8-2.4,7.6-5.9,7.6-7.6c0-0.8-1-3.3-3.2-3.3
	c-3.2,0-9.2,6-9.7,11.9c-2.6,2.2-7.2,5.8-9.4,5.8c-0.4,0-1.3-0.3-1.3-1.9c0-2.8,1.5-6.9,1.5-6.9C308.2,48,319,35.7,319,31.5
	c0-1.9-1.4-4-3.7-4c-4.8,0-15.9,16.8-18.6,28.8c-2.5,2.2-7.4,7.4-9.4,7.4c-0.4,0-1.3-0.3-1.3-1.9c0-2.8,1.7-7.3,1.7-7.3
	c6.9-6.3,16.7-17.1,16.7-21.2c0-1.9-1.4-4-3.7-4c-5.2,0-15.3,14.1-18,26.3c0,0,0,0,0,0s-6.8,6.7-10.5,6.7c-1.6,0-2.5-1.5-2.5-3.7
	c0-0.5,0.1-2,0.2-2.4c3.8-2.4,7.6-5.9,7.6-7.6c0-0.8-1-3.3-3.2-3.3c-3.2,0-9.3,6-9.7,12.1c-2.4,2.1-6.6,5.3-9.7,5.3
	c-0.4,0-0.7-0.3-0.7-0.7c0-3.7,5.5-8.5,5.5-9.3c0-0.9-1.2-3.3-2.5-3.3c-2.5,0-8.9,4.2-11.7,6.2c1.5-2.6,2.8-4.4,2.8-5.4
	c0-1.8-2.1-3.7-3.5-3.7c-0.4,0-0.7,0.3-0.7,0.8c0,2.1-2.6,6.2-4.9,9.5c-2.5,2.1-7.4,6-10.5,6c-0.3,0-0.8-0.1-0.8-0.9
	c0-2.6,8-11.8,8-13.1c0-1.3-1.7-3.3-3.3-3.3c-0.8,0-1.1,0.6-1.3,1c-0.9,2.2-3.9,6.3-5.7,9.8c-2.5,2.2-8.9,7.5-13.3,7.5
	c-1.3,0-2.2-1-2.2-2.7c0-5.9,6.7-12.3,10-12.3c0.5,0,0.6,0.3,0.6,0.4c0,0.8-1,2.3-1.9,3.2c-0.1,0.1-0.2,0.3-0.2,0.4s0.1,0.1,0.1,0.1
	c0.3,0,1.2-0.1,1.2-0.2c1.2-1.3,1.9-2.6,1.9-3.7c0-1.9-1.9-3.1-3.6-3.1c-3.9,0-9.8,5.3-11.8,11.1c-2.9,2.5-8.5,6.8-12.5,6.8
	c-1.3,0-2.2-1-2.2-2.7c0-5.9,6.7-12.3,10-12.3c0.5,0,0.6,0.3,0.6,0.4c0,0.8-1,2.3-1.9,3.2c-0.1,0.1-0.2,0.3-0.2,0.4
	c0,0.1,0.1,0.1,0.1,0.1c0.3,0,1.2-0.1,1.2-0.2c1.2-1.3,1.9-2.6,1.9-3.7c0-1.9-1.9-3.1-3.6-3.1c-2.9,0-7.1,3.1-9.8,7.1
	c-0.5,0.1-2.8,0.7-4.6,0.4c0.2-0.4,0.6-1.5,0.8-4c0.1-2.9-2.5-4.9-5.6-4.9c-3.6,0-11.3,3.5-12.1,12.8c-6.6,6-15.2,11.3-25.4,11.2
	c-5.9,0-9.4-2.2-9.4-7.9c0-16.8,27.8-38.4,41.3-38.4c2.6,0,3.9,0.8,3.9,2.3c0,5.3-9.3,11.5-14.1,12.2c-0.4,0.1-0.6,0.3-0.6,0.6
	c0,0.4,2.3,1.9,3.9,1.9c1.9,0,12.1-8.5,12.1-13.8c0-2.8-2.3-7.2-7.3-7.2c-15.9,0-44.2,21.9-44.2,39.7c0,6.9,7.7,12.6,14.6,12.6
	c8.8,0,19.2-7,25.1-12.3c0,0.2,0,0.3,0,0.5c0,3.2,4.4,4.8,6.1,4.8c1,0,4.8-0.6,10.5-9.2c0,0,0.3,0,0.7,0c0,0,0,0,0,0
	c1.3,0.2,2.5,0.1,3.5-0.1c-1,1.9-1.7,4-1.7,6c0,3.3,2.8,4.9,5.5,4.9c4,0,9.9-4.6,13.1-7.3c-0.2,0.8-0.3,1.6-0.3,2.4
	c0,3.3,2.8,4.9,5.5,4.9c4.2,0,10.5-5,13.5-7.7c-0.5,1.1-0.8,2-0.8,2.7c0,2.2,2.6,3.8,3.7,3.8c2.9,0,7.3-3.3,10.2-5.6
	c-1,1.6-1.8,2.8-1.8,3.2c0,1.5,1.6,3.4,2.3,3.4s1.4-3.5,5.7-7.4c3.8-3.5,8.5-5.8,9.1-5.8c0.1,0,0.1,0.1,0.1,0.1
	c0,0.5-2.9,4.4-2.9,7.4c0,2.2,2.5,4.6,4.4,4.6c2.5,0,7-3.8,9.6-6.1c0.1,3.5,2.3,5.6,5.9,5.6c4.8,0,10.8-6,12-7.2
	c-0.3,1.6-0.5,3.2-0.5,4.7c0,2.8,2,4.2,3.9,4.2c2.6,0,7.8-5.2,10.5-7.7c-0.1,1-0.3,1.9-0.3,2.7c0,2.8,2.1,4.4,3.9,4.4
	c2.7,0,7.9-4.2,10.8-6.7c0.1,3.5,2.3,5.7,5.9,5.7c2.2,0,4.6-1.2,6.7-2.7c0.6,1.8,3.1,4.4,6.3,4.4c3.3,0,6.8-2.8,6.8-5.8
	c0-0.4-0.1-0.7-0.1-1c1.3,0.5,1.9,1.2,2.1,1.2c0.3,0,0.8-0.4,0.8-0.8C339.2,58.9,338.3,58.1,336.1,57.7z M321.5,48.2
	c0.3,0,0.3,0.3,0.3,0.5c0,1.2-2.8,4.4-5.7,6.4C318.2,50.3,320.5,48.2,321.5,48.2z M316.8,30.9c0.5,0,0.6,0.4,0.6,0.6
	c0,3.9-9.9,15.6-15.2,20.9C304.4,45.6,313.2,30.9,316.8,30.9z M302,32.7c0.5,0,0.6,0.4,0.6,0.6c0,3.9-9,13.9-14.3,19.2
	C290.5,45.7,298.4,32.7,302,32.7z M275.3,48.1c0.3,0,0.3,0.3,0.3,0.5c0,1.2-2.8,4.4-5.7,6.4C272,50.2,274.3,48.1,275.3,48.1z
	 M173.9,62.8c-1-0.1-2-1.4-2.3-2.9c-0.2-1.5,0.4-6.8,3-9.7c0,0,0,0,0,0c0.7,1,2.7,2.9,8.6,4.1C181.5,59,177.1,63.1,173.9,62.8z
	 M183.7,53.1c-1.1-0.4-3.8-1.5-5.4-2.7c-0.6-0.6-1.1-1.1-1.2-1.7c-0.2-1.2,0.7-2.8,2.9-2.8c2.4,0,3.3,1.3,3.7,3.5
	C184.1,51.4,183.7,53.1,183.7,53.1z M328.1,61.8c-2.2,0-3.5-0.6-3.5-1.1c0-0.2,0.1-0.3,0.6-0.6c1.1-0.4,3.3-1.4,6.9-1.9
	C331.5,60.2,330.4,61.8,328.1,61.8z M332.2,57.6c-1.9,0.2-4.1,0.7-5.7,1.1c1.4-1.2,2.3-2.2,2.3-2.2c0,0,0,0,0,0c0,0,1.3-1.3,3-3.2
	c0.3,1,0.4,1.9,0.4,3.6C332.2,57.1,332.2,57.3,332.2,57.6z"/>
<path class="st11" d="M246.4,24.6c0.4-0.1,0.2-0.4,0.3-0.8c-0.7,0.2-1.1,0.5-1.8,0.5l0.8-1.9c-1.4,0.9-2.7,0.5-4.2,0.1l0-0.4
	c-3.4,0-6.3,2.7-7.8,5.1c-0.4,2.3,0,5.5-2.5,6.7c0.4,1.5,2-0.5,1.7,1.2c-0.3,1.7,1.5,4,2.1,5.9c2.8-0.6,3.4,1,5.5,2.1
	c1.1,0.2,2.5-1.4,3.2,0.5l-0.1-1.7c1.7-0.4,2.2,1.5,3.2,2.1l0.2-2.5c2,0.6,3.9-1.8,5.3-2.2c-0.4-2.9,3.5-2.4,5.4-2.4
	c-0.5-1.6-4.8-1.1-4.6-4.1c0.5,0,1.1,0.4,1.4-0.2c0.1-2.6-3.9-0.5-3.1-3.1l5.1-0.4C252.1,28.1,248.4,29,246.4,24.6z"/>
</svg>
