<?xml version="1.0" encoding="utf-8"?>
<!-- Generator: Adobe Illustrator 25.2.0, SVG Export Plug-In . SVG Version: 6.00 Build 0)  -->
<svg version="1.1" id="Calque_1" xmlns="http://www.w3.org/2000/svg" xmlns:xlink="http://www.w3.org/1999/xlink" x="0px" y="0px"
	 viewBox="0 0 156.3 46.3" style="enable-background:new 0 0 156.3 46.3;" xml:space="preserve">
<style type="text/css">
	.st0{fill:#82B657;}
	.st1{fill:#400F18;}
	.st2{fill:#ACDB52;}
	.st3{fill:#A1CE57;}
	.st4{fill:#4A0D17;}
	.st5{fill:#BE1F1F;}
	.st6{fill:#A91F1F;}
	.st7{fill:#3FA4A4;}
	.st8{fill:#EAD015;}
	.st9{fill:#FF9517;}
	.st10{fill:#FF646B;}
	.st11{fill:#DA0B00;}
	.st12{fill:#EDB720;}
</style>
<g id="Groupe_507" transform="translate(-539.038 -72.998)">
	<rect id="Rectangle_1151" x="613.7" y="80.5" class="st0" width="1.4" height="23.6"/>
	<g id="Groupe_518" transform="translate(539.038 74.809)">
		<path id="Tracé_5747" class="st1" d="M14.6,17.3c0.5-3.4,1.3-6.7,2.3-10c0.3-0.8,0.3-1.7,0-2.5c-0.2-0.5-0.4-1-0.7-1.4
			c-0.3-0.5-0.6-0.5-1.1,0c-3.3,3-7.7,9.8-10.2,14.5c-0.5,0-1-0.1-1.4-0.2c-0.5-0.1-0.5,0.1-0.4,0.5c0.2,0.5,0.6,0.9,1,1.2
			c-0.3,0.6-0.6,1.3-0.8,2c-0.7,1.9-0.5,3-0.2,3.5c0.1,0.2,0.2,0.2,0.4,0.1c0.1,0,0.1-0.1,0.2-0.2c0.6-1.5,1.4-3.2,2.4-4.9
			c1.5,0,4-0.4,6.3-0.5c-0.1,1-0.1,1.9-0.1,2.6c0,2,0.5,2.8,1.2,3.1c0.3,0.1,0.5,0,0.5-0.3c0.1-1.8,0.3-3.7,0.5-5.5
			c0.5,0,0.9,0.1,1.4,0.2c0.3,0.1,0.4,0,0.3-0.3C15.9,18.2,15.4,17.5,14.6,17.3z M12.6,17.1c-1.5,0-3.4,0.4-5.3,0.6
			c2.3-3.9,4.8-7.6,7.6-11.2C13.8,10,13,13.5,12.6,17.1z"/>
		<path id="Tracé_5748" class="st1" d="M46.9,11.1c0.5-0.7,0.6-1.6,0.2-2.3c-0.4-0.9-1.3-1.3-1.8-0.8c-0.6,0.7-0.6,1.7-0.2,2.5
			C45.6,11.5,46.5,11.6,46.9,11.1z"/>
		<path id="Tracé_5749" class="st1" d="M67.3,19.3c-0.1-0.3-0.3-0.2-0.5,0c-1,2.5-2.6,4.8-3.9,4.7c-0.9,0-1.3-1.4-0.8-3.3
			c0.8-2.2,2.1-4.2,3.6-6c0.9-1.1,0.2-2.8-0.5-3.5c-0.2-0.3-0.5-0.2-0.9,0.1c-1,0.8-2.2,1.4-3.4,1.6c0.8-2.2,1.1-4.3,0.1-4.3
			c-1.3,0.1-4.4,4.6-2,5.7c-1.7,4.4-5.2,9.8-8.7,9.6C48.8,24,48,21.8,49,18.6c2.2,1.9,4.3,1.1,5.8-1c1.3-1.8,1.6-3.8,1-4.6
			c-0.5-0.7-1.1-1.3-1.9-1.8c-1.6-1-4.8,0.9-6.8,5.2c-0.5,1-0.8,2-0.9,3c-1,2.3-2.7,4.6-4.1,4.6c-1,0.1-1.1-1.3-0.3-3.3
			c0.7-1.7,2-4.1,2.6-5.6c0.8-1.7,0.5-3.2,0-3.7c-0.3-0.3-0.5-0.2-0.8,0.2c-1.6,2.6-3,5.4-4,8.3c0,0,0,0,0,0.1
			c-1.3,2.2-3.1,4-4.4,3.9c-1.4-0.1-1.1-3,0.2-6.4c2.8-2,6.3-6.1,7.3-10.3c0.4-1.6,0.2-2.9-0.7-3.8c-0.4-0.4-0.9-0.4-1.4,0.2
			c-3.9,4.5-6.6,9.9-7.9,15.7c-1.4,2.2-3.6,4.8-6.1,4.7c-1.7-0.1-2.4-2.3-1.4-5.4c2.2,2,4.3,1.1,5.9-1c1.3-1.8,1.6-3.8,1-4.7
			c-0.5-0.7-1.1-1.3-1.9-1.8c-1.6-1-4.8,0.8-6.8,5.2c-0.8,1.5-1.1,3.2-0.9,4.9c-1,1.6-2.2,2.8-3.2,2.8c-1.3-0.1-1.7-2.2-0.6-4.7
			c1.2-2.9,3-6.2,4.2-8.5c0.8-0.2,1.6-0.2,2.5-0.1c0.5,0,0.6-0.2,0.4-0.7c-0.4-0.7-1.1-1.1-2-1c0.6-1.2,0.8-2.6,0.4-3.9
			c-0.2-0.4-0.5-0.4-0.8,0c-0.9,1.4-1.7,2.8-2.4,4.3c-0.9,0.1-1.7,0.2-2.6,0.1c-0.5,0-0.7,0.2-0.3,0.7c0.5,0.6,1.3,0.9,2,0.9
			c-1.4,2.7-2.7,5.6-3.3,7.3c-1.5,3.9,0.2,6.5,2.2,6.6c1.6,0.1,3-1.1,3.9-2.2c0.7,1.5,2.2,2.4,3.8,2.3c2.3-0.1,4.5-1.3,5.8-3.2
			c0.1,2.1,1.2,3.1,2.8,3.1c1.6-0.1,3-0.9,4-2.1c0.1,1.3,1.1,2.2,2.4,2.1c0,0,0,0,0.1,0c2-0.2,3.7-1.4,4.5-3.2
			c0.4,1.9,2.1,3.3,4.1,3.1c3.7-0.1,7.1-4.4,9.8-10.4c1.4-0.1,2.7-0.5,3.8-1.3c-1.7,1.9-3,4.1-3.9,6.5c-0.8,2.8,0.2,5.1,2.5,5.3
			c1.7,0.1,3.6-1.5,4.4-3.5C67.4,20.9,67.5,20.1,67.3,19.3z M49.5,17.3c1.4-3.2,4-5.3,4.7-4.7c0.4,0.4-0.3,2.2-1.3,3.6
			c-0.9,1.3-2.2,2.7-3.7,1.7C49.4,17.7,49.4,17.5,49.5,17.3L49.5,17.3z M37,14.6c2.2-4.4,4.5-8.2,4.9-7.9s-1.4,5.8-5.7,9.6
			C36.4,15.7,36.7,15.1,37,14.6z M25.9,17.4c1.5-3.3,4.1-5.3,4.8-4.7c0.4,0.4-0.3,2.2-1.3,3.6c-0.9,1.3-2.2,2.8-3.7,1.7
			C25.7,17.8,25.8,17.6,25.9,17.4L25.9,17.4z"/>
	</g>
</g>
<g>
	<g>
		<path class="st0" d="M106,37.2c-0.4,0.2-0.9,0.2-1.2,0.6c0.5,0.1,1,0,1.5,0.2c0.4,0.2,0.7,0.4,1.2,0.3c-0.6,0.2-1.3,0.2-1.9,0.7
			c0.2,0.2,0.4,0.2,0.7,0.2c0,0.1-0.1,0.1-0.1,0.2c0.1,0,0.2,0.2,0.3,0.2c0,0,0,0.1,0,0.1l0,0l0,0.1c0.5,0.3,1.1,0.3,1.6,0.3
			c1.2-0.1,1.6,1.7,2.8,1.4c0.7-0.2,1.3,0.1,2,0.5c0.6,0.3,1.3,0.7,2,0.6c2.7-0.4,5.3-1.2,7.8-0.4c2.4,0.8,3.2,1.9,5.3,1.4
			c2.1-0.5-1-2.2,1.5-2.3c6.3-0.3,11.2-2.2,12.9-3.7c1.2-1,4-2.8,4.3-4.5c-1.1,1.5-2.8,2.5-4.4,3.2c2.9-2.6,5.9-5.3,7.7-8.6
			c-1.9,2.9-4.5,5.5-7.5,7.2c-3,1.7-7.1,3.9-11.8,2.6c5.2-0.1,9.3-1.6,12.7-4c3.4-2.4,6.3-5.6,7.1-9.3c0.1-0.5,0.2-1.2,0.1-1.8
			c-0.3,3.9-2.9,7.2-6.2,9.6c-3.3,2.4-6.8,3.2-13.3,2.8c-3.8-0.2-9.4-3.2-9.4-3.2c-4.2-0.3-12,4.2-16.3,5.3
			C105.9,37.1,105.9,37.2,106,37.2z"/>
		<path class="st2" d="M117.5,35.5c-8-4.7,5.5,1.3,12.4-3.3c-1.7,1.1-3-2.1-3.9-3c-4.4-1.6-4,3.1-8.3,1.9c-1-0.3-1.7-0.6-2.9-1
			c-1.8-0.5-3.9-1-5.2-0.9c-2.6,0.1-3.4,0.9-4.8,3.9c1.3,0.9,2.9,0.9,4.2,2c-0.6,0.4-1.2,0.9-1.9,1c0.6,0.3,1.2,0.8,1.7,0.7
			L117.5,35.5z"/>
		<path class="st3" d="M91.4,32.6l-0.1,0.1C91.3,32.6,91.3,32.6,91.4,32.6z"/>
		<g>
			<path class="st3" d="M88.1,29.6c0.1,0.2-0.2,0.1-0.2,0.1c0.1,0.1,0.2-0.1,0.2,0.1c0,0.1-0.2,0.1-0.2,0.1l0,0
				c0.1,0.1,0.4,0,0.5,0.2c-0.1,0-0.1,0.1-0.1,0.1c0.2,0,0.3,0.2,0.4,0.2l-0.1,0.1c0.1,0,0.3,0,0.5,0c-0.1,0.2,0.3,0,0.2,0.2
				c0.1-0.1,0.2-0.2,0.3-0.1c0.2-0.1,0.4-0.3,0.4-0.5c0.1-0.1,0-0.2-0.1-0.3l0,0c0-0.1-0.1-0.1,0-0.2c-0.1,0-0.2-0.1-0.2-0.2
				c0-0.1-0.1-0.2-0.2-0.2c0,0,0-0.1,0-0.1c-0.1,0-0.1,0-0.1-0.1c-0.2-0.1-0.5-0.1-0.7-0.3l0.1,0l0,0.1l-0.2-0.2
				c0,0.1,0.2,0.2,0.1,0.3c-0.1,0.1-0.2,0-0.2,0l0.1,0.1c-0.1,0.1-0.2-0.1-0.3,0c0.1,0.2,0,0.2-0.1,0.3l-0.3,0
				C87.9,29.4,88,29.5,88.1,29.6z"/>
			<path class="st3" d="M96.7,36.7L96.7,36.7c0,0,0.1,0.1,0.1,0.2c0,0-0.1,0.1-0.1,0l0,0c0,0,0.2,0,0.1,0.1l0,0
				c0.2,0,0.3,0.2,0.5,0.2c0.2,0.2,0.4,0,0.5,0c0-0.1,0.1-0.1,0.1-0.2l0-0.5c-0.1-0.1-0.1-0.1-0.2-0.2c0.1-0.1,0.3-0.2,0.3-0.3
				c0.1-0.2-0.2-0.3-0.2-0.5c-0.1,0.1-0.2,0-0.3-0.1l-0.1-0.1c0.1,0.2-0.2,0.1-0.3,0.2l-0.1,0c0,0,0.1,0,0.1,0.1l-0.2,0
				c0,0,0.1,0,0.1,0.1L97,35.9c0,0,0.1,0,0.1,0.1c0,0,0,0.1-0.1,0.1l0.1,0.1C97,36.2,97,36.2,97,36.3l-0.3,0l0.1,0.1
				c0,0-0.1,0.1-0.1,0l0,0l0,0.1l-0.2,0C96.6,36.6,96.8,36.6,96.7,36.7z"/>
			<path class="st3" d="M86.5,28.4L86.5,28.4c0,0.1,0.3,0,0.3,0.1c0.6-0.1-0.1-0.9,0.8-0.9c0-0.4,0.4-0.6,0.1-0.9
				c-0.3-0.2-0.7-0.2-0.9,0l-0.4,0.2c0.1,0,0,0.1,0,0.2l-0.1,0.1c0.3,0.1-0.1,0.3,0,0.5l0,0c0.2,0.2-0.1,0.3,0,0.6l-0.1,0.1
				C86.2,28.5,86.4,28.4,86.5,28.4z"/>
			<path class="st3" d="M88.6,35c-0.1,0,0.1,0,0,0.1c0.1,0,0.1,0.1,0.2,0.2l0,0c0.2-0.1,0.1,0.3,0.4,0.1c0.1,0.2,0.2-0.1,0.3-0.1
				c0.2-0.2,0.2-0.3,0.1-0.5c-0.1-0.2-0.1-0.1-0.2-0.2l-0.1-0.1c-0.1,0.2-0.1-0.2-0.2,0c-0.1,0-0.1-0.1-0.2-0.1c0,0,0,0.1,0,0.1
				c-0.1,0.1-0.1,0-0.2,0l0,0.1l-0.1,0.1c0,0,0,0,0,0.1l-0.1,0C88.6,34.9,88.8,34.9,88.6,35z"/>
			<path class="st3" d="M92.9,24.3c0.1,0,0.3-0.1,0.2-0.3c-0.1-0.1-0.2-0.1-0.3-0.1C92.7,24,92.7,24.3,92.9,24.3z"/>
			<path class="st3" d="M99.4,26.7c0.1,0.1,0.1,0.1,0,0.2l0,0c0,0,0.1,0,0.1,0c0.1,0,0,0.2,0.1,0.1c0.1,0.1,0,0.1-0.1,0.2
				c0.1,0,0.1-0.1,0.3-0.1c0.1,0.3,0.3,0,0.5,0.1c0,0,0.1,0,0.2-0.1c0,0,0.1,0,0.1,0.1c0.1,0,0.2-0.3,0.3-0.3c0.1,0,0.1-0.1,0.1-0.2
				c0,0,0-0.1,0.1-0.1c-0.2-0.1,0.2-0.2,0-0.2c0-0.1,0.1-0.1,0.1-0.1c-0.1,0-0.1,0-0.2,0c0.2-0.2-0.1-0.2-0.1-0.4
				c0,0.1-0.1,0-0.1-0.1l0-0.1c-0.1,0.1-0.2-0.1-0.3-0.1c-0.1-0.1-0.3,0.2-0.4-0.1c-0.1-0.1-0.1,0.3-0.3,0.1l-0.1-0.1
				c-0.1,0.1,0.1,0.1,0,0.2c-0.1,0-0.1-0.1-0.2-0.1c0,0,0.2,0.3,0,0.3L99.3,26c0,0.1,0.1,0.1,0.1,0.2c0,0.1-0.2-0.1-0.2,0
				c0.1,0,0.1,0.1,0.1,0.1l-0.2,0.1C99.3,26.5,99.2,26.7,99.4,26.7z"/>
			<path class="st3" d="M103,27.7c0,0.1,0,0.1,0,0.2c0.1,0.1,0.3,0.1,0.4,0.2c0.2-0.1,0.3-0.2,0.3-0.4c0.1-0.1-0.1-0.1,0-0.2
				c-0.1,0-0.2-0.1-0.1-0.2c0,0.1-0.2,0-0.2,0l0,0c0,0-0.1,0.1-0.1,0c0-0.1-0.1,0-0.2,0c0,0,0,0.1,0,0.1c0,0-0.1,0-0.1,0l0,0l0.1,0
				l-0.1,0.1l0,0.1L103,27.7L103,27.7z"/>
			<path class="st3" d="M105.1,29.2c0,0,0.2,0,0.2,0.2c0,0,0.1,0,0.1,0.1l0,0.1c0-0.1,0.1,0,0.1,0c0,0,0,0.1,0,0.1
				c0,0,0.1,0,0.1-0.1l0.1,0.1c0,0,0,0,0.1-0.1c0.2,0.1,0.2-0.1,0.3-0.1c0.1,0,0-0.2,0.2-0.2c-0.2-0.2,0.1-0.3-0.1-0.6
				c0,0-0.1,0-0.1,0c-0.1,0,0-0.1,0-0.2c-0.1,0-0.1,0-0.1,0.1c0-0.2-0.3-0.1-0.4-0.2c0,0.1-0.1,0-0.2,0.1l0-0.1l0,0.1
				c-0.1,0-0.1,0-0.2-0.1c-0.1,0.1,0,0.3-0.2,0.3c0.1,0,0,0.1,0,0.2C104.9,28.8,105.3,29.1,105.1,29.2z"/>
			<path class="st3" d="M91.9,37.3c0.1,0,0.3,0.1,0.3-0.1c0-0.1,0-0.4-0.2-0.3l-0.1-0.1l-0.1,0.1c0.1,0.1-0.1,0.2,0,0.3
				C91.8,37.2,91.9,37.2,91.9,37.3z"/>
			<path class="st3" d="M92.5,37l0.1,0.1L92.5,37z"/>
			<polygon class="st3" points="93,37.2 92.8,37.1 92.8,37.1 92.7,37.1 92.7,37.1 			"/>
			<path class="st3" d="M93.3,37.4C93.2,37.4,93.2,37.4,93.3,37.4C93.2,37.5,93.3,37.5,93.3,37.4l-0.1,0.1c0.1,0,0.1,0.1,0.2,0.2
				l0,0c0.2,0.2,0.4,0.2,0.6,0.1c0.1-0.1,0.3-0.2,0.4-0.2c0.1-0.1-0.1-0.1,0-0.1c0.1-0.1,0.1-0.2,0.2-0.4c-0.2-0.1-0.1-0.2-0.1-0.4
				c0-0.1-0.2-0.1-0.1-0.2l-0.1,0.1c-0.1-0.1,0-0.2,0-0.2L94,36.6c-0.1-0.1-0.3-0.1-0.3-0.2c-0.1,0.2-0.3-0.1-0.4-0.2
				c-0.1,0.1,0.2,0.3,0,0.4c0,0,0-0.1-0.1-0.1c-0.1,0.1,0.2,0.2,0,0.3L93,36.7C93.2,37,93.4,37.1,93.3,37.4z"/>
			<path class="st3" d="M93.1,37.2l0.1,0.1L93.1,37.2z"/>
			<polygon class="st3" points="94.2,36.2 94.2,36.1 94.2,36.2 			"/>
		</g>
	</g>
	<g>
		<g>
			<path class="st4" d="M150.3,11.3c0.1,0,0.2,0.1,0.3,0.1c0.4,0.2,0.9,0.4,1.4,0.4c1,0,2.1-1,2.4-1.9c0.1-0.3,0.2-0.6,0.2-0.8
				c0-0.2-0.1-0.3-0.3-0.4c-0.3-0.1-0.5,0.2-0.6,0.5c-0.1,0.3,0,0.7,0,1c-0.1,0.5-0.6,0.9-1,1c-0.4,0.1-0.9,0-1.3-0.1
				c-0.4-0.1-0.8-0.3-1.2-0.6c-0.1-0.4-0.2-0.8-0.4-1.2c0.2-0.5,0-1.3-0.5-1.9l0,0c0,0,0,0,0,0c0,0,0,0,0,0l0,0
				c-0.6-0.6-1.4-0.8-1.9-0.6c-0.4-0.2-0.8-0.3-1.2-0.4c-0.2-0.4-0.4-0.8-0.5-1.2c-0.1-0.4-0.2-0.9-0.1-1.3c0.1-0.4,0.6-0.9,1.1-1
				c0.3-0.1,0.7,0.1,1,0c0.3,0,0.6-0.3,0.6-0.6c0-0.1-0.1-0.2-0.4-0.3c-0.2,0-0.5,0-0.8,0.1c-1,0.3-2,1.3-2,2.3c0,0.5,0.2,1,0.4,1.4
				c0,0.1,0.1,0.2,0.1,0.3c-0.8-0.1-1.7-0.1-2.5,0.1c1.4,0.9,3.3,2.4,4.4,4.3c0.8,1.8,1.1,2.9,1.9,4.4
				C150,13.7,150.4,12.1,150.3,11.3z"/>
		</g>
		<path class="st1" d="M135,24.1c-8.8,4.4-14.3,4.6-14.3,4.6c1.9,3.1,7.6,7.5,18.2,2c4.2-2.1,10.7-8.7,7.9-16.2
			C146.8,14.4,142.4,20.3,135,24.1z"/>
		<path class="st5" d="M136.8,22.3c-8.5,5.9-15.7,7.8-15.7,7.8c2.5,2.9,10.5,7.1,20.8-0.2c4-2.8,9.8-10.6,5.7-17.9
			C147.6,12,144,17.4,136.8,22.3z"/>
		<g>
			<path class="st6" d="M136.8,22.3c-7.8,6.7-13.7,9.1-13.7,9.1c2.8,2.6,12.1,6.8,21.5-1.6c3.7-3.2,7.8-12.8,2.4-19.8
				C147.1,10.1,143.4,16.6,136.8,22.3z"/>
			<g>
				<path class="st7" d="M134.4,34.5c-0.3-0.1-0.2-0.3-0.3-0.5c0.1,0,0.2-0.1,0.3-0.1c0-0.2-0.2-0.1-0.3-0.2
					c-0.2-0.2,0.2-0.3,0.1-0.4c-0.2,0-0.5-0.2-0.7-0.4c0-0.2,0-0.3,0.1-0.5c-0.1-0.1-0.2,0-0.3-0.1c0-0.2,0.2-0.3,0-0.5
					c-0.3,0.2-0.4-0.1-0.6-0.1c-0.2,0,0.1-0.5-0.1-0.4c-0.2,0,0,0.3-0.2,0.3c-0.1,0.1-0.3,0-0.4,0l0-0.3c-0.3,0.2-0.7,0.4-1.1,0.4
					c0-0.1,0-0.3-0.1-0.3c-0.1,0.1,0,0.2-0.1,0.3c-0.5,0-0.4,0.7-0.8,0.5c-0.2,0.1,0.1,0.2,0,0.3c-0.1,0.3-0.2,0-0.4,0.1
					c0,0.1,0.1,0.1,0.2,0.2c0,0.4-0.4,0.2-0.5,0.3c0,0.1,0.3,0,0.3,0.2c-0.2,0.2-0.1,0.5-0.4,0.7c0.3,0,0.2,0.2,0.4,0.4
					c-0.1,0-0.1,0.1-0.2,0.1c0,0.1,0.1,0.1,0.2,0.1c0,0,0,0.1,0,0.1c2,0.3,3.1,0.1,4.8,0C134.2,34.7,134.3,34.6,134.4,34.5z"/>
			</g>
			<path class="st8" d="M141,23.9c-0.4-0.2,0.2-0.4,0.1-0.6c-0.2,0-0.2,0.4-0.5,0.3c0-0.2,0.1-0.5,0.3-0.6l0,0
				c-0.4,0.1-0.7,0.8-1.3,0.5c0.1-0.1,0-0.4-0.2-0.3c-0.4,0.3-0.8,0.2-1.2,0.4l0-0.2c-0.4,0.2-0.6,0.6-1,0.9
				c-0.1-0.6-0.6,0.5-0.8,0.1c0.1,0.4,0,0.8-0.3,0.7c-0.1,0.6-0.2,1.4,0.3,1.8c0.1,0.4,0.4,0.2,0.7,0.5l0-0.1c0.1,0.1,0.4,0,0.4,0.3
				c0.2-0.1,0.5-0.2,0.7-0.1c0.2,0.2,0.6,0.2,0.7,0c0.1,0,0.1,0.1,0.2,0.1c0.1-0.1,0.2-0.2,0.4-0.1c0.6-0.3,1.1-0.7,1.9-0.8
				l-0.2,0.1l-0.1-0.2l0.7,0c-0.2-0.1-0.7,0-0.7-0.3c0-0.3,0.3-0.3,0.5-0.4l-0.3,0c0-0.3,0.5-0.3,0.6-0.7c-0.5,0-0.5-0.4-0.4-0.8
				l0.5-0.5C141.7,23.9,141.3,24,141,23.9z"/>
			<path class="st9" d="M147.7,15.8c0,0,0-0.1,0.1-0.1C147.7,15.6,147.6,15.7,147.7,15.8c-0.2-0.1-0.1-0.3-0.1-0.3
				c-0.1,0-0.2,0.1-0.4,0.1c0-0.1-0.1-0.1-0.1-0.2c-0.1,0-0.1,0.1-0.1,0.1c0-0.1,0-0.2-0.1-0.2c-0.1,0.1-0.2,0.1-0.3,0.1
				c-0.1,0.1-0.1-0.2-0.1-0.1c-0.1,0.1,0.1,0.1,0,0.2c0,0.1-0.1,0.1-0.2,0.1l-0.1-0.1c-0.1,0.1-0.1,0.3-0.3,0.4c0,0-0.1-0.1-0.1-0.1
				c0,0.1,0.1,0.1,0.1,0.2c-0.2,0.1,0,0.4-0.2,0.4c-0.1,0.1,0.1,0.1,0.1,0.1c0,0.1-0.1,0.1-0.1,0.1c0,0,0.1,0,0.1,0
				c0.1,0.1-0.1,0.2-0.1,0.2c0.1,0,0.1-0.1,0.2,0c0,0.1,0.1,0.2,0,0.4c0.1-0.1,0.2,0,0.2,0c0,0,0,0.1,0,0.1c0,0.1,0.1,0,0.1,0
				c0,0.1,0,0.1,0,0.2c0.1,0,0.1,0,0.2,0c0,0.1,0,0.2,0.1,0.2c0.1-0.1,0.2,0,0.3,0c0.1,0,0,0.2,0.1,0.2c0.1-0.1,0-0.1,0-0.2
				c0.1-0.1,0.2,0,0.2-0.1l0.1,0.1c0.1-0.1,0.2-0.3,0.4-0.4c0,0,0,0.1,0.1,0.1c0-0.1,0-0.1,0-0.2c0.2-0.1,0.1-0.4,0.3-0.4
				c0.1-0.1-0.1-0.1-0.1-0.1c0-0.1,0.1,0,0.2-0.1c0,0-0.1,0-0.1-0.1c-0.1-0.2,0.1-0.1,0.2-0.2c0-0.1-0.1,0-0.2,0
				c0.1-0.1-0.1-0.3,0.1-0.4C147.8,16,147.7,15.8,147.7,15.8z"/>
		</g>
		<g>
			<path class="st10" d="M148.5,23.5c0-0.1-0.1,0-0.1,0c-0.1-0.1,0-0.1,0-0.2c0,0-0.1,0.1-0.1,0.1c-0.2,0-0.1-0.2-0.1-0.3
				c-0.1,0,0,0.2-0.1,0.1c-0.1-0.1-0.3-0.1-0.3-0.3c0,0.1-0.1,0.1-0.2,0.2c0,0-0.1-0.1-0.1-0.1c-0.1,0,0,0.1-0.1,0.2
				c-0.1,0.1-0.2-0.1-0.2-0.1c0,0.1-0.1,0.2-0.1,0.3c-0.1,0-0.2-0.1-0.2-0.2c-0.1,0-0.1,0.1-0.1,0.2c-0.1,0-0.2-0.2-0.3-0.1
				c0,0.2-0.1,0.2-0.2,0.3c-0.1,0.1-0.2-0.2-0.2-0.1c0,0.1,0.1,0.1,0.1,0.2c0,0.1-0.1,0.2-0.1,0.2l-0.2-0.1c0,0.2,0.1,0.5,0,0.7
				c-0.1,0-0.1-0.1-0.2,0c0,0.1,0.1,0.1,0.2,0.1c-0.1,0.3,0.3,0.4,0.1,0.6c0,0.1,0.1,0,0.2,0.1c0.1,0.1-0.1,0.1-0.1,0.2
				c0.1,0,0.1,0,0.2,0c0.2,0.1,0,0.2,0,0.3c0.1,0,0.1-0.2,0.2-0.1c0.1,0.2,0.3,0.2,0.3,0.4c0.1-0.1,0.2-0.1,0.3-0.1c0,0,0,0.1,0,0.1
				c0.1,0,0.1-0.1,0.1-0.1c0,0,0.1,0,0.2,0c0,0,0,0.1,0.1,0.1c0,0,0,0,0,0c0,0,0.1,0,0.1,0c0.4-0.8,0.8-1.6,1.1-2.4
				C148.5,23.6,148.5,23.6,148.5,23.5z"/>
		</g>
		<path class="st1" d="M137.6,21.8c-1.2,0.9-2.5,1.8-3.8,2.7c-0.3,0.2-0.6,0.4-1,0.6l-1,0.6c-0.3,0.2-0.7,0.4-1,0.6
			c-0.3,0.2-0.7,0.4-1,0.6c-1.4,0.7-2.7,1.4-4.1,2c-1.4,0.6-2.8,1.2-4.3,1.6l0.1-0.4c0.8,0.7,1.6,1.3,2.5,1.8c0.9,0.6,1.8,1,2.7,1.5
			c1.9,0.8,3.9,1.4,6,1.5c2.1,0.2,4.2-0.1,6.1-0.7c1-0.3,2-0.7,2.9-1.2c0.9-0.5,1.8-1,2.7-1.6c-1.6,1.3-3.5,2.4-5.5,3.1
			c-2,0.7-4.1,1-6.2,0.9c-2.1-0.1-4.2-0.7-6.1-1.5c-1.9-0.8-3.8-2-5.4-3.4l-0.3-0.3l0.4-0.1c1.5-0.4,2.9-1,4.3-1.6
			c1.4-0.6,2.8-1.2,4.2-1.9c1.4-0.7,2.7-1.4,4-2.2c0.7-0.4,1.3-0.8,2-1.2C136.3,22.7,136.9,22.2,137.6,21.8z"/>
	</g>
	<g>
		<path class="st11" d="M123.2,4.1l-0.5,0.2L123.2,4.1z"/>
		<polygon class="st11" points="121.6,4.9 122.3,4.6 122.2,4.5 122.5,4.4 122.3,4.3 		"/>
		<path class="st11" d="M121.3,5l-0.4,0.1L121.3,5z"/>
	</g>
	<g>
		<path class="st6" d="M101.7,17.2c0.2-0.5,0.2-0.9,0.1-1.2c0-0.1-0.1-0.1-0.2,0c-0.2,0.2-0.4,0.7-0.7,1.3c-0.3,0-0.5,0.1-0.8,0
			c-0.1,0-0.2,0.1-0.1,0.2c0.1,0.1,0.3,0.3,0.6,0.3c-0.4,0.8-0.8,1.7-1,2.2c0,0.1-0.1,0.3-0.1,0.4c-0.4,0.6-1.1,1.4-1.8,1.3
			c-0.5,0-0.7-0.7-0.4-1.6c0.7,0.6,1.3,0.3,1.8-0.3c0.4-0.5,0.5-1.2,0.3-1.4c-0.2-0.2-0.3-0.4-0.6-0.5c-0.5-0.3-1.4,0.2-2.1,1.6
			c-0.6,1.3-0.2,2.6,1,2.6c0.7,0,1.3-0.4,1.7-0.9c0.1,0.6,0.4,0.9,0.8,0.9c0.8,0,1.4-0.9,1.5-1.2c0.1-0.2,0.1-0.4,0.1-0.6
			c0-0.1-0.1-0.1-0.2,0c-0.4,0.8-0.9,1.5-1.3,1.5c-0.4,0-0.5-0.7-0.2-1.4c0.4-0.9,0.9-1.9,1.3-2.6c0.2,0,0.5-0.1,0.7,0
			c0.1,0,0.2-0.1,0.1-0.2C102.2,17.3,102.1,17.1,101.7,17.2z M97.4,19.6c0.4-1,1.2-1.6,1.4-1.4c0.1,0.1-0.1,0.7-0.4,1.1
			c-0.3,0.4-0.7,0.8-1.1,0.5C97.3,19.8,97.4,19.7,97.4,19.6z"/>
		<path class="st6" d="M132.4,17.8c0.1-0.1,0.2-0.4,0.1-0.7c-0.1-0.3-0.4-0.4-0.6-0.2c-0.2,0.2-0.2,0.5,0,0.8
			C132,17.9,132.2,17.9,132.4,17.8z"/>
		<path class="st6" d="M135.5,20.3c0-0.1-0.1-0.1-0.2,0c-0.4,0.7-1.1,1.5-1.9,1.5c-0.5,0-0.7-0.7-0.4-1.6c0.7,0.6,1.3,0.3,1.8-0.3
			c0.4-0.5,0.5-1.2,0.3-1.4c-0.2-0.2-0.3-0.4-0.6-0.5c-0.5-0.3-1.4,0.2-2.1,1.6c-0.1,0.3-0.2,0.6-0.3,0.9c-0.3,0.7-0.8,1.4-1.2,1.4
			c-0.3,0-0.3-0.4-0.1-1c0.2-0.5,0.6-1.2,0.8-1.7c0.2-0.5,0.2-1,0-1.1c-0.1-0.1-0.1-0.1-0.2,0.1c-0.3,0.5-0.9,1.7-1.2,2.5
			c-0.3,0.7-0.8,1.3-1.1,1.3c-0.3,0-0.4-0.5-0.2-1.1c0.2-0.5,0.7-1.3,0.9-1.8c0.2-0.5-0.1-1-0.4-1.1c-0.3-0.1-1,0.5-1.4,1
			c0.1-0.4,0.1-0.7,0-1c-0.1-0.1-0.1-0.1-0.2,0c-0.6,0.9-1.2,2.2-1.5,2.9c-0.3,0.4-0.8,0.8-1.4,1.1c0.4-1,1-2.3,1.3-2.9
			c0.2-0.5,0.2-1,0-1.1c-0.1-0.1-0.2-0.1-0.2,0.1c-0.1,0.2-0.2,0.4-0.3,0.6c0-0.4-0.2-0.7-0.6-0.7c-0.5,0-1.3,0.5-2,1.7
			c-0.3,0.4-0.4,0.8-0.5,1.2c-0.3,0.6-0.7,1.1-1.1,1.1c-0.3,0-0.3-0.4-0.1-1c0.2-0.5,0.7-1.3,0.9-1.8c0.2-0.5,0.2-1,0-1.2
			c-0.1-0.1-0.1-0.1-0.2,0.1c-0.1,0.2-0.2,0.4-0.3,0.6c0-0.4-0.2-0.7-0.6-0.7c-0.5,0-1.2,0.5-2,1.7c-0.2,0.4-0.4,0.7-0.4,1.1
			c-0.3,0.6-0.9,1.3-1.7,1.3c0.4-0.2,0.7-0.7,1-1.4c0.4-0.9,0.6-1.8,0.1-2.3c-0.4-0.5-1-0.2-1.4,0.2c0-0.2,0-0.3-0.1-0.5
			c0-0.1-0.1-0.1-0.2,0c-0.4,0.5-1,1.9-1.6,3.1c-0.3,0.5-0.6,0.8-0.8,0.8c-0.4,0-0.5-0.5-0.2-1.1c0.2-0.5,0.7-1.2,0.9-1.7
			c0.2-0.5,0.1-1.1-0.2-1.1c-0.3,0-0.9,0.5-1.4,0.9c0.1-0.5,0-1-0.4-1c-0.3,0-1,0.6-1.5,1.1c0.1-0.4,0.2-0.8,0-1.1
			c-0.1-0.1-0.2-0.1-0.2,0c-0.5,0.8-1.1,1.6-1.7,1.6c0-0.1,0-0.1,0-0.2c0.1-0.8-0.2-0.8-0.5-1.1c-0.2-0.3-0.3-0.4-0.6-0.4
			c-0.6,0-1.2,0.7-1.5,1.3c-0.2,0.4-0.4,0.9-0.4,1.3c-0.4,0.6-1,1.3-1.8,1.3c-0.6,0-0.8-0.9-0.2-2c0.4-0.9,1.1-1.6,1.3-1.5
			c0.1,0.1-0.2,0.6-0.3,0.9c-0.1,0.5,0,0.8,0.2,0.9c0.1,0.1,0.2,0,0.2-0.1c0.2-0.6,0.6-1.1,0.4-1.5c-0.1-0.2-0.3-0.4-0.5-0.6
			c-0.5-0.3-1.4,0.2-2,1.6c-0.6,1.3-0.2,2.6,1,2.6c0.7,0,1.4-0.4,1.7-1c0,0.2,0.1,0.3,0.2,0.5c0.4,0.6,0.9,0.6,1.2,0.4
			c0.7-0.2,1.3-1.3,1.5-2.2c0.3,0,0.6-0.1,0.9-0.3c-0.3,0.6-0.5,1.1-0.6,1.5c-0.2,0.5-0.1,0.9,0.1,1c0.1,0.1,0.1,0.1,0.2,0
			c0.4-1,0.8-1.9,1.4-2.6c0.6-0.7,1.1-1,1.2-1c0.2,0.1-0.8,1.5-1.1,2.4c-0.3,0.7-0.1,1.1,0,1.3c0.1,0.1,0.2,0.1,0.2-0.1
			c0.4-1,0.9-1.9,1.6-2.8c0.6-0.7,0.9-0.8,1-0.8c0.1,0.1-0.7,1.2-1,2.1c-0.3,0.8,0,1.5,0.8,1.6c0.2,0,0.4-0.1,0.5-0.2
			c-0.2,0.5-0.4,0.9-0.4,1.1c-0.2,0.6-0.1,0.9,0,1.1c0.1,0.1,0.1,0.1,0.2,0c0.5-1.2,0.9-2.2,1.4-3.1c0,0.3,0.1,0.5,0.3,0.7
			c0.3,0.3,0.7,0.4,1.3,0.4c0.6,0,1.1-0.3,1.5-0.8c0.1,0.4,0.3,0.7,0.7,0.7c0.5,0,0.9-0.4,1.2-0.8c0,0.5,0.3,0.8,0.8,0.9
			c0.4,0,0.8-0.3,1.1-0.7c0.1,0.4,0.3,0.7,0.7,0.7c0.4,0,0.7-0.2,1-0.5c-0.1,0.2-0.2,0.5-0.3,0.7c-0.9,0.4-1.8,1-2,2
			c-0.2,0.6,0,1,0.2,1.3c0.2,0.3,0.4,0.3,0.6,0.2c0.8-0.3,1.4-2,2-3.4c0.5-0.2,1-0.5,1.4-0.8c0,0.2,0.1,0.4,0.2,0.5
			c0.1,0.1,0.1,0.1,0.2,0c0.4-1,0.8-2,1.4-2.6c0.6-0.7,1.2-1,1.3-1c0.2,0.1-0.7,1.2-1,2.2c-0.3,0.9-0.1,1.5,0.7,1.5
			c0.4,0,0.8-0.3,1.1-0.7c0.1,0.4,0.3,0.6,0.7,0.6c0.5,0,1-0.4,1.3-0.9c0.1,0.6,0.6,1,1.2,1c0.7,0,1.5-0.5,1.9-1.1
			C135.5,20.6,135.5,20.3,135.5,20.3z M133.2,19.7c0.4-1,1.2-1.6,1.4-1.4c0.1,0.1-0.1,0.7-0.4,1.1c-0.3,0.4-0.7,0.8-1.1,0.5
			C133.1,19.8,133.1,19.7,133.2,19.7z M108.5,20.4c-0.5,0.9-1,1.3-1.3,1.1c-0.2-0.2-0.1-1.2,0.3-2c0.2-0.4,0.5-0.7,0.7-1
			c0,0.4,0.3,0.8,0.6,1C108.8,19.8,108.7,20.1,108.5,20.4z M108.9,19.3c-0.2-0.2-0.3-0.5-0.2-0.7c0-0.3,0.2-0.4,0.3,0
			C109,18.7,109,19,108.9,19.3z M116.3,21.5c-0.3-0.2-0.2-0.9,0-1.5c0.1-0.2,0.2-0.4,0.3-0.6c0.4-0.8,1-1.3,1.3-1.2
			c0.2,0.1,0.1,1-0.2,1.8C117.2,21,116.6,21.7,116.3,21.5z M119.8,21.6c-0.4,0-0.2-0.9,0.3-1.8c0.5-0.9,1.2-1.6,1.5-1.6
			c0.3,0,0.2,0.7-0.4,1.8C120.7,21,120.2,21.7,119.8,21.6z M122.5,25.1c-0.2-0.2,0.3-1.7,1.5-2.5C123.4,24.2,122.7,25.3,122.5,25.1z
			 M123.6,21.7c-0.4,0-0.3-0.9,0.2-1.8c0.5-0.9,1.2-1.6,1.5-1.5c0.3,0,0.2,0.7-0.4,1.8C124.5,21,124,21.7,123.6,21.7z"/>
	</g>
	<g>
		<path class="st3" d="M137.6,37.8c0.4-0.2,0.8-0.5,1.1-0.8c-2.4,1.7-6,2.1-9.5,1.9c-3.6-0.2-7.5-1.5-10.8-3
			c-3.1-1.4-5.8-2.9-8.8-3.8c-0.7-0.4-1.5-0.8-2.2-1.1c-1.5-0.7-3-1.5-4.6-2.1c-0.4-0.1-0.8-0.3-1.2-0.5c-0.5-0.2-1-0.3-1.5-0.4
			c0,0-0.1,0-0.1,0c-0.4-0.1-0.8-0.3-1.2-0.5c-0.4-0.1-0.7-0.2-1.1-0.4c-0.1-0.1-0.2-0.1-0.3-0.3l0-0.1l-0.1,0.1c-0.1-0.1,0,0-0.1,0
			l-0.2-0.1c0,0,0,0.1,0.1,0.1c0,0.1-0.1,0-0.2,0c0,0,0,0.1,0,0.1c-1.3-0.2-2.8-0.2-4.7,0.8c0.4,0.4,1.3,0.5,1.6,1
			c-0.5,0.1-1,0.2-1.4,0.2c0.2,0.1,0.3,0.4,0.7,0.4c-0.3,0-0.7,0-1.1,0.2c0.2,0.2,1,0.1,1.4,0.1c0.2,0,1.5-0.2,1.5,0
			c-1,0.2-2,0.3-3,0.6c0.1,0.1,0.3,0.2,0.4,0.3c-0.4,0.1-0.9,0-1.4,0.2c0.4,0.2,0.9,0.3,1.3,0.5c0.3,0.2,0.5,0.4,1,0.5
			c-0.6,0-1.3-0.1-2,0.1c0,0.2,0.3,0.3,0.5,0.3c-0.1,0-0.1,0.1-0.2,0.1c0.1,0,0.1,0.2,0.2,0.2c0,0-0.1,0.1-0.1,0.1l0,0l6,1.3
			c0.2,0.3,0.3,0.6,0.9,0.7c0.6,0,1,0.3,1.3,0.7c0.4,0.3,0.7,0.7,1.3,0.7c2.2,0.3,4.5,0.3,6.1,1.2c1.5,0.9,2.5,0.2,4.2,0.8
			c1.7,0.6,2.1,1.4,3.8,2.3c2,1.1,7.1,0.7,9,0.7c1.4,0,4.2,0.4,5.4-0.3c-1.6,0.2-3.2,0-4.7-0.3c3.4,0,6.9-0.1,9.9-0.8
			c-2.9,0.6-6,0.7-9,0.3c-2.9-0.4-6.8-1.1-9.2-3.6c3.3,1.5,7.6,2.6,11.3,2.8C131.2,39.4,134.9,39.1,137.6,37.8z"/>
		<path class="st10" d="M107.5,34.9c0.2,0.1-0.1,0.2-0.1,0.3c0.1,0,0.1-0.2,0.2-0.1c0,0.1-0.1,0.2-0.2,0.2l0,0
			c0.2,0,0.4-0.3,0.6-0.1c-0.1,0,0,0.2,0,0.2c0.2-0.1,0.4,0,0.6-0.1l0,0.1c0.2,0,0.3-0.2,0.5-0.3c0,0.3,0.3-0.1,0.4,0
			c0-0.2,0.1-0.3,0.2-0.3c0.1-0.2,0.2-0.6,0.1-0.8c0-0.2-0.1-0.1-0.3-0.3l0,0.1c0,0-0.2-0.1-0.1-0.1c-0.1,0-0.2,0-0.3,0
			c-0.1-0.1-0.2-0.2-0.3-0.1c0,0-0.1,0-0.1-0.1c-0.1,0-0.1,0-0.2,0c-0.3,0.1-0.5,0.2-0.9,0.2l0.1,0l0,0.1l-0.3-0.1
			c0.1,0.1,0.3,0.1,0.3,0.2c0,0.1-0.2,0.1-0.2,0.1l0.1,0c0,0.1-0.2,0.1-0.3,0.2c0.2,0.1,0.2,0.2,0.1,0.4l-0.3,0.2
			C107.2,34.8,107.4,34.8,107.5,34.9z"/>
		<path class="st12" d="M120.2,34.9L120.2,34.9c0,0,0.1,0.1,0.2,0.1c0,0.1,0,0.1-0.1,0.1l0,0c0,0,0.2-0.1,0.2,0.1l0,0
			c0.2-0.2,0.4,0,0.6-0.1c0.3,0.1,0.4-0.2,0.5-0.3c-0.1-0.1,0-0.2,0-0.3l-0.3-0.5c-0.1,0-0.2-0.1-0.3-0.1c0.1-0.1,0.2-0.3,0.1-0.5
			c-0.1-0.3-0.3-0.2-0.5-0.3c-0.1,0.1-0.2,0.1-0.4,0.1l-0.1,0c0.2,0.1-0.1,0.2-0.2,0.4l-0.1,0c0.1,0,0.1,0,0.2,0l-0.2,0.1
			c0,0,0.1,0,0.1,0l0,0.1c0,0,0.1,0,0.1,0c0,0,0,0.1,0,0.1l0.1,0c0,0.1-0.1,0.2,0,0.2l-0.2,0.2l0.1,0c0,0.1,0,0.1-0.1,0.1l0,0l0.1,0
			l-0.2,0.1C120,34.8,120.3,34.7,120.2,34.9z"/>
		<path class="st12" d="M105.2,33.3L105.2,33.3c0,0.1,0.2-0.2,0.4-0.1c0.5-0.5-0.6-0.8,0.2-1.3c-0.3-0.3,0-0.8-0.5-1
			c-0.4-0.1-0.7,0.3-0.9,0.6l-0.2,0.5c0.1,0,0.1,0.1,0.1,0.2l0,0.2c0.4-0.1,0.1,0.3,0.3,0.5l0-0.1c0.4,0.1,0.1,0.4,0.4,0.6l0,0.2
			C104.9,33.6,105,33.4,105.2,33.3z"/>
		<path class="st9" d="M111.4,38.2C111.3,38.3,111.5,38.2,111.4,38.2c0.2,0,0.3,0.2,0.4,0.1l0,0c0.1-0.2,0.3,0.2,0.5-0.2
			c0.2,0.1,0.1-0.3,0.3-0.3c0-0.3,0-0.4-0.3-0.6c-0.2-0.1-0.1,0-0.4-0.1l-0.1,0c0.1,0.2-0.3-0.1-0.2,0.1c-0.1,0-0.2,0-0.3,0.1
			c0,0,0.1,0,0.1,0.1c0,0.1-0.1,0.1-0.2,0.1l0.1,0.1l-0.1,0.1c0,0,0.1,0,0.1,0.1l-0.1,0.1C111.2,38.2,111.5,38,111.4,38.2z"/>
		<polygon class="st10" points="110,37.8 109.8,37.9 109.9,37.9 		"/>
		<path class="st7" d="M111.8,31.6L111.8,31.6c0.1,0,0.2,0.1,0.3,0.2c0.2-0.1,0.5-0.3,0.4-0.5l-0.3-0.3c-0.1,0.1-0.3,0-0.4,0
			c0.1,0.1-0.2,0.2-0.1,0.2l0.1,0c-0.1,0.1-0.1,0.2-0.2,0.3C111.7,31.5,111.8,31.5,111.8,31.6z"/>
		<polygon class="st10" points="111.7,31.4 111.7,31.4 111.8,31.4 111.8,31.3 		"/>
		<path class="st10" d="M116,38.4c0.1-0.1,0.3-0.1,0.2-0.3c-0.1-0.1-0.3-0.4-0.5-0.2l-0.1,0l-0.1,0.2c0.1,0,0,0.2,0.2,0.3
			C115.8,38.3,115.9,38.3,116,38.4z"/>
		<path class="st10" d="M116.4,37.7l0.2,0L116.4,37.7z"/>
		<polygon class="st10" points="116.9,37.6 116.7,37.6 116.7,37.7 116.6,37.7 116.7,37.7 		"/>
		<path class="st10" d="M117.4,37.7C117.3,37.7,117.3,37.7,117.4,37.7c0,0,0,0,0.1,0l-0.1,0.1c0.1,0,0.2,0,0.3,0.1l0,0
			c0.3,0.1,0.5-0.1,0.7-0.2c0.1-0.2,0.1-0.4,0.3-0.5c0-0.1-0.2,0-0.1-0.1c0.1-0.1,0-0.3-0.1-0.5c-0.2,0-0.2-0.1-0.4-0.2
			c-0.1,0-0.2,0.1-0.2-0.1l0,0.1c-0.1,0-0.1-0.1-0.2-0.2l-0.1,0.2c-0.1-0.1-0.3,0.1-0.4,0.1c0,0.2-0.3,0.1-0.4,0.1
			c0,0.1,0.3,0.2,0.3,0.4c0,0-0.1,0-0.1,0c-0.1,0.2,0.3,0.1,0.2,0.3l-0.4-0.1C117,37.3,117.3,37.3,117.4,37.7z"/>
		<path class="st10" d="M117.1,37.6l0.1,0L117.1,37.6z"/>
		<polygon class="st10" points="117.4,35.9 117.4,35.9 117.5,36 		"/>
	</g>
	<path class="st1" d="M140.8,13.1c-0.1-0.5-0.5-0.8-0.5-1.3c0-0.4,1.1-1,1.1-1.2c0-0.2-0.4-0.7-0.7-0.7c-0.4,0-1.2,0.7-1.2,1.3
		c0,0.3,0.1,0.5,0.2,0.7c-0.4,0.4-0.6,0.7-0.6,0.7c0,0,0,0,0,0s-0.4,0.4-0.9,0.8c0,0-0.1,0-0.1,0c-0.1,0.1-0.2,0.1-0.3,0.2
		c-0.4,0.3-0.8,0.5-1.1,0.5c-0.4,0-0.6-0.4-0.6-0.8c0-0.1,0-0.5,0-0.6c0.9-0.6,1.8-1.4,1.8-1.7c0-0.2-0.2-0.7-0.7-0.7
		c-0.7,0-2.1,1.4-2.2,2.7c-0.6,0.5-1.7,1.3-2.2,1.3c-0.1,0-0.3-0.1-0.3-0.4c0-0.7,0.4-1.6,0.4-1.6c1.5-1.4,4-4.3,4-5.2
		c0-0.4-0.3-0.9-0.9-0.9c-1.1,0-3.7,3.9-4.3,6.6c-0.6,0.5-1.7,1.7-2.2,1.7c-0.1,0-0.3-0.1-0.3-0.4c0-0.7,0.4-1.7,0.4-1.7
		c1.6-1.4,3.8-3.9,3.8-4.9c0-0.4-0.3-0.9-0.9-0.9c-1.2,0-3.5,3.2-4.1,6c0,0,0,0,0,0s-1.6,1.5-2.4,1.5c-0.4,0-0.6-0.4-0.6-0.8
		c0-0.1,0-0.5,0-0.6c0.9-0.6,1.8-1.4,1.8-1.7c0-0.2-0.2-0.7-0.7-0.7c-0.7,0-2.1,1.4-2.2,2.8c-0.6,0.5-1.5,1.2-2.2,1.2
		c-0.1,0-0.2-0.1-0.2-0.2c0-0.8,1.3-2,1.3-2.1c0-0.2-0.3-0.8-0.6-0.8c-0.6,0-2.1,1-2.7,1.4c0.4-0.6,0.6-1,0.6-1.2
		c0-0.4-0.5-0.9-0.8-0.9c-0.1,0-0.2,0.1-0.2,0.2c0,0.5-0.6,1.4-1.1,2.2c-0.6,0.5-1.7,1.4-2.4,1.4c-0.1,0-0.2,0-0.2-0.2
		c0-0.6,1.8-2.7,1.8-3c0-0.3-0.4-0.7-0.8-0.7c-0.2,0-0.3,0.1-0.3,0.2c-0.2,0.5-0.9,1.5-1.3,2.2c-0.6,0.5-2.1,1.7-3.1,1.7
		c-0.3,0-0.5-0.2-0.5-0.6c0-1.4,1.5-2.8,2.3-2.8c0.1,0,0.1,0.1,0.1,0.1c0,0.2-0.2,0.5-0.4,0.7c0,0,0,0.1,0,0.1s0,0,0,0
		c0.1,0,0.3,0,0.3,0c0.3-0.3,0.4-0.6,0.4-0.8c0-0.4-0.4-0.7-0.8-0.7c-0.9,0-2.3,1.2-2.7,2.5c-0.7,0.6-2,1.6-2.9,1.6
		c-0.3,0-0.5-0.2-0.5-0.6c0-1.4,1.5-2.8,2.3-2.8c0.1,0,0.1,0.1,0.1,0.1c0,0.2-0.2,0.5-0.4,0.7c0,0,0,0.1,0,0.1c0,0,0,0,0,0
		c0.1,0,0.3,0,0.3,0c0.3-0.3,0.4-0.6,0.4-0.8c0-0.4-0.4-0.7-0.8-0.7c-0.7,0-1.6,0.7-2.3,1.6c-0.1,0-0.6,0.2-1.1,0.1
		c0-0.1,0.1-0.3,0.2-0.9c0-0.7-0.6-1.1-1.3-1.1c-0.8,0-2.6,0.8-2.8,2.9c-1.5,1.4-3.5,2.6-5.8,2.6c-1.4,0-2.2-0.5-2.2-1.8
		c0-3.9,6.4-8.8,9.5-8.8c0.6,0,0.9,0.2,0.9,0.5c0,1.2-2.2,2.6-3.2,2.8c-0.1,0-0.1,0.1-0.1,0.1c0,0.1,0.5,0.4,0.9,0.4
		c0.4,0,2.8-2,2.8-3.2c0-0.6-0.5-1.7-1.7-1.7c-3.7,0-10.2,5-10.2,9.1c0,1.6,1.8,2.9,3.4,2.9c2,0,4.4-1.6,5.8-2.8c0,0,0,0.1,0,0.1
		c0,0.7,1,1.1,1.4,1.1c0.2,0,1.1-0.1,2.4-2.1c0,0,0.1,0,0.2,0c0,0,0,0,0,0c0.3,0,0.6,0,0.8,0c-0.2,0.4-0.4,0.9-0.4,1.4
		c0,0.7,0.6,1.1,1.3,1.1c0.9,0,2.3-1.1,3-1.7c0,0.2-0.1,0.4-0.1,0.6c0,0.7,0.6,1.1,1.3,1.1c1,0,2.4-1.2,3.1-1.8
		c-0.1,0.2-0.2,0.5-0.2,0.6c0,0.5,0.6,0.9,0.9,0.9c0.7,0,1.7-0.7,2.3-1.3c-0.2,0.4-0.4,0.6-0.4,0.7c0,0.3,0.4,0.8,0.5,0.8
		c0.2,0,0.3-0.8,1.3-1.7c0.9-0.8,2-1.3,2.1-1.3c0,0,0,0,0,0c0,0.1-0.7,1-0.7,1.7c0,0.5,0.6,1.1,1,1.1c0.6,0,1.6-0.9,2.2-1.4
		c0,0.8,0.5,1.3,1.3,1.3c1.1,0,2.5-1.4,2.8-1.7c-0.1,0.4-0.1,0.7-0.1,1.1c0,0.7,0.5,1,0.9,1c0.6,0,1.8-1.2,2.4-1.8
		c0,0.2-0.1,0.4-0.1,0.6c0,0.7,0.5,1,0.9,1c0.6,0,1.8-1,2.5-1.5c0,0.8,0.5,1.3,1.3,1.3c0.5,0,1.1-0.3,1.5-0.6c0.1,0.4,0.7,1,1.5,1
		c0.8,0,1.6-0.6,1.6-1.3c0-0.1,0-0.2,0-0.2c0.3,0.1,0.4,0.3,0.5,0.3c0.1,0,0.2-0.1,0.2-0.2C141.5,13.3,141.3,13.1,140.8,13.1z
		 M137.4,10.9c0.1,0,0.1,0.1,0.1,0.1c0,0.3-0.7,1-1.3,1.5C136.6,11.3,137.2,10.9,137.4,10.9z M136.3,6.9c0.1,0,0.1,0.1,0.1,0.1
		c0,0.9-2.3,3.6-3.5,4.8C133.5,10.3,135.5,6.9,136.3,6.9z M132.9,7.3c0.1,0,0.1,0.1,0.1,0.1c0,0.9-2.1,3.2-3.3,4.4
		C130.3,10.3,132.1,7.3,132.9,7.3z M126.8,10.8c0.1,0,0.1,0.1,0.1,0.1c0,0.3-0.7,1-1.3,1.5C126,11.3,126.5,10.8,126.8,10.8z
		 M103.4,14.2c-0.2,0-0.5-0.3-0.5-0.7c-0.1-0.3,0.1-1.6,0.7-2.2c0,0,0,0,0,0c0.2,0.2,0.6,0.7,2,0.9
		C105.2,13.3,104.2,14.3,103.4,14.2z M105.7,12c-0.3-0.1-0.9-0.3-1.2-0.6c-0.1-0.1-0.2-0.3-0.3-0.4c0-0.3,0.2-0.6,0.7-0.6
		c0.5,0,0.8,0.3,0.9,0.8C105.8,11.6,105.7,12,105.7,12z M138.9,14c-0.5,0-0.8-0.1-0.8-0.3c0,0,0-0.1,0.1-0.1
		c0.3-0.1,0.8-0.3,1.6-0.4C139.7,13.6,139.5,14,138.9,14z M139.9,13c-0.4,0-0.9,0.2-1.3,0.2c0.3-0.3,0.5-0.5,0.5-0.5c0,0,0,0,0,0
		c0,0,0.3-0.3,0.7-0.7c0.1,0.2,0.1,0.4,0.1,0.8C139.9,12.9,139.9,13,139.9,13z"/>
	<path class="st11" d="M120.1,5.4c0.1,0,0.1-0.1,0.1-0.2c-0.2,0-0.2,0.1-0.4,0.1l0.2-0.4c-0.3,0.2-0.6,0.1-1,0l0-0.1
		c-0.8,0-1.4,0.6-1.8,1.2c-0.1,0.5,0,1.3-0.6,1.6c0.1,0.4,0.5-0.1,0.4,0.3c-0.1,0.4,0.3,0.9,0.5,1.4c0.7-0.1,0.8,0.2,1.3,0.5
		c0.2,0,0.6-0.3,0.7,0.1l0-0.4c0.4-0.1,0.5,0.3,0.7,0.5l0-0.6c0.5,0.1,0.9-0.4,1.2-0.5c-0.1-0.7,0.8-0.6,1.2-0.5
		c-0.1-0.4-1.1-0.2-1.1-0.9c0.1,0,0.2,0.1,0.3,0c0-0.6-0.9-0.1-0.7-0.7l1.2-0.1C121.4,6.2,120.6,6.4,120.1,5.4z"/>
</g>
</svg>
