<?xml version="1.0" encoding="utf-8"?>
<!-- Generator: Adobe Illustrator 25.2.0, SVG Export Plug-In . SVG Version: 6.00 Build 0)  -->
<svg version="1.1" id="Calque_1" xmlns="http://www.w3.org/2000/svg" xmlns:xlink="http://www.w3.org/1999/xlink" x="0px" y="0px"
	 viewBox="0 0 139 46.3" style="enable-background:new 0 0 139 46.3;" xml:space="preserve">
<style type="text/css">
	.st0{fill:#82B657;}
	.st1{fill:#ACDB52;}
	.st2{fill:#A1CE57;}
	.st3{fill:#4A0D17;}
	.st4{fill:#400F18;}
	.st5{fill:#BE1F1F;}
	.st6{fill:#A91F1F;}
	.st7{fill:#3FA4A4;}
	.st8{fill:#EAD015;}
	.st9{fill:#FF9517;}
	.st10{fill:#FF646B;}
	.st11{fill:#DA0B00;}
	.st12{fill:#EDB720;}
	.st13{enable-background:new    ;}
</style>
<g id="Groupe_507" transform="translate(-539.038 -72.998)">
	<rect id="Rectangle_1151" x="596.4" y="80.5" class="st0" width="1.4" height="23.6"/>
</g>
<g>
	<g>
		<path class="st0" d="M88.7,37.2c-0.4,0.2-0.9,0.2-1.2,0.6c0.5,0.1,1,0,1.5,0.2c0.4,0.2,0.7,0.4,1.2,0.3c-0.6,0.2-1.3,0.2-1.9,0.7
			c0.2,0.2,0.4,0.2,0.7,0.2c0,0.1-0.1,0.1-0.1,0.2c0.1,0,0.2,0.2,0.3,0.2v0.1l0,0v0.1c0.5,0.3,1.1,0.3,1.6,0.3
			c1.2-0.1,1.6,1.7,2.8,1.4c0.7-0.2,1.3,0.1,2,0.5c0.6,0.3,1.3,0.7,2,0.6c2.7-0.4,5.3-1.2,7.8-0.4c2.4,0.8,3.2,1.9,5.3,1.4
			c2.1-0.5-1-2.2,1.5-2.3c6.3-0.3,11.2-2.2,12.9-3.7c1.2-1,4-2.8,4.3-4.5c-1.1,1.5-2.8,2.5-4.4,3.2c2.9-2.6,5.9-5.3,7.7-8.6
			c-1.9,2.9-4.5,5.5-7.5,7.2s-7.1,3.9-11.8,2.6c5.2-0.1,9.3-1.6,12.7-4s6.3-5.6,7.1-9.3c0.1-0.5,0.2-1.2,0.1-1.8
			c-0.3,3.9-2.9,7.2-6.2,9.6s-6.8,3.2-13.3,2.8c-3.8-0.2-9.4-3.2-9.4-3.2c-4.2-0.3-12,4.2-16.3,5.3C88.6,37.1,88.6,37.2,88.7,37.2z"
			/>
		<path class="st1" d="M100.2,35.5c-8-4.7,5.5,1.3,12.4-3.3c-1.7,1.1-3-2.1-3.9-3c-4.4-1.6-4,3.1-8.3,1.9c-1-0.3-1.7-0.6-2.9-1
			c-1.8-0.5-3.9-1-5.2-0.9c-2.6,0.1-3.4,0.9-4.8,3.9c1.3,0.9,2.9,0.9,4.2,2c-0.6,0.4-1.2,0.9-1.9,1c0.6,0.3,1.2,0.8,1.7,0.7
			L100.2,35.5z"/>
		<path class="st2" d="M74.1,32.6L74.1,32.6C74,32.6,74,32.6,74.1,32.6z"/>
		<g>
			<path class="st2" d="M70.8,29.6c0.1,0.2-0.2,0.1-0.2,0.1c0.1,0.1,0.2-0.1,0.2,0.1c0,0.1-0.2,0.1-0.2,0.1l0,0
				c0.1,0.1,0.4,0,0.5,0.2c-0.1,0-0.1,0.1-0.1,0.1c0.2,0,0.3,0.2,0.4,0.2l-0.1,0.1c0.1,0,0.3,0,0.5,0c-0.1,0.2,0.3,0,0.2,0.2
				c0.1-0.1,0.2-0.2,0.3-0.1c0.2-0.1,0.4-0.3,0.4-0.5c0.1-0.1,0-0.2-0.1-0.3l0,0c0-0.1-0.1-0.1,0-0.2c-0.1,0-0.2-0.1-0.2-0.2
				s-0.1-0.2-0.2-0.2v-0.1c-0.1,0-0.1,0-0.1-0.1c-0.2-0.1-0.5-0.1-0.7-0.3h0.1v0.1l-0.2-0.2c0,0.1,0.2,0.2,0.1,0.3
				c-0.1,0.1-0.2,0-0.2,0l0.1,0.1c-0.1,0.1-0.2-0.1-0.3,0c0.1,0.2,0,0.2-0.1,0.3h-0.3C70.6,29.4,70.7,29.5,70.8,29.6z"/>
			<path class="st2" d="M79.4,36.7L79.4,36.7c0,0,0.1,0.1,0.1,0.2c0,0-0.1,0.1-0.1,0l0,0c0,0,0.2,0,0.1,0.1l0,0
				c0.2,0,0.3,0.2,0.5,0.2c0.2,0.2,0.4,0,0.5,0c0-0.1,0.1-0.1,0.1-0.2v-0.5c-0.1-0.1-0.1-0.1-0.2-0.2c0.1-0.1,0.3-0.2,0.3-0.3
				c0.1-0.2-0.2-0.3-0.2-0.5c-0.1,0.1-0.2,0-0.3-0.1l-0.1-0.1c0.1,0.2-0.2,0.1-0.3,0.2h-0.1c0,0,0.1,0,0.1,0.1h-0.2
				c0,0,0.1,0,0.1,0.1l-0.1,0.1c0,0,0.1,0,0.1,0.1c0,0,0,0.1-0.1,0.1l0.1,0.1c-0.1,0.1-0.1,0.1-0.1,0.2h-0.3l0.1,0.1
				c0,0-0.1,0.1-0.1,0l0,0v0.1h-0.2C79.3,36.6,79.5,36.6,79.4,36.7z"/>
			<path class="st2" d="M69.2,28.4L69.2,28.4c0,0.1,0.3,0,0.3,0.1c0.6-0.1-0.1-0.9,0.8-0.9c0-0.4,0.4-0.6,0.1-0.9
				c-0.3-0.2-0.7-0.2-0.9,0L69,26.9c0.1,0,0,0.1,0,0.2l-0.1,0.1c0.3,0.1-0.1,0.3,0,0.5l0,0c0.2,0.2-0.1,0.3,0,0.6l-0.1,0.1
				C68.9,28.5,69.1,28.4,69.2,28.4z"/>
			<path class="st2" d="M71.4,35C71.3,35,71.5,35,71.4,35c0.1,0.1,0.1,0.2,0.2,0.3l0,0c0.2-0.1,0.1,0.3,0.4,0.1
				c0.1,0.2,0.2-0.1,0.3-0.1c0.2-0.2,0.2-0.3,0.1-0.5s-0.1-0.1-0.2-0.2l-0.1-0.1c-0.1,0.2-0.1-0.2-0.2,0c-0.1,0-0.1-0.1-0.2-0.1v0.1
				c-0.1,0.1-0.1,0-0.2,0v0.1l-0.1,0.1c0,0,0,0,0,0.1h-0.1C71.3,34.9,71.5,34.9,71.4,35z"/>
			<path class="st2" d="M75.6,24.3c0.1,0,0.3-0.1,0.2-0.3c-0.1-0.1-0.2-0.1-0.3-0.1C75.4,24,75.4,24.3,75.6,24.3z"/>
			<path class="st2" d="M82.1,26.7c0.1,0.1,0.1,0.1,0,0.2l0,0h0.1c0.1,0,0,0.2,0.1,0.1c0.1,0.1,0,0.1-0.1,0.2c0.1,0,0.1-0.1,0.3-0.1
				c0.1,0.3,0.3,0,0.5,0.1c0,0,0.1,0,0.2-0.1c0,0,0.1,0,0.1,0.1c0.1,0,0.2-0.3,0.3-0.3c0.1,0,0.1-0.1,0.1-0.2c0,0,0-0.1,0.1-0.1
				c-0.2-0.1,0.2-0.2,0-0.2c0-0.1,0.1-0.1,0.1-0.1c-0.1,0-0.1,0-0.2,0c0.2-0.2-0.1-0.2-0.1-0.4c0,0.1-0.1,0-0.1-0.1v-0.1
				c-0.1,0.1-0.2-0.1-0.3-0.1c-0.1-0.1-0.3,0.2-0.4-0.1c-0.1-0.1-0.1,0.3-0.3,0.1l-0.1-0.1c-0.1,0.1,0.1,0.1,0,0.2
				c-0.1,0-0.1-0.1-0.2-0.1c0,0,0.2,0.3,0,0.3L82,26c0,0.1,0.1,0.1,0.1,0.2s-0.2-0.1-0.2,0c0.1,0,0.1,0.1,0.1,0.1l-0.2,0.1
				C82,26.5,81.9,26.7,82.1,26.7z"/>
			<path class="st2" d="M85.7,27.7c0,0.1,0,0.1,0,0.2c0.1,0.1,0.3,0.1,0.4,0.2c0.2-0.1,0.3-0.2,0.3-0.4c0.1-0.1-0.1-0.1,0-0.2
				c-0.1,0-0.2-0.1-0.1-0.2c0,0.1-0.2,0-0.2,0l0,0c0,0-0.1,0.1-0.1,0s-0.1,0-0.2,0v0.1h-0.1l0,0h0.1l-0.1,0.1L85.7,27.7L85.7,27.7
				L85.7,27.7z"/>
			<path class="st2" d="M87.8,29.2c0,0,0.2,0,0.2,0.2c0,0,0.1,0,0.1,0.1v0.1c0-0.1,0.1,0,0.1,0v0.1c0,0,0.1,0,0.1-0.1l0.1,0.1
				c0,0,0,0,0.1-0.1c0.2,0.1,0.2-0.1,0.3-0.1c0.1,0,0-0.2,0.2-0.2c-0.2-0.2,0.1-0.3-0.1-0.6h-0.1c-0.1,0,0-0.1,0-0.2
				c-0.1,0-0.1,0-0.1,0.1c0-0.2-0.3-0.1-0.4-0.2c0,0.1-0.1,0-0.2,0.1v-0.1v0.1c-0.1,0-0.1,0-0.2-0.1c-0.1,0.1,0,0.3-0.2,0.3
				c0.1,0,0,0.1,0,0.2C87.7,28.8,88,29.1,87.8,29.2z"/>
			<path class="st2" d="M74.6,37.3c0.1,0,0.3,0.1,0.3-0.1c0-0.1,0-0.4-0.2-0.3l-0.1-0.1l-0.1,0.1C74.6,37,74.4,37.1,74.6,37.3
				C74.5,37.2,74.6,37.2,74.6,37.3z"/>
			<path class="st2" d="M75.2,37L75.2,37L75.2,37z"/>
			<polygon class="st2" points="75.7,37.2 75.5,37.1 75.5,37.1 75.4,37.1 75.4,37.1 			"/>
			<path class="st2" d="M76,37.4C75.9,37.4,75.9,37.4,76,37.4C76,37.5,76,37.5,76,37.4L76,37.4c0,0.1,0,0.2,0.1,0.3l0,0
				c0.2,0.2,0.4,0.2,0.6,0.1c0.1-0.1,0.3-0.2,0.4-0.2c0.1-0.1-0.1-0.1,0-0.1c0.1-0.1,0.1-0.2,0.2-0.4c-0.2-0.1-0.1-0.2-0.1-0.4
				c0-0.1-0.2-0.1-0.1-0.2L77,36.6c-0.1-0.1,0-0.2,0-0.2l-0.1,0.1c-0.1-0.1-0.3-0.1-0.3-0.2c-0.1,0.2-0.3-0.1-0.4-0.2
				c-0.1,0.1,0.2,0.3,0,0.4c0,0,0-0.1-0.1-0.1c-0.1,0.1,0.2,0.2,0,0.3l-0.2-0.2C75.9,37,76.1,37.1,76,37.4z"/>
			<path class="st2" d="M75.8,37.2L75.8,37.2L75.8,37.2z"/>
			<path class="st2" d="M76.9,36.2v-0.1V36.2z"/>
		</g>
	</g>
	<g>
		<g>
			<path class="st3" d="M133,11.3c0.1,0,0.2,0.1,0.3,0.1c0.4,0.2,0.9,0.4,1.4,0.4c1,0,2.1-1,2.4-1.9c0.1-0.3,0.2-0.6,0.2-0.8
				s-0.1-0.3-0.3-0.4c-0.3-0.1-0.5,0.2-0.6,0.5s0,0.7,0,1c-0.1,0.5-0.6,0.9-1,1s-0.9,0-1.3-0.1c-0.4-0.1-0.8-0.3-1.2-0.6
				c-0.1-0.4-0.2-0.8-0.4-1.2c0.2-0.5,0-1.3-0.5-1.9l0,0l0,0l0,0l0,0c-0.6-0.6-1.4-0.8-1.9-0.6c-0.4-0.2-0.8-0.3-1.2-0.4
				c-0.2-0.4-0.4-0.8-0.5-1.2s-0.2-0.9-0.1-1.3s0.6-0.9,1.1-1c0.3-0.1,0.7,0.1,1,0c0.3,0,0.6-0.3,0.6-0.6c0-0.1-0.1-0.2-0.4-0.3
				c-0.2,0-0.5,0-0.8,0.1c-1,0.3-2,1.3-2,2.3c0,0.5,0.2,1,0.4,1.4c0,0.1,0.1,0.2,0.1,0.3c-0.8-0.1-1.7-0.1-2.5,0.1
				c1.4,0.9,3.3,2.4,4.4,4.3c0.8,1.8,1.1,2.9,1.9,4.4C132.8,13.7,133.1,12.1,133,11.3z"/>
		</g>
		<path class="st4" d="M117.7,24.1c-8.8,4.4-14.3,4.6-14.3,4.6c1.9,3.1,7.6,7.5,18.2,2c4.2-2.1,10.7-8.7,7.9-16.2
			C129.5,14.4,125.1,20.3,117.7,24.1z"/>
		<path class="st5" d="M119.5,22.3c-8.5,5.9-15.7,7.8-15.7,7.8c2.5,2.9,10.5,7.1,20.8-0.2c4-2.8,9.8-10.6,5.7-17.9
			C130.3,12,126.7,17.4,119.5,22.3z"/>
		<g>
			<path class="st6" d="M119.5,22.3c-7.8,6.7-13.7,9.1-13.7,9.1c2.8,2.6,12.1,6.8,21.5-1.6c3.7-3.2,7.8-12.8,2.4-19.8
				C129.8,10.1,126.1,16.6,119.5,22.3z"/>
			<g>
				<path class="st7" d="M117.2,34.5c-0.3-0.1-0.2-0.3-0.3-0.5c0.1,0,0.2-0.1,0.3-0.1c0-0.2-0.2-0.1-0.3-0.2
					c-0.2-0.2,0.2-0.3,0.1-0.4c-0.2,0-0.5-0.2-0.7-0.4c0-0.2,0-0.3,0.1-0.5c-0.1-0.1-0.2,0-0.3-0.1c0-0.2,0.2-0.3,0-0.5
					c-0.3,0.2-0.4-0.1-0.6-0.1s0.1-0.5-0.1-0.4c-0.2,0,0,0.3-0.2,0.3c-0.1,0.1-0.3,0-0.4,0v-0.3c-0.3,0.2-0.7,0.4-1.1,0.4
					c0-0.1,0-0.3-0.1-0.3c-0.1,0.1,0,0.2-0.1,0.3c-0.5,0-0.4,0.7-0.8,0.5c-0.2,0.1,0.1,0.2,0,0.3c-0.1,0.3-0.2,0-0.4,0.1
					c0,0.1,0.1,0.1,0.2,0.2c0,0.4-0.4,0.2-0.5,0.3c0,0.1,0.3,0,0.3,0.2c-0.2,0.2-0.1,0.5-0.4,0.7c0.3,0,0.2,0.2,0.4,0.4
					c-0.1,0-0.1,0.1-0.2,0.1c0,0.1,0.1,0.1,0.2,0.1v0.1c2,0.3,3.1,0.1,4.8,0C116.9,34.7,117,34.6,117.2,34.5z"/>
			</g>
			<path class="st8" d="M123.7,23.9c-0.4-0.2,0.2-0.4,0.1-0.6c-0.2,0-0.2,0.4-0.5,0.3c0-0.2,0.1-0.5,0.3-0.6l0,0
				c-0.4,0.1-0.7,0.8-1.3,0.5c0.1-0.1,0-0.4-0.2-0.3c-0.4,0.3-0.8,0.2-1.2,0.4v-0.2c-0.4,0.2-0.6,0.6-1,0.9
				c-0.1-0.6-0.6,0.5-0.8,0.1c0.1,0.4,0,0.8-0.3,0.7c-0.1,0.6-0.2,1.4,0.3,1.8c0.1,0.4,0.4,0.2,0.7,0.5v-0.1c0.1,0.1,0.4,0,0.4,0.3
				c0.2-0.1,0.5-0.2,0.7-0.1c0.2,0.2,0.6,0.2,0.7,0c0.1,0,0.1,0.1,0.2,0.1c0.1-0.1,0.2-0.2,0.4-0.1c0.6-0.3,1.1-0.7,1.9-0.8
				l-0.2,0.1l-0.1-0.2h0.7c-0.2-0.1-0.7,0-0.7-0.3s0.3-0.3,0.5-0.4H124c0-0.3,0.5-0.3,0.6-0.7c-0.5,0-0.5-0.4-0.4-0.8l0.5-0.5
				C124.4,23.9,124,24,123.7,23.9z"/>
			<path class="st9" d="M130.4,15.8c0,0,0-0.1,0.1-0.1C130.4,15.6,130.3,15.7,130.4,15.8c-0.2-0.1-0.1-0.3-0.1-0.3
				c-0.1,0-0.2,0.1-0.4,0.1c0-0.1-0.1-0.1-0.1-0.2c-0.1,0-0.1,0.1-0.1,0.1c0-0.1,0-0.2-0.1-0.2c-0.1,0.1-0.2,0.1-0.3,0.1
				c-0.1,0.1-0.1-0.2-0.1-0.1c-0.1,0.1,0.1,0.1,0,0.2c0,0.1-0.1,0.1-0.2,0.1l-0.1-0.1c-0.1,0.1-0.1,0.3-0.3,0.4l-0.1-0.1
				c0,0.1,0.1,0.1,0.1,0.2c-0.2,0.1,0,0.4-0.2,0.4c-0.1,0.1,0.1,0.1,0.1,0.1c0,0.1-0.1,0.1-0.1,0.1h0.1c0.1,0.1-0.1,0.2-0.1,0.2
				c0.1,0,0.1-0.1,0.2,0c0,0.1,0.1,0.2,0,0.4c0.1-0.1,0.2,0,0.2,0v0.1c0,0.1,0.1,0,0.1,0c0,0.1,0,0.1,0,0.2c0.1,0,0.1,0,0.2,0
				c0,0.1,0,0.2,0.1,0.2c0.1-0.1,0.2,0,0.3,0s0,0.2,0.1,0.2c0.1-0.1,0-0.1,0-0.2c0.1-0.1,0.2,0,0.2-0.1l0.1,0.1
				c0.1-0.1,0.2-0.3,0.4-0.4c0,0,0,0.1,0.1,0.1c0-0.1,0-0.1,0-0.2c0.2-0.1,0.1-0.4,0.3-0.4c0.1-0.1-0.1-0.1-0.1-0.1
				c0-0.1,0.1,0,0.2-0.1c0,0-0.1,0-0.1-0.1c-0.1-0.2,0.1-0.1,0.2-0.2c0-0.1-0.1,0-0.2,0c0.1-0.1-0.1-0.3,0.1-0.4
				C130.5,16,130.4,15.8,130.4,15.8z"/>
		</g>
		<g>
			<path class="st10" d="M131.3,23.5c0-0.1-0.1,0-0.1,0c-0.1-0.1,0-0.1,0-0.2l-0.1,0.1c-0.2,0-0.1-0.2-0.1-0.3c-0.1,0,0,0.2-0.1,0.1
				s-0.3-0.1-0.3-0.3c0,0.1-0.1,0.1-0.2,0.2l-0.1-0.1c-0.1,0,0,0.1-0.1,0.2s-0.2-0.1-0.2-0.1c0,0.1-0.1,0.2-0.1,0.3
				c-0.1,0-0.2-0.1-0.2-0.2c-0.1,0-0.1,0.1-0.1,0.2c-0.1,0-0.2-0.2-0.3-0.1c0,0.2-0.1,0.2-0.2,0.3c-0.1,0.1-0.2-0.2-0.2-0.1
				s0.1,0.1,0.1,0.2s-0.1,0.2-0.1,0.2l-0.2-0.1c0,0.2,0.1,0.5,0,0.7c-0.1,0-0.1-0.1-0.2,0c0,0.1,0.1,0.1,0.2,0.1
				c-0.1,0.3,0.3,0.4,0.1,0.6c0,0.1,0.1,0,0.2,0.1c0.1,0.1-0.1,0.1-0.1,0.2c0.1,0,0.1,0,0.2,0c0.2,0.1,0,0.2,0,0.3
				c0.1,0,0.1-0.2,0.2-0.1c0.1,0.2,0.3,0.2,0.3,0.4c0.1-0.1,0.2-0.1,0.3-0.1v0.1c0.1,0,0.1-0.1,0.1-0.1s0.1,0,0.2,0
				c0,0,0,0.1,0.1,0.1l0,0h0.1c0.4-0.8,0.8-1.6,1.1-2.4C131.2,23.6,131.2,23.6,131.3,23.5z"/>
		</g>
		<path class="st4" d="M120.3,21.8c-1.2,0.9-2.5,1.8-3.8,2.7c-0.3,0.2-0.6,0.4-1,0.6l-1,0.6c-0.3,0.2-0.7,0.4-1,0.6s-0.7,0.4-1,0.6
			c-1.4,0.7-2.7,1.4-4.1,2s-2.8,1.2-4.3,1.6l0.1-0.4c0.8,0.7,1.6,1.3,2.5,1.8c0.9,0.6,1.8,1,2.7,1.5c1.9,0.8,3.9,1.4,6,1.5
			c2.1,0.2,4.2-0.1,6.1-0.7c1-0.3,2-0.7,2.9-1.2s1.8-1,2.7-1.6c-1.6,1.3-3.5,2.4-5.5,3.1s-4.1,1-6.2,0.9s-4.2-0.7-6.1-1.5
			s-3.8-2-5.4-3.4l-0.3-0.3l0.4-0.1c1.5-0.4,2.9-1,4.3-1.6s2.8-1.2,4.2-1.9c1.4-0.7,2.7-1.4,4-2.2c0.7-0.4,1.3-0.8,2-1.2
			C119,22.7,119.6,22.2,120.3,21.8z"/>
	</g>
	<g>
		<path class="st11" d="M105.9,4.1l-0.5,0.2L105.9,4.1z"/>
		<polygon class="st11" points="104.3,4.9 105,4.6 105,4.5 105.2,4.4 105,4.3 		"/>
		<path class="st11" d="M104,5l-0.4,0.1L104,5z"/>
	</g>
	<g>
		<path class="st6" d="M84.4,17.2c0.2-0.5,0.2-0.9,0.1-1.2c0-0.1-0.1-0.1-0.2,0c-0.2,0.2-0.4,0.7-0.7,1.3c-0.3,0-0.5,0.1-0.8,0
			c-0.1,0-0.2,0.1-0.1,0.2s0.3,0.3,0.6,0.3c-0.4,0.8-0.8,1.7-1,2.2c0,0.1-0.1,0.3-0.1,0.4c-0.4,0.6-1.1,1.4-1.8,1.3
			c-0.5,0-0.7-0.7-0.4-1.6c0.7,0.6,1.3,0.3,1.8-0.3c0.4-0.5,0.5-1.2,0.3-1.4c-0.2-0.2-0.3-0.4-0.6-0.5C81,17.5,80,18,79.4,19.4
			c-0.6,1.3-0.2,2.6,1,2.6c0.7,0,1.3-0.4,1.7-0.9c0.1,0.6,0.4,0.9,0.8,0.9c0.8,0,1.4-0.9,1.5-1.2c0.1-0.2,0.1-0.4,0.1-0.6
			c0-0.1-0.1-0.1-0.2,0C84,21,83.5,21.7,83,21.7c-0.4,0-0.5-0.7-0.2-1.4c0.4-0.9,0.9-1.9,1.3-2.6c0.2,0,0.5-0.1,0.7,0
			c0.1,0,0.2-0.1,0.1-0.2C84.9,17.3,84.8,17.1,84.4,17.2z M80.1,19.6c0.4-1,1.2-1.6,1.4-1.4c0.1,0.1-0.1,0.7-0.4,1.1
			s-0.7,0.8-1.1,0.5C80.1,19.8,80.1,19.7,80.1,19.6z"/>
		<path class="st6" d="M115.1,17.8c0.1-0.1,0.2-0.4,0.1-0.7c-0.1-0.3-0.4-0.4-0.6-0.2c-0.2,0.2-0.2,0.5,0,0.8
			C114.7,17.9,114.9,17.9,115.1,17.8z"/>
		<path class="st6" d="M118.2,20.3c0-0.1-0.1-0.1-0.2,0c-0.4,0.7-1.1,1.5-1.9,1.5c-0.5,0-0.7-0.7-0.4-1.6c0.7,0.6,1.3,0.3,1.8-0.3
			c0.4-0.5,0.5-1.2,0.3-1.4c-0.2-0.2-0.3-0.4-0.6-0.5c-0.5-0.3-1.4,0.2-2.1,1.6c-0.1,0.3-0.2,0.6-0.3,0.9c-0.3,0.7-0.8,1.4-1.2,1.4
			c-0.3,0-0.3-0.4-0.1-1c0.2-0.5,0.6-1.2,0.8-1.7c0.2-0.5,0.2-1,0-1.1c-0.1-0.1-0.1-0.1-0.2,0.1c-0.3,0.5-0.9,1.7-1.2,2.5
			c-0.3,0.7-0.8,1.3-1.1,1.3c-0.3,0-0.4-0.5-0.2-1.1c0.2-0.5,0.7-1.3,0.9-1.8c0.2-0.5-0.1-1-0.4-1.1s-1,0.5-1.4,1
			c0.1-0.4,0.1-0.7,0-1c-0.1-0.1-0.1-0.1-0.2,0c-0.6,0.9-1.2,2.2-1.5,2.9c-0.3,0.4-0.8,0.8-1.4,1.1c0.4-1,1-2.3,1.3-2.9
			c0.2-0.5,0.2-1,0-1.1c-0.1-0.1-0.2-0.1-0.2,0.1c-0.1,0.2-0.2,0.4-0.3,0.6c0-0.4-0.2-0.7-0.6-0.7c-0.5,0-1.3,0.5-2,1.7
			c-0.3,0.4-0.4,0.8-0.5,1.2c-0.3,0.6-0.7,1.1-1.1,1.1c-0.3,0-0.3-0.4-0.1-1c0.2-0.5,0.7-1.3,0.9-1.8c0.2-0.5,0.2-1,0-1.2
			c-0.1-0.1-0.1-0.1-0.2,0.1s-0.2,0.4-0.3,0.6c0-0.4-0.2-0.7-0.6-0.7c-0.5,0-1.2,0.5-2,1.7c-0.2,0.4-0.4,0.7-0.4,1.1
			c-0.3,0.6-0.9,1.3-1.7,1.3c0.4-0.2,0.7-0.7,1-1.4c0.4-0.9,0.6-1.8,0.1-2.3c-0.4-0.5-1-0.2-1.4,0.2c0-0.2,0-0.3-0.1-0.5
			c0-0.1-0.1-0.1-0.2,0c-0.4,0.5-1,1.9-1.6,3.1C97.3,21.7,97,22,96.8,22c-0.4,0-0.5-0.5-0.2-1.1c0.2-0.5,0.7-1.2,0.9-1.7
			c0.2-0.5,0.1-1.1-0.2-1.1c-0.3,0-0.9,0.5-1.4,0.9c0.1-0.5,0-1-0.4-1c-0.3,0-1,0.6-1.5,1.1c0.1-0.4,0.2-0.8,0-1.1
			c-0.1-0.1-0.2-0.1-0.2,0c-0.5,0.8-1.1,1.6-1.7,1.6c0-0.1,0-0.1,0-0.2c0.1-0.8-0.2-0.8-0.5-1.1c-0.2-0.3-0.3-0.4-0.6-0.4
			c-0.6,0-1.2,0.7-1.5,1.3c-0.2,0.4-0.4,0.9-0.4,1.3c-0.4,0.6-1,1.3-1.8,1.3c-0.6,0-0.8-0.9-0.2-2c0.4-0.9,1.1-1.6,1.3-1.5
			c0.1,0.1-0.2,0.6-0.3,0.9c-0.1,0.5,0,0.8,0.2,0.9c0.1,0.1,0.2,0,0.2-0.1c0.2-0.6,0.6-1.1,0.4-1.5c-0.1-0.2-0.3-0.4-0.5-0.6
			c-0.5-0.3-1.4,0.2-2,1.6c-0.6,1.3-0.2,2.6,1,2.6c0.7,0,1.4-0.4,1.7-1c0,0.2,0.1,0.3,0.2,0.5c0.4,0.6,0.9,0.6,1.2,0.4
			c0.7-0.2,1.3-1.3,1.5-2.2c0.3,0,0.6-0.1,0.9-0.3c-0.3,0.6-0.5,1.1-0.6,1.5c-0.2,0.5-0.1,0.9,0.1,1c0.1,0.1,0.1,0.1,0.2,0
			c0.4-1,0.8-1.9,1.4-2.6s1.1-1,1.2-1c0.2,0.1-0.8,1.5-1.1,2.4c-0.3,0.7-0.1,1.1,0,1.3c0.1,0.1,0.2,0.1,0.2-0.1
			c0.4-1,0.9-1.9,1.6-2.8c0.6-0.7,0.9-0.8,1-0.8c0.1,0.1-0.7,1.2-1,2.1c-0.3,0.8,0,1.5,0.8,1.6c0.2,0,0.4-0.1,0.5-0.2
			c-0.2,0.5-0.4,0.9-0.4,1.1c-0.2,0.6-0.1,0.9,0,1.1c0.1,0.1,0.1,0.1,0.2,0c0.5-1.2,0.9-2.2,1.4-3.1c0,0.3,0.1,0.5,0.3,0.7
			c0.3,0.3,0.7,0.4,1.3,0.4c0.6,0,1.1-0.3,1.5-0.8c0.1,0.4,0.3,0.7,0.7,0.7c0.5,0,0.9-0.4,1.2-0.8c0,0.5,0.3,0.8,0.8,0.9
			c0.4,0,0.8-0.3,1.1-0.7c0.1,0.4,0.3,0.7,0.7,0.7c0.4,0,0.7-0.2,1-0.5c-0.1,0.2-0.2,0.5-0.3,0.7c-0.9,0.4-1.8,1-2,2
			c-0.2,0.6,0,1,0.2,1.3s0.4,0.3,0.6,0.2c0.8-0.3,1.4-2,2-3.4c0.5-0.2,1-0.5,1.4-0.8c0,0.2,0.1,0.4,0.2,0.5s0.1,0.1,0.2,0
			c0.4-1,0.8-2,1.4-2.6c0.6-0.7,1.2-1,1.3-1c0.2,0.1-0.7,1.2-1,2.2c-0.3,0.9-0.1,1.5,0.7,1.5c0.4,0,0.8-0.3,1.1-0.7
			c0.1,0.4,0.3,0.6,0.7,0.6c0.5,0,1-0.4,1.3-0.9c0.1,0.6,0.6,1,1.2,1c0.7,0,1.5-0.5,1.9-1.1C118.2,20.6,118.2,20.3,118.2,20.3z
			 M115.9,19.7c0.4-1,1.2-1.6,1.4-1.4c0.1,0.1-0.1,0.7-0.4,1.1s-0.7,0.8-1.1,0.5C115.8,19.8,115.9,19.7,115.9,19.7z M91.2,20.4
			c-0.5,0.9-1,1.3-1.3,1.1c-0.2-0.2-0.1-1.2,0.3-2c0.2-0.4,0.5-0.7,0.7-1c0,0.4,0.3,0.8,0.6,1C91.5,19.8,91.4,20.1,91.2,20.4z
			 M91.6,19.3c-0.2-0.2-0.3-0.5-0.2-0.7c0-0.3,0.2-0.4,0.3,0C91.7,18.7,91.7,19,91.6,19.3z M99,21.5c-0.3-0.2-0.2-0.9,0-1.5
			c0.1-0.2,0.2-0.4,0.3-0.6c0.4-0.8,1-1.3,1.3-1.2c0.2,0.1,0.1,1-0.2,1.8C99.9,21,99.3,21.7,99,21.5z M102.5,21.6
			c-0.4,0-0.2-0.9,0.3-1.8s1.2-1.6,1.5-1.6s0.2,0.7-0.4,1.8C103.4,21,102.9,21.7,102.5,21.6z M105.2,25.1c-0.2-0.2,0.3-1.7,1.5-2.5
			C106.1,24.2,105.4,25.3,105.2,25.1z M106.3,21.7c-0.4,0-0.3-0.9,0.2-1.8s1.2-1.6,1.5-1.5c0.3,0,0.2,0.7-0.4,1.8
			C107.2,21,106.7,21.7,106.3,21.7z"/>
	</g>
	<g>
		<path class="st2" d="M120.3,37.8c0.4-0.2,0.8-0.5,1.1-0.8c-2.4,1.7-6,2.1-9.5,1.9c-3.6-0.2-7.5-1.5-10.8-3
			c-3.1-1.4-5.8-2.9-8.8-3.8c-0.7-0.4-1.5-0.8-2.2-1.1c-1.5-0.7-3-1.5-4.6-2.1c-0.4-0.1-0.8-0.3-1.2-0.5c-0.5-0.2-1-0.3-1.5-0.4
			h-0.1c-0.4-0.1-0.8-0.3-1.2-0.5c-0.4-0.1-0.7-0.2-1.1-0.4C80.2,27,80,26.9,80,26.8v-0.1l-0.1,0.1c-0.1-0.1,0,0-0.1,0l-0.2-0.1
			c0,0,0,0.1,0.1,0.1c0,0.1-0.1,0-0.2,0v0.1c-1.3-0.2-2.8-0.2-4.7,0.8c0.4,0.4,1.3,0.5,1.6,1c-0.5,0.1-1,0.2-1.4,0.2
			c0.2,0.1,0.3,0.4,0.7,0.4c-0.3,0-0.7,0-1.1,0.2c0.2,0.2,1,0.1,1.4,0.1c0.2,0,1.5-0.2,1.5,0c-1,0.2-2,0.3-3,0.6
			c0.1,0.1,0.3,0.2,0.4,0.3c-0.4,0.1-0.9,0-1.4,0.2c0.4,0.2,0.9,0.3,1.3,0.5c0.3,0.2,0.5,0.4,1,0.5c-0.6,0-1.3-0.1-2,0.1
			c0,0.2,0.3,0.3,0.5,0.3c-0.1,0-0.1,0.1-0.2,0.1c0.1,0,0.1,0.2,0.2,0.2l-0.1,0.1l0,0l6,1.3c0.2,0.3,0.3,0.6,0.9,0.7
			c0.6,0,1,0.3,1.3,0.7c0.4,0.3,0.7,0.7,1.3,0.7c2.2,0.3,4.5,0.3,6.1,1.2c1.5,0.9,2.5,0.2,4.2,0.8s2.1,1.4,3.8,2.3
			c2,1.1,7.1,0.7,9,0.7c1.4,0,4.2,0.4,5.4-0.3c-1.6,0.2-3.2,0-4.7-0.3c3.4,0,6.9-0.1,9.9-0.8c-2.9,0.6-6,0.7-9,0.3
			c-2.9-0.4-6.8-1.1-9.2-3.6c3.3,1.5,7.6,2.6,11.3,2.8C113.9,39.4,117.7,39.1,120.3,37.8z"/>
		<path class="st10" d="M90.2,34.9c0.2,0.1-0.1,0.2-0.1,0.3c0.1,0,0.1-0.2,0.2-0.1c0,0.1-0.1,0.2-0.2,0.2l0,0c0.2,0,0.4-0.3,0.6-0.1
			c-0.1,0,0,0.2,0,0.2c0.2-0.1,0.4,0,0.6-0.1v0.1c0.2,0,0.3-0.2,0.5-0.3c0,0.3,0.3-0.1,0.4,0c0-0.2,0.1-0.3,0.2-0.3
			c0.1-0.2,0.2-0.6,0.1-0.8c0-0.2-0.1-0.1-0.3-0.3v0.1c0,0-0.2-0.1-0.1-0.1c-0.1,0-0.2,0-0.3,0c-0.1-0.1-0.2-0.2-0.3-0.1
			c0,0-0.1,0-0.1-0.1c-0.1,0-0.1,0-0.2,0c-0.3,0.1-0.5,0.2-0.9,0.2h0.1v0.1l-0.4,0c0.1,0.1,0.3,0.1,0.3,0.2c0,0.1-0.2,0.1-0.2,0.1
			h0.1c0,0.1-0.2,0.1-0.3,0.2c0.2,0.1,0.2,0.2,0.1,0.4l-0.3,0.2C89.9,34.8,90.1,34.8,90.2,34.9z"/>
		<path class="st12" d="M102.9,34.9L102.9,34.9c0,0,0.1,0.1,0.2,0.1c0,0.1,0,0.1-0.1,0.1l0,0c0,0,0.2-0.1,0.2,0.1l0,0
			c0.2-0.2,0.4,0,0.6-0.1c0.3,0.1,0.4-0.2,0.5-0.3c-0.1-0.1,0-0.2,0-0.3L104,34c-0.1,0-0.2-0.1-0.3-0.1c0.1-0.1,0.2-0.3,0.1-0.5
			c-0.1-0.3-0.3-0.2-0.5-0.3c-0.1,0.1-0.2,0.1-0.4,0.1h-0.1c0.2,0.1-0.1,0.2-0.2,0.4h-0.1c0.1,0,0.1,0,0.2,0l-0.2,0.1h0.1v0.1h0.1
			v0.1h0.1c0,0.1-0.1,0.2,0,0.2l-0.2,0.2h0.1c0,0.1,0,0.1-0.1,0.1l0,0h0.1l-0.2,0.1C102.7,34.8,103,34.7,102.9,34.9z"/>
		<path class="st12" d="M87.9,33.3L87.9,33.3c0,0.1,0.2-0.2,0.4-0.1c0.5-0.5-0.6-0.8,0.2-1.3c-0.3-0.3,0-0.8-0.5-1
			c-0.4-0.1-0.7,0.3-0.9,0.6L86.8,32c0.1,0,0.1,0.1,0.1,0.2v0.2c0.4-0.1,0.1,0.3,0.3,0.5v-0.1c0.4,0.1,0.1,0.4,0.4,0.6v0.2
			C87.6,33.6,87.7,33.4,87.9,33.3z"/>
		<path class="st9" d="M94.1,38.2C94,38.3,94.2,38.2,94.1,38.2c0.2,0,0.3,0.2,0.4,0.1l0,0c0.1-0.2,0.3,0.2,0.5-0.2
			c0.2,0.1,0.1-0.3,0.3-0.3c0-0.3,0-0.4-0.3-0.6c-0.2-0.1-0.1,0-0.4-0.1h-0.1c0.1,0.2-0.3-0.1-0.2,0.1c-0.1,0-0.2,0-0.3,0.1
			c0,0,0.1,0,0.1,0.1s-0.1,0.1-0.2,0.1l0.1,0.1l-0.1,0.1c0,0,0.1,0,0.1,0.1L93.9,38C93.9,38.2,94.2,38,94.1,38.2z"/>
		<polygon class="st10" points="92.7,37.8 92.5,37.9 92.6,37.9 		"/>
		<path class="st7" d="M94.5,31.6L94.5,31.6c0.1,0,0.2,0.1,0.3,0.2c0.2-0.1,0.5-0.3,0.4-0.5L94.9,31c-0.1,0.1-0.3,0-0.4,0
			c0.1,0.1-0.2,0.2-0.1,0.2h0.1c-0.1,0.1-0.1,0.2-0.2,0.3C94.4,31.5,94.5,31.5,94.5,31.6z"/>
		<polygon class="st10" points="94.4,31.4 94.4,31.4 94.5,31.4 94.5,31.3 		"/>
		<path class="st10" d="M98.7,38.4c0.1-0.1,0.3-0.1,0.2-0.3c-0.1-0.1-0.3-0.4-0.5-0.2h-0.1l-0.1,0.2c0.1,0,0,0.2,0.2,0.3
			C98.5,38.3,98.6,38.3,98.7,38.4z"/>
		<path class="st10" d="M99.1,37.7h0.2H99.1z"/>
		<polygon class="st10" points="99.6,37.6 99.4,37.6 99.4,37.7 99.3,37.7 99.4,37.7 		"/>
		<path class="st10" d="M100.1,37.7C100,37.7,100,37.7,100.1,37.7C100.1,37.7,100.1,37.7,100.1,37.7L100.1,37.7
			c0.1,0.1,0.2,0.1,0.3,0.2l0,0c0.3,0.1,0.5-0.1,0.7-0.2c0.1-0.2,0.1-0.4,0.3-0.5c0-0.1-0.2,0-0.1-0.1s0-0.3-0.1-0.5
			c-0.2,0-0.2-0.1-0.4-0.2c-0.1,0-0.2,0.1-0.2-0.1v0.1c-0.1,0-0.1-0.1-0.2-0.2l-0.1,0.2c-0.1-0.1-0.3,0.1-0.4,0.1
			c0,0.2-0.3,0.1-0.4,0.1c0,0.1,0.3,0.2,0.3,0.4h-0.1c-0.1,0.2,0.3,0.1,0.2,0.3l-0.4-0.1C99.7,37.3,100,37.3,100.1,37.7z"/>
		<path class="st10" d="M99.8,37.6L99.8,37.6L99.8,37.6z"/>
		<polygon class="st10" points="100.2,35.9 100.1,35.9 100.2,36 		"/>
	</g>
	<path class="st4" d="M123.5,13.1c-0.1-0.5-0.5-0.8-0.5-1.3c0-0.4,1.1-1,1.1-1.2s-0.4-0.7-0.7-0.7c-0.4,0-1.2,0.7-1.2,1.3
		c0,0.3,0.1,0.5,0.2,0.7c-0.4,0.4-0.6,0.7-0.6,0.7l0,0c0,0-0.4,0.4-0.9,0.8h-0.1c-0.1,0.1-0.2,0.1-0.3,0.2c-0.4,0.3-0.8,0.5-1.1,0.5
		c-0.4,0-0.6-0.4-0.6-0.8c0-0.1,0-0.5,0-0.6c0.9-0.6,1.8-1.4,1.8-1.7c0-0.2-0.2-0.7-0.7-0.7c-0.7,0-2.1,1.4-2.2,2.7
		c-0.6,0.5-1.7,1.3-2.2,1.3c-0.1,0-0.3-0.1-0.3-0.4c0-0.7,0.4-1.6,0.4-1.6c1.5-1.4,4-4.3,4-5.2c0-0.4-0.3-0.9-0.9-0.9
		c-1.1,0-3.7,3.9-4.3,6.6c-0.6,0.5-1.7,1.7-2.2,1.7c-0.1,0-0.3-0.1-0.3-0.4c0-0.7,0.4-1.7,0.4-1.7c1.6-1.4,3.8-3.9,3.8-4.9
		c0-0.4-0.3-0.9-0.9-0.9c-1.2,0-3.5,3.2-4.1,6l0,0c0,0-1.6,1.5-2.4,1.5c-0.4,0-0.6-0.4-0.6-0.8c0-0.1,0-0.5,0-0.6
		c0.9-0.6,1.8-1.4,1.8-1.7c0-0.2-0.2-0.7-0.7-0.7c-0.7,0-2.1,1.4-2.2,2.8c-0.6,0.5-1.5,1.2-2.2,1.2c-0.1,0-0.2-0.1-0.2-0.2
		c0-0.8,1.3-2,1.3-2.1c0-0.2-0.3-0.8-0.6-0.8c-0.6,0-2.1,1-2.7,1.4c0.4-0.6,0.6-1,0.6-1.2c0-0.4-0.5-0.9-0.8-0.9
		c-0.1,0-0.2,0.1-0.2,0.2c0,0.5-0.6,1.4-1.1,2.2c-0.6,0.5-1.7,1.4-2.4,1.4c-0.1,0-0.2,0-0.2-0.2c0-0.6,1.8-2.7,1.8-3
		s-0.4-0.7-0.8-0.7c-0.2,0-0.3,0.1-0.3,0.2c-0.2,0.5-0.9,1.5-1.3,2.2c-0.6,0.5-2.1,1.7-3.1,1.7c-0.3,0-0.5-0.2-0.5-0.6
		c0-1.4,1.5-2.8,2.3-2.8c0.1,0,0.1,0.1,0.1,0.1c0,0.2-0.2,0.5-0.4,0.7V12l0,0c0.1,0,0.3,0,0.3,0c0.3-0.3,0.4-0.6,0.4-0.8
		c0-0.4-0.4-0.7-0.8-0.7c-0.9,0-2.3,1.2-2.7,2.5c-0.7,0.6-2,1.6-2.9,1.6c-0.3,0-0.5-0.2-0.5-0.6c0-1.4,1.5-2.8,2.3-2.8
		c0.1,0,0.1,0.1,0.1,0.1c0,0.2-0.2,0.5-0.4,0.7v0.1l0,0c0.1,0,0.3,0,0.3,0c0.3-0.3,0.4-0.6,0.4-0.8c0-0.4-0.4-0.7-0.8-0.7
		c-0.7,0-1.6,0.7-2.3,1.6c-0.1,0-0.6,0.2-1.1,0.1c0-0.1,0.1-0.3,0.2-0.9c0-0.7-0.6-1.1-1.3-1.1c-0.8,0-2.6,0.8-2.8,2.9
		c-1.5,1.4-3.5,2.6-5.8,2.6c-1.4,0-2.2-0.5-2.2-1.8c0-3.9,6.4-8.8,9.5-8.8c0.6,0,0.9,0.2,0.9,0.5c0,1.2-2.2,2.6-3.2,2.8
		c-0.1,0-0.1,0.1-0.1,0.1c0,0.1,0.5,0.4,0.9,0.4s2.8-2,2.8-3.2C87.6,5.1,87.1,4,86,4c-3.7,0-10.2,5-10.2,9.1c0,1.6,1.8,2.9,3.4,2.9
		c2,0,4.4-1.6,5.8-2.8v0.1c0,0.7,1,1.1,1.4,1.1c0.2,0,1.1-0.1,2.4-2.1c0,0,0.1,0,0.2,0l0,0c0.3,0,0.6,0,0.8,0
		c-0.2,0.4-0.4,0.9-0.4,1.4c0,0.7,0.6,1.1,1.3,1.1c0.9,0,2.3-1.1,3-1.7c0,0.2-0.1,0.4-0.1,0.6c0,0.7,0.6,1.1,1.3,1.1
		c1,0,2.4-1.2,3.1-1.8c-0.1,0.2-0.2,0.5-0.2,0.6c0,0.5,0.6,0.9,0.9,0.9c0.7,0,1.7-0.7,2.3-1.3c-0.2,0.4-0.4,0.6-0.4,0.7
		c0,0.3,0.4,0.8,0.5,0.8c0.2,0,0.3-0.8,1.3-1.7c0.9-0.8,2-1.3,2.1-1.3l0,0c0,0.1-0.7,1-0.7,1.7c0,0.5,0.6,1.1,1,1.1
		c0.6,0,1.6-0.9,2.2-1.4c0,0.8,0.5,1.3,1.3,1.3c1.1,0,2.5-1.4,2.8-1.7c-0.1,0.4-0.1,0.7-0.1,1.1c0,0.7,0.5,1,0.9,1
		c0.6,0,1.8-1.2,2.4-1.8c0,0.2-0.1,0.4-0.1,0.6c0,0.7,0.5,1,0.9,1c0.6,0,1.8-1,2.5-1.5c0,0.8,0.5,1.3,1.3,1.3c0.5,0,1.1-0.3,1.5-0.6
		c0.1,0.4,0.7,1,1.5,1s1.6-0.6,1.6-1.3c0-0.1,0-0.2,0-0.2c0.3,0.1,0.4,0.3,0.5,0.3s0.2-0.1,0.2-0.2C124.2,13.3,124,13.1,123.5,13.1z
		 M120.1,10.9c0.1,0,0.1,0.1,0.1,0.1c0,0.3-0.7,1-1.3,1.5C119.4,11.3,119.9,10.9,120.1,10.9z M119,6.9C119.1,6.9,119.1,7,119,6.9
		c0.1,1-2.2,3.7-3.4,4.9C116.2,10.3,118.2,6.9,119,6.9z M115.6,7.3C115.7,7.3,115.7,7.4,115.6,7.3c0.1,1-2,3.3-3.2,4.5
		C113,10.3,114.8,7.3,115.6,7.3z M109.5,10.8c0.1,0,0.1,0.1,0.1,0.1c0,0.3-0.7,1-1.3,1.5C108.7,11.3,109.2,10.8,109.5,10.8z
		 M86.2,14.2c-0.2,0-0.5-0.3-0.5-0.7c-0.1-0.3,0.1-1.6,0.7-2.2l0,0c0.2,0.2,0.6,0.7,2,0.9C87.9,13.3,86.9,14.3,86.2,14.2z M88.4,12
		c-0.3-0.1-0.9-0.3-1.2-0.6c-0.1-0.1-0.2-0.3-0.3-0.4c0-0.3,0.2-0.6,0.7-0.6s0.8,0.3,0.9,0.8C88.5,11.6,88.4,12,88.4,12z M121.6,14
		c-0.5,0-0.8-0.1-0.8-0.3c0,0,0-0.1,0.1-0.1c0.3-0.1,0.8-0.3,1.6-0.4C122.4,13.6,122.2,14,121.6,14z M122.6,13
		c-0.4,0-0.9,0.2-1.3,0.2c0.3-0.3,0.5-0.5,0.5-0.5l0,0c0,0,0.3-0.3,0.7-0.7c0.1,0.2,0.1,0.4,0.1,0.8C122.6,12.9,122.6,13,122.6,13z"
		/>
	<path class="st11" d="M102.8,5.4c0.1,0,0.1-0.1,0.1-0.2c-0.2,0-0.2,0.1-0.4,0.1l0.2-0.4c-0.3,0.2-0.6,0.1-1,0V4.8
		c-0.8,0-1.4,0.6-1.8,1.2c-0.1,0.5,0,1.3-0.6,1.6c0.1,0.4,0.5-0.1,0.4,0.3s0.3,0.9,0.5,1.4c0.7-0.1,0.8,0.2,1.3,0.5
		c0.2,0,0.6-0.3,0.7,0.1V9.5c0.4-0.1,0.5,0.3,0.7,0.5V9.4c0.5,0.1,0.9-0.4,1.2-0.5c-0.1-0.7,0.8-0.6,1.2-0.5
		c-0.1-0.4-1.1-0.2-1.1-0.9c0.1,0,0.2,0.1,0.3,0c0-0.6-0.9-0.1-0.7-0.7l1.2-0.1C104.1,6.2,103.3,6.4,102.8,5.4z"/>
</g>
<g class="st13">
	<path class="st4" d="M7.9,8C7.7,7.6,7.8,7.4,8.2,7.4c2.3-0.2,5.3-1.8,7.5-1.9c1.7-0.1,3.3,0.4,3.9,2.7c0.6,2.2,0,4.1-1.2,5.5
		c-1,1.2-2.7,2.9-5.1,3.9c0.6,0.3,1.2,0.8,1.6,1.4c0.7,1,0.7,3-0.8,4.5c-1.5,1.6-3.9,2.7-5.8,3.1c-1.3,0.2-2,0.2-2.8-0.2
		c-0.7-0.3-1.3-0.9-1.7-1.5c-0.5-0.7-0.8-1.3-0.1-3.4c1.3-3.7,3.8-8.5,6.3-12.2C8.8,9.2,8.1,8.5,7.9,8z M9.8,18.5
		c-0.9,0.1-1.6,0-2-0.2C6.9,20,6,21.7,5.5,23.4c-0.4,1.2,0,1.6,1.1,1.4c2.1-0.3,4.9-1.6,6.4-3.4c1.2-1.5,1.2-3-1.8-3.2
		C10.7,18.4,10.3,18.4,9.8,18.5z M18.4,8.4c-0.7-1.7-3.9-0.2-6.2,0.5c0.1,0.7-0.2,1.7-1,3.2c-0.7,1.2-1.6,2.8-2.6,4.5
		C15.2,15.1,19.2,10.7,18.4,8.4z"/>
	<path class="st4" d="M20.5,25.6c1.6,0.1,3.9-2.2,5.2-4.8c0.2-0.4,0.6-0.5,0.7,0c0.2,0.5,0,1.3-0.3,2c-0.5,1-2.9,3.7-5.5,3.7
		c-2.3-0.1-3.5-1.6-2.7-5.2c1.2-5.7,5-11.7,8.3-15.2c0.5-0.5,1-0.6,1.4-0.2c1,0.9,1.2,2.1,0.8,3.6c-1,4.1-4.7,8-7.7,9.9
		C19.4,22.8,19,25.5,20.5,25.6z M27.2,8.9c-0.4-0.3-2.9,3.4-5.1,7.6c-0.3,0.5-0.6,1.1-0.8,1.6C25.8,14.5,27.6,9.2,27.2,8.9z"/>
	<path class="st4" d="M35.4,19.5c-0.7,2.8-2.8,6.1-5.2,7c-1.2,0.4-2.8,0.3-4.2-1.5c-1.5-1.9-1-4.8,0.5-7.4c1.3-2.2,3.3-4.2,5.2-4.3
		c1-0.1,1.6,0.2,2.2,1.1c0.8,1,1.7,1.3,1.6,3.6c0,0.3,0,0.5-0.1,0.8c0.2,0,0.4-0.1,0.7-0.1c0.2,0,0.2,0.2,0.1,0.3
		C36.1,19.3,35.8,19.4,35.4,19.5z M32.6,18.6c-0.7-0.5-1.5-1.7-1.5-2.9c-0.9,0.8-1.8,1.8-2.5,3.1c-1.4,2.5-1.9,5.5-1,6.3
		c0.9,0.8,2.9-0.4,4.6-3.4c0.5-0.9,0.9-1.8,1.2-2.6C33,18.9,32.8,18.8,32.6,18.6z M33.7,15.7c-0.2-1.1-0.8-0.9-1,0.1
		c-0.2,0.9,0.2,1.8,0.7,2.3C33.7,17.1,33.8,16.3,33.7,15.7z"/>
	<path class="st4" d="M43.3,27.5c-1.8,4.4-4.2,9.7-6.8,10.7c-0.7,0.3-1.3,0.2-1.9-0.7c-0.7-1-1.3-2.1-0.7-4.1c1-3,3.8-5,7.1-6.2
		c0.3-0.7,0.6-1.5,1-2.3c-1,1-2.1,1.6-3.3,1.6c-3,0-3.6-4.1-1-8.1c2.6-3.8,5.2-5.3,6.9-5.3c1.3,0,2,1,1.9,2.2
		c0.4-0.7,0.8-1.3,1.1-1.8c0.3-0.5,0.6-0.5,0.8-0.2c0.5,0.6,0.8,2-0.1,3.6c-1,2-3.1,6-4.5,9.2c2.8-1.4,4.6-3.2,5.9-4.9
		c0.2-0.3,0.5-0.3,0.6,0.1c0.1,0.3-0.1,1-0.7,1.9C48.4,25.2,46,26.5,43.3,27.5z M35.2,36.4c0.4,0.6,3-2.8,5.2-7.8
		C36.1,31,34.6,35.6,35.2,36.4z M45,14.9c-1-0.1-3.4,2-5.2,4.9c-1.8,2.8-2.1,5.7-0.8,5.8c1.3,0,3-2,4.7-4.9C45.7,17,46,14.9,45,14.9
		z"/>
</g>
</svg>
