<?xml version="1.0" encoding="utf-8"?>
<!-- Generator: Adobe Illustrator 25.2.0, SVG Export Plug-In . SVG Version: 6.00 Build 0)  -->
<svg version="1.1" id="Calque_2" xmlns="http://www.w3.org/2000/svg" xmlns:xlink="http://www.w3.org/1999/xlink" x="0px" y="0px"
	 viewBox="0 0 372 242.3" style="enable-background:new 0 0 372 242.3;" xml:space="preserve">
<style type="text/css">
	.st0{fill:#82B657;}
	.st1{fill:#ACDB52;}
	.st2{fill:#A1CE57;}
	.st3{fill:#4A0D17;}
	.st4{fill:#400F18;}
	.st5{fill:#BE1F1F;}
	.st6{fill:#A91F1F;}
	.st7{fill:#3FA4A4;}
	.st8{fill:#EAD015;}
	.st9{fill:#FF9517;}
	.st10{fill:#FF646B;}
	.st11{fill:#DA0B00;}
	.st12{fill:#EDB720;}
</style>
<g id="Groupe_321" transform="translate(-1.306 114.314)">
	<g id="Groupe_292_1_" transform="translate(1.306 115.746)">
		<path id="Tracé_238_1_" class="st0" d="M111.3-39.4c-1.9,1.3-4.6,1.2-6.2,3.2c2.7,0.7,5.4,0.2,8,1.3c2.1,0.9,3.9,1.9,6.4,1.5
			c-3.1,1.1-6.8,1-9.8,3.7c0.9,1.2,2.3,1.2,3.6,1.3c-0.3,0.3-0.5,0.6-0.7,1c0.6,0.1,1.1,0.9,1.7,1c-0.1,0.2-0.1,0.5-0.2,0.7l0.1-0.3
			l0.2,0.8c2.6,1.4,5.6,1.9,8.5,1.4c6.2-0.6,8.7,8.9,15,7.6c3.9-1,7.1,0.8,10.5,2.6c3.3,1.8,6.7,3.7,10.6,3.3
			c14.3-1.9,28.1-6.4,41.3-1.9c12.6,4.2,17.1,9.9,28.3,7.4c11.2-2.5-5.2-11.9,7.8-12.4c33.6-1.3,59.4-11.7,68.2-19.4
			c6.4-5.5,21.3-14.6,22.9-23.6c-5.8,7.9-14.8,13.1-23.4,16.9C319.4-57.1,335.2-71.6,345-89c-10,15.6-23.5,28.6-39.6,37.9
			c-15.8,9.1-37.4,20.4-62.3,14c27.4-0.7,49.3-8.5,67.4-21.2c18.1-12.6,33.3-29.8,37.8-49.1c0.7-3.1,1-6.2,0.8-9.4
			c-1.6,20.5-15.5,38.2-32.9,51c-17.5,13-36,17-70.3,14.8c-19.9-1.2-49.7-17.1-49.7-17.1c-22-1.3-63.5,22.4-86.1,28
			C110.6-40,111-39.7,111.3-39.4z"/>
		<path id="Tracé_239_1_" class="st1" d="M172.4-48.4C129.8-73,201.3-41.6,238-65.8c-8.8,5.8-15.9-11.2-20.7-15.9
			c-23.2-8.2-21.3,16.2-44,10.3c-5.1-1.4-9-3.3-15.4-5.2c-9.3-2.8-20.9-5.2-27.5-5c-13.8,0.4-17.9,4.8-25.2,20.6
			c7,4.9,15.5,4.6,22.1,10.4c-3,2.1-6.5,4.6-9.9,5.2c3,1.3,6.2,4.3,9.3,3.5L172.4-48.4z"/>
		<path id="Tracé_240_1_" class="st2" d="M78.1-85.5c1.5,0.8,3.7,1.8,4.4,3.2"/>
		<g id="Groupe_290_1_" transform="translate(24.207 22.225)">
			<path id="Tracé_241_1_" class="st2" d="M254.3-58.8c2.1-1,4.1-2.4,5.8-4c-12.7,8.8-31.8,11.3-50.5,10.1
				c-18.8-1.2-39.7-8-57.3-16C135.9-76,121.5-83.9,105.6-89c-3.9-2.1-7.8-4-11.7-5.9c-8-4-15.8-7.8-24.2-11.1l-6.5-2.6
				c-2.6-1-5.3-1.7-8-2.3c-0.2,0-0.5-0.1-0.7-0.1l-6.4-2.6c-3.1-1.2-6.4-2.1-9.7-2.8c-7.1-1.2-15.3-1-25.4,3.9
				c2,2.3,6.8,2.9,8.2,5.5c-2.5,0.6-5,0.9-7.5,1c1.2,0.7,1.8,2,3.8,2c-1.9,0-3.8,0.5-5.6,1.3c0.9,1.3,5.2,0.7,7.3,0.6
				c1.2,0,7.8-1.2,8-0.2c-5.1,1.1-10.6,1.6-16.1,3.3c0.6,0.6,1.6,0.9,2,1.7c-2.4,0.5-4.8-0.2-7.2,1c2.2,1.1,4.9,1.4,6.9,2.8
				c1.6,1.1,2.8,2.3,5.2,2.5c-3.3,0.1-6.8-0.8-10.8,0.5c0.3,1.1,1.6,1.4,2.8,1.7c-0.4,0.1-0.7,0.3-1.1,0.6c0.4,0.2,0.6,0.9,1.1,1.1
				c-0.2,0.2-0.4,0.3-0.5,0.5l0.2-0.2l31.8,6.9c0.9,1.7,1.8,3.4,4.5,3.6c3.4,0.1,5.2,1.8,7,3.5c1.9,1.7,3.7,3.5,6.9,3.9
				C71.7-67,83.9-67.2,92.3-62c8,4.9,13.3,1,22,4.3c8.7,3.4,11,7.5,20,12.3c10.5,5.6,37.5,3.9,47.6,4c7.3,0.1,22.2,1.9,28.4-1.6
				c-8.3,1.3-17.1,0-24.9-1.7c17.8-0.1,36.4-0.3,52.7-4.4c-15.6,3.2-31.7,3.6-47.4,1.4c-15.5-2.2-36.1-5.8-48.6-18.8
				c17.3,7.8,40.5,13.6,59.6,15.1C220.6-50,240.3-51.7,254.3-58.8z"/>
			<path id="Tracé_242_1_" class="st2" d="M9.7-86.3l-0.7,0.6C9.2-85.9,9.4-86.1,9.7-86.3z"/>
		</g>
		<g id="Groupe_291_1_" transform="translate(0 6.993)">
			<path id="Tracé_243_1_" class="st2" d="M16.3-86.8c0.3,0.9-0.8,0.3-1.1,0.7c0.3,0.3,0.9-0.3,1.1,0.3c-0.3,0.4-0.8,0.5-1.3,0.3
				h-0.1c0.7,0.5,2.2,0,2.6,1.1c-0.3,0-0.6,0.5-0.3,0.7c1,0.1,1.4,1,2.3,1.2l-0.4,0.3c0.9,0.1,1.8,0.2,2.6,0.2c-0.6,1,1.5,0.2,1.3,1
				c0.5-0.6,1.2-1,1.5-0.5c1-0.6,2.3-1.6,2.3-2.9c0.4-0.7-0.2-0.8-0.3-1.7L26.3-86c-0.1-0.3-0.5-0.6-0.1-0.9
				c-0.5-0.1-0.9-0.4-1.1-0.9c0-0.6-0.5-1.2-1-1c-0.2-0.1-0.1-0.3-0.1-0.4c-0.3,0-0.5-0.1-0.7-0.3c-1.2-0.4-2.5-0.6-3.7-1.6l0.4,0.2
				l-0.2,0.5l-1-1c0.1,0.5,0.9,1,0.6,1.5C18.8-89.6,18.4-90,18-90l0.4,0.3c-0.4,0.5-1.1-0.4-1.7,0.1c0.7,0.8,0.1,1.3-0.5,1.7l-1.4,0
				C15.5-88,16.1-87.5,16.3-86.8z"/>
			<path id="Tracé_244_1_" class="st2" d="M61.8-49l-0.3,0c0.4,0.1,0.6,0.6,0.9,0.9c-0.2,0.2-0.3,0.3-0.6,0.3L61.8-48
				c0.1,0.2,1,0.1,0.6,0.8l-0.2,0.1c1.2-0.1,1.4,1.1,2.5,1c0.8,1.2,2,0,2.8,0.1c0-0.5,0.5-0.6,0.7-0.9l0.1-2.4
				c-0.4-0.3-0.6-0.8-1-1.3c0.7-0.3,1.4-0.9,1.7-1.6c0.6-1.3-0.8-1.5-1.1-2.5c-0.6,0.3-1.2-0.1-1.7-0.4L66-55.5
				c0.5,1.1-1.2,0.6-1.8,0.8l-0.4,0c0.2,0.2,0.7,0.2,0.6,0.6l-1-0.1c0.2,0,0.4,0.2,0.6,0.3l-0.3,0.4c0.2,0,0.3,0.2,0.4,0.3
				c0,0.2-0.2,0.3-0.3,0.4l0.4,0.3c-0.4,0.3-0.8,0.4-0.6,1l-1.4,0.1l0.4,0.3c-0.2,0.2-0.4,0.3-0.7,0.2l-0.1-0.1l0.3,0.4l-1,0
				C61.3-49.9,62.6-49.6,61.8-49z"/>
			<path id="Tracé_245_1_" class="st2" d="M8-92.9l0.1,0.4c-0.2,0.2,1.3-0.5,1.6,0.3c3.4-0.8-0.3-4.9,4-4.8c-0.2-2,2.1-3.1,0.5-5
				c-1.4-1.3-3.5-0.8-5-0.2l-2.1,1.3c0.4,0.2,0.2,0.7-0.1,0.9l-0.7,0.7c1.8,0.5-0.6,1.4-0.2,2.4l0.2-0.2c1.2,1.2-0.7,1.8-0.1,3.1
				L6-93.2C6.5-92.6,7.3-93.1,8-92.9z"/>
			<path id="Tracé_246_1_" class="st2" d="M19.4-58.3c-0.4,0.2,0.7,0.2,0.1,0.6c0.6,0,0.5,0.7,1,0.8l-0.1,0.1
				c1-0.4,0.8,1.5,2.3,0.6c0.7,0.8,1.2-0.7,1.8-0.4c0.8-0.7,1-1.9,0.5-2.8c-0.6-1-0.4-0.3-1.2-1.3L23.3-61c-0.3,0.9-0.7-1-1.2,0
				c-0.5-0.1-0.7-0.4-1.2-0.3c0.1,0.1,0.2,0.3,0.2,0.4c-0.3,0.3-0.7,0.1-1,0.2l0.1,0.4l-0.7,0.3c0.2,0.1,0.2,0.2,0.2,0.4l-0.4,0.1
				C19-58.8,20.2-58.9,19.4-58.3z"/>
			<path id="Tracé_248_1_" class="st2" d="M37.7-83.1l0,0.4c0.5-0.2,0.3,0.4,0.6,0.6c0.8,0,2,0.2,2.2-0.6L40.2-84
				c-0.4,0.2-0.8-0.4-1.2-0.6c0.1,0.5-0.8,0.1-0.7,0.2l0.1,0.2c-0.5,0.1-0.6,0.3-1.1,0.7c0.2-0.1,0.3,0,0.4,0.2
				C37.8-83.3,37.8-83.2,37.7-83.1z"/>
			<path id="Tracé_249_1_" class="st2" d="M38-83.8v0.1l0.6,0v-0.1L38-83.8z"/>
			<path id="Tracé_250_1_" class="st2" d="M42.1-114.9c0.8,0,1.6-0.7,1.1-1.5c-0.4-0.4-1.1-0.6-1.6-0.4
				C40.8-116.5,40.8-114.7,42.1-114.9z"/>
			<path id="Tracé_251_1_" class="st2" d="M55.5-67.9c-0.1,0.4,0,0.3,0.1,0.8c0.4,0.2,1.2,0.4,1.6,0c0.3-0.4,0.3-1,0-1.4
				c-0.5-0.4-0.4-0.2-1-0.5c-0.4,0.3-1,0.4-1,1.1L55.5-67.9z"/>
			<path id="Tracé_252_1_" class="st2" d="M58.8-65.7c0.1-0.3-0.1-0.4-0.3-0.6c-0.2,0-0.6,0.2-0.4,0.6L58.8-65.7z"/>
			<path id="Tracé_253_1_" class="st2" d="M45.5-89.9c0.3,0.4,0.8,0.5,1.3,0.5c0.1-0.3,0.5-0.5,0.2-0.8c-0.3-0.3-0.8-0.5-1.2-0.5
				c-0.1,0.2-0.5,0.4,0,0.7L45.5-89.9z"/>
			<path id="Tracé_254_1_" class="st2" d="M46.3-90.2l0.2-0.1c0.3,0.2-0.6-0.6-0.6,0.1C46-89.8,46.1-90.1,46.3-90.2z"/>
			<path id="Tracé_255_1_" class="st2" d="M61.3-98.5l-0.7,0.2c0.5-0.1,0.8,0.3,1.1,0.7c0,0.2-0.1,0.3-0.2,0.4
				c0.4-0.1,0.6,0.2,1,0.4l-0.3,0.5c1.5-0.1,3.9,1.1,4.9-1l-0.2-2.3l-0.1,0.1c-0.4-1.1-1.2-1.2-1.7-2.1l0-0.3l-0.7,0.5
				c-0.3-0.4-0.2,0.2-0.6,0.1l-1.1-0.7c-0.1,0.2,0.2,0.3,0.3,0.4c-0.3,0.5-0.6,0.1-0.9-0.1c0.2,0.5-0.4,0.9-1,1.6
				c-0.1-0.2-0.3-0.1-0.5-0.1c0.3,0,0.4,0.3,0.6,0.4v0.1l-1,0.1C60.4-98.9,61.4-99.3,61.3-98.5z"/>
			<path id="Tracé_256_1_" class="st2" d="M76.2-101.9c0.4,0.3,0.4,0.5,0.1,0.8l-0.2,0.2c-0.2-0.1,0.5,0.2,0.6-0.1
				c0.3,0.3,0.1,1,0.8,0.8c0.4,0.4-0.3,0.6-0.3,1c0.7,0.1,0.7-0.7,1.4-0.3c0.6,1.5,1.8-0.2,2.5,0.5c0.1,0,0.8,0.1,0.8-0.4
				c0.2,0,0.3,0.3,0.4,0.3c0.7-0.2,0.9-1.5,1.4-1.4c0.4-0.2,0.4-0.6,0.7-0.8c-0.1-0.3,0.1-0.6,0.3-0.7c-0.9-0.6,1-0.8-0.1-1.2
				c-0.2-0.4,0.4-0.6,0.5-0.7c-0.3-0.1-0.6,0.3-1-0.1c1.1-0.9-0.8-1-0.3-2.2c-0.3,0.3-0.6-0.1-0.7-0.3l0-0.3c-0.7,0.5-1-0.6-1.5-0.7
				c-0.3-0.3-1.4,0.9-2.1-0.3c-0.5-0.3-0.7,1.5-1.6,0.6l-0.4-0.5c-0.4,0.5,0.7,0.7,0.1,1.1c-0.6,0.2-0.4-0.4-0.8-0.6
				c0.1,0.2,1,1.4-0.2,1.5l-1-0.4c0.2,0.4,0.4,0.8,0.5,1.2c-0.3,0.7-1-0.3-0.9,0.2c0.3,0.2,0.7,0.3,0.5,0.8l-1,0.5
				C76-103.3,75.5-102.1,76.2-101.9z"/>
			<path id="Tracé_257_1_" class="st2" d="M79.4-54.2c0.1-0.3,0.4-0.4,0.3-0.8c-0.3-0.6-1-0.3-1.1,0C79.1-54.5,78.6-54.2,79.4-54.2
				z"/>
			<path id="Tracé_258_1_" class="st2" d="M95.3-80.5c0.4-0.1,0.7,0.1,1-0.4c-0.2-0.2-0.1-0.8-0.5-0.9l-0.4,0
				c-0.3,0.3,0.8,0.5-0.1,0.8l-0.3-0.4C95.1-81,95-80.7,95.3-80.5z"/>
			<path id="Tracé_259_1_" class="st2" d="M95.4-96.7c0,0.4,0.1,0.8,0.2,1.1c0.6,0.5,1.4,0.8,2.2,0.8c1-0.7,1.6-0.9,1.5-2
				c0.5-0.3-0.6-0.8,0.2-1c-0.3-0.2-1.2-0.4-0.6-1c0.1,0.4-0.9,0-1.1-0.1l0-0.2c-0.2,0-0.3,0.4-0.6,0.2c-0.2-0.7-0.6,0.2-1.1-0.1
				c0.2,0.1,0.1,0.3,0.1,0.5c-0.1,0.2-0.5,0-0.7,0.1l-0.1-0.1l0.3,0.3l-0.6,0.7l0.3,0.3l-0.4,0.1L95.4-96.7z"/>
			<path id="Tracé_260_1_" class="st2" d="M106.7-88.7c0.2,0.3,1.1,0.1,0.9,0.8c0.2-0.1,0.4,0.2,0.5,0.4l0,0.3
				c0.1-0.3,0.4-0.1,0.6-0.1c0.2,0.1,0,0.4,0.1,0.6c0.2-0.2,0.4-0.1,0.6-0.4l0.5,0.3c0-0.2,0.2-0.2,0.3-0.4c0.8,0.6,1.2-0.5,1.8-0.6
				c0.6-0.2,0.1-1.3,1-1.3c-0.9-1.2,0.6-1.8-0.5-3.2c-0.1,0-0.3-0.1-0.4,0.1c-0.4-0.2-0.2-0.7-0.1-0.9c-0.3,0-0.4,0.2-0.6,0.4
				c-0.3-1.2-1.4-0.4-1.9-0.9c0,0.5-0.6,0-0.8,0.3l-0.3-0.3l0.1,0.6c-0.3-0.1-0.6,0.2-0.8-0.4c-0.3,0.6,0,1.6-0.9,1.3
				c0.3,0.2,0.2,0.6,0.2,0.9C105.8-90.8,107.5-89.4,106.7-88.7z"/>
			<path id="Tracé_261_1_" class="st2" d="M36.7-46.2c0.6-0.1,1.4,0.4,1.7-0.6c0-0.8-0.2-2.3-1.3-1.8l-0.3-0.3L36-48.2
				c0.4,0.5-0.6,0.9,0,1.4C36.3-46.7,36.8-46.6,36.7-46.2z"/>
			<path id="Tracé_262_1_" class="st2" d="M40-47.7l0.8,0.3L40-47.7z"/>
			<path id="Tracé_263_1_" class="st2" d="M42.4-46.8l-1-0.5v0.2l-0.3-0.2l0,0.3L42.4-46.8z"/>
			<path id="Tracé_264_1_" class="st2" d="M43.8-45.4c-0.1-0.1-0.2,0-0.3,0.1c0.2,0.1,0.4,0.1,0.5,0.3l-0.7,0.3
				c0.6,0.1,0.8,0.6,1,1.1l-0.1,0.1c0.9,0.7,2,1,3.1,0.8c0.7-0.4,1.4-1.3,2.3-1c0.3-0.5-0.6-0.4-0.1-0.7s0.6-1.3,1-1.9
				c-0.8-0.6-0.6-1.1-0.8-1.9c-0.2-0.3-0.9-0.3-0.6-0.9l-0.4,0.4c-0.5-0.3-0.1-0.9-0.2-1.3L48-49.5c-0.3-0.7-1.4-0.6-1.8-0.8
				c-0.6,0.8-1.5-0.3-1.9-0.8c-0.3,0.5,0.9,1.5,0.1,2.1c-0.1-0.1-0.2-0.4-0.4-0.3c-0.7,0.6,0.8,1.1,0,1.5L42.6-49
				C43.3-47.7,44.4-46.9,43.8-45.4z"/>
			<path id="Tracé_265_1_" class="st2" d="M42.9-46.6l0.6,0.3L42.9-46.6z"/>
			<path id="Tracé_266_1_" class="st2" d="M48.7-52.1L48.7-52.1l-0.1,0.5L48.7-52.1z"/>
		</g>
	</g>
	<g id="Groupe_296_1_" transform="translate(184.501 7.021)">
		<path id="Tracé_267_1_" class="st3" d="M162.8-68.2c0.5,0.2,1.1,0.5,1.7,0.7c2.2,0.9,4.8,2.3,7.3,2.4c5.3,0.1,11-5.1,12.9-10.2
			c0.6-1.3,0.9-2.8,0.8-4.3c0-0.9-0.6-1.7-1.4-2c-1.5-0.4-2.8,1-3.1,2.8c-0.3,1.8,0.2,3.6-0.2,5.4c-0.6,2.6-2.7,4.7-5.3,5.4
			c-2.3,0.5-4.7,0.2-6.9-0.8c-2.2-0.8-4.3-1.8-6.3-3c-0.5-2.2-1.2-4.3-2-6.4c1-2.8,0-6.9-2.8-10.2l0,0l0,0l0,0l0,0
			c-3.2-3-7.2-4.2-10.1-3.3c-2-1-4.1-1.8-6.3-2.3c-1.1-2.1-2-4.2-2.7-6.4c-0.9-2.2-1-4.6-0.4-6.9c0.8-2.6,3-4.5,5.7-5.1
			c1.8-0.3,3.6,0.3,5.4,0.1c1.8-0.3,3.3-1.5,2.9-3c-0.2-0.7-0.8-1.3-1.9-1.5c-1.5-0.2-3,0.1-4.3,0.6c-5.2,1.7-10.6,7.1-10.8,12.4
			c-0.1,2.5,1.2,5.1,2,7.4c0.2,0.6,0.4,1.1,0.7,1.7c-4.5-0.7-9-0.6-13.4,0.5c7.6,4.7,17.4,12.6,23.1,22.5c4.3,9.6,5.6,15.4,9.9,23.3
			C161.3-55,163.3-63.8,162.8-68.2z"/>
		<path id="Tracé_268_1_" class="st4" d="M81.6-0.4C35,22.9,6,23.7,6,23.7C16.3,40,46,63.4,102.6,34.3c22-11.3,56.7-46,41.6-85.7
			C144.2-51.4,120.9-20.1,81.6-0.4z"/>
		<path id="Tracé_269_1_" class="st5" d="M91.4-9.5c-44.9,31-83,41.1-83,41.1c13.3,15.3,55.5,37.4,109.9-1.1
			c21.2-15,51.9-56,29.9-94.8C148.1-64.3,129.3-35.8,91.4-9.5z"/>
		<g id="Groupe_294_1_" transform="translate(12.61 42.632)">
			<path id="Tracé_270_1_" class="st6" d="M78.8-52.2C37.5-16.5,6-3.8,6-3.8C20.9,10,70.1,32,120-12.2
				c19.4-17.2,41.3-68,12.9-104.7C133-116.9,113.7-82.3,78.8-52.2z"/>
			<g id="Groupe_293_1_" transform="translate(31.258 112.437)">
				<path id="Tracé_271_1_" class="st7" d="M34.9-100c-1.5-0.3-1-1.8-1.4-2.8c0.4-0.1,0.9-0.6,1.3-0.5c0.2-1.1-0.9-0.6-1.6-1
					c-1.3-1,1.2-1.7,0.8-2.2c-1.4-0.4-2.6-1-3.8-1.9c0.1-0.9,0.2-1.8,0.4-2.7c-0.4-0.6-1.2-0.1-1.8-0.3c0-0.8,0.9-1.8-0.1-2.6
					c-1.4,0.8-2.1-0.6-3.3-0.7c-1.2-0.1,0.6-2.4-0.4-2.2c-1.1,0.2-0.3,1.4-1.1,1.8c-0.8,0.1-1.6,0.1-2.4-0.3l0-1.5
					c-1.7,1.1-3.6,1.9-5.6,2.4c-0.1-0.5,0-1.3-0.8-1.5c-0.5,0.6-0.1,1.2-0.4,1.8c-2.6,0-2.4,3.5-4.4,2.9c-1,0.3,0.3,0.9,0.2,1.5
					c-0.3,1.3-1.2-0.1-2,0.4c-0.1,0.5,0.7,0.7,0.8,1.1c0.2,1.9-1.9,0.9-2.6,1.5c0.2,0.7,1.5,0.1,1.6,0.9c-1.2,1-0.5,2.8-2.2,3.5
					c1.4-0.1,1.3,1.2,1.9,2c-0.3,0.1-0.7,0.7-1.1,0.7c0,0.8,0.6,0.5,1.2,0.5C8-99,7.9-98.8,7.8-98.6c10.8,1.7,16.6,0.7,25.4,0
					C33.4-99.4,34.1-99.9,34.9-100z"/>
			</g>
			<path id="Tracé_272_1_" class="st8" d="M100.7-44.1c-2.4-1.1,0.8-2.2,0.7-3.4c-1.1,0-0.9,2.3-2.6,1.6c-0.2-1.3,0.6-2.6,1.8-3
				l0.2-0.2c-2.2,0.3-3.9,4.3-6.8,2.8c0.5-0.6,0.2-2-0.8-1.8c-1.9,1.8-4.3,0.9-6.4,2.3l0.2-1.3c-1.9,1-3.3,3.3-5.1,4.8
				c-0.7-3-3,2.5-4.3,0.6c0.4,2.1-0.3,4-1.7,3.9c-0.7,2.9-1.1,7.3,1.4,9.6c0.6,2.1,1.9,1.2,3.9,2.6l0-0.7c0.7,0.4,2,0.2,1.9,1.4
				c1.1-0.8,2.4-1,3.7-0.6c1.1,1.1,3.3,1.2,3.8-0.1c0.6-0.1,0.8,0.3,1,0.5c0.5-0.6,1.2-0.9,1.9-0.8c3-1.5,5.7-3.8,9.9-4.2l-1.2,0.4
				l-0.5-1.3l3.8-0.1c-1.2-0.7-3.6-0.1-4-1.7c0.1-1.4,1.7-1.5,2.5-2.2l-1.3,0.2c-0.2-1.6,2.8-1.5,2.9-3.5c-2.9-0.1-2.8-2.1-2.3-4.1
				l2.6-2.7C104.6-43.8,102.3-43.1,100.7-44.1z"/>
			<path id="Tracé_273_1_" class="st9" d="M136-86.8c0.1-0.1,0.2-0.4,0.4-0.5c-0.2-0.5-0.5,0-0.9,0.1c-0.7,0,0-1-0.3-1
				c-0.6,0.2-1.2,0.3-1.9,0.3c-0.2-0.4-0.4-0.7-0.6-1.1c-0.3-0.1-0.5,0.3-0.7,0.4c-0.2-0.3-0.1-0.9-0.7-0.9
				c-0.3,0.7-0.9,0.3-1.4,0.6c-0.5,0.3-0.4-1.1-0.7-0.7c-0.3,0.4,0.3,0.6,0.1,1c-0.2,0.3-0.7,0.4-0.9,0.5l-0.4-0.6
				c-0.3,0.9-0.8,1.7-1.5,2.4c-0.2-0.2-0.3-0.5-0.7-0.3c0,0.3,0.3,0.5,0.3,0.8c-0.9,0.7,0,1.9-0.9,2.2c-0.3,0.4,0.3,0.3,0.4,0.5
				c0.2,0.6-0.5,0.3-0.6,0.7c0.1,0.2,0.4,0.1,0.6,0.2c0.6,0.6-0.5,0.8-0.6,1.2c0.3,0.2,0.6-0.4,0.8-0.1c-0.2,0.7,0.5,1.2,0.1,1.9
				c0.5-0.4,0.8,0.1,1.2,0.2c-0.1,0.1-0.1,0.4-0.2,0.6c0.2,0.3,0.4,0,0.6-0.2c0.1,0.3,0.2,0.6,0.2,1c0.3,0.2,0.6-0.2,0.9-0.2
				c0.2,0.4-0.1,1.1,0.5,1.2c0.5-0.6,1-0.1,1.6-0.2c0.6-0.2,0.2,1.3,0.6,1c0.4-0.3-0.2-0.7,0.2-1.1c0.3-0.3,0.8-0.2,1.1-0.3l0.3,0.8
				c0.5-0.8,1.3-1.6,2.1-2.1c0.1,0.2,0.2,0.7,0.6,0.6c0.1-0.4-0.2-0.6-0.2-1c1.2-0.4,0.4-2.1,1.4-2.1c0.4-0.3-0.3-0.4-0.4-0.7
				c-0.1-0.7,0.6-0.2,0.8-0.5c-0.1-0.3-0.4-0.2-0.6-0.4c-0.5-0.9,0.7-0.7,0.9-1.2c-0.2-0.3-0.7,0.2-0.9-0.2c0.3-0.7-0.3-1.5,0.3-2.1
				C136.6-85.9,136.4-86.5,136-86.8z"/>
		</g>
		<g id="Groupe_295_1_" transform="translate(132.218 110.373)">
			<path id="Tracé_274_1_" class="st10" d="M21.2-113.7c-0.1-0.6-0.5,0.1-0.8-0.1c-0.7-0.3,0.1-0.7,0-1.1c-0.3-0.1-0.4,0.3-0.6,0.3
				c-1,0-0.3-1.1-0.5-1.6c-0.4,0-0.2,0.8-0.6,0.8c-0.4-0.7-1.4-0.6-1.6-1.5c-0.1,0.8-0.7,0.6-1.2,0.8c0-0.2-0.3-0.4-0.3-0.7
				c-0.5-0.1-0.2,0.5-0.4,0.9c-0.4,0.7-0.8-0.6-1-0.3c-0.1,0.6-0.3,1.2-0.6,1.8c-0.4-0.2-0.9-0.5-1.3-0.8c-0.4,0.1-0.3,0.6-0.6,0.9
				c-0.5-0.2-0.8-0.9-1.4-0.6c0.1,1-0.8,1-1.1,1.6c-0.3,0.6-1.2-0.9-1.3-0.4c-0.1,0.6,0.7,0.5,0.7,1c0,0.5-0.5,0.9-0.7,1.2L7-111.8
				c0.2,1.2,0.2,2.4,0,3.6c-0.3-0.1-0.7-0.4-1,0c0.2,0.4,0.6,0.3,0.9,0.7c-0.6,1.4,1.4,2.1,0.6,3.1c-0.1,0.6,0.6,0.1,0.9,0.3
				c0.7,0.5-0.3,0.6-0.3,1.2c0.3,0.2,0.5-0.2,0.8-0.2c1.1,0.3,0,1.2,0.2,1.8c0.5,0.1,0.4-0.8,0.9-0.6c0.3,0.9,1.4,1,1.4,2
				c0.3-0.8,1-0.4,1.5-0.5c0,0.2,0.2,0.5,0.1,0.8c0.5,0.2,0.4-0.3,0.6-0.7c0.3,0.1,0.5,0.1,0.8,0.2c0.1,0.2,0.2,0.4,0.3,0.3
				c0-0.1,0.1-0.2,0.1-0.3c0.2,0,0.4,0,0.7,0c2.2-4.1,4.1-8.4,5.8-12.7C21.1-113,21-113.4,21.2-113.7z"/>
		</g>
		<path id="Tracé_275_1_" class="st4" d="M95.2-12.3C88.7-7.4,82.1-2.6,75.3,1.8c-1.7,1.1-3.4,2.2-5.1,3.3l-5.2,3.1
			c-1.7,1.1-3.5,2-5.3,3c-1.8,1-3.5,2-5.3,3c-7.2,3.9-14.5,7.5-22,10.7c-7.5,3.3-15.1,6.2-22.9,8.6l0.5-2c4.2,3.6,8.6,6.8,13.3,9.7
			c4.6,2.9,9.5,5.5,14.5,7.8c10,4.5,20.7,7.3,31.7,8.2c11,0.9,22-0.4,32.5-3.8c5.3-1.7,10.4-3.8,15.3-6.4c4.9-2.6,9.6-5.5,14.1-8.7
			c-8.7,7-18.5,12.5-29,16.3c-10.6,3.7-21.9,5.3-33.1,4.6c-11.2-0.8-22.2-3.6-32.5-8.1C26.3,46.7,16.8,40.7,8.3,33.3l-1.6-1.4l2-0.6
			c7.7-2.4,15.3-5.1,22.7-8.3c7.4-3.2,14.8-6.5,22-10.2S67.8,5.1,74.8,0.9c3.5-2,6.9-4.3,10.3-6.4C88.5-7.7,91.8-10.1,95.2-12.3z"/>
	</g>
	<g id="Groupe_298_1_" transform="translate(185.498 18.028)">
		<path id="Tracé_277_1_" class="st11" d="M18-116.9l-2.7,1.2L18-116.9z"/>
		<path id="Tracé_278_1_" class="st11" d="M9.8-113.1l3.7-1.5l-0.4-0.4l1.1-0.3l-0.7-0.7L9.8-113.1z"/>
		<path id="Tracé_279_1_" class="st11" d="M8.1-112.3L6-111.6L8.1-112.3z"/>
	</g>
	<g id="Groupe_299_1_" transform="translate(55.863 80.208)">
		<path id="Tracé_280_1_" class="st6" d="M34-110.1c1.2-2.9,1.2-4.7,0.7-6.2c-0.2-0.7-0.8-0.7-1.2,0c-1.4,2.2-2.7,4.5-3.8,6.8
			c-1.4,0.2-2.8,0.3-4.2,0.2c-0.8-0.1-1.1,0.3-0.6,1.1c0.8,1,2,1.5,3.3,1.4c-2.2,4.3-4.3,8.9-5.3,11.7c-0.2,0.6-0.4,1.3-0.6,2
			c-2.2,3.4-5.6,7.2-9.5,7c-2.7-0.2-3.9-3.6-2.3-8.7c3.5,3.1,6.9,1.7,9.4-1.6c2.1-2.8,2.5-6.2,1.6-7.5c-0.8-1.2-1.8-2.1-3-2.9
			c-2.5-1.6-7.7,1.3-10.9,8.3s-1.1,13.9,5.3,13.8c3.6-0.2,6.9-2,9.1-4.9c0.4,3,2.3,4.8,4.4,4.8c4,0.2,7.4-4.7,8-6.3
			c0.5-1,0.7-2.1,0.5-3.1c-0.2-0.8-0.8-0.7-1.1,0c-1.9,4.1-4.7,8-7,7.9c-2.1-0.1-2.7-3.5-1-7.5c1.9-4.6,4.8-9.9,6.8-13.6
			c1.3-0.3,2.6-0.3,3.9-0.2c0.8,0,1-0.4,0.6-1C36.5-109.6,35.3-110.3,34-110.1z M11.3-97c2.4-5.2,6.5-8.5,7.6-7.6
			c0.7,0.6-0.4,3.5-2,5.8c-1.5,2.1-3.5,4.4-6,2.7C11-96.3,11.1-96.7,11.3-97L11.3-97z"/>
		<path id="Tracé_281_1_" class="st6" d="M196.3-106.8c0.8-1.1,0.9-2.5,0.4-3.7c-0.7-1.5-2.1-2.1-2.9-1.2c-0.9,1.2-1,2.8-0.3,4.1
			C194.3-106.2,195.7-106,196.3-106.8z"/>
		<path id="Tracé_282_1_" class="st6" d="M212.9-93.7c-0.2-0.5-0.6-0.5-0.9-0.1c-2.2,3.6-5.8,8-10,7.8c-2.7-0.2-3.9-3.6-2.3-8.7
			c3.5,3.1,6.9,1.7,9.4-1.6c2.1-2.8,2.5-6.1,1.6-7.5c-0.8-1.2-1.8-2.1-3-2.9c-2.5-1.6-7.6,1.3-10.9,8.3c-0.7,1.5-1.2,3.2-1.4,4.9
			c-1.5,3.7-4.2,7.2-6.4,7.3c-1.6,0.1-1.7-2-0.5-5.2c1.1-2.7,3.2-6.5,4.2-8.9c1.2-2.7,0.8-5.1,0.1-6c-0.4-0.5-0.8-0.3-1.2,0.3
			c-2.6,4.1-4.7,8.5-6.4,13c-1.9,3.5-4.1,6.7-6,6.8c-1.8,0.1-2.1-2.5-0.8-5.7c1.2-2.9,3.6-6.9,4.7-9.3c1.3-2.9-0.3-5.5-2-5.8
			s-5.1,2.7-7.4,5.4c0.6-1.7,0.6-3.6-0.1-5.2c-0.3-0.5-0.7-0.6-1.1,0c-3.1,4.9-5.7,10.1-7.8,15.5c-2,2.4-4.4,4.3-7.2,5.8
			c2.1-5.3,5.3-12,6.8-15.3c1.3-2.7,0.9-5.1,0.1-6c-0.4-0.5-0.9-0.4-1.3,0.3c-0.5,0.9-1.1,1.9-1.7,3c0.1-1.9-1-3.6-3-3.6
			c-2.6,0-6.6,2.5-10.6,8.8c-1.2,1.9-2.1,4.1-2.4,6.3c-1.7,3.1-3.9,5.7-5.7,5.8c-1.7,0.1-1.7-2.3-0.4-5.3c1.2-2.9,3.7-7,4.8-9.5
			c1.2-2.7,0.8-5.1,0.1-6.1c-0.4-0.5-0.8-0.4-1.2,0.3c-0.6,0.9-1.2,2-1.8,3.3c0.1-2.1-0.9-4-3.1-4c-2.5,0-6.5,2.5-10.6,8.9
			c-1.1,1.7-1.9,3.7-2.4,5.7c-1.7,3.4-4.6,6.7-9.1,6.9c1.9-1.3,3.8-3.9,5.3-7.5c1.9-4.5,3-9.4,0.6-12.2c-2.2-2.5-5.1-0.9-7.3,1.1
			c0.1-0.8,0-1.7-0.3-2.5c-0.3-0.7-0.7-0.8-1.2-0.1c-1.9,2.7-5.6,9.8-8.6,16.3c-1.5,2.4-3,4.2-4.4,4.3c-1.9,0.1-2.5-2.5-1.1-5.6
			c1.2-2.7,3.6-6.3,4.6-8.8c1-2.6,0.6-5.9-1.2-5.9c-1.6-0.1-5,2.5-7.4,5c0.6-2.4-0.2-5.3-2-5.4c-1.8-0.1-5.5,3.2-7.8,5.9
			c0.8-2.1,0.9-4.3,0.1-5.7c-0.3-0.5-0.8-0.6-1.1,0c-2.6,4.4-5.8,8.5-9.1,8.6c0.1-0.3,0.1-0.6,0.1-0.9c0.3-4.1-1.2-4.3-2.4-6
			c-1.1-1.5-1.8-2-3.4-1.9c-3,0.2-6.1,3.5-8,7.1c-1.1,2.1-1.8,4.4-2.1,6.8c-2.1,3.2-5.5,6.8-9.3,6.8c-3-0.1-4-4.6-1.2-10.8
			c2.3-5,6-8.5,6.9-7.7c0.7,0.6-0.8,3-1.4,4.9c-0.7,2.5,0,4.1,1.2,4.8c0.7,0.4,0.9,0.2,1.1-0.4c1-3,3-5.9,2-8.2
			c-0.6-1.3-1.6-2.3-2.8-3c-2.5-1.7-7.6,1.3-10.8,8.2c-3.3,7.1-1.1,13.9,5.3,13.8c3.6,0,7.2-2.4,9.3-5.3c0.2,0.9,0.5,1.8,1.1,2.6
			c2,3,4.6,3,6.4,2.4c3.7-1.3,6.9-7,7.9-11.7c1.7,0.2,3.4-0.3,4.7-1.4c-1.3,2.5-2.3,5-3.2,7.7c-0.8,2.7-0.6,4.6,0.5,5.5
			c0.5,0.4,0.8,0.3,1-0.2c2-5.2,4.4-10.2,7.4-13.7c3.2-3.8,5.7-5.3,6.2-5.1c1,0.4-4.4,8-6.1,12.5c-1.4,3.9-0.8,6,0,6.9
			c0.5,0.5,0.9,0.3,1.2-0.3c2.1-5.1,4.6-10.3,8.7-14.8c3.2-3.5,5-4.2,5.4-4.1c0.8,0.3-3.7,6.4-5.5,11c-1.8,4.4-0.3,8.2,4.1,8.2
			c1,0,2-0.3,2.9-0.8c-0.9,1.9-1.6,3.9-2.3,5.9c-1,3.3-0.7,4.9,0,6c0.3,0.5,0.7,0.4,0.9-0.1c2.4-6.1,5-11.7,7.4-16.4
			c0.1,1.4,0.7,2.7,1.7,3.7c1.8,1.8,3.9,2.3,7.1,2c3.2-0.2,6.1-1.8,8-4.3c0.4,2.3,1.8,3.8,4,3.8c2.4,0,4.7-2,6.3-4.3
			c0,2.6,1.4,4.3,4.1,4.5c2.1,0.1,4.4-1.6,6-3.7c0.5,2.1,1.8,3.5,3.9,3.5c2-0.2,3.8-1.2,5.1-2.7c-0.5,1.3-1,2.6-1.5,3.8
			c-5,2.1-9.3,5.4-10.8,10.4c-0.8,2.3-0.4,4.8,1,6.8c0.9,1.4,1.9,1.6,2.9,1.2c4.1-1.8,7.7-10.5,10.4-17.8c2.7-1,5.2-2.4,7.4-4.3
			c0,0.9,0.3,1.9,0.9,2.6c0.5,0.5,0.8,0.3,1-0.2c2.2-5.2,4.4-10.4,7.4-13.9c3.2-3.8,6.1-5.4,6.6-5.2c0.9,0.4-3.5,6.3-5.2,11.6
			c-1.5,4.8-0.5,8.2,3.8,8.2c2.1,0,4.4-1.5,6-3.5c0.1,2,1.9,3.5,3.9,3.4c0,0,0,0,0,0c2.6,0,5.5-2,7.1-5c0.6,3.1,3.4,5.3,6.5,5.1
			c4.1-0.3,7.7-2.5,9.9-5.9C212.7-91.3,213-92.5,212.9-93.7z M200.6-96.8c2.4-5.2,6.5-8.5,7.6-7.6c0.7,0.6-0.4,3.5-2,5.8
			c-1.5,2.1-3.5,4.4-6,2.7C200.3-96.1,200.5-96.5,200.6-96.8z M70.1-92.8c-2.5,4.9-5.5,7-6.9,5.7c-1.3-1.3-0.6-6.3,1.6-10.4
			c1-1.9,2.3-3.7,3.9-5.2c0.2,2.2,1.4,4.1,3.3,5.2C71.5-95.9,70.9-94.3,70.1-92.8z M72.3-98.9c-0.9-1-1.4-2.3-1.2-3.7
			c0.2-1.6,1.3-1.9,1.5-0.2C72.7-101.5,72.6-100.2,72.3-98.9z M111.1-87.3c-1.4-1.3-1.2-4.6,0.1-8c0.6-1.2,1.2-2.1,1.7-3.1
			c2.4-4.2,5.5-7,6.7-6.3c1.3,0.7,0.7,5.2-1.3,9.6C116-89.9,112.7-85.8,111.1-87.3z M129.7-86.4c-2-0.1-1.3-4.9,1.4-9.6
			c2.8-4.9,6.4-8.5,8.1-8.3c1.5,0.2,1,3.6-2.2,9.6C134.4-89.8,131.8-86.3,129.7-86.4L129.7-86.4z M144.3-68.3
			c-0.9-1.3,1.4-8.8,7.9-13C148.9-73,144.9-67.3,144.3-68.3L144.3-68.3z M150-86.3c-2-0.1-1.5-4.9,1.3-9.6c2.8-4.8,6.4-8.3,8-8.2
			c1.5,0.1,1,3.5-2.2,9.6C154.6-89.7,152-86.2,150-86.3L150-86.3z"/>
	</g>
	<g id="Groupe_300_1_" transform="translate(96.316 159.878)">
		<path id="Tracé_283_1_" class="st10" d="M24.1-95.9c0.9,0.7-0.6,0.8-0.6,1.4c0.5,0.1,0.6-0.9,1.3-0.4c0,0.6-0.5,1-1.1,1.1
			l-0.1,0.1c1,0.1,2.1-1.4,3.2-0.5c-0.3,0.2-0.3,0.8,0.2,0.9c1-0.6,1.9,0.1,2.9-0.4l-0.2,0.5c0.9-0.4,1.8-0.9,2.6-1.5
			c0,1.3,1.5-0.8,1.9,0.2c0-0.9,0.5-1.7,1.1-1.5c0.6-1.2,1.2-3,0.4-4.2c0-0.9-0.7-0.7-1.4-1.5l-0.1,0.3c-0.3-0.3-0.8-0.3-0.7-0.8
			c-0.5,0.2-1.1,0.2-1.6-0.1c-0.4-0.6-1.3-0.8-1.6-0.4c-0.2,0-0.3-0.2-0.4-0.3c-0.3,0.2-0.6,0.2-0.9,0.1c-1.4,0.3-2.8,1.1-4.6,0.8
			l0.6,0l0.1,0.6l-1.6-0.3c0.4,0.4,1.5,0.4,1.5,1.1c-0.2,0.6-0.8,0.5-1.3,0.7l0.6,0c-0.1,0.7-1.3,0.4-1.6,1.2c1.2,0.3,1,1.2,0.6,2
			L21.8-96C22.5-96.5,23.4-96.5,24.1-95.9z"/>
		<path id="Tracé_284_1_" class="st12" d="M91.5-96.1l-0.3,0.2c0.5,0,1,0.1,1.4,0.3c-0.1,0.3-0.1,0.5-0.4,0.6l-0.2-0.1
			c0.3,0.2,1-0.5,1.1,0.3l-0.1,0.2c1.1-0.9,2.1,0.2,3.1-0.6c1.6,0.6,1.9-1.3,2.8-1.7c-0.3-0.4,0.1-0.9,0.1-1.4l-1.4-2.4
			c-0.6-0.1-1.3-0.3-1.8-0.6c0.5-0.8,0.8-1.7,0.6-2.6c-0.3-1.6-1.8-0.9-2.7-1.7c-0.4,0.7-1.3,0.7-1.9,0.7l-0.4-0.1
			c1.1,0.8-0.7,1.3-1.2,1.9l-0.4,0.2c0.4,0.1,0.8-0.2,1,0.2l-1,0.5c0.2-0.1,0.5-0.1,0.7,0l0,0.6c0.2-0.2,0.4,0,0.6,0.1
			c0.2,0.1,0,0.4,0,0.6l0.6,0c-0.1,0.5-0.5,0.8,0,1.3l-1.2,1l0.6,0.1c0,0.3-0.2,0.6-0.5,0.7l-0.2,0l0.5,0.2L90-97
			C90.4-96.6,91.8-97.1,91.5-96.1z"/>
		<path id="Tracé_285_1_" class="st12" d="M11.8-104.2l0.3,0.3c-0.1,0.3,1-1.4,1.8-0.7c2.8-2.9-3.4-4.5,0.9-7.1
			c-1.5-1.8,0.1-4.3-2.6-5.1c-2.2-0.3-3.9,1.4-4.9,3L6-111.3c0.5-0.1,0.7,0.5,0.5,0.9l-0.3,1.2c2-0.6,0.3,1.7,1.4,2.4l0.1-0.4
			c1.9,0.4,0.5,2.2,1.9,3l0.2,1C10.6-102.9,11.1-103.9,11.8-104.2z"/>
		<path id="Tracé_286_1_" class="st9" d="M44.8-78.1c-0.3,0.4,0.8-0.3,0.5,0.5c0.6-0.4,1,0.4,1.5,0.2l0,0.2c0.7-1,1.7,0.9,2.6-0.8
			c1.2,0.4,0.7-1.4,1.5-1.5c0.3-1.2-0.3-2.4-1.3-3c-1.2-0.5-0.6,0-2-0.5l-0.7-0.1c0.3,1.1-1.4-0.5-1.2,0.7c-0.5,0.2-1,0.1-1.4,0.5
			c0.2,0,0.3,0.1,0.4,0.3c-0.1,0.5-0.6,0.5-0.8,0.8l0.4,0.3l-0.5,0.7c0.2-0.1,0.3,0.1,0.4,0.3l-0.4,0.4C44-78.4,45.2-79.2,44.8-78.1
			z"/>
		<path id="Tracé_287_1_" class="st10" d="M37.4-80.4l-1,0.5l0.6-0.2L37.4-80.4z"/>
		<path id="Tracé_288_1_" class="st7" d="M46.9-113.5l0.3,0.5c0.5-0.6,0.8,0.2,1.2,0.3c1-0.7,2.7-1.4,2.3-2.6l-1.4-1.4
			c-0.3,0.6-1.4,0.2-2,0.3c0.5,0.6-0.8,0.8-0.7,0.8l0.3,0.1c-0.5,0.5-0.8,1.1-0.9,1.8c0.1-0.2,0.4-0.3,0.6-0.1
			C46.8-113.8,46.9-113.7,46.9-113.5z"/>
		<path id="Tracé_289_1_" class="st10" d="M46.5-114.4l0.1,0.1l0.6-0.3l-0.1-0.1L46.5-114.4z"/>
		<path id="Tracé_290_1_" class="st10" d="M69.1-77.4c0.5-0.5,1.6-0.5,1.3-1.7c-0.5-0.7-1.7-2.1-2.4-0.9l-0.5-0.1L67.2-79
			c0.8,0.2,0,1.2,0.9,1.4C68.4-77.7,68.9-78,69.1-77.4z"/>
		<path id="Tracé_291_1_" class="st10" d="M71.3-81l1-0.2L71.3-81z"/>
		<path id="Tracé_292_1_" class="st10" d="M74.2-81.6l-1.3,0.2l0.1,0.2h-0.4l0.2,0.3L74.2-81.6z"/>
		<path id="Tracé_293_1_" class="st10" d="M76.5-81.2c-0.1,0-0.1,0.1-0.2,0.3c0.3,0,0.5-0.1,0.7,0l-0.5,0.7c0.6-0.1,1.2,0,1.7,0.4
			l0,0.2c1.3,0.2,2.6-0.3,3.5-1.3c0.4-0.8,0.5-2.1,1.6-2.4c0-0.6-0.8,0-0.5-0.6s-0.2-1.7-0.3-2.5c-1.2,0-1.3-0.7-1.9-1.3
			c-0.4-0.2-1.1,0.3-1.2-0.5l-0.1,0.7c-0.7,0-0.7-0.8-1.1-1.1l-0.3,1c-0.7-0.4-1.7,0.3-2.3,0.4c-0.1,1.2-1.6,0.6-2.3,0.4
			c0.1,0.7,1.8,0.9,1.4,2c-0.2,0-0.4-0.2-0.6-0.1c-0.3,1,1.5,0.5,0.9,1.5l-2-0.3C74.5-83.1,76.1-83.1,76.5-81.2z"/>
		<path id="Tracé_294_1_" class="st10" d="M74.8-81.8l0.7,0L74.8-81.8z"/>
		<path id="Tracé_295_1_" class="st10" d="M76.9-90.7l-0.1,0.1l0.3,0.5L76.9-90.7z"/>
	</g>
	<path id="Tracé_296_1_" class="st4" d="M296.7-51.6c-0.7-2.8-2.4-4.1-2.4-7c0-2.3,5.6-5,5.6-6.1c0-1.2-2-3.5-3.5-3.5
		c-2.2,0-6.3,3.6-6.3,6.6c0.1,1.3,0.5,2.6,1.1,3.7c-2.1,2.2-3.3,3.5-3.4,3.6l0,0c-1.6,1.5-3.3,3-5,4.3c-0.1,0-0.3,0.1-0.4,0.1
		c-0.6,0.2-1.1,0.6-1.4,1.1c-2.1,1.4-4.3,2.6-6,2.6c-1.9,0-3-1.9-3-4.5c0-1,0.1-2,0.3-3c4.6-2.9,9.3-7.2,9.3-9.3c0-0.9-1.3-4-3.9-4
		c-3.9,0-11.2,7.3-11.8,14.5c-3.2,2.7-8.8,7.1-11.4,7.1c-0.5,0-1.6-0.3-1.6-2.4c0-3.5,1.9-8.4,1.9-8.4c8.1-7.7,21.2-22.6,21.2-27.7
		c0.1-2.6-1.9-4.8-4.5-4.9c-5.9,0-19.4,20.5-22.7,35.1c-3,2.7-9,9-11.5,9c-0.5,0-1.6-0.3-1.6-2.4c0-3.5,2.1-8.9,2.1-8.9
		c8.4-7.7,20.3-20.8,20.3-25.8c0.1-2.6-1.9-4.8-4.5-4.9c-6.3,0-18.6,17.1-21.9,32l0,0c0,0-8.3,8.2-12.7,8.2c-1.9,0-3-1.9-3-4.5
		c0-1,0.1-2,0.3-3c4.6-2.9,9.3-7.2,9.3-9.3c0-0.9-1.3-4-3.9-4c-3.9,0-11.3,7.4-11.8,14.7c-2.9,2.6-8,6.4-11.8,6.4
		c-0.4,0-0.8-0.3-0.8-0.8c0,0,0-0.1,0-0.1c0-4.5,6.8-10.4,6.8-11.3c0-1.1-1.4-4-3-4c-3,0-10.9,5.1-14.2,7.6c1.9-3.1,3.4-5.3,3.4-6.6
		c0-2.2-2.6-4.6-4.2-4.6c-0.5,0-0.8,0.3-0.8,1c0,2.5-3.2,7.5-5.9,11.6c-3,2.6-9,7.3-12.8,7.3c-0.3,0-0.9-0.1-0.9-1.1
		c0-3.2,9.7-14.3,9.7-15.9c-0.3-2.1-2-3.7-4-4c-0.7,0.1-1.4,0.6-1.6,1.3c-1.1,2.7-4.7,7.7-7,11.9c-3,2.7-10.9,9.1-16.2,9.1
		c-1.6,0-2.7-1.2-2.7-3.3c0-7.2,8.1-15,12.1-15c0.6,0,0.7,0.4,0.7,0.5c0,1-1.3,2.8-2.4,3.9c-0.1,0.1-0.2,0.3-0.3,0.5
		c0,0.1,0.1,0.2,0.2,0.2c0.5,0,1-0.1,1.5-0.3c1.5-1.6,2.4-3.2,2.4-4.5c0-2.3-2.3-3.8-4.4-3.8c-4.7,0-12,6.5-14.3,13.5
		c-3.5,3-10.3,8.2-15.2,8.2c-1.6,0-2.7-1.2-2.7-3.3c0-7.2,8.1-15,12.1-15c0.6,0,0.7,0.4,0.7,0.5c0,1-1.3,2.8-2.4,3.9
		c-0.1,0.1-0.2,0.3-0.3,0.5c0,0.1,0.1,0.2,0.2,0.2c0.5,0,1-0.1,1.5-0.3c1.5-1.6,2.4-3.2,2.4-4.5c0-2.3-2.3-3.8-4.4-3.8
		c-3.6,0-8.7,3.8-11.9,8.7c-1.8,0.5-3.7,0.6-5.6,0.4c0.6-1.5,0.9-3.2,0.9-4.8c0.2-3.5-3-6-6.8-6c-4.4,0-13.8,4.3-14.8,15.6
		c-8.1,7.3-18.5,13.7-30.9,13.7c-7.2,0-11.5-2.7-11.4-9.6c0-20.5,33.9-46.8,50.3-46.8c3.1,0,4.8,1,4.8,2.8c0,6.4-11.4,14-17.2,14.9
		c-0.4,0-0.7,0.4-0.7,0.8c0,0.5,2.8,2.4,4.8,2.4c2.4,0,14.8-10.3,14.8-16.8c0-3.4-2.8-8.8-8.8-8.8c-19.4,0-53.9,26.7-53.9,48.3
		c0,8.4,9.3,15.3,17.8,15.4c10.7,0,23.4-8.6,30.5-14.9c0,0.2,0,0.4,0,0.6c0,3.9,5.4,5.9,7.4,5.9c1.3,0,5.8-0.8,12.7-11.2
		c0,0,0.3,0,0.8,0.1h0c1.4,0.2,2.9,0.1,4.3-0.1c-1.3,2.2-2,4.8-2.1,7.3c0,4,3.4,6,6.7,6c4.9,0,12.1-5.6,16-8.9
		c-0.2,1-0.4,1.9-0.4,2.9c0,4,3.4,6,6.7,6c5.1,0,12.8-6.1,16.5-9.3c-0.5,1-0.9,2.1-1,3.3c0,2.7,3.2,4.6,4.5,4.6
		c3.5,0,8.9-4,12.4-6.9c-1.3,1.9-2.2,3.4-2.2,3.9c0,1.8,1.9,4.1,2.8,4.1s1.7-4.3,6.9-9c4.6-4.2,10.4-7.1,11.1-7.1
		c0.1,0,0.2,0.1,0.2,0.2c0,0.6-3.5,5.3-3.5,9c0,2.7,3,5.6,5.3,5.6c3,0,8.6-4.6,11.7-7.5c0.1,4.2,2.8,6.8,7.1,6.8
		c5.8,0,13.2-7.4,14.6-8.8c-0.4,1.9-0.6,3.8-0.6,5.7c-0.2,2.6,1.7,4.9,4.4,5.1c0.1,0,0.2,0,0.3,0c3.2,0,9.5-6.3,12.8-9.3
		c-0.2,1.1-0.3,2.2-0.3,3.3c-0.2,2.7,1.9,5.1,4.6,5.3c0.1,0,0.1,0,0.2,0c3.3,0,9.7-5.1,13.2-8.2c0.1,4.3,2.8,6.9,7.1,6.9
		c2.6,0,5.6-1.5,8.1-3.3c1.3,3.1,4.3,5.2,7.7,5.3c4,0,8.3-3.4,8.3-7.1c0-0.4-0.1-0.8-0.2-1.3c0.9,0.4,1.8,0.9,2.6,1.4
		c0.5-0.1,0.9-0.4,1-0.9C300.5-50.3,299.4-51.2,296.7-51.6z M278.9-63.3c0.3,0,0.4,0.3,0.4,0.6c0,1.5-3.5,5.3-7,7.8
		C274.9-60.7,277.6-63.3,278.9-63.3z M273.1-84.3c0.4,0,0.7,0.3,0.8,0.7c0,4.8-12.1,19-18.6,25.5C258-66.4,268.8-84.3,273.1-84.3z
		 M255.1-82.2c0.4,0,0.7,0.3,0.8,0.7c0,4.8-11,16.9-17.5,23.4C241.1-66.3,250.8-82.2,255.1-82.2L255.1-82.2z M222.6-63.3
		c0.3,0,0.4,0.3,0.4,0.6c0,1.5-3.5,5.3-7,7.8C218.6-60.8,221.4-63.3,222.6-63.3z M99.1-45.4c-1.3-0.1-2.5-1.6-2.8-3.5
		c-0.3-1.8,0.4-8.3,3.7-11.8l0,0c0.8,1.2,3.3,3.6,10.4,4.9C108.4-50.1,103-45.1,99.1-45.4z M111.1-57.3c-2.3-0.8-4.5-1.9-6.5-3.3
		c-0.7-0.5-1.2-1.3-1.5-2.1c-0.2-1.5,0.8-3.4,3.5-3.4c2.9,0,4.1,1.6,4.5,4.3C111.4-60.3,111.4-58.8,111.1-57.3z M287-46.7
		c-2.7,0-4.3-0.8-4.3-1.4c0-0.3,0.1-0.4,0.7-0.7c2.7-1.1,5.5-1.9,8.3-2.3C291.1-48.6,289.8-46.7,287-46.7z M291.9-51.8
		c-2.3,0.3-4.6,0.7-6.9,1.3c1.7-1.5,2.7-2.6,2.8-2.7l0,0c0,0,1.6-1.6,3.7-3.9c0.4,1.4,0.6,2.9,0.5,4.4
		C292-52.4,291.9-52.1,291.9-51.8L291.9-51.8z"/>
	<path id="Tracé_297_1_" class="st11" d="M187.4-91.9c0.4-0.1,0.3-0.5,0.4-1c-0.9,0.2-1.3,0.6-2.2,0.6l1-2.4
		c-1.7,1.1-3.3,0.6-5.2,0.1l0-0.5c-4.2,0-7.7,3.3-9.5,6.2c-0.5,2.8,0.1,6.7-3.1,8.2c0.5,1.9,2.5-0.6,2.1,1.5
		c-0.4,2.1,1.8,4.8,2.5,7.2c3.5-0.7,4.2,1.2,6.7,2.5c1.3,0.2,3-1.7,3.9,0.6l-0.1-2.1c2-0.5,2.6,1.8,4,2.5l0.2-3
		c2.5,0.8,4.8-2.2,6.5-2.7c-0.5-3.5,4.3-3,6.6-2.9c-0.6-2-5.8-1.3-5.6-5c0.6,0,1.3,0.5,1.7-0.2c0.1-3.2-4.8-0.6-3.8-3.8l6.2-0.5
		C194.4-87.8,189.9-86.6,187.4-91.9z"/>
</g>
</svg>
