<svg xmlns="http://www.w3.org/2000/svg" width="372" height="372" viewBox="0 0 372 372"><defs><style>.cls-1{isolation:isolate;}.cls-2{fill:#82b657;}.cls-3{fill:#abcc57;}.cls-4{fill:#9fc75c;}.cls-5{fill:#ec646e;}.cls-6{fill:#ec6726;}.cls-7{fill:#3fa5a5;}.cls-13,.cls-8{fill:#490f19;}.cls-9{fill:#be2220;}.cls-10{fill:#a92120;}.cls-11{fill:#008492;}.cls-12{fill:#ead016;}.cls-13{mix-blend-mode:darken;}.cls-14{fill:#da1315;}</style></defs><g class="cls-1"><g id="Calque_1" data-name="Calque 1"><path class="cls-2" d="M109.74,320.7c-1.91,1.32-4.61,1.16-6.19,3.26,2.68.71,5.47.22,8.08,1.3,2.12.88,4,1.95,6.41,1.5-3.12,1.06-6.88,1.05-9.87,3.73.88,1.21,2.29,1.21,3.63,1.26a3.48,3.48,0,0,0-.66,1c.55.15,1.09.91,1.7,1-.08.25-.14.5-.2.75l.1-.26.23.78a14,14,0,0,0,8.57,1.45c6.23-.63,8.73,9,15.11,7.61,3.95-1,7.19.78,10.52,2.63s6.74,3.72,10.63,3.27c14.39-1.87,28.23-6.42,41.52-2,12.65,4.22,17.22,9.93,28.46,7.41s-5.19-11.92,7.81-12.43c33.8-1.34,59.72-11.76,68.55-19.5,6.45-5.49,21.38-14.67,23-23.76-5.86,7.94-14.93,13.13-23.55,17C319,303,334.9,288.33,344.74,270.82A116.23,116.23,0,0,1,304.92,309c-15.87,9.1-37.64,20.51-62.62,14.06,27.54-.69,49.55-8.55,67.77-21.36,18.16-12.64,33.49-29.94,38-49.41a30.7,30.7,0,0,0,.78-9.44c-1.59,20.62-15.56,38.41-33.1,51.27-17.62,13-36.17,17.08-70.65,14.92-20.06-1.25-50-17.17-50-17.17C173,290.48,131.27,314.4,108.59,320A3.52,3.52,0,0,1,109.74,320.7Z"/><path class="cls-3" d="M171.17,311.67c-42.84-24.77,29,6.87,66-17.5-8.81,5.81-16-11.27-20.8-16-23.29-8.25-21.45,16.31-44.28,10.31-5.1-1.4-9.07-3.33-15.47-5.22-9.36-2.76-21-5.27-27.62-5.05-13.85.45-18,4.8-25.38,20.7,7,4.9,15.56,4.58,22.17,10.45-3,2.15-6.49,4.58-10,5.27,3,1.34,6.25,4.36,9.31,3.5Z"/><path class="cls-4" d="M277.86,323.57a25,25,0,0,0,5.88-4c-12.77,8.82-32,11.33-50.78,10.12-18.92-1.17-39.94-8-57.66-16.09-16.51-7.36-31-15.25-47-20.37-3.87-2.12-7.86-4-11.75-5.95-8-4-15.86-7.87-24.37-11.15l-6.49-2.6a52.84,52.84,0,0,0-8-2.28l-.71-.11-6.44-2.57c-1.87-.67-3.85-1.32-5.93-1.88-.43-.53-1-.77-1.37-1.41V265l-.73.48c-.33-.44-.18.22-.58.13l-1.1-.67c-.06.23.16.3.27.43-.25.51-.59.07-.88-.06a.48.48,0,0,1,0,.42c-7-1.08-15.08-.82-25,4.05,2,2.31,6.85,2.89,8.26,5.51a37.16,37.16,0,0,1-7.51,1c1.16.73,1.79,2.06,3.8,2a13.25,13.25,0,0,0-5.62,1.31c.89,1.32,5.28.72,7.32.64,1.24,0,7.83-1.24,8-.2-3.93.87-8.14,1.38-12.41,2.35l-.11-.06a.13.13,0,0,1,0,.09l-.55.13c-.09,0-.16,0-.15,0l0,.05c-1,.25-2,.51-3,.82.65.61,1.65.92,2,1.69-2.36.54-4.79-.19-7.2,1,2.16,1.13,5,1.39,6.9,2.78,1.56,1.12,2.77,2.32,5.26,2.55-3.37.08-6.85-.78-10.83.51.26,1.09,1.57,1.41,2.79,1.74a5,5,0,0,0-1.06.59c.44.24.6.91,1.14,1.09-.19.17-.36.34-.53.51l.21-.17L56.28,301a.31.31,0,0,0,0,.31l.68.05a.37.37,0,0,0,0-.21L64,302.63c.89,1.74,1.8,3.46,4.54,3.64,3.38.15,5.19,1.81,7,3.54s3.76,3.51,6.89,4c11.69,1.55,23.94,1.37,32.43,6.54,8.09,4.91,13.4,1,22.17,4.38s11,7.51,20.13,12.33c10.53,5.67,37.75,4,47.92,4,7.33.09,22.3,1.93,28.56-1.58-8.35,1.28-17.23,0-25.07-1.73,17.86-.1,36.58-.35,53-4.41a141,141,0,0,1-47.71,1.37c-15.54-2.26-36.26-5.86-48.9-19,17.42,7.83,40.7,13.63,59.89,15.14S263.82,330.67,277.86,323.57Z"/><path class="cls-4" d="M31.83,295.86l-.73.59A4.37,4.37,0,0,0,31.83,295.86Z"/><path class="cls-4" d="M24.23,280.9c-.06-.31-.48-.62-.12-.9a1.54,1.54,0,0,1-1.12-.87c0-.59-.53-1.21-1-1-.18-.13-.12-.3-.12-.41a.85.85,0,0,1-.71-.33A12.56,12.56,0,0,1,17.79,276l-.21.41-1-1c.12.54.9,1,.55,1.55-.42.35-.84-.07-1.25-.14l.42.31c-.41.47-1.14-.37-1.73.1.72.83.13,1.31-.52,1.71l-1.42,0a1.6,1.6,0,0,1,1.56,1.15c.3.95-.82.35-1.12.7.3.3.88-.35,1.14.31a1.06,1.06,0,0,1-1.3.29h-.13c.66.53,2.19,0,2.57,1.15-.3,0-.59.47-.29.7,1,.07,1.37,1,2.31,1.16l-.41.29a14.18,14.18,0,0,0,2.65.17c-.64,1,1.46.17,1.29,1.05.47-.64,1.17-1,1.53-.54,1-.56,2.28-1.6,2.28-2.9.42-.7-.17-.83-.29-1.74Z"/><path class="cls-4" d="M17.4,275.71a2.79,2.79,0,0,0,.39.31l0-.06Z"/><path class="cls-4" d="M59.93,319.12l.11.12a.32.32,0,0,0,.13,0C60.06,319.22,60,319.19,59.93,319.12Z"/><path class="cls-4" d="M66.17,312.29c-.59.31-1.25-.09-1.75-.42l-.27-.27c.47,1.1-1.16.62-1.79.81l-.4,0c.22.25.67.23.65.64l-1-.07c.17.07.4.08.55.35l-.29.38c.22,0,.27.2.38.33s-.18.28-.3.39l.44.33c-.36.33-.75.36-.6,1l-1.37.14.39.33a.61.61,0,0,1-.7.23l-.11-.12.27.44-1,0c.09.48,1.38.77.62,1.36l-.28,0c.39.16.6.59.92.91a.67.67,0,0,1-.44.27c.27.07.63.13.41.62l-.18.1c1.25-.08,1.42,1.12,2.55,1,.85,1.2,2,0,2.82.1,0-.47.48-.62.72-.95l.11-2.43c-.44-.27-.64-.76-1-1.33a3.23,3.23,0,0,0,1.72-1.59C67.87,313.48,66.46,313.26,66.17,312.29Z"/><path class="cls-4" d="M12.16,264.8c-1.45-1.31-3.51-.82-5-.17L5,265.9c.43.21.24.72-.09.87l-.75.73c1.79.5-.61,1.39-.17,2.42l.23-.22c1.21,1.22-.72,1.82-.09,3.13l-.33.79c.56.58,1.34.13,2,.28l.11.35c-.22.22,1.35-.53,1.6.34,3.41-.76-.34-4.93,4.06-4.77C11.39,267.78,13.75,266.74,12.16,264.8Z"/><path class="cls-4" d="M21.68,306.4l-.46-.42c-.27.94-.75-1-1.2,0-.45-.06-.74-.43-1.25-.31a.46.46,0,0,1,.17.42c-.27.29-.68.11-1,.16l.12.42-.68.29c.17.06.17.24.17.42l-.44.11c-.28.71,1,.66.18,1.31-.39.17.69.19.13.6.62,0,.53.71,1,.84l-.12.12c1-.41.77,1.49,2.28.61.69.84,1.18-.69,1.81-.39a2.44,2.44,0,0,0,.48-2.85C22.31,306.76,22.49,307.42,21.68,306.4Z"/><polygon class="cls-4" points="12.62 303.59 13.02 303.59 12.04 303.47 12.62 303.59"/><path class="cls-4" d="M40.11,251.85c.78,0,1.59-.69,1-1.55a1.54,1.54,0,0,0-1.63-.37C38.8,250.24,38.83,252,40.11,251.85Z"/><path class="cls-4" d="M73.39,263.39c.81.12.36,1.29,1,1.51.38.33.38.51.14.85l-.17.15c.13,0,.48.08.57-.12.33.26.08,1,.77.78.45.44-.25.62-.32,1,.68.11.66-.65,1.39-.31.63,1.48,1.86-.2,2.52.5.11,0,.8.12.82-.41.24,0,.28.25.4.32.7-.24.93-1.53,1.45-1.43.41-.2.37-.62.73-.83a.64.64,0,0,1,.31-.69c-.89-.61,1-.81-.05-1.25-.15-.43.44-.56.55-.67-.28-.08-.64.25-1-.08,1.15-.87-.76-1-.3-2.16-.25.28-.64,0-.68-.35v-.29c-.66.53-1-.62-1.48-.65-.33-.27-1.43.9-2.07-.35-.51-.33-.71,1.56-1.59.6l-.39-.46c-.37.51.72.71.12,1.15-.58.19-.44-.45-.84-.6,0,.18,1,1.39-.18,1.53l-1-.38a4.39,4.39,0,0,1,.53,1.17c-.26.75-1-.31-.87.24.28.2.74.29.54.75Z"/><path class="cls-4" d="M74.39,265.91h0C74.34,265.89,74.32,265.89,74.39,265.91Z"/><path class="cls-4" d="M76.82,312.12c.48.46,0,.77.81.78.07-.29.41-.43.33-.79C77.7,311.49,77,311.83,76.82,312.12Z"/><path class="cls-4" d="M93.74,270.09a3.47,3.47,0,0,0,.21,1.15,3.16,3.16,0,0,0,2.23.81c1-.74,1.59-.86,1.49-2,.53-.3-.58-.78.23-1-.29-.19-1-.33-.75-.77a2.17,2.17,0,0,1-1-.3l0-.23c-.18,0-.31.39-.59.18-.23-.74-.64.24-1.07-.1.17.13.1.31.09.48s-.44,0-.67.05l.14.14-.61.66.26.32-.4.14Z"/><path class="cls-4" d="M97.28,268.11a.92.92,0,0,0-.13.19A.15.15,0,0,0,97.28,268.11Z"/><path class="cls-4" d="M94,268.38h0l-.13-.13Z"/><path class="cls-4" d="M105.08,278.2c.15.26,1.07.11.92.81.23-.1.38.16.48.35v.29c.13-.28.39-.08.57-.12.22.14,0,.37.08.6.18-.21.4-.14.59-.35l.49.28c0-.17.24-.21.32-.38.81.62,1.16-.53,1.8-.64s.08-1.31,1.05-1.33c-1-1.17.58-1.79-.47-3.21-.12,0-.28-.08-.41.08-.39-.16-.24-.73,0-1-.29,0-.42.2-.6.36-.26-1.15-1.45-.44-1.88-.91,0,.55-.62,0-.81.35l-.27-.32.13.6c-.27-.15-.58.18-.82-.38-.32.62,0,1.6-.89,1.34.33.21.19.55.23.86C104.13,276,105.93,277.46,105.08,278.2Z"/><path class="cls-4" d="M35.09,318.54l-.28-.32-.8.68c.45.55-.56.85,0,1.42.27.07.78.16.66.62.62-.08,1.4.38,1.75-.62C36.36,319.54,36.17,318,35.09,318.54Z"/><polygon class="cls-4" points="39.39 320.05 39.11 319.86 39.11 320.15 40.45 320.35 39.39 319.88 39.39 320.05"/><path class="cls-4" d="M47.8,322.65c.51-.32.65-1.32,1-1.95-.83-.59-.59-1.1-.79-1.89-.22-.32-1-.3-.65-.93l-.41.44c-.49-.33-.14-.9-.25-1.32l-.68.55c-.33-.67-1.4-.57-1.84-.83-.64.8-1.46-.3-1.9-.8-.29.52.87,1.46.06,2.14-.11-.12-.16-.36-.38-.32-.69.62.82,1.11,0,1.55l-1.32-1.2c.76,1.35,1.87,2.06,1.27,3.63-.12-.07-.17,0-.29.1.22.13.39.14.56.33l-.68.26c.55.14.77.57,1,1.06l-.11.12a3.53,3.53,0,0,0,3.16.76c.69-.44,1.39-1.33,2.33-1C48.18,322.91,47.28,323,47.8,322.65Z"/><polygon class="cls-4" points="46.66 314.97 46.65 315.45 46.77 314.98 46.66 314.97"/><path class="cls-4" d="M40.84,255.21l-.78.36A3.72,3.72,0,0,0,40.84,255.21Z"/><path class="cls-5" d="M117.53,308.24c.89.73-.58.86-.64,1.38.48.1.63-.89,1.29-.42a1.21,1.21,0,0,1-1.06,1.1l-.13.08c1,.09,2.08-1.43,3.2-.52-.29.18-.27.82.17.86,1-.57,1.93.06,3-.36l-.21.54a16.67,16.67,0,0,0,2.65-1.51c0,1.35,1.51-.77,1.91.19,0-.91.51-1.68,1.12-1.49.61-1.16,1.18-3,.36-4.22-.05-.94-.69-.7-1.38-1.49l0,.29c-.25-.26-.85-.28-.69-.79a1.74,1.74,0,0,1-1.63-.12c-.37-.57-1.28-.82-1.63-.36-.25,0-.3-.21-.37-.32a1,1,0,0,1-.9.14c-1.42.32-2.79,1.07-4.64.81l.56,0,.08.6-1.63-.33c.45.44,1.51.41,1.51,1.14-.18.6-.85.46-1.29.66l.59,0c-.09.71-1.33.37-1.6,1.19,1.23.33,1,1.17.59,2l-1.38.88A1.88,1.88,0,0,1,117.53,308.24Z"/><path class="cls-6" d="M185.33,308.1l-.28.16a3.58,3.58,0,0,1,1.46.29c-.07.26-.07.5-.39.6l-.19,0c.26.17,1-.54,1.11.32l-.1.21c1.14-.87,2.07.17,3.1-.63,1.57.61,1.94-1.31,2.77-1.69-.33-.43.06-.9.09-1.36l-1.44-2.4a4.77,4.77,0,0,1-1.82-.63,3.72,3.72,0,0,0,.65-2.62c-.3-1.63-1.79-.95-2.69-1.69-.37.66-1.26.7-1.95.69l-.43-.08c1.15.76-.72,1.33-1.21,1.91l-.4.22c.37.11.79-.2,1,.2l-1,.54a1,1,0,0,1,.76,0l0,.55c.19-.17.38,0,.57.08s0,.38,0,.56l.63,0c-.13.54-.49.82,0,1.3l-1.22,1,.58.07a.7.7,0,0,1-.52.66l-.18,0,.53.24-.9.66C184.27,307.6,185.69,307.06,185.33,308.1Z"/><path class="cls-6" d="M105.24,300l.33.27c-.08.35,1-1.37,1.76-.69,2.79-2.88-3.46-4.52.87-7.15-1.51-1.81.1-4.3-2.66-5.16-2.22-.34-3.89,1.43-5,3l-1.23,2.55c.55-.07.7.54.47.89l-.25,1.18c2-.65.29,1.71,1.37,2.42L101,297c2,.41.47,2.2,1.91,3.06l.19,1C104,301.19,104.48,300.26,105.24,300Z"/><path class="cls-6" d="M138.42,326.14c-.26.41.78-.26.5.5.61-.39,1,.35,1.48.18l0,.18c.67-1,1.68.95,2.58-.84,1.19.36.69-1.42,1.48-1.52a2.79,2.79,0,0,0-1.33-3c-1.16-.55-.58,0-2-.5l-.71-.11c.34,1.08-1.37-.5-1.16.75-.48.22-1,.06-1.4.49a.56.56,0,0,1,.43.29c-.08.46-.59.54-.83.77l.39.32-.47.71c.19-.05.31.12.43.3l-.35.38C137.6,325.86,138.77,325,138.42,326.14Z"/><polygon class="cls-5" points="130.99 323.89 129.97 324.4 130.6 324.14 130.99 323.89"/><path class="cls-7" d="M140.48,290.56l.34.53c.46-.59.79.25,1.23.3,1-.71,2.68-1.37,2.31-2.61l-1.43-1.43c-.35.6-1.35.17-2,.26.46.56-.85.81-.72.84l.29.13a3.05,3.05,0,0,0-.85,1.76A.46.46,0,0,1,140.48,290.56Z"/><polygon class="cls-5" points="140.09 289.71 140.16 289.83 140.74 289.49 140.66 289.38 140.09 289.71"/><path class="cls-5" d="M162.79,326.84c.55-.47,1.59-.53,1.29-1.7-.53-.72-1.71-2.08-2.39-.88l-.47-.13-.34,1.16c.78.24,0,1.17.88,1.37C162.08,326.56,162.62,326.32,162.79,326.84Z"/><path class="cls-5" d="M165.07,323.21l1-.18Z"/><polygon class="cls-5" points="167.98 322.61 166.67 322.82 166.77 322.99 166.39 322.98 166.57 323.27 167.98 322.61"/><path class="cls-5" d="M170.23,323c-.15,0-.14.15-.21.28.3,0,.46-.11.74,0l-.49.68a2,2,0,0,1,1.67.36l0,.18a4.12,4.12,0,0,0,3.53-1.27c.38-.86.49-2.15,1.62-2.41,0-.63-.84,0-.55-.63s-.21-1.68-.27-2.52c-1.16,0-1.26-.69-2-1.31-.41-.16-1.1.31-1.22-.48l-.11.68c-.68,0-.71-.77-1.08-1.11l-.31,1c-.73-.44-1.7.34-2.29.37-.11,1.18-1.6.64-2.34.43.05.69,1.76.86,1.42,2-.18,0-.38-.25-.57-.06-.27,1,1.49.54,1,1.5l-2-.31C168.29,321.15,169.81,321.13,170.23,323Z"/><path class="cls-5" d="M168.59,322.48l.74,0Z"/><polygon class="cls-5" points="170.65 313.46 170.55 313.52 170.84 313.99 170.65 313.46"/><path class="cls-8" d="M345.74,182.41c.54.25,1.09.5,1.68.74,2.24.93,4.84,2.32,7.33,2.37,5.3.11,11.05-5.13,12.95-10.24a9,9,0,0,0,.83-4.31c-.16-1.17-.69-1.79-1.4-2-1.52-.43-2.83,1-3.17,2.81s.18,3.64-.18,5.47a7.43,7.43,0,0,1-5.34,5.45,11.6,11.6,0,0,1-6.94-.77,37.82,37.82,0,0,1-6.34-3,35.14,35.14,0,0,0-2.06-6.4c1-2.85,0-6.92-2.82-10.3h0l0,0,0,0h0c-3.26-3-7.27-4.19-10.17-3.28a34.45,34.45,0,0,0-6.29-2.36,37.41,37.41,0,0,1-2.73-6.47,11.59,11.59,0,0,1-.45-7,7.43,7.43,0,0,1,5.68-5.09c1.85-.27,3.63.33,5.48.07s3.31-1.49,2.95-3c-.16-.71-.76-1.27-1.91-1.49a9,9,0,0,0-4.34.63c-5.2,1.67-10.7,7.17-10.83,12.47-.06,2.49,1.21,5.15,2,7.43.22.6.44,1.16.66,1.71a32.81,32.81,0,0,0-13.48.55c7.68,4.71,17.45,12.71,23.23,22.65,4.32,9.67,5.6,15.51,9.95,23.39C344.23,195.7,346.26,186.88,345.74,182.41Z"/><path class="cls-8" d="M264,250.57c-46.8,23.42-76,24.28-76,24.28,10.34,16.37,40.23,39.9,97.14,10.64,22.15-11.38,57-46.26,41.88-86.16C327.06,199.33,303.63,230.76,264,250.57Z"/><path class="cls-9" d="M273.9,241.4c-45.12,31.15-83.51,41.33-83.51,41.33,13.37,15.4,55.77,37.58,110.52-1.12,21.31-15.06,52.16-56.29,30.08-95.31C331,186.3,312.08,215,273.9,241.4Z"/><path class="cls-10" d="M273.9,241.4c-41.48,35.86-73.18,48.68-73.18,48.68,15,13.85,64.43,36,114.67-8.43,19.55-17.28,41.51-68.36,13-105.3C328.4,176.35,309,211.06,273.9,241.4Z"/><path class="cls-11" d="M261.19,306.38c-1.46-.33-1-1.78-1.43-2.79.36-.08.86-.57,1.33-.49.24-1.11-.95-.6-1.64-1-1.33-1,1.21-1.72.78-2.16a10.29,10.29,0,0,1-3.77-1.94,21.09,21.09,0,0,1,.39-2.72c-.41-.62-1.22-.08-1.81-.31,0-.84.92-1.85-.09-2.58-1.43.84-2.08-.56-3.36-.68s.57-2.44-.35-2.26-.26,1.44-1.12,1.82a4.28,4.28,0,0,1-2.39-.25l0-1.56a16.57,16.57,0,0,1-5.65,2.39c-.1-.51,0-1.36-.76-1.49-.49.55-.1,1.17-.45,1.84-2.59,0-2.38,3.51-4.4,2.91-1,.27.29.93.16,1.51-.35,1.36-1.24-.09-2,.36-.05.51.67.7.84,1.12.26,1.88-1.92.86-2.64,1.5.21.73,1.53.05,1.59.92-1.21,1.05-.53,2.86-2.22,3.5,1.4-.06,1.32,1.25,1.9,2-.31.14-.67.67-1.12.7,0,.79.64.52,1.25.47-.06.17-.16.39-.23.57,10.84,1.69,16.67.66,25.52,0A2.2,2.2,0,0,1,261.19,306.38Z"/><path class="cls-12" d="M296,249.51c-2.38-1.15.84-2.23.69-3.43-1.13,0-.93,2.33-2.66,1.62a2.79,2.79,0,0,1,1.81-3l.24-.25c-2.23.31-3.91,4.3-6.89,2.85.55-.56.17-2-.83-1.83-2,1.8-4.36.87-6.44,2.35l.18-1.33c-1.87,1-3.36,3.29-5.13,4.8-.74-3-3,2.51-4.37.59.38,2.06-.26,4-1.73,3.92-.74,2.93-1.07,7.3,1.42,9.66.61,2.09,1.92,1.2,3.88,2.61l0-.67c.7.44,2.05.19,1.95,1.4a4.08,4.08,0,0,1,3.72-.58c1.13,1.07,3.29,1.17,3.84-.06.56-.1.78.32,1,.53a2.25,2.25,0,0,1,1.93-.79c3-1.46,5.7-3.87,10-4.25l-1.24.37-.48-1.3,3.82-.12c-1.24-.75-3.6-.11-4-1.75.09-1.45,1.66-1.49,2.55-2.17l-1.35.25c-.16-1.64,2.77-1.52,3-3.51-2.92-.11-2.77-2.12-2.36-4.11l2.63-2.71C299.85,249.82,297.61,250.54,296,249.51Z"/><path class="cls-6" d="M331.48,206.56c.11-.12.17-.44.37-.53-.21-.48-.51,0-.88.05-.73,0,0-1-.27-1a4.81,4.81,0,0,1-1.89.28,9.6,9.6,0,0,1-.57-1.12c-.31-.13-.47.29-.74.36-.22-.31-.15-.93-.71-.94-.31.7-.91.35-1.41.64s-.43-1.06-.72-.75.28.61.06,1-.66.42-1,.54l-.41-.57a7.81,7.81,0,0,1-1.46,2.38c-.17-.16-.34-.51-.67-.35,0,.33.27.46.31.8-1,.69,0,1.94-.86,2.25-.29.36.34.27.45.52.22.6-.48.29-.65.67.11.2.42.08.6.19.58.63-.49.83-.59,1.26.27.21.58-.39.83-.08-.18.71.54,1.21.09,1.89.5-.39.81.12,1.22.25-.08.13-.07.42-.23.55.21.29.37,0,.59-.15.08.29.16.61.23,1,.31.23.57-.17.88-.16.17.41-.06,1.06.54,1.25.49-.65,1.06-.08,1.66-.23s.22,1.28.6,1-.16-.75.16-1.08.8-.24,1.13-.28l.32.76a7.51,7.51,0,0,1,2.09-2.12c.15.23.25.67.64.6.12-.35-.18-.59-.15-1,1.17-.44.39-2.11,1.43-2.16.39-.3-.31-.4-.37-.71-.1-.72.58-.17.85-.52-.08-.26-.44-.23-.6-.41-.48-.87.7-.74.91-1.17-.24-.32-.71.23-.9-.19.34-.71-.32-1.48.32-2.08C332.11,207.49,331.89,206.83,331.48,206.56Z"/><path class="cls-5" d="M336.25,247.65c-.06-.56-.5.06-.79-.06-.66-.32.15-.67,0-1.13-.26-.08-.42.29-.65.35-1,0-.27-1.12-.53-1.58-.4.05-.16.83-.61.78-.43-.76-1.41-.56-1.6-1.54-.09.77-.75.6-1.18.84-.05-.18-.29-.43-.27-.67-.5-.08-.23.51-.39.88-.38.72-.82-.56-1-.32a5.22,5.22,0,0,1-.62,1.8,12.63,12.63,0,0,1-1.29-.82c-.45.06-.33.62-.6.88-.46-.21-.8-.95-1.44-.6.13,1-.79,1-1.15,1.62s-1.22-.91-1.33-.38.74.5.74,1.06-.45.89-.69,1.2l-.86-.37a9.51,9.51,0,0,1,0,3.61c-.3-.08-.73-.37-1,0,.19.4.62.34.91.7-.6,1.38,1.38,2.15.59,3.07-.08.59.57.08.87.3.66.52-.34.64-.27,1.16.27.16.54-.18.82-.17,1.09.34,0,1.24.21,1.79.45.07.38-.81.88-.62.29.91,1.45,1,1.41,2.06.29-.76,1-.39,1.55-.51,0,.2.22.52.13.77.49.21.43-.3.6-.65.26.07.53.12.8.17.11.21.2.39.3.32s.1-.17.14-.26c.22,0,.45,0,.67,0a131.06,131.06,0,0,0,5.84-12.81A.76.76,0,0,1,336.25,247.65Z"/><path class="cls-13" d="M277.75,238.61c-6.49,5-13.14,9.75-20,14.18-1.72,1.1-3.41,2.25-5.16,3.32l-5.27,3.15c-1.74,1.07-3.54,2.06-5.32,3.06s-3.55,2-5.37,3c-7.2,3.9-14.56,7.52-22.09,10.76a222.45,222.45,0,0,1-23.07,8.66l.45-2a106.62,106.62,0,0,0,13.33,9.78,116.11,116.11,0,0,0,14.59,7.82,95.63,95.63,0,0,0,31.88,8.24,84,84,0,0,0,32.71-3.8,97.84,97.84,0,0,0,15.35-6.38A122.29,122.29,0,0,0,314,289.62,100.36,100.36,0,0,1,284.83,306a85.42,85.42,0,0,1-33.28,4.62,98,98,0,0,1-32.68-8.17,109.91,109.91,0,0,1-28.51-18l-1.58-1.39,2-.61a219.86,219.86,0,0,0,22.86-8.38c7.47-3.21,14.9-6.55,22.15-10.28s14.38-7.67,21.35-11.9c3.54-2,6.94-4.29,10.39-6.48S274.34,240.88,277.75,238.61Z"/><path class="cls-10" d="M86.82,213.83c1.22-2.87,1.22-4.69.67-6.24-.26-.66-.76-.71-1.22,0a72.93,72.93,0,0,0-3.85,6.85,26.63,26.63,0,0,1-4.2.21c-.76-.05-1.06.33-.56,1.11A4,4,0,0,0,81,217.2c-2.18,4.36-4.31,9-5.38,11.75a16.11,16.11,0,0,0-.6,2c-2.22,3.45-5.68,7.23-9.58,7-2.68-.17-3.89-3.66-2.26-8.73,3.53,3.15,6.93,1.72,9.41-1.6,2.13-2.81,2.54-6.18,1.63-7.5a9.69,9.69,0,0,0-3-2.88c-2.53-1.6-7.69,1.26-11,8.38s-1.07,14,5.35,13.93a12.43,12.43,0,0,0,9.17-4.9c.37,3,2.26,4.78,4.45,4.85,4,.17,7.39-4.68,8-6.28a5,5,0,0,0,.51-3.15c-.2-.77-.76-.66-1.07,0-1.87,4.14-4.76,8.06-7,7.94-2.12-.11-2.68-3.53-1-7.56,1.93-4.64,4.81-10,6.79-13.69a14.13,14.13,0,0,1,3.95-.22c.76,0,1-.38.61-1A3.14,3.14,0,0,0,86.82,213.83ZM64,227.06c2.38-5.24,6.58-8.55,7.65-7.61.7.61-.41,3.48-2,5.8-1.47,2.1-3.55,4.47-6,2.75C63.68,227.73,63.83,227.4,64,227.06Z"/><path class="cls-10" d="M250.11,217.19a3.59,3.59,0,0,0,.35-3.7c-.65-1.49-2.12-2.15-2.93-1.22a3.68,3.68,0,0,0-.26,4.09C248,217.8,249.45,218,250.11,217.19Z"/><path class="cls-10" d="M266.74,230.35c-.2-.5-.61-.5-.86-.06-2.18,3.65-5.88,8.06-10.08,7.84-2.68-.17-3.89-3.65-2.27-8.73,3.54,3.15,6.94,1.72,9.42-1.59,2.13-2.82,2.53-6.19,1.62-7.51a9.54,9.54,0,0,0-3-2.88c-2.53-1.6-7.69,1.26-11,8.39a16.14,16.14,0,0,0-1.42,4.93c-1.54,3.72-4.25,7.21-6.48,7.32-1.62.11-1.72-2.05-.5-5.25,1.06-2.76,3.19-6.51,4.25-8.94,1.22-2.76.82-5.14.06-6-.4-.5-.76-.33-1.21.33a71.35,71.35,0,0,0-6.39,13.1c-1.86,3.56-4.15,6.72-6.08,6.82s-2.12-2.48-.8-5.69c1.16-2.87,3.65-6.95,4.71-9.38,1.27-2.87-.3-5.58-2-5.85s-5.11,2.75-7.39,5.4a7.09,7.09,0,0,0-.15-5.25c-.3-.55-.7-.6-1.06,0a97.51,97.51,0,0,0-7.9,15.61,25.13,25.13,0,0,1-7.2,5.86c2.13-5.35,5.33-12,6.85-15.34,1.27-2.71.86-5.08.11-6.08-.36-.49-.86-.44-1.27.33-.51.94-1.06,1.93-1.67,3,0-1.93-1-3.65-3-3.65-2.59,0-6.69,2.48-10.64,8.88a17.24,17.24,0,0,0-2.46,6.36c-1.72,3.09-4,5.75-5.7,5.84s-1.67-2.27-.4-5.36c1.22-2.93,3.75-7.07,4.87-9.55,1.22-2.76.81-5.13.06-6.13-.36-.5-.76-.39-1.22.33a36.07,36.07,0,0,0-1.82,3.37c.1-2.16-.91-4-3.09-4-2.53,0-6.53,2.48-10.63,9a17.76,17.76,0,0,0-2.38,5.7c-1.72,3.41-4.63,6.69-9.12,7,1.92-1.27,3.8-3.92,5.32-7.56,1.88-4.53,3-9.44.57-12.26-2.18-2.49-5.16-.94-7.39,1.15a6.46,6.46,0,0,0-.3-2.48c-.26-.66-.71-.78-1.22-.06-1.87,2.72-5.58,9.87-8.63,16.4-1.46,2.42-3,4.22-4.44,4.3-1.87.11-2.53-2.49-1.11-5.64,1.22-2.7,3.65-6.34,4.62-8.83,1-2.65.61-5.9-1.21-6-1.62-.06-5,2.53-7.39,5,.61-2.43-.25-5.36-2-5.42s-5.52,3.2-7.8,6c.76-2.15.91-4.31.1-5.74-.3-.56-.8-.56-1.11,0-2.58,4.47-5.88,8.55-9.12,8.6a2.42,2.42,0,0,0,.11-.88c.3-4.09-1.21-4.37-2.43-6.08-1.06-1.49-1.82-2-3.38-1.88-3,.22-6.13,3.47-8.06,7.17a18.24,18.24,0,0,0-2.11,6.81c-2.14,3.27-5.49,6.87-9.34,6.82-3-.06-4-4.64-1.25-10.88,2.28-5,6.08-8.55,6.94-7.78.71.61-.81,3-1.37,5-.71,2.48,0,4.14,1.21,4.8.66.39.86.23,1.06-.44,1-3,3-5.9,2-8.22a7,7,0,0,0-2.78-3c-2.53-1.66-7.64,1.32-10.89,8.27-3.29,7.12-1.12,14,5.3,13.87,3.58-.05,7.26-2.39,9.31-5.33a7.43,7.43,0,0,0,1.07,2.58c2,3,4.6,3,6.42,2.38,3.75-1.33,6.94-7.07,8-11.81A6.61,6.61,0,0,0,133,226a58.62,58.62,0,0,0-3.25,7.73c-.81,2.76-.56,4.64.5,5.58.51.44.76.27,1-.17,2-5.19,4.47-10.27,7.41-13.74,3.24-3.86,5.77-5.35,6.28-5.13,1,.44-4.47,8-6.09,12.58-1.37,3.92-.76,6,0,6.91.45.49.9.33,1.16-.33,2.13-5.14,4.61-10.38,8.77-14.9,3.24-3.54,5-4.25,5.42-4.09.76.34-3.75,6.41-5.58,11-1.78,4.47-.26,8.23,4.09,8.29a5.91,5.91,0,0,0,2.92-.84,55.43,55.43,0,0,0-2.27,5.92c-1,3.37-.71,4.91,0,6.07.31.5.66.39.87-.11,2.43-6.12,5-11.75,7.4-16.5a5.88,5.88,0,0,0,1.72,3.7c1.77,1.77,3.89,2.27,7.13,2.05a10.7,10.7,0,0,0,8.06-4.35c.41,2.32,1.78,3.86,4,3.87,2.43,0,4.71-2,6.33-4.3,0,2.59,1.41,4.36,4.15,4.53,2.11.13,4.46-1.59,6-3.76.47,2.11,1.8,3.49,3.87,3.49a7.31,7.31,0,0,0,5.12-2.75c-.51,1.26-1,2.59-1.47,3.8-5,2.1-9.37,5.46-10.84,10.43a7.43,7.43,0,0,0,1,6.85c.91,1.44,1.92,1.6,2.94,1.16,4.1-1.76,7.7-10.54,10.49-17.94a23.87,23.87,0,0,0,7.45-4.35,4,4,0,0,0,.95,2.59c.45.5.76.28,1-.22,2.18-5.18,4.41-10.48,7.4-14,3.24-3.87,6.18-5.41,6.69-5.19.91.44-3.55,6.29-5.23,11.7-1.47,4.81-.46,8.23,3.84,8.23,2.15,0,4.44-1.51,6-3.53a3.64,3.64,0,0,0,3.93,3.38c2.64,0,5.57-2,7.19-5a6.3,6.3,0,0,0,6.57,5.12c3.9,0,7.8-2.59,9.93-6A4.8,4.8,0,0,0,266.74,230.35Zm-12.34-3.1c2.38-5.25,6.58-8.56,7.64-7.62.71.61-.4,3.48-2,5.8-1.46,2.1-3.54,4.47-6,2.75C254.09,227.91,254.24,227.58,254.4,227.25Zm-131.27,4c-2.48,5-5.57,7-6.93,5.68s-.65-6.29,1.58-10.43a20.09,20.09,0,0,1,3.9-5.24,6.78,6.78,0,0,0,3.28,5.25A22.37,22.37,0,0,1,123.13,231.26Zm2.24-6.13a4.5,4.5,0,0,1-1.21-3.7c.2-1.65,1.26-1.93,1.52-.16A12.39,12.39,0,0,1,125.37,225.13Zm39,11.69c-1.42-1.27-1.16-4.58.11-8.06.61-1.16,1.16-2.15,1.72-3.14,2.38-4.25,5.52-7,6.74-6.35s.7,5.25-1.28,9.66C169.28,234.23,166,238.26,164.37,236.82Zm18.72.9c-2-.05-1.31-4.91,1.38-9.66,2.78-4.91,6.48-8.5,8.1-8.33,1.47.17,1,3.59-2.19,9.66C187.8,234.25,185.16,237.78,183.09,237.72Zm14.66,18.19c-.86-1.33,1.37-8.89,7.95-13.08C202.41,251.22,198.4,257,197.75,255.91Zm5.78-18.11c-2-.06-1.46-4.92,1.28-9.66s6.48-8.34,8.05-8.22,1,3.53-2.18,9.6C208.09,234.38,205.51,237.86,203.53,237.8Z"/><path class="cls-8" d="M294.81,192c-.67-2.8-2.45-4.15-2.45-7,0-2.28,5.6-5.07,5.6-6.18s-2-3.47-3.47-3.47c-2.2,0-6.36,3.63-6.36,6.68a10,10,0,0,0,1.1,3.73l-3.38,3.63h0a59.46,59.46,0,0,1-5.05,4.36l-.37.13a2.07,2.07,0,0,0-1.36,1.13c-2.12,1.44-4.34,2.59-6,2.59-1.95,0-3-1.87-3-4.49a16.76,16.76,0,0,1,.25-3c4.67-3,9.33-7.28,9.33-9.31,0-.93-1.27-4-3.89-4-3.9,0-11.28,7.29-11.9,14.61-3.23,2.72-8.87,7.14-11.51,7.14-.51,0-1.61-.35-1.61-2.38,0-3.47,1.88-8.47,1.88-8.47,8.14-7.7,21.28-22.68,21.29-27.85a4.79,4.79,0,0,0-4.57-4.92c-5.93,0-19.51,20.57-22.83,35.31-3.05,2.71-9.07,9.05-11.53,9.05-.51,0-1.61-.34-1.61-2.37,0-3.47,2.13-9,2.13-9,8.48-7.7,20.44-20.91,20.44-25.91a4.77,4.77,0,0,0-4.57-4.91c-6.34,0-18.7,17.21-22,32.16h0s-8.31,8.21-12.8,8.2c-1.94,0-3.05-1.86-3-4.49a16.73,16.73,0,0,1,.25-3c4.67-3,9.33-7.28,9.33-9.31,0-.93-1.26-4-3.89-4-3.92,0-11.38,7.4-11.91,14.77-2.95,2.58-8,6.48-11.84,6.47a.8.8,0,0,1-.84-.84c0-4.5,6.79-10.42,6.79-11.35,0-1.1-1.44-4.07-3.05-4.07-3,0-10.93,5.16-14.32,7.61,1.86-3.13,3.39-5.33,3.39-6.6,0-2.21-2.62-4.58-4.23-4.58-.51,0-.85.33-.85,1,0,2.54-3.22,7.55-6,11.69-3,2.57-9.09,7.36-12.87,7.36-.33,0-.93-.09-.93-1.11,0-3.21,9.76-14.39,9.76-16a4.67,4.67,0,0,0-4.06-4,1.85,1.85,0,0,0-1.61,1.27c-1.09,2.67-4.74,7.76-7,12-3,2.67-10.92,9.2-16.31,9.19-1.61,0-2.71-1.18-2.71-3.3,0-7.2,8.15-15.08,12.21-15.07.6,0,.68.42.68.51,0,1-1.27,2.79-2.38,3.89a1,1,0,0,0-.25.51.18.18,0,0,0,.17.17,6.46,6.46,0,0,0,1.52-.25c1.53-1.61,2.38-3.22,2.38-4.49,0-2.29-2.28-3.82-4.4-3.82-4.72,0-12.06,6.49-14.42,13.55-3.52,3-10.4,8.29-15.26,8.28-1.61,0-2.71-1.19-2.7-3.3,0-7.21,8.14-15.08,12.21-15.07.59,0,.68.42.68.51,0,1-1.28,2.79-2.38,3.89a.91.91,0,0,0-.25.51.18.18,0,0,0,.17.17A6.56,6.56,0,0,0,130,186c1.53-1.61,2.38-3.22,2.38-4.49,0-2.29-2.29-3.82-4.41-3.82-3.6,0-8.73,3.79-12,8.72a14.87,14.87,0,0,1-5.6.44,12.21,12.21,0,0,0,.92-4.85c.17-3.56-3-6-6.86-6-4.41,0-13.83,4.33-14.84,15.68C81.46,199,71,205.46,58.49,205.44c-7.28,0-11.52-2.72-11.51-9.67,0-20.58,34.1-47.07,50.54-47.05,3.13,0,4.82,1,4.82,2.8,0,6.44-11.45,14-17.29,15a.72.72,0,0,0-.68.76c0,.51,2.79,2.37,4.83,2.38,2.37,0,14.83-10.41,14.84-16.85,0-3.39-2.79-8.81-8.89-8.82C75.66,144,41,170.78,41,192.55,41,201,50.36,208,58.83,208c10.79,0,23.56-8.64,30.7-15,0,.22,0,.42,0,.64,0,3.9,5.44,5.94,7.48,5.94,1.27,0,5.85-.78,12.81-11.26,0,0,.32,0,.81.05h0a13.77,13.77,0,0,0,4.32-.13,16,16,0,0,0-2.11,7.37c0,4,3.39,6,6.77,6,4.9,0,12.17-5.6,16.06-8.93a12.85,12.85,0,0,0-.37,2.93c0,4,3.38,6,6.77,6,5.12,0,12.85-6.14,16.57-9.38a8.77,8.77,0,0,0-1,3.29c0,2.71,3.21,4.66,4.57,4.66,3.5,0,8.94-4,12.45-6.9-1.27,1.94-2.2,3.43-2.2,3.95,0,1.78,1.95,4.15,2.79,4.15s1.7-4.32,7-9.06c4.66-4.23,10.43-7.1,11.19-7.1a.18.18,0,0,1,.17.17c0,.59-3.57,5.33-3.57,9.06,0,2.71,3.05,5.68,5.33,5.68,3,0,8.61-4.62,11.81-7.52.11,4.25,2.86,6.86,7.17,6.86,5.88,0,13.26-7.39,14.66-8.86a31.51,31.51,0,0,0-.59,5.74,4.79,4.79,0,0,0,4.74,5.17c3.22,0,9.58-6.34,12.89-9.39a25.68,25.68,0,0,0-.34,3.3,5,5,0,0,0,4.82,5.35c3.29,0,9.72-5.17,13.24-8.22.07,4.31,2.83,7,7.18,7,2.66,0,5.61-1.52,8.2-3.31a8.64,8.64,0,0,0,7.73,5.35c4.07,0,8.3-3.38,8.31-7.1a6,6,0,0,0-.17-1.27,19.85,19.85,0,0,1,2.63,1.44,1.17,1.17,0,0,0,1-.93C298.62,193.39,297.52,192.45,294.81,192ZM277,180.32c.33,0,.42.34.42.59,0,1.53-3.48,5.34-7,7.88C272.88,182.86,275.67,180.32,277,180.32Zm-5.83-21.19a.74.74,0,0,1,.76.68c0,4.83-12.13,19.14-18.66,25.66C255.93,177.17,266.8,159.13,271.12,159.13ZM253,161.32a.74.74,0,0,1,.77.68c0,4.83-11,17-17.56,23.53C238.91,177.23,248.66,161.32,253,161.32Zm-32.63,19c.34,0,.42.34.42.59,0,1.52-3.48,5.33-7,7.87C216.28,182.8,219.08,180.26,220.35,180.27Zm-124.23,18c-1.27-.1-2.49-1.66-2.78-3.51s.45-8.3,3.72-11.88h0c.83,1.24,3.32,3.61,10.48,5C105.44,193.56,100.06,198.56,96.12,198.28Zm12.09-12a25.8,25.8,0,0,1-6.58-3.34,4.4,4.4,0,0,1-1.49-2.09c-.22-1.48.81-3.42,3.54-3.42s4.09,1.57,4.57,4.33A12.29,12.29,0,0,1,108.21,186.29ZM285.07,197c-2.72,0-4.33-.77-4.32-1.36,0-.26.08-.43.67-.68a30.65,30.65,0,0,1,8.39-2.28C289.22,195.07,287.86,197,285.07,197Zm4.91-5.17a64.15,64.15,0,0,0-7,1.29c1.67-1.49,2.76-2.66,2.81-2.72h0s1.62-1.61,3.73-3.89a12,12,0,0,1,.51,4.4A3.23,3.23,0,0,1,290,191.85Z"/><path class="cls-14" d="M184.89,151.48c.44-.13.29-.53.43-1-.88.23-1.31.64-2.17.61l.95-2.36c-1.69,1.08-3.3.58-5.19.09l0-.54c-4.19,0-7.7,3.36-9.56,6.22-.54,2.8.06,6.73-3.11,8.27.48,1.86,2.48-.58,2.06,1.51s1.8,4.84,2.56,7.28c3.48-.69,4.21,1.16,6.71,2.54,1.33.2,3-1.69,3.93.57l-.15-2.1c2-.47,2.64,1.8,4,2.55l.25-3.07c2.49.79,4.81-2.19,6.53-2.7-.49-3.56,4.29-3,6.63-2.9-.63-2-5.82-1.33-5.61-5,.57,0,1.3.46,1.73-.22.07-3.25-4.79-.58-3.85-3.8l6.23-.49C191.92,155.68,187.45,156.8,184.89,151.48Z"/></g><g id="Calque_2" data-name="Calque 2"><path class="cls-6" d="M22.3,80.07c-.89-2.73-2.24-4.29-3.24-4.72-.54-.21-.91-.08-.78.59.82,4.52,3.21,14.37,4.63,19.6,1.76,6.61,1.83,11.81-.79,12.56-1.24.37-2.45-.9-3.57-3-2.33-4.41-3.53-12.32-4.78-17-1-3.67-2.25-4.94-3.49-5.41-.55-.21-.89,0-.79.59,1.2,7.27,3.16,16.87,5.61,21.6s5.3,5.17,7.43,4.59c3-.81,5.06-4,4.41-9.35A167.91,167.91,0,0,0,22.3,80.07Z"/><path class="cls-6" d="M33.13,100.49c.54.12.63-.18.51-.61-1.13-4.53-2.29-9.15-2.08-13,.22-4.14,1.37-6.58,1.81-6.68.81-.14.78,5.93,2.36,10.36,1.41,3.93,3.75,5.75,6.56,3.69,1.91-1.4,2.61-4.82,2-7.55a3.76,3.76,0,0,0-1.42-2.55c-.38-.18-.61,0-.53.44.65,3.52.82,7.16-.48,8.22-1.13,1-2.61-.65-3.33-3.43-.65-2.49-1-6.42-1.54-8.56-.59-2.54-2.95-3.6-4.17-3s-2,4.3-2.16,7.17A6.15,6.15,0,0,0,28,81.58c-.47-.22-.76-.07-.7.51.45,5,1.69,12,2.74,14.82C30.83,99.15,31.92,100.23,33.13,100.49Z"/><path class="cls-6" d="M49.11,78.08a3.18,3.18,0,0,0,2,.64,28,28,0,0,0,.4,2.82c.6,2.65,1.45,3.75,2.25,4.12.34.17.66,0,.58-.46-.34-2.15-.59-4.63-.75-7.28,1.67-1,4.23-3.13,6.6-4.83.61,1.24,1.19,2.29,1.66,3.08,1.39,2.22,2.54,2.87,3.46,2.8.41,0,.55-.27.31-.67-1.19-2.13-2.28-4.42-3.27-6.62A8.29,8.29,0,0,1,64,71c.39-.07.46-.28.17-.59a2.79,2.79,0,0,0-2.79-1.06,106.2,106.2,0,0,1-4.34-13,5,5,0,0,0-1.73-2.87,6.4,6.4,0,0,0-1.78-1.13c-.69-.35-1-.13-1.29.72-1.65,5.66-1.83,16.4-1.34,23.41a17.25,17.25,0,0,1-1.69.75C48.61,77.47,48.63,77.67,49.11,78.08Zm5.17-21.26A78.69,78.69,0,0,0,59,70.52c-1.62,1-3.5,2.75-5.52,4.24A123.35,123.35,0,0,1,54.28,56.82Z"/><path class="cls-6" d="M94,43.81c1,.88,2.14.57,2.39-.22a3.06,3.06,0,0,0-.9-3c-1-1-2.27-1-2.58,0A3.13,3.13,0,0,0,94,43.81Z"/><path class="cls-6" d="M122.46,54.33c2.18-.59,3.84-3.38,3.93-6.32a4.57,4.57,0,0,0-.76-2.9c-.28-.34-.53-.16-.56.24-.16,3.65-1.18,7.19-2.84,7.65-1.18.34-2.23-1.24-2.37-3.86s.85-6.21,1.92-9.09c.68-1.83-1-3.6-2.09-4.3-.42-.34-.69,0-1,.5a10.46,10.46,0,0,1-3.55,3.47c0-3.16-.48-5.95-1.67-5.51-1.6.64-3.46,7.71,0,8.11-.28,6.25-2.24,14.58-6.58,15.79-2,.58-3.93-1.93-4-6.32,3.54,1.53,5.77-.43,6.7-3.7.81-2.75.34-5.45-.68-6.28a7.82,7.82,0,0,0-3-1.45c-2.37-.62-5.51,3.15-6.14,9.38a13.5,13.5,0,0,0,.32,4.7c0,3.3-.93,6.75-2.55,7.5-1.18.58-1.93-1-2-3.89-.07-2.45.34-6,.37-8.2,0-2.5-1-4.21-1.86-4.65-.46-.26-.67,0-.8.62a59.52,59.52,0,0,0-.63,12.33c0,.14,0,.27,0,.4-.35,3.24-1.49,6.24-3,6.77-1.75.58-2.9-3.09-3.24-7.87,2.24-3.93,4.18-10.84,3-16.52-.43-2.18-1.35-3.63-2.92-4.24-.77-.31-1.26,0-1.52.93A49.89,49.89,0,0,0,84,61.1c-.29,3.44-1.38,7.71-4.37,9-2,.83-4.17-1.33-4.87-5.7,3.73,1.08,5.66-1.21,6.23-4.58.5-2.86-.45-5.52-1.6-6.18a8.08,8.08,0,0,0-3.23-1.08c-2.42-.28-5.11,3.71-4.86,10.21a12,12,0,0,0,2.06,6.59c-.16,2.45-.76,4.5-1.9,5-1.56.74-3.31-1.56-3.72-5.16-.46-4.13-.53-9.17-.59-12.64a10.85,10.85,0,0,1,2.72-1.68c.54-.29.53-.65,0-1a2.51,2.51,0,0,0-2.89,0c-.27-2.57-1-3.91-2-4.83-.45-.39-.83-.23-.87.47a60.49,60.49,0,0,0,0,6.5,21.28,21.28,0,0,1-2.91,1.77c-.56.25-.62.65,0,1a3.2,3.2,0,0,0,2.91-.22c.18,4,.51,8.26.84,10.69.79,5.59,4.31,7.55,6.73,6.35,1.79-.87,2.66-3,3-4.85a5,5,0,0,0,5.59.42,10,10,0,0,0,4.81-6.88c1.25,2.33,3,2.89,4.93,2.1S93,63.81,93.65,62a2.94,2.94,0,0,0,3.93,1.29c1.93-.79,3.47-3.16,3.77-5.92a5,5,0,0,0,6.06,1.87c4.59-1.64,6.94-8.54,7.62-17.21a8.76,8.76,0,0,0,4.1-3.22c-1,2.66-2.21,6.66-2,9.86C117.3,52.57,119.45,55.14,122.46,54.33Zm-19.54-4.46c.44-4.61,2.7-8.43,3.83-7.88.67.31.61,2.85,0,5s-1.52,4.35-3.86,3.68C102.9,50.46,102.88,50.13,102.92,49.87ZM77.33,54.05c.74.2,1,2.74.67,5.05-.28,2.1-.91,4.62-3.34,4.23,0-.25,0-.55,0-.85C74.39,57.71,76.21,53.73,77.33,54.05Zm8.8,1.29c0-.79,0-1.6,0-2.42.18-6.53.87-12.43,1.5-12.31S89.17,48.39,86.13,55.34Z"/><path class="cls-6" d="M133.14,60.9c.84-5.4,1.88-10.43,2.92-14.71a5,5,0,0,0,2,2.72c1.72,1.13,3.49,1.17,6,.43a8.56,8.56,0,0,0,5.85-5.66,6.16,6.16,0,0,0,.81,1.2c1.92,2.15,4,2,5.44,1.27,2.72-1.5,4.55-6.36,4.93-10.32a6.59,6.59,0,0,0,3.53-1.34,25.46,25.46,0,0,0-1,4.13c-.46,3.14.1,6.45,3,6.31,2.35-.1,4.07-2.81,5.19-5.11,0,2.69,1.32,4.37,4,4a5.09,5.09,0,0,0,2.61-1.32,3.74,3.74,0,0,0,1,2c.4.38.63.13.68-.29.42-4.23,3.8-11.07,5.08-14.41a8.23,8.23,0,0,0,4.63-2.13c-1.46,2.24-3.55,5.69-4.2,8.79-.73,3.52.7,6.45,3.65,6.34,2.17-.08,4.38-2.2,5.09-4.94a4.42,4.42,0,0,0,0-2.86c-.19-.35-.43-.29-.57.09-1,3.41-2.75,6.42-4.35,6.46-1.19,0-1.82-1.7-1.37-4.14s2.22-5.49,3.86-8c1.05-1.61-.09-3.55-.95-4.44-.31-.35-.63-.23-1.09.18a9.16,9.16,0,0,1-4,2.46c.78-3,.89-5.66-.37-5.51-1.51.17-4.61,5.87-2.14,7.38-1.31,2.55-3.68,7.09-4.45,9.18a8.73,8.73,0,0,0-.34,1.11c-.8,1.43-1.69,2.46-2.56,2.63-1.45.3-1.88-1.54-1.2-4.33.59-2.51,2.1-6.11,2.7-8.29.65-2.42,0-4.33-.68-5.06-.38-.37-.7-.23-1,.41-1,2.14-1.7,5.45-3.55,10.41-1.58,4.27-3.41,7.69-5,7.78-.91,0-1.25-1.54-.76-3.88a45.74,45.74,0,0,1,2.21-7.11c1.07-2.89,1-4.83-.11-6.21-.38-.36-.75-.36-1,.19-.38.84-.88,1.94-1.18,2.73-1,2.7-3,5.16-5.25,5.53a8,8,0,0,0-.05-.92c-.28-3.4-1.45-3.51-2.62-4.74s-1.77-1.42-3-1.15c-2.4.53-4.55,3.44-5.64,6.8a15.34,15.34,0,0,0-.79,6.3c-.73,3.12-2.45,6.4-6,7.44,1.3-1.37,2.31-3.85,2.86-7.08.68-4,.69-8.2-1.73-10.07-2.15-1.65-4.24.12-5.63,2.21a5.52,5.52,0,0,0-.68-2c-.32-.49-.7-.51-1,.17-1.7,4.32-5.32,20-5.57,24.65-.17,2.91.31,4.13,1.11,4.94C132.81,61.49,133.07,61.34,133.14,60.9Zm25.18-30.16A10.1,10.1,0,0,1,158.5,34a3.86,3.86,0,0,1-1.38-3C157.06,29.76,158,29.31,158.32,30.74ZM152.58,36a16.5,16.5,0,0,1,2.54-4.77,5.76,5.76,0,0,0,3.28,4.13,25.94,25.94,0,0,1-.89,3.89c-1.43,4.43-3.71,6.43-4.91,5.54S151.37,39.68,152.58,36Zm-15.26,5.19c.28-1.05.54-2,.81-2.86,1.12-3.87,3.12-6.66,4.19-6.33s1.49,4.15.71,8.09c-.94,4.72-2.83,8.57-4.36,7.68C137.33,47,136.94,44.26,137.32,41.21Z"/><path class="cls-6" d="M236,20.9a2.83,2.83,0,0,0,2.13,0c1.07-.34,3.27-1.62,4.76-2.36.42-.22.35-.5,0-.74a3,3,0,0,0-2.9-.21,29.29,29.29,0,0,0-4,2.57C235.59,20.47,235.62,20.7,236,20.9Z"/><path class="cls-6" d="M268.3,35.56c-1.53,3.32-3.81,6.21-5.52,6-1.22-.13-1.59-2-.73-4.47s3.14-5.42,5.21-7.69c1.33-1.43.45-3.7-.31-4.77-.25-.47-.63-.27-1.15.07a10.4,10.4,0,0,1-4.59,1.87c1.21-2.92,1.8-5.69.53-5.73-1.72,0-6.12,5.83-3.07,7.5C256.05,34,251.09,41,246.61,40.48c-2.08-.23-2.91-3.28-1.33-7.37,2.69,2.75,5.5,1.78,7.61-.89,1.78-2.24,2.37-4.92,1.74-6.07a7.92,7.92,0,0,0-2.26-2.5c-2-1.46-6.29.84-9.23,6.37a13.55,13.55,0,0,0-1.51,4.66c-1.86,2.79-4.68,5.73-7.76,5.49-2.17-.2-3.08-3.12-1.66-7.31,2.8,2.69,5.57,1.56,7.64-1.15,1.78-2.3,2.18-5.09,1.47-6.22A8.1,8.1,0,0,0,239,23c-2-1.38-6.24.9-9.05,6.77a13.37,13.37,0,0,0-1.3,4.57c-1.27,3.09-3.12,5.68-4.63,5.58-1.31-.07-1.79-1.86-1.09-4.4a26.28,26.28,0,0,1,4.5-8.07c1.2-1.59.14-3.73-.61-4.69-.34-.45-.78-.26-1.23.12a9.9,9.9,0,0,1-4.43,2.28c1-3,1.34-5.82.08-5.76-1.72.08-5.63,6.35-2.42,7.68-2.07,6-6.62,13.22-11.09,13.06-2.42-.1-3.34-3.81-1.17-9,1.82-4.3,4.8-7.16,5.55-6.57s-.62,2.54-1.08,4.2c-.54,2,0,3.45,1,4,.58.31.66.17.86-.48.74-2.4,2.37-4.91,1.48-6.78A5.76,5.76,0,0,0,212.08,23c-2.07-1.35-6.16,1.34-8.69,7.08-2.57,5.89-.75,11.52,4.44,11.43s9.64-6.55,12.51-14.14a9.18,9.18,0,0,0,4.93-1.78c-1.69,2.19-4.17,5.63-5,8.77-1,3.74.36,6.8,3.51,6.94,1.87.09,3.92-1.46,5.08-3.66A5.05,5.05,0,0,0,234,41.5a10,10,0,0,0,7.73-4.2,5.07,5.07,0,0,0,5,4.47c4.87.22,9.65-5.27,13.56-13a8.84,8.84,0,0,0,5-1.43c-1.9,2.09-4.57,5.33-5.63,8.35-1.26,3.65-.24,6.85,2.85,7.24,2.24.28,4.83-1.67,6-4.36a4.64,4.64,0,0,0,.4-3C268.78,35.13,268.49,35.21,268.3,35.56Zm-22.21-4.2c2.15-4.1,5.69-6.78,6.53-5.85.5.54-.51,2.88-1.94,4.67s-3.05,3.45-5,1.94C245.85,31.9,246,31.58,246.09,31.36ZM233,31.08c2-4.32,5.5-7,6.34-6.19.56.52-.4,2.89-1.76,4.79-1.23,1.72-3,3.65-4.93,2.17C232.69,31.63,232.82,31.35,233,31.08Z"/><path class="cls-6" d="M272.38,39.57A2.41,2.41,0,0,0,270,41.51a2,2,0,0,0,.44,2.21,3.46,3.46,0,0,1-1.18.62.3.3,0,0,0-.06.55c1.36.79,3.21-.36,3.92-2.09S273.36,39.72,272.38,39.57Z"/><path class="cls-6" d="M37.74,123.5c-.12-2.26-.49-3.5-1.19-4.18-.43-.41-.68-.33-.72.35a122.53,122.53,0,0,0,1.74,20,97.8,97.8,0,0,1-5.29-10c-1.31-2.55-2.53-3.75-4.39-3.91-.46,0-.6.3-.41.8a78.49,78.49,0,0,0,7,13c1.43,2,2.45,2.34,4.25,2,.46-.08.42-.46.35-.87A131.57,131.57,0,0,1,37.74,123.5Z"/><path class="cls-6" d="M38,113.16A3.12,3.12,0,0,0,39.85,116c1.2.61,2.21,0,2.26-.79a3.06,3.06,0,0,0-1.59-2.66C39.36,111.88,38.07,112.14,38,113.16Z"/><path class="cls-6" d="M53,107.94A120.79,120.79,0,0,0,53,128a97.88,97.88,0,0,1-4.42-10.44c-1.08-2.65-2.2-3.95-4-4.27-.46-.09-.63.25-.48.76a84,84,0,0,0,4.08,10.15.49.49,0,0,0-.05.36c.88,3.28.85,7.06-.59,8.22-1,.85-2.12-.55-2.9-3.28-.67-2.37-1.12-5.91-1.62-8-.57-2.43-2-3.84-2.93-4.07-.5-.14-.66.14-.63.8a60,60,0,0,0,2.36,12.12c1.3,3.72,3.67,5.64,6.18,3.8a7,7,0,0,0,2.3-6,3.5,3.5,0,0,0,3.74,1.9c.47,0,.46-.42.43-.84a127.94,127.94,0,0,1,.12-17.29c.06-2.25-.19-3.52-.83-4.26C53.35,107.21,53.09,107.27,53,107.94Z"/><path class="cls-6" d="M81.87,104.46c-.16,3.51-1.12,8.15-4.22,9.56-2,.88-4.19-1.24-5-5.6,3.75,1,5.63-1.32,6.13-4.7.45-2.87-.56-5.52-1.72-6.16a8.07,8.07,0,0,0-3.25-1c-2.43-.24-5,3.81-4.65,10.3a13.41,13.41,0,0,0,1.08,4.65c.51,3.43.26,6.75-1.13,7.47-1,.56-2.38-.73-3-3.12s-.41-5.91,0-8.87c.25-1.91-1.63-3.15-2.79-3.58-.44-.17-.67.07-.91.64a9.13,9.13,0,0,1-2.55,4c-.59-3-1.67-5.48-2.74-4.79-1.28.81-1.58,7.3,1.3,7.57-.06,2.87-.21,8,0,10.21.24,2.59,1.33,4.41,3,5,.53.16.62-.16.48-.56-1.46-4-1.42-11.62-1.72-15.18a8.23,8.23,0,0,0,3.23-4c-.33,2.66-.71,6.68.07,9.75.88,3.49,3.45,5.49,6,4.11,1.75-.94,2.77-3.42,2.51-6a5.06,5.06,0,0,0,6.32.92A10.14,10.14,0,0,0,83.2,107a4.07,4.07,0,0,0-.7-2.85C82.17,103.89,81.88,104,81.87,104.46Zm-9.42,2c-.31-4.76,1.44-8.78,2.56-8.48.74.18,1,2.72.78,5-.25,2.1-.83,4.63-3.27,4.29C72.49,107.11,72.47,106.81,72.45,106.5Z"/><path class="cls-6" d="M111.46,92.57c-.29,3.76-1.41,7.62-3.18,8.14s-3-2.07-2.86-5.68c.2-4.16.93-9.15,1.42-12.58a10.72,10.72,0,0,1,3-1.23c.58-.2.63-.56.18-1a2.52,2.52,0,0,0-2.86-.46c.14-2.59-.36-4-1.21-5.09-.37-.45-.78-.36-.93.33a60.64,60.64,0,0,0-1,6.41,20.84,20.84,0,0,1-3.15,1.3c-.59.16-.72.54-.12,1a3.22,3.22,0,0,0,2.91.25c-.47,4-.81,8.23-.87,10.69,0,.27,0,.53,0,.79a.43.43,0,0,0,0,.16c-.5,3.48-1.89,8-5.11,9.11-2.06.69-4.06-1.63-4.43-6,3.64,1.35,5.73-.78,6.56-4.09.71-2.82,0-5.55-1.13-6.29A8,8,0,0,0,95.41,87C93,86.53,90,90.31,89.8,96.81s3.58,11.15,8.37,9.11a9.91,9.91,0,0,0,5.36-6.69c1.1,2.37,3.08,3.31,4.81,2.77,3.14-1,4.35-5.66,4.41-7.1a4.23,4.23,0,0,0-.48-2.61C111.91,91.74,111.51,92,111.46,92.57Zm-18.37,4.2c.15-4.78,2.26-8.61,3.35-8.21.72.26.78,2.81.3,5.09-.45,2.07-1.26,4.53-3.66,4C93.07,97.37,93.08,97.07,93.09,96.77Z"/><path class="cls-6" d="M233.71,75.84c-1.16,3.46-3.1,6.59-4.83,6.58-1.22,0-1.8-1.81-1.22-4.37s2.53-5.73,4.34-8.21c1.15-1.57,0-3.73-.83-4.7-.31-.45-.67-.2-1.14.19a10.26,10.26,0,0,1-4.36,2.36c.88-3,1.17-5.85-.1-5.75-1.71.17-5.44,6.47-2.22,7.79-2,5.94-6.15,13.41-10.66,13.38-2.09,0-3.25-2.93-2.13-7.17,3,2.44,5.66,1.16,7.46-1.73,1.53-2.41,1.81-5.14,1.07-6.22a8,8,0,0,0-2.52-2.23c-2.11-1.24-6.16,1.53-8.48,7.34a13.4,13.4,0,0,0-1,4.52,21,21,0,0,1-6.52,7c1.37-4.58,3.51-10.33,4.51-13.18.85-2.33.37-4.27-.31-5-.32-.39-.72-.31-1,.35-.34.82-.73,1.68-1.15,2.63-.08-1.61-1-3-2.64-2.84-2.08.17-5.23,2.49-8,8.06a15.08,15.08,0,0,0-1.55,5.19c-1.12,2.81-2.73,5.34-4.16,5.57s-1.55-1.73-.8-4.4,2.39-6.18,3.07-8.33c.73-2.39.2-4.32-.5-5.08-.33-.38-.64-.26-.95.38s-.75,1.79-1.17,2.94c-.1-1.79-1.08-3.21-2.83-3-2,.22-5,2.62-7.76,8.36a15.09,15.09,0,0,0-1.44,5.25c-1.09,3-2.71,5.67-4.29,5.79s-2.54-2.64-1.63-6.14c1-4,2.78-8.76,4-12a11,11,0,0,1,3.14-.59c.61-.08.73-.42.38-.93a2.5,2.5,0,0,0-2.7-1c.67-2.5.47-4-.14-5.23-.28-.52-.69-.51-1,.13a61.66,61.66,0,0,0-2.35,6.06,21.41,21.41,0,0,1-3.34.62c-.62,0-.82.38-.33,1a3.21,3.21,0,0,0,2.79.84c-1.27,3.83-2.48,7.88-3,10.27q-.09.42-.15.81a.43.43,0,0,0-.05.12c-.71,3.63-2.21,7-3.92,7.12-1.27.13-2-1.56-1.76-4.17.25-2.38,1.76-5.91,3.23-8.69.9-1.74-.43-3.66-1.36-4.48-.44-.39-.71-.25-1.19.3a9.76,9.76,0,0,1-4.11,2.91c.3-3.28.24-6-1-5.72-1.59.42-4.36,7.25-.86,8-.74,7-3.41,13.19-5.95,13.91-1.22.35-1.67-1.3-1.15-4,.48-2.46,2-6.37,2.46-8.55.5-2.42-.11-4.27-.9-5-.39-.35-.69-.16-.92.44s-.57,1.5-1,2.74c-.27-1.59-1.32-2.85-2.9-2.58-2.06.35-4.88,3-7.21,8.76a15.25,15.25,0,0,0-1,3.93.66.66,0,0,0-.17.42c-.54,3.35-2.14,7.15-6,8.37,1.26-1.39,2.21-3.9,2.68-7.14.58-4,.48-8.21-2-10C128,76,126,77.86,124.66,80a5.68,5.68,0,0,0-.73-2c-.33-.48-.71-.48-1,.19-1.59,4.37-4.81,20.17-4.95,24.79-.09,2.91.42,4.12,1.24,4.91.34.34.6.19.66-.25.7-5.43,1.61-10.49,2.54-14.78a5.1,5.1,0,0,0,2.09,2.66c1.74,1.09,3.51,1.09,6,.29a8.59,8.59,0,0,0,5.56-5.29c.68,1.78,2,2.82,3.68,2.53,2-.34,3.49-2.43,4.46-4.51.35,2.32,1.84,3.7,4,3.13,4.25-1.11,6.7-8.58,7.57-15.31a9.29,9.29,0,0,0,4.47-2.5c-1.36,2.47-3.24,6.25-3.53,9.38-.34,3.8,1.41,6.72,4.5,6.32,1.76-.23,3.38-1.77,4.28-3.82a3.85,3.85,0,0,0,3.84,2.76c2.15-.19,3.82-2.14,4.81-3.85.55,1.82,1.78,2.94,3.52,2.75,1.95-.2,3.6-2.09,4.71-4.1.22,2.15,1.52,3.49,3.73,3.39,1.71-.07,3.45-1.7,4.53-3.63.52,1.73,1.68,2.79,3.36,2.66A5.83,5.83,0,0,0,198,83.14c-.33,1.08-.61,2.21-.94,3.26-3.9,2-7.19,5.13-8.06,9.35a6.34,6.34,0,0,0,1.27,5.62c.83,1.14,1.65,1.21,2.44.78,3.19-1.73,5.52-9.25,7.28-15.57,3.21-1.6,5.95-3.62,7.35-6.44a5.13,5.13,0,0,0,5.56,4.25c4.86-.31,9-6.3,12-14.45a8.83,8.83,0,0,0,4.83-2c-1.66,2.29-3.95,5.8-4.67,8.92-.85,3.77.51,6.84,3.63,6.88,2.26,0,4.61-2.19,5.51-5a4.65,4.65,0,0,0,.07-3C234.13,75.36,233.85,75.47,233.71,75.84Zm-22.54-1.73c1.69-4.31,4.91-7.36,5.85-6.53.55.48-.2,2.91-1.42,4.86-1.15,1.8-2.65,3.76-4.72,2.47C211,74.67,211.06,74.35,211.17,74.11ZM125.1,94.42c-1.36-.76-1.82-3.49-1.51-6.55.25-1.05.49-2,.73-2.88,1-3.89,3-6.73,4-6.43s1.59,4.11.91,8.07C128.45,91.38,126.66,95.27,125.1,94.42Zm19.47-10.71c-1.35,4.43-3,7.56-4.6,7.79s-1.82-3.79-.31-8.07,4-7.78,5.24-7.9S146.21,78.33,144.57,83.71Zm38.58-5.36c-1.65,4.24-3.45,7.4-5.13,7.53s-1.49-4,.25-8.12c1.81-4.31,4.47-7.6,5.78-7.6S185.18,73,183.15,78.35ZM191,99.7c-.78-1,.52-7.47,5.56-11.37C194.42,95.51,191.57,100.53,191,99.7ZM199.66,77c-1.76,4.2-3.62,7.26-5.21,7.33s-1.51-4,.39-8.1,4.68-7.34,5.95-7.34S201.84,71.72,199.66,77Z"/></g></g></svg>