<?xml version="1.0" encoding="utf-8"?>
<!-- Generator: Adobe Illustrator 25.2.0, SVG Export Plug-In . SVG Version: 6.00 Build 0)  -->
<svg version="1.1" id="Calque_1" xmlns="http://www.w3.org/2000/svg" xmlns:xlink="http://www.w3.org/1999/xlink" x="0px" y="0px"
	 viewBox="0 0 175.8 46.3" style="enable-background:new 0 0 175.8 46.3;" xml:space="preserve">
<style type="text/css">
	.st0{fill:#82B657;}
	.st1{fill:#ACDB52;}
	.st2{fill:#A1CE57;}
	.st3{fill:#4A0D17;}
	.st4{fill:#400F18;}
	.st5{fill:#BE1F1F;}
	.st6{fill:#A91F1F;}
	.st7{fill:#3FA4A4;}
	.st8{fill:#EAD015;}
	.st9{fill:#FF9517;}
	.st10{fill:#FF646B;}
	.st11{fill:#DA0B00;}
	.st12{fill:#EDB720;}
</style>
<g id="Groupe_507" transform="translate(-539.038 -72.998)">
	<rect id="Rectangle_1151" x="633.2" y="80.5" class="st0" width="1.4" height="23.6"/>
</g>
<g>
	<g>
		<path class="st0" d="M125.5,37.2c-0.4,0.2-0.9,0.2-1.2,0.6c0.5,0.1,1,0,1.5,0.2c0.4,0.2,0.7,0.4,1.2,0.3c-0.6,0.2-1.3,0.2-1.9,0.7
			c0.2,0.2,0.4,0.2,0.7,0.2c0,0.1-0.1,0.1-0.1,0.2c0.1,0,0.2,0.2,0.3,0.2c0,0,0,0.1,0,0.1l0,0l0,0.1c0.5,0.3,1.1,0.3,1.6,0.3
			c1.2-0.1,1.6,1.7,2.8,1.4c0.7-0.2,1.3,0.1,2,0.5c0.6,0.3,1.3,0.7,2,0.6c2.7-0.4,5.3-1.2,7.8-0.4c2.4,0.8,3.2,1.9,5.3,1.4
			c2.1-0.5-1-2.2,1.5-2.3c6.3-0.3,11.2-2.2,12.9-3.7c1.2-1,4-2.8,4.3-4.5c-1.1,1.5-2.8,2.5-4.4,3.2c2.9-2.6,5.9-5.3,7.7-8.6
			c-1.9,2.9-4.5,5.5-7.5,7.2c-3,1.7-7.1,3.9-11.8,2.6c5.2-0.1,9.3-1.6,12.7-4c3.4-2.4,6.3-5.6,7.1-9.3c0.1-0.5,0.2-1.2,0.1-1.8
			c-0.3,3.9-2.9,7.2-6.2,9.6c-3.3,2.4-6.8,3.2-13.3,2.8c-3.8-0.2-9.4-3.2-9.4-3.2c-4.2-0.3-12,4.2-16.3,5.3
			C125.4,37.1,125.4,37.2,125.5,37.2z"/>
		<path class="st1" d="M137,35.5c-8-4.7,5.5,1.3,12.4-3.3c-1.7,1.1-3-2.1-3.9-3c-4.4-1.6-4,3.1-8.3,1.9c-1-0.3-1.7-0.6-2.9-1
			c-1.8-0.5-3.9-1-5.2-0.9c-2.6,0.1-3.4,0.9-4.8,3.9c1.3,0.9,2.9,0.9,4.2,2c-0.6,0.4-1.2,0.9-1.9,1c0.6,0.3,1.2,0.8,1.7,0.7
			L137,35.5z"/>
		<path class="st2" d="M110.9,32.6l-0.1,0.1C110.8,32.6,110.8,32.6,110.9,32.6z"/>
		<g>
			<path class="st2" d="M107.6,29.6c0.1,0.2-0.2,0.1-0.2,0.1c0.1,0.1,0.2-0.1,0.2,0.1c0,0.1-0.2,0.1-0.2,0.1l0,0
				c0.1,0.1,0.4,0,0.5,0.2c-0.1,0-0.1,0.1-0.1,0.1c0.2,0,0.3,0.2,0.4,0.2l-0.1,0.1c0.1,0,0.3,0,0.5,0c-0.1,0.2,0.3,0,0.2,0.2
				c0.1-0.1,0.2-0.2,0.3-0.1c0.2-0.1,0.4-0.3,0.4-0.5c0.1-0.1,0-0.2-0.1-0.3l0,0c0-0.1-0.1-0.1,0-0.2c-0.1,0-0.2-0.1-0.2-0.2
				c0-0.1-0.1-0.2-0.2-0.2c0,0,0-0.1,0-0.1c-0.1,0-0.1,0-0.1-0.1c-0.2-0.1-0.5-0.1-0.7-0.3l0.1,0l0,0.1l-0.2-0.2
				c0,0.1,0.2,0.2,0.1,0.3c-0.1,0.1-0.2,0-0.2,0L108,29c-0.1,0.1-0.2-0.1-0.3,0c0.1,0.2,0,0.2-0.1,0.3l-0.3,0
				C107.4,29.4,107.5,29.5,107.6,29.6z"/>
			<path class="st2" d="M116.2,36.7L116.2,36.7c0,0,0.1,0.1,0.1,0.2c0,0-0.1,0.1-0.1,0l0,0c0,0,0.2,0,0.1,0.1l0,0
				c0.2,0,0.3,0.2,0.5,0.2c0.2,0.2,0.4,0,0.5,0c0-0.1,0.1-0.1,0.1-0.2l0-0.5c-0.1-0.1-0.1-0.1-0.2-0.2c0.1-0.1,0.3-0.2,0.3-0.3
				c0.1-0.2-0.2-0.3-0.2-0.5c-0.1,0.1-0.2,0-0.3-0.1l-0.1-0.1c0.1,0.2-0.2,0.1-0.3,0.2l-0.1,0c0,0,0.1,0,0.1,0.1l-0.2,0
				c0,0,0.1,0,0.1,0.1l-0.1,0.1c0,0,0.1,0,0.1,0.1c0,0,0,0.1-0.1,0.1l0.1,0.1c-0.1,0.1-0.1,0.1-0.1,0.2l-0.3,0l0.1,0.1
				c0,0-0.1,0.1-0.1,0l0,0l0,0.1l-0.2,0C116.1,36.6,116.3,36.6,116.2,36.7z"/>
			<path class="st2" d="M106,28.4L106,28.4c0,0.1,0.3,0,0.3,0.1c0.6-0.1-0.1-0.9,0.8-0.9c0-0.4,0.4-0.6,0.1-0.9
				c-0.3-0.2-0.7-0.2-0.9,0l-0.4,0.2c0.1,0,0,0.1,0,0.2l-0.1,0.1c0.3,0.1-0.1,0.3,0,0.5l0,0c0.2,0.2-0.1,0.3,0,0.6l-0.1,0.1
				C105.7,28.5,105.9,28.4,106,28.4z"/>
			<path class="st2" d="M108.2,35c-0.1,0,0.1,0,0,0.1c0.1,0,0.1,0.1,0.2,0.2l0,0c0.2-0.1,0.1,0.3,0.4,0.1c0.1,0.2,0.2-0.1,0.3-0.1
				c0.2-0.2,0.2-0.3,0.1-0.5c-0.1-0.2-0.1-0.1-0.2-0.2l-0.1-0.1c-0.1,0.2-0.1-0.2-0.2,0c-0.1,0-0.1-0.1-0.2-0.1c0,0,0,0.1,0,0.1
				c-0.1,0.1-0.1,0-0.2,0l0,0.1l-0.1,0.1c0,0,0,0,0,0.1l-0.1,0C108.1,34.9,108.3,34.9,108.2,35z"/>
			<path class="st2" d="M112.4,24.3c0.1,0,0.3-0.1,0.2-0.3c-0.1-0.1-0.2-0.1-0.3-0.1C112.2,24,112.2,24.3,112.4,24.3z"/>
			<path class="st2" d="M118.9,26.7c0.1,0.1,0.1,0.1,0,0.2l0,0c0,0,0.1,0,0.1,0c0.1,0,0,0.2,0.1,0.1c0.1,0.1,0,0.1-0.1,0.2
				c0.1,0,0.1-0.1,0.3-0.1c0.1,0.3,0.3,0,0.5,0.1c0,0,0.1,0,0.2-0.1c0,0,0.1,0,0.1,0.1c0.1,0,0.2-0.3,0.3-0.3c0.1,0,0.1-0.1,0.1-0.2
				c0,0,0-0.1,0.1-0.1c-0.2-0.1,0.2-0.2,0-0.2c0-0.1,0.1-0.1,0.1-0.1c-0.1,0-0.1,0-0.2,0c0.2-0.2-0.1-0.2-0.1-0.4
				c0,0.1-0.1,0-0.1-0.1l0-0.1c-0.1,0.1-0.2-0.1-0.3-0.1c-0.1-0.1-0.3,0.2-0.4-0.1c-0.1-0.1-0.1,0.3-0.3,0.1l-0.1-0.1
				c-0.1,0.1,0.1,0.1,0,0.2c-0.1,0-0.1-0.1-0.2-0.1c0,0,0.2,0.3,0,0.3l-0.2-0.1c0,0.1,0.1,0.1,0.1,0.2c0,0.1-0.2-0.1-0.2,0
				c0.1,0,0.1,0.1,0.1,0.1l-0.2,0.1C118.8,26.5,118.7,26.7,118.9,26.7z"/>
			<path class="st2" d="M122.5,27.7c0,0.1,0,0.1,0,0.2c0.1,0.1,0.3,0.1,0.4,0.2c0.2-0.1,0.3-0.2,0.3-0.4c0.1-0.1-0.1-0.1,0-0.2
				c-0.1,0-0.2-0.1-0.1-0.2c0,0.1-0.2,0-0.2,0l0,0c0,0-0.1,0.1-0.1,0c0-0.1-0.1,0-0.2,0c0,0,0,0.1,0,0.1c0,0-0.1,0-0.1,0l0,0l0.1,0
				l-0.1,0.1l0,0.1L122.5,27.7L122.5,27.7z"/>
			<path class="st2" d="M124.6,29.2c0,0,0.2,0,0.2,0.2c0,0,0.1,0,0.1,0.1l0,0.1c0-0.1,0.1,0,0.1,0c0,0,0,0.1,0,0.1
				c0,0,0.1,0,0.1-0.1l0.1,0.1c0,0,0,0,0.1-0.1c0.2,0.1,0.2-0.1,0.3-0.1c0.1,0,0-0.2,0.2-0.2c-0.2-0.2,0.1-0.3-0.1-0.6
				c0,0-0.1,0-0.1,0c-0.1,0,0-0.1,0-0.2c-0.1,0-0.1,0-0.1,0.1c0-0.2-0.3-0.1-0.4-0.2c0,0.1-0.1,0-0.2,0.1l0-0.1l0,0.1
				c-0.1,0-0.1,0-0.2-0.1c-0.1,0.1,0,0.3-0.2,0.3c0.1,0,0,0.1,0,0.2C124.5,28.8,124.8,29.1,124.6,29.2z"/>
			<path class="st2" d="M111.4,37.3c0.1,0,0.3,0.1,0.3-0.1c0-0.1,0-0.4-0.2-0.3l-0.1-0.1l-0.1,0.1c0.1,0.1-0.1,0.2,0,0.3
				C111.3,37.2,111.4,37.2,111.4,37.3z"/>
			<path class="st2" d="M112,37l0.1,0.1L112,37z"/>
			<polygon class="st2" points="112.5,37.2 112.3,37.1 112.3,37.1 112.2,37.1 112.2,37.1 			"/>
			<path class="st2" d="M112.8,37.4C112.7,37.4,112.7,37.4,112.8,37.4C112.8,37.5,112.8,37.5,112.8,37.4l-0.1,0.1
				c0.1,0,0.1,0.1,0.2,0.2l0,0c0.2,0.2,0.4,0.2,0.6,0.1c0.1-0.1,0.3-0.2,0.4-0.2c0.1-0.1-0.1-0.1,0-0.1c0.1-0.1,0.1-0.2,0.2-0.4
				c-0.2-0.1-0.1-0.2-0.1-0.4c0-0.1-0.2-0.1-0.1-0.2l-0.1,0.1c-0.1-0.1,0-0.2,0-0.2l-0.1,0.1c-0.1-0.1-0.3-0.1-0.3-0.2
				c-0.1,0.2-0.3-0.1-0.4-0.2c-0.1,0.1,0.2,0.3,0,0.4c0,0,0-0.1-0.1-0.1c-0.1,0.1,0.2,0.2,0,0.3l-0.2-0.2
				C112.7,37,112.9,37.1,112.8,37.4z"/>
			<path class="st2" d="M112.6,37.2l0.1,0.1L112.6,37.2z"/>
			<polygon class="st2" points="113.7,36.2 113.7,36.1 113.7,36.2 			"/>
		</g>
	</g>
	<g>
		<g>
			<path class="st3" d="M169.8,11.3c0.1,0,0.2,0.1,0.3,0.1c0.4,0.2,0.9,0.4,1.4,0.4c1,0,2.1-1,2.4-1.9c0.1-0.3,0.2-0.6,0.2-0.8
				c0-0.2-0.1-0.3-0.3-0.4c-0.3-0.1-0.5,0.2-0.6,0.5c-0.1,0.3,0,0.7,0,1c-0.1,0.5-0.6,0.9-1,1c-0.4,0.1-0.9,0-1.3-0.1
				c-0.4-0.1-0.8-0.3-1.2-0.6c-0.1-0.4-0.2-0.8-0.4-1.2c0.2-0.5,0-1.3-0.5-1.9l0,0c0,0,0,0,0,0c0,0,0,0,0,0l0,0
				c-0.6-0.6-1.4-0.8-1.9-0.6c-0.4-0.2-0.8-0.3-1.2-0.4c-0.2-0.4-0.4-0.8-0.5-1.2c-0.1-0.4-0.2-0.9-0.1-1.3s0.6-0.9,1.1-1
				c0.3-0.1,0.7,0.1,1,0c0.3,0,0.6-0.3,0.6-0.6c0-0.1-0.1-0.2-0.4-0.3c-0.2,0-0.5,0-0.8,0.1c-1,0.3-2,1.3-2,2.3c0,0.5,0.2,1,0.4,1.4
				c0,0.1,0.1,0.2,0.1,0.3c-0.8-0.1-1.7-0.1-2.5,0.1c1.4,0.9,3.3,2.4,4.4,4.3c0.8,1.8,1.1,2.9,1.9,4.4
				C169.6,13.7,169.9,12.1,169.8,11.3z"/>
		</g>
		<path class="st4" d="M154.5,24.1c-8.8,4.4-14.3,4.6-14.3,4.6c1.9,3.1,7.6,7.5,18.2,2c4.2-2.1,10.7-8.7,7.9-16.2
			C166.3,14.4,161.9,20.3,154.5,24.1z"/>
		<path class="st5" d="M156.3,22.3c-8.5,5.9-15.7,7.8-15.7,7.8c2.5,2.9,10.5,7.1,20.8-0.2c4-2.8,9.8-10.6,5.7-17.9
			C167.1,12,163.5,17.4,156.3,22.3z"/>
		<g>
			<path class="st6" d="M156.3,22.3c-7.8,6.7-13.7,9.1-13.7,9.1c2.8,2.6,12.1,6.8,21.5-1.6c3.7-3.2,7.8-12.8,2.4-19.8
				C166.6,10.1,162.9,16.6,156.3,22.3z"/>
			<g>
				<path class="st7" d="M154,34.5c-0.3-0.1-0.2-0.3-0.3-0.5c0.1,0,0.2-0.1,0.3-0.1c0-0.2-0.2-0.1-0.3-0.2c-0.2-0.2,0.2-0.3,0.1-0.4
					c-0.2,0-0.5-0.2-0.7-0.4c0-0.2,0-0.3,0.1-0.5c-0.1-0.1-0.2,0-0.3-0.1c0-0.2,0.2-0.3,0-0.5c-0.3,0.2-0.4-0.1-0.6-0.1
					c-0.2,0,0.1-0.5-0.1-0.4c-0.2,0,0,0.3-0.2,0.3c-0.1,0.1-0.3,0-0.4,0l0-0.3c-0.3,0.2-0.7,0.4-1.1,0.4c0-0.1,0-0.3-0.1-0.3
					c-0.1,0.1,0,0.2-0.1,0.3c-0.5,0-0.4,0.7-0.8,0.5c-0.2,0.1,0.1,0.2,0,0.3c-0.1,0.3-0.2,0-0.4,0.1c0,0.1,0.1,0.1,0.2,0.2
					c0,0.4-0.4,0.2-0.5,0.3c0,0.1,0.3,0,0.3,0.2c-0.2,0.2-0.1,0.5-0.4,0.7c0.3,0,0.2,0.2,0.4,0.4c-0.1,0-0.1,0.1-0.2,0.1
					c0,0.1,0.1,0.1,0.2,0.1c0,0,0,0.1,0,0.1c2,0.3,3.1,0.1,4.8,0C153.7,34.7,153.8,34.6,154,34.5z"/>
			</g>
			<path class="st8" d="M160.5,23.9c-0.4-0.2,0.2-0.4,0.1-0.6c-0.2,0-0.2,0.4-0.5,0.3c0-0.2,0.1-0.5,0.3-0.6l0,0
				c-0.4,0.1-0.7,0.8-1.3,0.5c0.1-0.1,0-0.4-0.2-0.3c-0.4,0.3-0.8,0.2-1.2,0.4l0-0.2c-0.4,0.2-0.6,0.6-1,0.9
				c-0.1-0.6-0.6,0.5-0.8,0.1c0.1,0.4,0,0.8-0.3,0.7c-0.1,0.6-0.2,1.4,0.3,1.8c0.1,0.4,0.4,0.2,0.7,0.5l0-0.1c0.1,0.1,0.4,0,0.4,0.3
				c0.2-0.1,0.5-0.2,0.7-0.1c0.2,0.2,0.6,0.2,0.7,0c0.1,0,0.1,0.1,0.2,0.1c0.1-0.1,0.2-0.2,0.4-0.1c0.6-0.3,1.1-0.7,1.9-0.8
				l-0.2,0.1l-0.1-0.2l0.7,0c-0.2-0.1-0.7,0-0.7-0.3c0-0.3,0.3-0.3,0.5-0.4l-0.3,0c0-0.3,0.5-0.3,0.6-0.7c-0.5,0-0.5-0.4-0.4-0.8
				l0.5-0.5C161.2,23.9,160.8,24,160.5,23.9z"/>
			<path class="st9" d="M167.2,15.8c0,0,0-0.1,0.1-0.1C167.2,15.6,167.1,15.7,167.2,15.8c-0.2-0.1-0.1-0.3-0.1-0.3
				c-0.1,0-0.2,0.1-0.4,0.1c0-0.1-0.1-0.1-0.1-0.2c-0.1,0-0.1,0.1-0.1,0.1c0-0.1,0-0.2-0.1-0.2c-0.1,0.1-0.2,0.1-0.3,0.1
				c-0.1,0.1-0.1-0.2-0.1-0.1c-0.1,0.1,0.1,0.1,0,0.2c0,0.1-0.1,0.1-0.2,0.1l-0.1-0.1c-0.1,0.1-0.1,0.3-0.3,0.4c0,0-0.1-0.1-0.1-0.1
				c0,0.1,0.1,0.1,0.1,0.2c-0.2,0.1,0,0.4-0.2,0.4c-0.1,0.1,0.1,0.1,0.1,0.1c0,0.1-0.1,0.1-0.1,0.1c0,0,0.1,0,0.1,0
				c0.1,0.1-0.1,0.2-0.1,0.2c0.1,0,0.1-0.1,0.2,0c0,0.1,0.1,0.2,0,0.4c0.1-0.1,0.2,0,0.2,0c0,0,0,0.1,0,0.1c0,0.1,0.1,0,0.1,0
				c0,0.1,0,0.1,0,0.2c0.1,0,0.1,0,0.2,0c0,0.1,0,0.2,0.1,0.2c0.1-0.1,0.2,0,0.3,0c0.1,0,0,0.2,0.1,0.2c0.1-0.1,0-0.1,0-0.2
				c0.1-0.1,0.2,0,0.2-0.1l0.1,0.1c0.1-0.1,0.2-0.3,0.4-0.4c0,0,0,0.1,0.1,0.1c0-0.1,0-0.1,0-0.2c0.2-0.1,0.1-0.4,0.3-0.4
				c0.1-0.1-0.1-0.1-0.1-0.1c0-0.1,0.1,0,0.2-0.1c0,0-0.1,0-0.1-0.1c-0.1-0.2,0.1-0.1,0.2-0.2c0-0.1-0.1,0-0.2,0
				c0.1-0.1-0.1-0.3,0.1-0.4C167.3,16,167.2,15.8,167.2,15.8z"/>
		</g>
		<g>
			<path class="st10" d="M168.1,23.5c0-0.1-0.1,0-0.1,0c-0.1-0.1,0-0.1,0-0.2c0,0-0.1,0.1-0.1,0.1c-0.2,0-0.1-0.2-0.1-0.3
				c-0.1,0,0,0.2-0.1,0.1c-0.1-0.1-0.3-0.1-0.3-0.3c0,0.1-0.1,0.1-0.2,0.2c0,0-0.1-0.1-0.1-0.1c-0.1,0,0,0.1-0.1,0.2
				c-0.1,0.1-0.2-0.1-0.2-0.1c0,0.1-0.1,0.2-0.1,0.3c-0.1,0-0.2-0.1-0.2-0.2c-0.1,0-0.1,0.1-0.1,0.2c-0.1,0-0.2-0.2-0.3-0.1
				c0,0.2-0.1,0.2-0.2,0.3c-0.1,0.1-0.2-0.2-0.2-0.1c0,0.1,0.1,0.1,0.1,0.2c0,0.1-0.1,0.2-0.1,0.2l-0.2-0.1c0,0.2,0.1,0.5,0,0.7
				c-0.1,0-0.1-0.1-0.2,0c0,0.1,0.1,0.1,0.2,0.1c-0.1,0.3,0.3,0.4,0.1,0.6c0,0.1,0.1,0,0.2,0.1c0.1,0.1-0.1,0.1-0.1,0.2
				c0.1,0,0.1,0,0.2,0c0.2,0.1,0,0.2,0,0.3c0.1,0,0.1-0.2,0.2-0.1c0.1,0.2,0.3,0.2,0.3,0.4c0.1-0.1,0.2-0.1,0.3-0.1c0,0,0,0.1,0,0.1
				c0.1,0,0.1-0.1,0.1-0.1c0,0,0.1,0,0.2,0c0,0,0,0.1,0.1,0.1c0,0,0,0,0,0c0,0,0.1,0,0.1,0c0.4-0.8,0.8-1.6,1.1-2.4
				C168,23.6,168,23.6,168.1,23.5z"/>
		</g>
		<path class="st4" d="M157.1,21.8c-1.2,0.9-2.5,1.8-3.8,2.7c-0.3,0.2-0.6,0.4-1,0.6l-1,0.6c-0.3,0.2-0.7,0.4-1,0.6
			c-0.3,0.2-0.7,0.4-1,0.6c-1.4,0.7-2.7,1.4-4.1,2c-1.4,0.6-2.8,1.2-4.3,1.6l0.1-0.4c0.8,0.7,1.6,1.3,2.5,1.8c0.9,0.6,1.8,1,2.7,1.5
			c1.9,0.8,3.9,1.4,6,1.5c2.1,0.2,4.2-0.1,6.1-0.7c1-0.3,2-0.7,2.9-1.2c0.9-0.5,1.8-1,2.7-1.6c-1.6,1.3-3.5,2.4-5.5,3.1
			c-2,0.7-4.1,1-6.2,0.9c-2.1-0.1-4.2-0.7-6.1-1.5c-1.9-0.8-3.8-2-5.4-3.4l-0.3-0.3l0.4-0.1c1.5-0.4,2.9-1,4.3-1.6
			c1.4-0.6,2.8-1.2,4.2-1.9c1.4-0.7,2.7-1.4,4-2.2c0.7-0.4,1.3-0.8,2-1.2C155.8,22.7,156.4,22.2,157.1,21.8z"/>
	</g>
	<g>
		<path class="st11" d="M142.7,4.1l-0.5,0.2L142.7,4.1z"/>
		<polygon class="st11" points="141.1,4.9 141.8,4.6 141.8,4.5 142,4.4 141.8,4.3 		"/>
		<path class="st11" d="M140.8,5l-0.4,0.1L140.8,5z"/>
	</g>
	<g>
		<path class="st6" d="M121.2,17.2c0.2-0.5,0.2-0.9,0.1-1.2c0-0.1-0.1-0.1-0.2,0c-0.2,0.2-0.4,0.7-0.7,1.3c-0.3,0-0.5,0.1-0.8,0
			c-0.1,0-0.2,0.1-0.1,0.2c0.1,0.1,0.3,0.3,0.6,0.3c-0.4,0.8-0.8,1.7-1,2.2c0,0.1-0.1,0.3-0.1,0.4c-0.4,0.6-1.1,1.4-1.8,1.3
			c-0.5,0-0.7-0.7-0.4-1.6c0.7,0.6,1.3,0.3,1.8-0.3c0.4-0.5,0.5-1.2,0.3-1.4c-0.2-0.2-0.3-0.4-0.6-0.5c-0.5-0.3-1.4,0.2-2.1,1.6
			c-0.6,1.3-0.2,2.6,1,2.6c0.7,0,1.3-0.4,1.7-0.9c0.1,0.6,0.4,0.9,0.8,0.9c0.8,0,1.4-0.9,1.5-1.2c0.1-0.2,0.1-0.4,0.1-0.6
			c0-0.1-0.1-0.1-0.2,0c-0.4,0.8-0.9,1.5-1.3,1.5c-0.4,0-0.5-0.7-0.2-1.4c0.4-0.9,0.9-1.9,1.3-2.6c0.2,0,0.5-0.1,0.7,0
			c0.1,0,0.2-0.1,0.1-0.2C121.7,17.3,121.6,17.1,121.2,17.2z M116.9,19.6c0.4-1,1.2-1.6,1.4-1.4c0.1,0.1-0.1,0.7-0.4,1.1
			c-0.3,0.4-0.7,0.8-1.1,0.5C116.9,19.8,116.9,19.7,116.9,19.6z"/>
		<path class="st6" d="M151.9,17.8c0.1-0.1,0.2-0.4,0.1-0.7c-0.1-0.3-0.4-0.4-0.6-0.2c-0.2,0.2-0.2,0.5,0,0.8
			C151.5,17.9,151.8,17.9,151.9,17.8z"/>
		<path class="st6" d="M155,20.3c0-0.1-0.1-0.1-0.2,0c-0.4,0.7-1.1,1.5-1.9,1.5c-0.5,0-0.7-0.7-0.4-1.6c0.7,0.6,1.3,0.3,1.8-0.3
			c0.4-0.5,0.5-1.2,0.3-1.4c-0.2-0.2-0.3-0.4-0.6-0.5c-0.5-0.3-1.4,0.2-2.1,1.6c-0.1,0.3-0.2,0.6-0.3,0.9c-0.3,0.7-0.8,1.4-1.2,1.4
			c-0.3,0-0.3-0.4-0.1-1c0.2-0.5,0.6-1.2,0.8-1.7c0.2-0.5,0.2-1,0-1.1c-0.1-0.1-0.1-0.1-0.2,0.1c-0.3,0.5-0.9,1.7-1.2,2.5
			c-0.3,0.7-0.8,1.3-1.1,1.3c-0.3,0-0.4-0.5-0.2-1.1c0.2-0.5,0.7-1.3,0.9-1.8c0.2-0.5-0.1-1-0.4-1.1c-0.3-0.1-1,0.5-1.4,1
			c0.1-0.4,0.1-0.7,0-1c-0.1-0.1-0.1-0.1-0.2,0c-0.6,0.9-1.2,2.2-1.5,2.9c-0.3,0.4-0.8,0.8-1.4,1.1c0.4-1,1-2.3,1.3-2.9
			c0.2-0.5,0.2-1,0-1.1c-0.1-0.1-0.2-0.1-0.2,0.1c-0.1,0.2-0.2,0.4-0.3,0.6c0-0.4-0.2-0.7-0.6-0.7c-0.5,0-1.3,0.5-2,1.7
			c-0.3,0.4-0.4,0.8-0.5,1.2c-0.3,0.6-0.7,1.1-1.1,1.1c-0.3,0-0.3-0.4-0.1-1c0.2-0.5,0.7-1.3,0.9-1.8c0.2-0.5,0.2-1,0-1.2
			c-0.1-0.1-0.1-0.1-0.2,0.1c-0.1,0.2-0.2,0.4-0.3,0.6c0-0.4-0.2-0.7-0.6-0.7c-0.5,0-1.2,0.5-2,1.7c-0.2,0.4-0.4,0.7-0.4,1.1
			c-0.3,0.6-0.9,1.3-1.7,1.3c0.4-0.2,0.7-0.7,1-1.4c0.4-0.9,0.6-1.8,0.1-2.3c-0.4-0.5-1-0.2-1.4,0.2c0-0.2,0-0.3-0.1-0.5
			c0-0.1-0.1-0.1-0.2,0c-0.4,0.5-1,1.9-1.6,3.1c-0.3,0.5-0.6,0.8-0.8,0.8c-0.4,0-0.5-0.5-0.2-1.1c0.2-0.5,0.7-1.2,0.9-1.7
			c0.2-0.5,0.1-1.1-0.2-1.1c-0.3,0-0.9,0.5-1.4,0.9c0.1-0.5,0-1-0.4-1c-0.3,0-1,0.6-1.5,1.1c0.1-0.4,0.2-0.8,0-1.1
			c-0.1-0.1-0.2-0.1-0.2,0c-0.5,0.8-1.1,1.6-1.7,1.6c0-0.1,0-0.1,0-0.2c0.1-0.8-0.2-0.8-0.5-1.1c-0.2-0.3-0.3-0.4-0.6-0.4
			c-0.6,0-1.2,0.7-1.5,1.3c-0.2,0.4-0.4,0.9-0.4,1.3c-0.4,0.6-1,1.3-1.8,1.3c-0.6,0-0.8-0.9-0.2-2c0.4-0.9,1.1-1.6,1.3-1.5
			c0.1,0.1-0.2,0.6-0.3,0.9c-0.1,0.5,0,0.8,0.2,0.9c0.1,0.1,0.2,0,0.2-0.1c0.2-0.6,0.6-1.1,0.4-1.5c-0.1-0.2-0.3-0.4-0.5-0.6
			c-0.5-0.3-1.4,0.2-2,1.6c-0.6,1.3-0.2,2.6,1,2.6c0.7,0,1.4-0.4,1.7-1c0,0.2,0.1,0.3,0.2,0.5c0.4,0.6,0.9,0.6,1.2,0.4
			c0.7-0.2,1.3-1.3,1.5-2.2c0.3,0,0.6-0.1,0.9-0.3c-0.3,0.6-0.5,1.1-0.6,1.5c-0.2,0.5-0.1,0.9,0.1,1c0.1,0.1,0.1,0.1,0.2,0
			c0.4-1,0.8-1.9,1.4-2.6c0.6-0.7,1.1-1,1.2-1c0.2,0.1-0.8,1.5-1.1,2.4c-0.3,0.7-0.1,1.1,0,1.3c0.1,0.1,0.2,0.1,0.2-0.1
			c0.4-1,0.9-1.9,1.6-2.8c0.6-0.7,0.9-0.8,1-0.8c0.1,0.1-0.7,1.2-1,2.1c-0.3,0.8,0,1.5,0.8,1.6c0.2,0,0.4-0.1,0.5-0.2
			c-0.2,0.5-0.4,0.9-0.4,1.1c-0.2,0.6-0.1,0.9,0,1.1c0.1,0.1,0.1,0.1,0.2,0c0.5-1.2,0.9-2.2,1.4-3.1c0,0.3,0.1,0.5,0.3,0.7
			c0.3,0.3,0.7,0.4,1.3,0.4c0.6,0,1.1-0.3,1.5-0.8c0.1,0.4,0.3,0.7,0.7,0.7c0.5,0,0.9-0.4,1.2-0.8c0,0.5,0.3,0.8,0.8,0.9
			c0.4,0,0.8-0.3,1.1-0.7c0.1,0.4,0.3,0.7,0.7,0.7c0.4,0,0.7-0.2,1-0.5c-0.1,0.2-0.2,0.5-0.3,0.7c-0.9,0.4-1.8,1-2,2
			c-0.2,0.6,0,1,0.2,1.3c0.2,0.3,0.4,0.3,0.6,0.2c0.8-0.3,1.4-2,2-3.4c0.5-0.2,1-0.5,1.4-0.8c0,0.2,0.1,0.4,0.2,0.5
			c0.1,0.1,0.1,0.1,0.2,0c0.4-1,0.8-2,1.4-2.6c0.6-0.7,1.2-1,1.3-1c0.2,0.1-0.7,1.2-1,2.2c-0.3,0.9-0.1,1.5,0.7,1.5
			c0.4,0,0.8-0.3,1.1-0.7c0.1,0.4,0.3,0.6,0.7,0.6c0.5,0,1-0.4,1.3-0.9c0.1,0.6,0.6,1,1.2,1c0.7,0,1.5-0.5,1.9-1.1
			C155,20.6,155,20.3,155,20.3z M152.7,19.7c0.4-1,1.2-1.6,1.4-1.4c0.1,0.1-0.1,0.7-0.4,1.1c-0.3,0.4-0.7,0.8-1.1,0.5
			C152.6,19.8,152.7,19.7,152.7,19.7z M128,20.4c-0.5,0.9-1,1.3-1.3,1.1c-0.2-0.2-0.1-1.2,0.3-2c0.2-0.4,0.5-0.7,0.7-1
			c0,0.4,0.3,0.8,0.6,1C128.3,19.8,128.2,20.1,128,20.4z M128.4,19.3c-0.2-0.2-0.3-0.5-0.2-0.7c0-0.3,0.2-0.4,0.3,0
			C128.5,18.7,128.5,19,128.4,19.3z M135.8,21.5c-0.3-0.2-0.2-0.9,0-1.5c0.1-0.2,0.2-0.4,0.3-0.6c0.4-0.8,1-1.3,1.3-1.2
			c0.2,0.1,0.1,1-0.2,1.8C136.7,21,136.1,21.7,135.8,21.5z M139.3,21.6c-0.4,0-0.2-0.9,0.3-1.8c0.5-0.9,1.2-1.6,1.5-1.6
			c0.3,0,0.2,0.7-0.4,1.8C140.2,21,139.7,21.7,139.3,21.6z M142,25.1c-0.2-0.2,0.3-1.7,1.5-2.5C142.9,24.2,142.2,25.3,142,25.1z
			 M143.1,21.7c-0.4,0-0.3-0.9,0.2-1.8c0.5-0.9,1.2-1.6,1.5-1.5c0.3,0,0.2,0.7-0.4,1.8C144,21,143.5,21.7,143.1,21.7z"/>
	</g>
	<g>
		<path class="st2" d="M157.1,37.8c0.4-0.2,0.8-0.5,1.1-0.8c-2.4,1.7-6,2.1-9.5,1.9c-3.6-0.2-7.5-1.5-10.8-3
			c-3.1-1.4-5.8-2.9-8.8-3.8c-0.7-0.4-1.5-0.8-2.2-1.1c-1.5-0.7-3-1.5-4.6-2.1c-0.4-0.1-0.8-0.3-1.2-0.5c-0.5-0.2-1-0.3-1.5-0.4
			c0,0-0.1,0-0.1,0c-0.4-0.1-0.8-0.3-1.2-0.5c-0.4-0.1-0.7-0.2-1.1-0.4c-0.1-0.1-0.2-0.1-0.3-0.3l0-0.1l-0.1,0.1c-0.1-0.1,0,0-0.1,0
			l-0.2-0.1c0,0,0,0.1,0.1,0.1c0,0.1-0.1,0-0.2,0c0,0,0,0.1,0,0.1c-1.3-0.2-2.8-0.2-4.7,0.8c0.4,0.4,1.3,0.5,1.6,1
			c-0.5,0.1-1,0.2-1.4,0.2c0.2,0.1,0.3,0.4,0.7,0.4c-0.3,0-0.7,0-1.1,0.2c0.2,0.2,1,0.1,1.4,0.1c0.2,0,1.5-0.2,1.5,0
			c-1,0.2-2,0.3-3,0.6c0.1,0.1,0.3,0.2,0.4,0.3c-0.4,0.1-0.9,0-1.4,0.2c0.4,0.2,0.9,0.3,1.3,0.5c0.3,0.2,0.5,0.4,1,0.5
			c-0.6,0-1.3-0.1-2,0.1c0,0.2,0.3,0.3,0.5,0.3c-0.1,0-0.1,0.1-0.2,0.1c0.1,0,0.1,0.2,0.2,0.2c0,0-0.1,0.1-0.1,0.1l0,0l6,1.3
			c0.2,0.3,0.3,0.6,0.9,0.7c0.6,0,1,0.3,1.3,0.7c0.4,0.3,0.7,0.7,1.3,0.7c2.2,0.3,4.5,0.3,6.1,1.2c1.5,0.9,2.5,0.2,4.2,0.8
			c1.7,0.6,2.1,1.4,3.8,2.3c2,1.1,7.1,0.7,9,0.7c1.4,0,4.2,0.4,5.4-0.3c-1.6,0.2-3.2,0-4.7-0.3c3.4,0,6.9-0.1,9.9-0.8
			c-2.9,0.6-6,0.7-9,0.3c-2.9-0.4-6.8-1.1-9.2-3.6c3.3,1.5,7.6,2.6,11.3,2.8C150.7,39.4,154.5,39.1,157.1,37.8z"/>
		<path class="st10" d="M127,34.9c0.2,0.1-0.1,0.2-0.1,0.3c0.1,0,0.1-0.2,0.2-0.1c0,0.1-0.1,0.2-0.2,0.2l0,0c0.2,0,0.4-0.3,0.6-0.1
			c-0.1,0,0,0.2,0,0.2c0.2-0.1,0.4,0,0.6-0.1l0,0.1c0.2,0,0.3-0.2,0.5-0.3c0,0.3,0.3-0.1,0.4,0c0-0.2,0.1-0.3,0.2-0.3
			c0.1-0.2,0.2-0.6,0.1-0.8c0-0.2-0.1-0.1-0.3-0.3l0,0.1c0,0-0.2-0.1-0.1-0.1c-0.1,0-0.2,0-0.3,0c-0.1-0.1-0.2-0.2-0.3-0.1
			c0,0-0.1,0-0.1-0.1c-0.1,0-0.1,0-0.2,0c-0.3,0.1-0.5,0.2-0.9,0.2l0.1,0l0,0.1l-0.3-0.1c0.1,0.1,0.3,0.1,0.3,0.2
			c0,0.1-0.2,0.1-0.2,0.1l0.1,0c0,0.1-0.2,0.1-0.3,0.2c0.2,0.1,0.2,0.2,0.1,0.4l-0.3,0.2C126.7,34.8,126.9,34.8,127,34.9z"/>
		<path class="st12" d="M139.7,34.9L139.7,34.9c0,0,0.1,0.1,0.2,0.1c0,0.1,0,0.1-0.1,0.1l0,0c0,0,0.2-0.1,0.2,0.1l0,0
			c0.2-0.2,0.4,0,0.6-0.1c0.3,0.1,0.4-0.2,0.5-0.3c-0.1-0.1,0-0.2,0-0.3l-0.3-0.5c-0.1,0-0.2-0.1-0.3-0.1c0.1-0.1,0.2-0.3,0.1-0.5
			c-0.1-0.3-0.3-0.2-0.5-0.3c-0.1,0.1-0.2,0.1-0.4,0.1l-0.1,0c0.2,0.1-0.1,0.2-0.2,0.4l-0.1,0c0.1,0,0.1,0,0.2,0l-0.2,0.1
			c0,0,0.1,0,0.1,0l0,0.1c0,0,0.1,0,0.1,0c0,0,0,0.1,0,0.1l0.1,0c0,0.1-0.1,0.2,0,0.2l-0.2,0.2l0.1,0c0,0.1,0,0.1-0.1,0.1l0,0l0.1,0
			l-0.2,0.1C139.5,34.8,139.8,34.7,139.7,34.9z"/>
		<path class="st12" d="M124.7,33.3L124.7,33.3c0,0.1,0.2-0.2,0.4-0.1c0.5-0.5-0.6-0.8,0.2-1.3c-0.3-0.3,0-0.8-0.5-1
			c-0.4-0.1-0.7,0.3-0.9,0.6l-0.2,0.5c0.1,0,0.1,0.1,0.1,0.2l0,0.2c0.4-0.1,0.1,0.3,0.3,0.5l0-0.1c0.4,0.1,0.1,0.4,0.4,0.6l0,0.2
			C124.4,33.6,124.5,33.4,124.7,33.3z"/>
		<path class="st9" d="M130.9,38.2C130.8,38.3,131,38.2,130.9,38.2c0.2,0,0.3,0.2,0.4,0.1l0,0c0.1-0.2,0.3,0.2,0.5-0.2
			c0.2,0.1,0.1-0.3,0.3-0.3c0-0.3,0-0.4-0.3-0.6c-0.2-0.1-0.1,0-0.4-0.1l-0.1,0c0.1,0.2-0.3-0.1-0.2,0.1c-0.1,0-0.2,0-0.3,0.1
			c0,0,0.1,0,0.1,0.1c0,0.1-0.1,0.1-0.2,0.1l0.1,0.1l-0.1,0.1c0,0,0.1,0,0.1,0.1l-0.1,0.1C130.7,38.2,131,38,130.9,38.2z"/>
		<polygon class="st10" points="129.5,37.8 129.3,37.9 129.4,37.9 		"/>
		<path class="st7" d="M131.3,31.6L131.3,31.6c0.1,0,0.2,0.1,0.3,0.2c0.2-0.1,0.5-0.3,0.4-0.5l-0.3-0.3c-0.1,0.1-0.3,0-0.4,0
			c0.1,0.1-0.2,0.2-0.1,0.2l0.1,0c-0.1,0.1-0.1,0.2-0.2,0.3C131.2,31.5,131.3,31.5,131.3,31.6z"/>
		<polygon class="st10" points="131.2,31.4 131.2,31.4 131.3,31.4 131.3,31.3 		"/>
		<path class="st10" d="M135.5,38.4c0.1-0.1,0.3-0.1,0.2-0.3c-0.1-0.1-0.3-0.4-0.5-0.2l-0.1,0l-0.1,0.2c0.1,0,0,0.2,0.2,0.3
			C135.3,38.3,135.4,38.3,135.5,38.4z"/>
		<path class="st10" d="M135.9,37.7l0.2,0L135.9,37.7z"/>
		<polygon class="st10" points="136.4,37.6 136.2,37.6 136.2,37.7 136.2,37.7 136.2,37.7 		"/>
		<path class="st10" d="M136.9,37.7C136.8,37.7,136.8,37.7,136.9,37.7c0,0,0,0,0.1,0l-0.1,0.1c0.1,0,0.2,0,0.3,0.1l0,0
			c0.3,0.1,0.5-0.1,0.7-0.2c0.1-0.2,0.1-0.4,0.3-0.5c0-0.1-0.2,0-0.1-0.1c0.1-0.1,0-0.3-0.1-0.5c-0.2,0-0.2-0.1-0.4-0.2
			c-0.1,0-0.2,0.1-0.2-0.1l0,0.1c-0.1,0-0.1-0.1-0.2-0.2l-0.1,0.2c-0.1-0.1-0.3,0.1-0.4,0.1c0,0.2-0.3,0.1-0.4,0.1
			c0,0.1,0.3,0.2,0.3,0.4c0,0-0.1,0-0.1,0c-0.1,0.2,0.3,0.1,0.2,0.3l-0.4-0.1C136.5,37.3,136.8,37.3,136.9,37.7z"/>
		<path class="st10" d="M136.6,37.6l0.1,0L136.6,37.6z"/>
		<polygon class="st10" points="137,35.9 136.9,35.9 137,36 		"/>
	</g>
	<path class="st4" d="M160.3,13.1c-0.1-0.5-0.5-0.8-0.5-1.3c0-0.4,1.1-1,1.1-1.2c0-0.2-0.4-0.7-0.7-0.7c-0.4,0-1.2,0.7-1.2,1.3
		c0,0.3,0.1,0.5,0.2,0.7c-0.4,0.4-0.6,0.7-0.6,0.7c0,0,0,0,0,0s-0.4,0.4-0.9,0.8c0,0-0.1,0-0.1,0c-0.1,0.1-0.2,0.1-0.3,0.2
		c-0.4,0.3-0.8,0.5-1.1,0.5c-0.4,0-0.6-0.4-0.6-0.8c0-0.1,0-0.5,0-0.6c0.9-0.6,1.8-1.4,1.8-1.7c0-0.2-0.2-0.7-0.7-0.7
		c-0.7,0-2.1,1.4-2.2,2.7c-0.6,0.5-1.7,1.3-2.2,1.3c-0.1,0-0.3-0.1-0.3-0.4c0-0.7,0.4-1.6,0.4-1.6c1.5-1.4,4-4.3,4-5.2
		c0-0.4-0.3-0.9-0.9-0.9c-1.1,0-3.7,3.9-4.3,6.6c-0.6,0.5-1.7,1.7-2.2,1.7c-0.1,0-0.3-0.1-0.3-0.4c0-0.7,0.4-1.7,0.4-1.7
		c1.6-1.4,3.8-3.9,3.8-4.9c0-0.4-0.3-0.9-0.9-0.9c-1.2,0-3.5,3.2-4.1,6c0,0,0,0,0,0s-1.6,1.5-2.4,1.5c-0.4,0-0.6-0.4-0.6-0.8
		c0-0.1,0-0.5,0-0.6c0.9-0.6,1.8-1.4,1.8-1.7c0-0.2-0.2-0.7-0.7-0.7c-0.7,0-2.1,1.4-2.2,2.8c-0.6,0.5-1.5,1.2-2.2,1.2
		c-0.1,0-0.2-0.1-0.2-0.2c0-0.8,1.3-2,1.3-2.1c0-0.2-0.3-0.8-0.6-0.8c-0.6,0-2.1,1-2.7,1.4c0.4-0.6,0.6-1,0.6-1.2
		c0-0.4-0.5-0.9-0.8-0.9c-0.1,0-0.2,0.1-0.2,0.2c0,0.5-0.6,1.4-1.1,2.2c-0.6,0.5-1.7,1.4-2.4,1.4c-0.1,0-0.2,0-0.2-0.2
		c0-0.6,1.8-2.7,1.8-3c0-0.3-0.4-0.7-0.8-0.7c-0.2,0-0.3,0.1-0.3,0.2c-0.2,0.5-0.9,1.5-1.3,2.2c-0.6,0.5-2.1,1.7-3.1,1.7
		c-0.3,0-0.5-0.2-0.5-0.6c0-1.4,1.5-2.8,2.3-2.8c0.1,0,0.1,0.1,0.1,0.1c0,0.2-0.2,0.5-0.4,0.7c0,0,0,0.1,0,0.1s0,0,0,0
		c0.1,0,0.3,0,0.3,0c0.3-0.3,0.4-0.6,0.4-0.8c0-0.4-0.4-0.7-0.8-0.7c-0.9,0-2.3,1.2-2.7,2.5c-0.7,0.6-2,1.6-2.9,1.6
		c-0.3,0-0.5-0.2-0.5-0.6c0-1.4,1.5-2.8,2.3-2.8c0.1,0,0.1,0.1,0.1,0.1c0,0.2-0.2,0.5-0.4,0.7c0,0,0,0.1,0,0.1c0,0,0,0,0,0
		c0.1,0,0.3,0,0.3,0c0.3-0.3,0.4-0.6,0.4-0.8c0-0.4-0.4-0.7-0.8-0.7c-0.7,0-1.6,0.7-2.3,1.6c-0.1,0-0.6,0.2-1.1,0.1
		c0-0.1,0.1-0.3,0.2-0.9c0-0.7-0.6-1.1-1.3-1.1c-0.8,0-2.6,0.8-2.8,2.9c-1.5,1.4-3.5,2.6-5.8,2.6c-1.4,0-2.2-0.5-2.2-1.8
		c0-3.9,6.4-8.8,9.5-8.8c0.6,0,0.9,0.2,0.9,0.5c0,1.2-2.2,2.6-3.2,2.8c-0.1,0-0.1,0.1-0.1,0.1c0,0.1,0.5,0.4,0.9,0.4
		c0.4,0,2.8-2,2.8-3.2c0-0.6-0.5-1.7-1.7-1.7c-3.7,0-10.2,5-10.2,9.1c0,1.6,1.8,2.9,3.4,2.9c2,0,4.4-1.6,5.8-2.8c0,0,0,0.1,0,0.1
		c0,0.7,1,1.1,1.4,1.1c0.2,0,1.1-0.1,2.4-2.1c0,0,0.1,0,0.2,0c0,0,0,0,0,0c0.3,0,0.6,0,0.8,0c-0.2,0.4-0.4,0.9-0.4,1.4
		c0,0.7,0.6,1.1,1.3,1.1c0.9,0,2.3-1.1,3-1.7c0,0.2-0.1,0.4-0.1,0.6c0,0.7,0.6,1.1,1.3,1.1c1,0,2.4-1.2,3.1-1.8
		c-0.1,0.2-0.2,0.5-0.2,0.6c0,0.5,0.6,0.9,0.9,0.9c0.7,0,1.7-0.7,2.3-1.3c-0.2,0.4-0.4,0.6-0.4,0.7c0,0.3,0.4,0.8,0.5,0.8
		s0.3-0.8,1.3-1.7c0.9-0.8,2-1.3,2.1-1.3c0,0,0,0,0,0c0,0.1-0.7,1-0.7,1.7c0,0.5,0.6,1.1,1,1.1c0.6,0,1.6-0.9,2.2-1.4
		c0,0.8,0.5,1.3,1.3,1.3c1.1,0,2.5-1.4,2.8-1.7c-0.1,0.4-0.1,0.7-0.1,1.1c0,0.7,0.5,1,0.9,1c0.6,0,1.8-1.2,2.4-1.8
		c0,0.2-0.1,0.4-0.1,0.6c0,0.7,0.5,1,0.9,1c0.6,0,1.8-1,2.5-1.5c0,0.8,0.5,1.3,1.3,1.3c0.5,0,1.1-0.3,1.5-0.6c0.1,0.4,0.7,1,1.5,1
		c0.8,0,1.6-0.6,1.6-1.3c0-0.1,0-0.2,0-0.2c0.3,0.1,0.4,0.3,0.5,0.3c0.1,0,0.2-0.1,0.2-0.2C161,13.3,160.8,13.1,160.3,13.1z
		 M156.9,10.9c0.1,0,0.1,0.1,0.1,0.1c0,0.3-0.7,1-1.3,1.5C156.2,11.3,156.7,10.9,156.9,10.9z M155.8,6.9c0.1,0,0.1,0.1,0.1,0.1
		c0,0.9-2.3,3.6-3.5,4.8C153,10.3,155,6.9,155.8,6.9z M152.4,7.3c0.1,0,0.1,0.1,0.1,0.1c0,0.9-2.1,3.2-3.3,4.4
		C149.8,10.3,151.6,7.3,152.4,7.3z M146.3,10.8c0.1,0,0.1,0.1,0.1,0.1c0,0.3-0.7,1-1.3,1.5C145.5,11.3,146,10.8,146.3,10.8z
		 M123,14.2c-0.2,0-0.5-0.3-0.5-0.7c-0.1-0.3,0.1-1.6,0.7-2.2c0,0,0,0,0,0c0.2,0.2,0.6,0.7,2,0.9C124.7,13.3,123.7,14.3,123,14.2z
		 M125.2,12c-0.3-0.1-0.9-0.3-1.2-0.6c-0.1-0.1-0.2-0.3-0.3-0.4c0-0.3,0.2-0.6,0.7-0.6c0.5,0,0.8,0.3,0.9,0.8
		C125.3,11.6,125.2,12,125.2,12z M158.4,14c-0.5,0-0.8-0.1-0.8-0.3c0,0,0-0.1,0.1-0.1c0.3-0.1,0.8-0.3,1.6-0.4
		C159.2,13.6,159,14,158.4,14z M159.4,13c-0.4,0-0.9,0.2-1.3,0.2c0.3-0.3,0.5-0.5,0.5-0.5c0,0,0,0,0,0c0,0,0.3-0.3,0.7-0.7
		c0.1,0.2,0.1,0.4,0.1,0.8C159.4,12.9,159.4,13,159.4,13z"/>
	<path class="st11" d="M139.6,5.4c0.1,0,0.1-0.1,0.1-0.2c-0.2,0-0.2,0.1-0.4,0.1l0.2-0.4c-0.3,0.2-0.6,0.1-1,0l0-0.1
		c-0.8,0-1.4,0.6-1.8,1.2c-0.1,0.5,0,1.3-0.6,1.6c0.1,0.4,0.5-0.1,0.4,0.3c-0.1,0.4,0.3,0.9,0.5,1.4c0.7-0.1,0.8,0.2,1.3,0.5
		c0.2,0,0.6-0.3,0.7,0.1l0-0.4c0.4-0.1,0.5,0.3,0.7,0.5l0-0.6c0.5,0.1,0.9-0.4,1.2-0.5c-0.1-0.7,0.8-0.6,1.2-0.5
		c-0.1-0.4-1.1-0.2-1.1-0.9c0.1,0,0.2,0.1,0.3,0c0-0.6-0.9-0.1-0.7-0.7l1.2-0.1C140.9,6.2,140.1,6.4,139.6,5.4z"/>
</g>
<g id="Groupe_484" transform="translate(318.389 256.794)">
	<g id="Groupe_483">
		<path id="Tracé_5588" class="st4" d="M-301.7-243.3c1.2-1.6,1.6-3.7,1.1-5.7c-0.2-1.8-1.9-3-3.6-2.8c0,0,0,0-0.1,0
			c-2.1,0.1-4.9,1.8-7.1,2c-0.4,0-0.5,0.2-0.3,0.6c0.4,0.8,1.2,1.4,2.1,1.4c-2.4,4-4.4,8.2-6,12.6c-0.7,2.2-0.4,2.7,0.1,3.5
			c0.4,0.6,0.9,1.2,1.6,1.6c0.8,0.4,1.8,0.4,2.6,0.2c2.1-0.5,4-1.6,5.5-3.2c1.2-1.3,1.5-3.1,0.7-4.7c-0.4-0.6-0.9-1.1-1.5-1.4
			C-304.6-240.2-302.9-241.6-301.7-243.3z M-306.9-235.2c-1.5,1.8-3.7,3.1-6,3.5c-1,0.1-1.3-0.3-1-1.5c0.5-1.8,1.2-3.6,2.1-5.3
			c0.6,0.3,1.3,0.4,1.9,0.2c0.4-0.1,0.9-0.1,1.3-0.2C-305.7-238.3-305.7-236.8-306.9-235.2L-306.9-235.2z M-311-240.2
			c0.9-1.7,1.8-3.3,2.4-4.6c0.6-1,0.9-2.2,0.9-3.3c2.2-0.7,5.2-2.3,5.9-0.5C-300.9-246.4-304.8-241.8-311-240.2L-311-240.2z"/>
		<path id="Tracé_5589" class="st4" d="M-265.5-243.7c0.5-0.7,0.6-1.5,0.2-2.3c-0.4-0.9-1.3-1.3-1.8-0.7c-0.6,0.7-0.6,1.7-0.2,2.5
			C-266.8-243.4-265.9-243.3-265.5-243.7z"/>
		<path id="Tracé_5590" class="st4" d="M-254.2-243.4c-0.2-0.4-0.4-0.5-0.8-0.1c-0.5,0.7-1,1.4-1.3,2.2c0.1-1.3-0.5-2.5-1.9-2.5
			c-1.6,0-4.1,1.6-6.6,5.5c-0.6,0.9-1,1.9-1.3,3c-1,2.3-2.6,4.4-4,4.4c-1,0.1-1.1-1.3-0.3-3.2c0.7-1.7,2-4,2.6-5.5
			c0.7-1.7,0.5-3.2,0-3.7c-0.2-0.3-0.5-0.2-0.7,0.2c-1.6,2.6-3,5.4-4,8.3c-0.1,0.3-0.2,0.6-0.2,0.9c-1.1,1.8-2.3,3.2-3.4,3.1
			c-1.3-0.1-1.7-2.2-0.6-4.7c1.2-2.9,3-6.2,4.2-8.4c0.8-0.2,1.6-0.2,2.4-0.1c0.5,0,0.6-0.2,0.4-0.6c-0.4-0.7-1.1-1.1-1.9-1
			c0.6-1.2,0.8-2.6,0.4-3.8c-0.2-0.4-0.5-0.4-0.7,0c-0.9,1.4-1.7,2.8-2.4,4.2c-0.9,0.1-1.7,0.2-2.6,0.1c-0.5,0-0.7,0.2-0.3,0.7
			c0.5,0.6,1.2,0.9,2,0.9c-1.3,2.7-2.7,5.5-3.3,7.3c-0.2,0.5-0.3,1-0.4,1.5c-1.1,2.1-2.6,4-3.7,4c-1.1,0.1-1.2-1.3-0.4-3.3
			c0.7-1.8,2.2-4.3,2.9-5.8c0.6-1.2,0.7-2.6,0-3.8c-0.2-0.3-0.5-0.2-0.8,0.2c-1,1.5-1.9,3.8-3.8,7.3c-1.7,3-3.4,5.3-4.6,5.2
			c-0.7-0.1-0.8-1.3-0.2-2.9c0.7-1.7,1.5-3.4,2.4-5c1.1-2,1.3-3.4,0.6-4.6c-0.2-0.3-0.5-0.3-0.8,0c-0.4,0.6-0.9,1.3-1.2,1.9
			c-1.1,1.9-2.8,3.5-4.6,3.5c0-0.2,0.1-0.5,0.1-0.7c0.2-2.5-0.7-2.7-1.5-3.7c-0.4-0.8-1.2-1.3-2.1-1.2c-1.9,0.1-3.8,2-5,4.4
			c-1.4,2.7-1.8,5.7-0.5,7.7c0.8,1.4,2.5,2,4,1.5c2.2-0.8,4.1-4.2,4.8-7c1,0.1,1.9-0.1,2.8-0.6c-0.5,0.9-0.9,1.9-1.2,2.9
			c-0.7,2.2-0.6,4.7,1.6,4.9c1.8,0.2,3.4-1.6,4.5-3.2c-0.2,2,0.5,3.3,2.6,3.3c1.7-0.2,3.2-1.1,4-2.6c0.2,1.4,1.3,2.4,2.7,2.5
			c1.4-0.1,2.8-0.8,3.6-1.9c0.2,1.2,1.2,2,2.4,1.9c1.7-0.1,3.2-1.1,4-2.5c0.2,1.5,1.1,2.5,2.5,2.5c0.8,0,1.6-0.3,2.2-0.9
			c-0.9,1.9-1.6,3.8-2.2,5.8c-0.5,1.9-0.2,2.6,0.3,3.1c0.2,0.3,0.4,0.2,0.6-0.1c2.4-5.9,5.1-11.6,8.1-17.2
			C-253.9-241.1-253.8-242.6-254.2-243.4z M-296.4-235.1c-1.6,3.1-3.5,4.3-4.3,3.5s-0.4-3.9,0.9-6.4c0.6-1.2,1.4-2.3,2.4-3.2
			c0.1,1.4,0.8,2.6,2,3.4C-295.6-236.9-296-235.9-296.4-235.1L-296.4-235.1z M-295.1-238.8c-0.6-0.6-0.8-1.5-0.7-2.3
			c0.1-1,0.8-1.2,0.9-0.1C-294.8-240.4-294.9-239.6-295.1-238.8L-295.1-238.8z M-259-236.1c-1.6,3-3.2,5.2-4.5,5.2
			c-1.2,0-0.8-3.1,0.8-6c1.7-3,4-5.2,5-5.1C-256.8-242-257.1-239.9-259-236.1L-259-236.1z"/>
		<path id="Tracé_5591" class="st4" d="M-231.2-235.6c-0.1-0.3-0.4-0.3-0.5,0c-1.3,2.2-3.6,5-6.2,4.8c-1.7-0.1-2.4-2.2-1.4-5.4
			c2.2,1.9,4.3,1.1,5.8-1c1.3-1.7,1.6-3.8,1-4.6c-0.5-0.7-1.1-1.3-1.8-1.8c-1.6-1-4.7,0.8-6.8,5.2c-0.5,1.1-0.8,2.3-0.9,3.5
			c-1.2,2.1-2.6,4-3.8,4c-1.1,0.1-1.2-1.4-0.4-3.3c0.7-1.7,2.3-4.3,3-5.8c0.6-1.2,0.7-2.6,0-3.8c-0.2-0.3-0.5-0.3-0.8,0.2
			c-1,1.5-1.9,3.8-3.9,7.3c-1.7,3-3.4,5.3-4.6,5.2c-0.7-0.1-0.8-1.3-0.2-3c0.7-1.7,1.5-3.4,2.4-5c1.1-1.9,1.3-3.5,0.6-4.6
			c-0.1-0.2-0.4-0.3-0.6-0.2c-0.1,0-0.2,0.1-0.2,0.2c-1.8,2.7-3.2,5.6-4.3,8.7c-0.7,2.2-0.6,4.8,1.6,4.9c1.7,0.1,3.4-1.6,4.5-3.2
			c-0.2,2,0.6,3.4,2.6,3.4c1.6,0,3.3-1.3,4.3-2.9c0.5,1.8,2.1,3,4,2.9c2.5-0.2,4.8-1.5,6.1-3.7
			C-231.3-234.1-231.1-234.9-231.2-235.6z M-238.8-237.5c1.5-3.2,4.1-5.3,4.7-4.7c0.4,0.4-0.2,2.1-1.2,3.6c-0.9,1.3-2.2,2.8-3.7,1.7
			C-239-237.1-238.9-237.3-238.8-237.5L-238.8-237.5z"/>
	</g>
</g>
</svg>
