<?xml version="1.0" encoding="utf-8"?>
<!-- Generator: Adobe Illustrator 24.0.2, SVG Export Plug-In . SVG Version: 6.00 Build 0)  -->
<svg version="1.1" id="Calque_1" xmlns="http://www.w3.org/2000/svg" xmlns:xlink="http://www.w3.org/1999/xlink" x="0px" y="0px"
	 viewBox="0 0 28.3 22.6" style="enable-background:new 0 0 28.3 22.6;" xml:space="preserve">
<style type="text/css">
	.st0{fill:#FFFFFF;}
</style>
<g id="Calque_10">
	<g id="Groupe_3">
		<g id="Groupe_528">
			<path id="Tracé_5769" class="st0" d="M9,5.8H5.8L11,0.5c0.4-0.4,1.2-0.4,1.6,0c0,0,0,0,0,0c0.2,0.2,0.3,0.5,0.3,0.8
				c0,0.3-0.1,0.6-0.3,0.8L9,5.8z M19.2,5.8h3.2l-5.3-5.3c-0.4-0.4-1.2-0.4-1.6,0c0,0,0,0,0,0c-0.2,0.2-0.3,0.5-0.3,0.8
				c0,0.3,0.1,0.6,0.3,0.8L19.2,5.8z M0.7,8v2.3h0.7c0.7,0,1.3,0.5,1.5,1.1h22.4c0.2-0.7,0.8-1.1,1.5-1.1h0.7V8H0.7z M6,19.2
				l1.3,3.4h13.5l1.3-3.4H6z"/>
			<path id="Tracé_5770" class="st0" d="M20,15.3L20,15.3c0,0.7,0.4,1.3,0.9,1.5l2.5,0.1l1.2-3L21,13.8C20.4,14,20,14.6,20,15.3z"
				/>
			<path id="Tracé_5771" class="st0" d="M17,15.4v-0.1c0-0.7-0.4-1.3-1.1-1.5h-3.4c-0.6,0.2-1.1,0.8-1.1,1.5v0.1
				c0,0.6,0.4,1.2,0.9,1.4H16C16.6,16.6,17,16,17,15.4z"/>
			<path id="Tracé_5774" class="st0" d="M8.1,15.3L8.1,15.3c0,0.7-0.4,1.3-0.9,1.5l-2.5,0.1l-1.2-3l3.6-0.1
				C7.7,14,8.2,14.6,8.1,15.3z"/>
		</g>
	</g>
</g>
</svg>
