<?xml version="1.0" encoding="utf-8"?>
<!-- Generator: Adobe Illustrator 25.2.0, SVG Export Plug-In . SVG Version: 6.00 Build 0)  -->
<svg version="1.1" id="Calque_1" xmlns="http://www.w3.org/2000/svg" xmlns:xlink="http://www.w3.org/1999/xlink" x="0px" y="0px"
	 viewBox="0 0 47 47" style="enable-background:new 0 0 47 47;" xml:space="preserve">
<style type="text/css">
	.st0{fill:#4A0D17;}
</style>
<path id="Tracé_5796" class="st0" d="M39.6,34.3c-1.8-0.7-3.6-1.3-5.4-1.7c0-0.1,0-0.2,0.1-0.3H12.8c0,0.1,0,0.2,0.1,0.3
	c-1.8,0.4-3.6,1-5.4,1.7c-0.4-0.7-0.9-1.4-1.2-2.1H2C5.5,41,14,46.8,23.5,46.8c9.5,0,18-5.8,21.5-14.5h-4.2
	C40.4,32.9,40,33.6,39.6,34.3z M10,37.4c1.3-0.5,2.6-0.8,3.9-1.2c0.6,1.8,1.5,3.6,2.4,5.2C14,40.6,11.9,39.2,10,37.4z M21.6,42.3
	c-1.6-2-2.9-4.3-3.8-6.7c1.2-0.2,2.5-0.3,3.8-0.3L21.6,42.3z M25.4,42.3v-7c1.3,0.1,2.5,0.2,3.8,0.3C28.3,38,27.1,40.3,25.4,42.3z
	 M30.7,41.5c1-1.7,1.8-3.4,2.4-5.2c1.3,0.3,2.6,0.7,3.9,1.2C35.1,39.2,33,40.6,30.7,41.5z"/>
<path id="Tracé_5797" class="st0" d="M7.4,12.9c1.8,0.7,3.6,1.3,5.4,1.8c-0.3,1.2-0.5,2.5-0.7,3.7h3.9c0.1-1,0.3-2,0.6-3
	c1.6,0.2,3.3,0.4,4.9,0.4v2.6h3.9v-2.6c1.6-0.1,3.3-0.2,4.9-0.4c0.2,1,0.4,2,0.6,3h3.9c-0.2-1.3-0.4-2.5-0.7-3.7
	c1.9-0.4,3.7-1,5.4-1.8c1.1,1.7,1.9,3.5,2.5,5.5h4c-2.4-10.5-11.8-18-22.6-18c-10.8,0-20.2,7.5-22.6,18h4
	C5.5,16.5,6.3,14.6,7.4,12.9z M37,9.8c-1.3,0.5-2.6,0.9-3.9,1.2c-0.6-1.9-1.5-3.6-2.5-5.3C33,6.6,35.2,8,37,9.8z M25.4,4.9
	c1.6,2,2.9,4.3,3.8,6.8c-1.2,0.2-2.5,0.3-3.8,0.3V4.9z M21.6,4.9V12c-1.3-0.1-2.6-0.2-3.8-0.3C18.6,9.2,19.9,6.9,21.6,4.9z
	 M16.3,5.6c-1,1.7-1.8,3.5-2.5,5.3c-1.3-0.3-2.6-0.7-3.9-1.2C11.8,8,14,6.6,16.3,5.6z"/>
<g id="Groupe_592" transform="translate(0.611 20.622)">
	<path id="Tracé_5798" class="st0" d="M3.8,0.4l0.7,3.8c0.2,1,0.4,2,0.5,3h0c0.2-1.1,0.5-2.1,0.7-3l1-3.8h2.3L10,4.1
		c0.2,1,0.5,2.1,0.7,3.1h0C10.8,6.1,11,5.1,11.2,4L12,0.4h2.8L12,9.6H9.3L8.4,6.4C8.2,5.5,8,4.6,7.9,3.5h0c-0.1,1-0.3,1.9-0.6,2.9
		L6.3,9.6H3.6L0.9,0.4H3.8z"/>
	<path id="Tracé_5799" class="st0" d="M18.5,0.4l0.7,3.8c0.2,1,0.4,2,0.5,3h0c0.2-1.1,0.5-2.1,0.7-3l1-3.8h2.3l0.9,3.7
		c0.2,1,0.5,2.1,0.7,3.1h0c0.1-1.1,0.3-2.1,0.5-3.1l0.8-3.7h2.8l-2.8,9.2H24l-0.9-3.2c-0.2-0.9-0.4-1.7-0.6-2.9h0
		c-0.1,1-0.3,1.9-0.6,2.9L21,9.6h-2.7l-2.7-9.2L18.5,0.4z"/>
	<path id="Tracé_5800" class="st0" d="M33.2,0.4l0.7,3.8c0.2,1,0.4,2,0.5,3h0c0.2-1.1,0.5-2.1,0.7-3l1-3.8h2.3l0.9,3.7
		c0.2,1,0.5,2.1,0.7,3.1h0c0.1-1.1,0.3-2.1,0.5-3.1l0.8-3.7h2.8l-2.8,9.2h-2.7l-0.9-3.2c-0.2-0.9-0.4-1.7-0.6-2.9h0
		c-0.1,1-0.3,1.9-0.6,2.9l-0.9,3.2h-2.7l-2.7-9.2L33.2,0.4z"/>
</g>
</svg>
